%TF.GenerationSoftware,KiCad,Pcbnew,9.0.0*%
%TF.CreationDate,2025-06-23T21:36:03+01:00*%
%TF.ProjectId,TankHull,54616e6b-4875-46c6-9c2e-6b696361645f,rev?*%
%TF.SameCoordinates,Original*%
%TF.FileFunction,Copper,L1,Top*%
%TF.FilePolarity,Positive*%
%FSLAX46Y46*%
G04 Gerber Fmt 4.6, Leading zero omitted, Abs format (unit mm)*
G04 Created by KiCad (PCBNEW 9.0.0) date 2025-06-23 21:36:03*
%MOMM*%
%LPD*%
G01*
G04 APERTURE LIST*
G04 Aperture macros list*
%AMRoundRect*
0 Rectangle with rounded corners*
0 $1 Rounding radius*
0 $2 $3 $4 $5 $6 $7 $8 $9 X,Y pos of 4 corners*
0 Add a 4 corners polygon primitive as box body*
4,1,4,$2,$3,$4,$5,$6,$7,$8,$9,$2,$3,0*
0 Add four circle primitives for the rounded corners*
1,1,$1+$1,$2,$3*
1,1,$1+$1,$4,$5*
1,1,$1+$1,$6,$7*
1,1,$1+$1,$8,$9*
0 Add four rect primitives between the rounded corners*
20,1,$1+$1,$2,$3,$4,$5,0*
20,1,$1+$1,$4,$5,$6,$7,0*
20,1,$1+$1,$6,$7,$8,$9,0*
20,1,$1+$1,$8,$9,$2,$3,0*%
%AMHorizOval*
0 Thick line with rounded ends*
0 $1 width*
0 $2 $3 position (X,Y) of the first rounded end (center of the circle)*
0 $4 $5 position (X,Y) of the second rounded end (center of the circle)*
0 Add line between two ends*
20,1,$1,$2,$3,$4,$5,0*
0 Add two circle primitives to create the rounded ends*
1,1,$1,$2,$3*
1,1,$1,$4,$5*%
%AMRotRect*
0 Rectangle, with rotation*
0 The origin of the aperture is its center*
0 $1 length*
0 $2 width*
0 $3 Rotation angle, in degrees counterclockwise*
0 Add horizontal line*
21,1,$1,$2,0,0,$3*%
G04 Aperture macros list end*
%TA.AperFunction,ComponentPad*%
%ADD10R,1.700000X1.700000*%
%TD*%
%TA.AperFunction,ComponentPad*%
%ADD11O,1.700000X1.700000*%
%TD*%
%TA.AperFunction,ComponentPad*%
%ADD12RotRect,1.700000X1.700000X225.000000*%
%TD*%
%TA.AperFunction,ComponentPad*%
%ADD13HorizOval,1.700000X0.000000X0.000000X0.000000X0.000000X0*%
%TD*%
%TA.AperFunction,SMDPad,CuDef*%
%ADD14RotRect,0.900000X0.900000X135.000000*%
%TD*%
%TA.AperFunction,SMDPad,CuDef*%
%ADD15RotRect,1.500000X1.500000X135.000000*%
%TD*%
%TA.AperFunction,SMDPad,CuDef*%
%ADD16RoundRect,0.200000X0.200000X0.275000X-0.200000X0.275000X-0.200000X-0.275000X0.200000X-0.275000X0*%
%TD*%
%TA.AperFunction,ComponentPad*%
%ADD17RoundRect,0.250000X-0.750000X0.600000X-0.750000X-0.600000X0.750000X-0.600000X0.750000X0.600000X0*%
%TD*%
%TA.AperFunction,ComponentPad*%
%ADD18O,2.000000X1.700000*%
%TD*%
%TA.AperFunction,SMDPad,CuDef*%
%ADD19C,1.000000*%
%TD*%
%TA.AperFunction,SMDPad,CuDef*%
%ADD20RoundRect,0.200000X-0.200000X-0.275000X0.200000X-0.275000X0.200000X0.275000X-0.200000X0.275000X0*%
%TD*%
%TA.AperFunction,SMDPad,CuDef*%
%ADD21R,0.900000X0.900000*%
%TD*%
%TA.AperFunction,SMDPad,CuDef*%
%ADD22R,1.500000X1.500000*%
%TD*%
%TA.AperFunction,SMDPad,CuDef*%
%ADD23RoundRect,0.225000X-0.250000X0.225000X-0.250000X-0.225000X0.250000X-0.225000X0.250000X0.225000X0*%
%TD*%
%TA.AperFunction,SMDPad,CuDef*%
%ADD24RotRect,0.900000X0.900000X225.000000*%
%TD*%
%TA.AperFunction,SMDPad,CuDef*%
%ADD25RotRect,1.500000X1.500000X225.000000*%
%TD*%
%TA.AperFunction,SMDPad,CuDef*%
%ADD26RoundRect,0.200000X-0.275000X0.200000X-0.275000X-0.200000X0.275000X-0.200000X0.275000X0.200000X0*%
%TD*%
%TA.AperFunction,SMDPad,CuDef*%
%ADD27RoundRect,0.225000X0.250000X-0.225000X0.250000X0.225000X-0.250000X0.225000X-0.250000X-0.225000X0*%
%TD*%
%TA.AperFunction,SMDPad,CuDef*%
%ADD28RoundRect,0.225000X-0.225000X-0.250000X0.225000X-0.250000X0.225000X0.250000X-0.225000X0.250000X0*%
%TD*%
%TA.AperFunction,SMDPad,CuDef*%
%ADD29R,0.600000X1.200000*%
%TD*%
%TA.AperFunction,ComponentPad*%
%ADD30RoundRect,0.250000X0.625000X-0.350000X0.625000X0.350000X-0.625000X0.350000X-0.625000X-0.350000X0*%
%TD*%
%TA.AperFunction,ComponentPad*%
%ADD31O,1.750000X1.200000*%
%TD*%
%TA.AperFunction,SMDPad,CuDef*%
%ADD32RoundRect,0.100000X-0.637500X-0.100000X0.637500X-0.100000X0.637500X0.100000X-0.637500X0.100000X0*%
%TD*%
%TA.AperFunction,SMDPad,CuDef*%
%ADD33RoundRect,0.150000X0.512500X0.150000X-0.512500X0.150000X-0.512500X-0.150000X0.512500X-0.150000X0*%
%TD*%
%TA.AperFunction,SMDPad,CuDef*%
%ADD34RoundRect,0.100000X-0.687500X-0.100000X0.687500X-0.100000X0.687500X0.100000X-0.687500X0.100000X0*%
%TD*%
%TA.AperFunction,HeatsinkPad*%
%ADD35C,0.500000*%
%TD*%
%TA.AperFunction,HeatsinkPad*%
%ADD36R,3.400000X5.000000*%
%TD*%
%TA.AperFunction,SMDPad,CuDef*%
%ADD37RotRect,0.900000X0.900000X315.000000*%
%TD*%
%TA.AperFunction,SMDPad,CuDef*%
%ADD38RotRect,1.500000X1.500000X315.000000*%
%TD*%
%TA.AperFunction,ComponentPad*%
%ADD39RoundRect,0.250000X0.615000X-0.265000X0.615000X0.265000X-0.615000X0.265000X-0.615000X-0.265000X0*%
%TD*%
%TA.AperFunction,ComponentPad*%
%ADD40O,1.730000X1.030000*%
%TD*%
%TA.AperFunction,SMDPad,CuDef*%
%ADD41RoundRect,0.200000X-0.053033X0.335876X-0.335876X0.053033X0.053033X-0.335876X0.335876X-0.053033X0*%
%TD*%
%TA.AperFunction,SMDPad,CuDef*%
%ADD42RoundRect,0.200000X0.053033X-0.335876X0.335876X-0.053033X-0.053033X0.335876X-0.335876X0.053033X0*%
%TD*%
%TA.AperFunction,SMDPad,CuDef*%
%ADD43RoundRect,0.225000X0.225000X0.250000X-0.225000X0.250000X-0.225000X-0.250000X0.225000X-0.250000X0*%
%TD*%
%TA.AperFunction,SMDPad,CuDef*%
%ADD44RoundRect,0.250000X-0.550000X1.500000X-0.550000X-1.500000X0.550000X-1.500000X0.550000X1.500000X0*%
%TD*%
%TA.AperFunction,SMDPad,CuDef*%
%ADD45RoundRect,0.200000X0.275000X-0.200000X0.275000X0.200000X-0.275000X0.200000X-0.275000X-0.200000X0*%
%TD*%
%TA.AperFunction,SMDPad,CuDef*%
%ADD46RoundRect,0.250000X0.475000X-0.250000X0.475000X0.250000X-0.475000X0.250000X-0.475000X-0.250000X0*%
%TD*%
%TA.AperFunction,ComponentPad*%
%ADD47RoundRect,0.250000X0.600000X0.725000X-0.600000X0.725000X-0.600000X-0.725000X0.600000X-0.725000X0*%
%TD*%
%TA.AperFunction,ComponentPad*%
%ADD48O,1.700000X1.950000*%
%TD*%
%TA.AperFunction,SMDPad,CuDef*%
%ADD49RotRect,0.900000X0.900000X45.000000*%
%TD*%
%TA.AperFunction,SMDPad,CuDef*%
%ADD50RotRect,1.500000X1.500000X45.000000*%
%TD*%
%TA.AperFunction,SMDPad,CuDef*%
%ADD51R,3.500000X2.950000*%
%TD*%
%TA.AperFunction,SMDPad,CuDef*%
%ADD52RoundRect,0.200000X0.335876X0.053033X0.053033X0.335876X-0.335876X-0.053033X-0.053033X-0.335876X0*%
%TD*%
%TA.AperFunction,SMDPad,CuDef*%
%ADD53RoundRect,0.218750X-0.256250X0.218750X-0.256250X-0.218750X0.256250X-0.218750X0.256250X0.218750X0*%
%TD*%
%TA.AperFunction,ViaPad*%
%ADD54C,0.600000*%
%TD*%
%TA.AperFunction,Conductor*%
%ADD55C,0.300000*%
%TD*%
%TA.AperFunction,Conductor*%
%ADD56C,0.250000*%
%TD*%
%TA.AperFunction,Conductor*%
%ADD57C,1.000000*%
%TD*%
%TA.AperFunction,Conductor*%
%ADD58C,0.400000*%
%TD*%
%TA.AperFunction,Conductor*%
%ADD59C,0.700000*%
%TD*%
%TA.AperFunction,Conductor*%
%ADD60C,0.500000*%
%TD*%
%TA.AperFunction,Conductor*%
%ADD61C,0.800000*%
%TD*%
%TA.AperFunction,Conductor*%
%ADD62C,1.200000*%
%TD*%
%TA.AperFunction,Conductor*%
%ADD63C,0.200000*%
%TD*%
%TA.AperFunction,Conductor*%
%ADD64C,0.600000*%
%TD*%
G04 APERTURE END LIST*
D10*
%TO.P,J7,1,Pin_1*%
%TO.N,GND*%
X132650000Y-118325000D03*
D11*
%TO.P,J7,2,Pin_2*%
%TO.N,/SCL*%
X135190000Y-118325000D03*
%TO.P,J7,3,Pin_3*%
%TO.N,/SDA*%
X137730000Y-118325000D03*
%TO.P,J7,4,Pin_4*%
%TO.N,+3V3_HULL*%
X140270000Y-118325000D03*
%TO.P,J7,5,Pin_5*%
%TO.N,+BATT*%
X142810000Y-118325000D03*
%TD*%
D12*
%TO.P,J10,1,Pin_1*%
%TO.N,Net-(J10-Pin_1)*%
X152100000Y-90200000D03*
D13*
%TO.P,J10,2,Pin_2*%
%TO.N,/IR Transmit NE*%
X150303949Y-88403949D03*
%TD*%
D10*
%TO.P,J9,1,Pin_1*%
%TO.N,Net-(J9-Pin_1)*%
X152225000Y-118025000D03*
D11*
%TO.P,J9,2,Pin_2*%
%TO.N,/IR Transmit NW*%
X149685000Y-118025000D03*
%TD*%
D10*
%TO.P,J8,1,Pin_1*%
%TO.N,Net-(J8-Pin_1)*%
X154225000Y-107275000D03*
D11*
%TO.P,J8,2,Pin_2*%
%TO.N,/IR Transmit N*%
X151685000Y-107275000D03*
%TD*%
D14*
%TO.P,D3,1*%
%TO.N,N/C*%
X82060182Y-120579944D03*
D15*
%TO.P,D3,A*%
%TO.N,Net-(D3-PadA)*%
X80363126Y-119802126D03*
%TO.P,D3,C*%
%TO.N,GND*%
X82838000Y-122277000D03*
%TD*%
D16*
%TO.P,R7,1*%
%TO.N,Net-(J9-Pin_1)*%
X151800000Y-120875000D03*
%TO.P,R7,2*%
%TO.N,/IR Transmit NW*%
X150150000Y-120875000D03*
%TD*%
D17*
%TO.P,J2,1,Pin_1*%
%TO.N,/VBAT_RAW*%
X145542000Y-101600000D03*
D18*
%TO.P,J2,2,Pin_2*%
%TO.N,GND*%
X145542000Y-104100000D03*
%TD*%
D19*
%TO.P,TP6,1,1*%
%TO.N,/Left Drive Motor 1*%
X93450000Y-116450000D03*
%TD*%
D16*
%TO.P,R10,1*%
%TO.N,Net-(J8-Pin_1)*%
X154713000Y-104252000D03*
%TO.P,R10,2*%
%TO.N,/IR Transmit N*%
X153063000Y-104252000D03*
%TD*%
D20*
%TO.P,R17,1*%
%TO.N,+BATT*%
X150538000Y-112727000D03*
%TO.P,R17,2*%
%TO.N,Net-(D9-A)*%
X152188000Y-112727000D03*
%TD*%
D21*
%TO.P,D2,1*%
%TO.N,N/C*%
X118438000Y-121835000D03*
D22*
%TO.P,D2,A*%
%TO.N,Net-(D2-PadA)*%
X116688000Y-122485000D03*
%TO.P,D2,C*%
%TO.N,GND*%
X120188000Y-122485000D03*
%TD*%
D23*
%TO.P,C12,1*%
%TO.N,GND*%
X105338000Y-113827000D03*
%TO.P,C12,2*%
%TO.N,+BATT*%
X105338000Y-115377000D03*
%TD*%
D24*
%TO.P,D1,1*%
%TO.N,N/C*%
X154765818Y-120629944D03*
D25*
%TO.P,D1,A*%
%TO.N,Net-(J9-Pin_1)*%
X153988000Y-122327000D03*
%TO.P,D1,C*%
%TO.N,GND*%
X156462874Y-119852126D03*
%TD*%
D26*
%TO.P,R5,1*%
%TO.N,+3V3_HULL*%
X100663000Y-96427000D03*
%TO.P,R5,2*%
%TO.N,/Motors Sleep*%
X100663000Y-98077000D03*
%TD*%
D27*
%TO.P,C13,1*%
%TO.N,Net-(PS1-BS)*%
X116488000Y-92052000D03*
%TO.P,C13,2*%
%TO.N,Net-(PS1-LX)*%
X116488000Y-90502000D03*
%TD*%
D23*
%TO.P,C14,1*%
%TO.N,Net-(PS1-FB)*%
X118038000Y-94127000D03*
%TO.P,C14,2*%
%TO.N,+3V3_HULL*%
X118038000Y-95677000D03*
%TD*%
D26*
%TO.P,R6,1*%
%TO.N,Net-(Q1-G)*%
X128788000Y-91389500D03*
%TO.P,R6,2*%
%TO.N,GND*%
X128788000Y-93039500D03*
%TD*%
D19*
%TO.P,TP1,1,1*%
%TO.N,+BATT*%
X109250000Y-87750000D03*
%TD*%
D16*
%TO.P,R1,1*%
%TO.N,+3V3_HULL*%
X105938000Y-102177000D03*
%TO.P,R1,2*%
%TO.N,/SCL*%
X104288000Y-102177000D03*
%TD*%
D28*
%TO.P,C2,1*%
%TO.N,GND*%
X102313000Y-98052000D03*
%TO.P,C2,2*%
%TO.N,+3V3_HULL*%
X103863000Y-98052000D03*
%TD*%
D29*
%TO.P,PS1,1,BS*%
%TO.N,Net-(PS1-BS)*%
X118188000Y-92452000D03*
%TO.P,PS1,2,GND*%
%TO.N,GND*%
X119138000Y-92452000D03*
%TO.P,PS1,3,FB*%
%TO.N,Net-(PS1-FB)*%
X120088000Y-92452000D03*
%TO.P,PS1,4,EN*%
%TO.N,+BATT*%
X120088000Y-89852000D03*
%TO.P,PS1,5,IN*%
X119138000Y-89852000D03*
%TO.P,PS1,6,LX*%
%TO.N,Net-(PS1-LX)*%
X118188000Y-89852000D03*
%TD*%
D30*
%TO.P,J3,1,Pin_1*%
%TO.N,/Right Drive Motor 1*%
X88988000Y-92427000D03*
D31*
%TO.P,J3,2,Pin_2*%
%TO.N,/Right Drive Motor 2*%
X88988000Y-90427000D03*
%TD*%
D19*
%TO.P,TP5,1,1*%
%TO.N,/Left Motor Control 2*%
X104650000Y-108550000D03*
%TD*%
D32*
%TO.P,U1,1,A0*%
%TO.N,GND*%
X96825500Y-99827000D03*
%TO.P,U1,2,A1*%
X96825500Y-100477000D03*
%TO.P,U1,3,A2*%
X96825500Y-101127000D03*
%TO.P,U1,4,A3*%
X96825500Y-101777000D03*
%TO.P,U1,5,A4*%
X96825500Y-102427000D03*
%TO.P,U1,6,LED0*%
%TO.N,/Right Motor Control 1*%
X96825500Y-103077000D03*
%TO.P,U1,7,LED1*%
%TO.N,/Right Motor Control 2*%
X96825500Y-103727000D03*
%TO.P,U1,8,LED2*%
%TO.N,/IR Transmit N*%
X96825500Y-104377000D03*
%TO.P,U1,9,LED3*%
%TO.N,/IR Transmit NE*%
X96825500Y-105027000D03*
%TO.P,U1,10,LED4*%
%TO.N,/IR Transmit E*%
X96825500Y-105677000D03*
%TO.P,U1,11,LED5*%
%TO.N,/IR Transmit SE*%
X96825500Y-106327000D03*
%TO.P,U1,12,LED6*%
%TO.N,/IR Transmit S*%
X96825500Y-106977000D03*
%TO.P,U1,13,LED7*%
%TO.N,/IR Transmit SW*%
X96825500Y-107627000D03*
%TO.P,U1,14,VSS*%
%TO.N,GND*%
X96825500Y-108277000D03*
%TO.P,U1,15,LED8*%
%TO.N,/Left Motor Control 1*%
X102550500Y-108277000D03*
%TO.P,U1,16,LED9*%
%TO.N,/Left Motor Control 2*%
X102550500Y-107627000D03*
%TO.P,U1,17,LED10*%
%TO.N,/Turret Motor Control 1*%
X102550500Y-106977000D03*
%TO.P,U1,18,LED11*%
%TO.N,/Turret Motor Control 2*%
X102550500Y-106327000D03*
%TO.P,U1,19,LED12*%
%TO.N,/IR Transmit NW*%
X102550500Y-105677000D03*
%TO.P,U1,20,LED13*%
%TO.N,/IR Transmit W*%
X102550500Y-105027000D03*
%TO.P,U1,21,LED14*%
%TO.N,/Motors Sleep*%
X102550500Y-104377000D03*
%TO.P,U1,22,LED15*%
%TO.N,unconnected-(U1-LED15-Pad22)*%
X102550500Y-103727000D03*
%TO.P,U1,23,~{OE}*%
%TO.N,/OE*%
X102550500Y-103077000D03*
%TO.P,U1,24,A5*%
%TO.N,GND*%
X102550500Y-102427000D03*
%TO.P,U1,25,EXTCLK*%
X102550500Y-101777000D03*
%TO.P,U1,26,SCL*%
%TO.N,/SCL*%
X102550500Y-101127000D03*
%TO.P,U1,27,SDA*%
%TO.N,/SDA*%
X102550500Y-100477000D03*
%TO.P,U1,28,VDD*%
%TO.N,+3V3_HULL*%
X102550500Y-99827000D03*
%TD*%
D19*
%TO.P,TP3,1,1*%
%TO.N,/IR Transmit SE*%
X86013000Y-97127000D03*
%TD*%
D33*
%TO.P,Q1,1,G*%
%TO.N,Net-(Q1-G)*%
X127575500Y-89864500D03*
%TO.P,Q1,2,D*%
%TO.N,Net-(J6-Pin_2)*%
X127575500Y-87964500D03*
%TO.P,Q1,3,S*%
%TO.N,+BATT*%
X125300500Y-88914500D03*
%TD*%
D34*
%TO.P,U2,1,~{SLEEP}*%
%TO.N,/Motors Sleep*%
X96650500Y-89177000D03*
%TO.P,U2,2,AOUT1*%
%TO.N,unconnected-(U2-AOUT1-Pad2)*%
X96650500Y-89827000D03*
%TO.P,U2,3,AISEN*%
%TO.N,GND*%
X96650500Y-90477000D03*
%TO.P,U2,4,AOUT2*%
%TO.N,unconnected-(U2-AOUT2-Pad4)*%
X96650500Y-91127000D03*
%TO.P,U2,5,BOUT2*%
%TO.N,/Right Drive Motor 2*%
X96650500Y-91777000D03*
%TO.P,U2,6,BISEN*%
%TO.N,GND*%
X96650500Y-92427000D03*
%TO.P,U2,7,BOUT1*%
%TO.N,/Right Drive Motor 1*%
X96650500Y-93077000D03*
%TO.P,U2,8,~{FAULT}*%
%TO.N,unconnected-(U2-~{FAULT}-Pad8)*%
X96650500Y-93727000D03*
%TO.P,U2,9,BIN1*%
%TO.N,/Right Motor Control 2*%
X102375500Y-93727000D03*
%TO.P,U2,10,BIN2*%
%TO.N,/Right Motor Control 1*%
X102375500Y-93077000D03*
%TO.P,U2,11,VCP*%
%TO.N,Net-(U2-VCP)*%
X102375500Y-92427000D03*
%TO.P,U2,12,VM*%
%TO.N,+BATT*%
X102375500Y-91777000D03*
%TO.P,U2,13,GND*%
%TO.N,GND*%
X102375500Y-91127000D03*
%TO.P,U2,14,VINT*%
%TO.N,Net-(U2-VINT)*%
X102375500Y-90477000D03*
%TO.P,U2,15,AIN2*%
%TO.N,unconnected-(U2-AIN2-Pad15)*%
X102375500Y-89827000D03*
%TO.P,U2,16,AIN1*%
%TO.N,unconnected-(U2-AIN1-Pad16)*%
X102375500Y-89177000D03*
D35*
%TO.P,U2,17,GND*%
%TO.N,GND*%
X98763000Y-89952000D03*
X98763000Y-91452000D03*
X98763000Y-92952000D03*
D36*
X99513000Y-91452000D03*
D35*
X100263000Y-89952000D03*
X100263000Y-91452000D03*
X100263000Y-92952000D03*
%TD*%
D37*
%TO.P,D8,1*%
%TO.N,N/C*%
X154690944Y-84699182D03*
D38*
%TO.P,D8,A*%
%TO.N,Net-(J10-Pin_1)*%
X156388000Y-85477000D03*
%TO.P,D8,C*%
%TO.N,GND*%
X153913126Y-83002126D03*
%TD*%
D23*
%TO.P,C5,1*%
%TO.N,GND*%
X104538000Y-89877000D03*
%TO.P,C5,2*%
%TO.N,+BATT*%
X104538000Y-91427000D03*
%TD*%
D19*
%TO.P,TP7,1,1*%
%TO.N,/Left Drive Motor 2*%
X93425000Y-114100000D03*
%TD*%
D30*
%TO.P,J4,1,Pin_1*%
%TO.N,/Turret Motor 1*%
X88988000Y-107877000D03*
D31*
%TO.P,J4,2,Pin_2*%
%TO.N,/Turret Motor 2*%
X88988000Y-105877000D03*
%TD*%
D30*
%TO.P,J5,1,Pin_1*%
%TO.N,/Left Drive Motor 1*%
X88988000Y-115252000D03*
D31*
%TO.P,J5,2,Pin_2*%
%TO.N,/Left Drive Motor 2*%
X88988000Y-113252000D03*
%TD*%
D23*
%TO.P,C11,1*%
%TO.N,GND*%
X106888000Y-113827000D03*
%TO.P,C11,2*%
%TO.N,+BATT*%
X106888000Y-115377000D03*
%TD*%
D39*
%TO.P,J6,1,Pin_1*%
%TO.N,/VBAT_RAW*%
X145542000Y-94234000D03*
D40*
%TO.P,J6,2,Pin_2*%
%TO.N,Net-(J6-Pin_2)*%
X145542000Y-92734000D03*
%TD*%
D19*
%TO.P,TP8,1,1*%
%TO.N,GND*%
X93400000Y-97225000D03*
%TD*%
D41*
%TO.P,R12,1*%
%TO.N,Net-(D6-PadA)*%
X84421363Y-84593637D03*
%TO.P,R12,2*%
%TO.N,/IR Transmit SE*%
X83254637Y-85760363D03*
%TD*%
D42*
%TO.P,R9,1*%
%TO.N,Net-(D3-PadA)*%
X81854637Y-118260363D03*
%TO.P,R9,2*%
%TO.N,/IR Transmit SW*%
X83021363Y-117093637D03*
%TD*%
D16*
%TO.P,R2,1*%
%TO.N,+3V3_HULL*%
X105938000Y-100252000D03*
%TO.P,R2,2*%
%TO.N,/SDA*%
X104288000Y-100252000D03*
%TD*%
D43*
%TO.P,C8,1*%
%TO.N,GND*%
X106338000Y-111227000D03*
%TO.P,C8,2*%
%TO.N,Net-(U3-VINT)*%
X104788000Y-111227000D03*
%TD*%
D19*
%TO.P,TP4,1,1*%
%TO.N,/Left Motor Control 1*%
X102625000Y-110575000D03*
%TD*%
D44*
%TO.P,C15,1*%
%TO.N,Net-(J6-Pin_2)*%
X136888000Y-87677000D03*
%TO.P,C15,2*%
%TO.N,GND*%
X136888000Y-93077000D03*
%TD*%
D21*
%TO.P,D5,1*%
%TO.N,N/C*%
X80738000Y-102627000D03*
D22*
%TO.P,D5,A*%
%TO.N,Net-(D5-PadA)*%
X80088000Y-100877000D03*
%TO.P,D5,C*%
%TO.N,GND*%
X80088000Y-104377000D03*
%TD*%
D23*
%TO.P,C7,1*%
%TO.N,+3V3_HULL*%
X110617000Y-98412000D03*
%TO.P,C7,2*%
%TO.N,GND*%
X110617000Y-99962000D03*
%TD*%
%TO.P,C9,1*%
%TO.N,+3V3_HULL*%
X108966000Y-97650000D03*
%TO.P,C9,2*%
%TO.N,GND*%
X108966000Y-99200000D03*
%TD*%
D45*
%TO.P,R16,1*%
%TO.N,GND*%
X121138000Y-95702000D03*
%TO.P,R16,2*%
%TO.N,Net-(PS1-FB)*%
X121138000Y-94052000D03*
%TD*%
D46*
%TO.P,C10,1*%
%TO.N,GND*%
X122038000Y-91802000D03*
%TO.P,C10,2*%
%TO.N,+BATT*%
X122038000Y-89902000D03*
%TD*%
D47*
%TO.P,J1,1,Pin_1*%
%TO.N,+BATT*%
X123825000Y-112649000D03*
D48*
%TO.P,J1,2,Pin_2*%
%TO.N,unconnected-(J1-Pin_2-Pad2)*%
X121325000Y-112649000D03*
%TO.P,J1,3,Pin_3*%
%TO.N,GND*%
X118825000Y-112649000D03*
%TO.P,J1,4,Pin_4*%
%TO.N,/SDA*%
X116325000Y-112649000D03*
%TO.P,J1,5,Pin_5*%
%TO.N,/SCL*%
X113825000Y-112649000D03*
%TO.P,J1,6,Pin_6*%
%TO.N,/OE*%
X111325000Y-112649000D03*
%TD*%
D20*
%TO.P,R11,1*%
%TO.N,Net-(D5-PadA)*%
X82163000Y-100877000D03*
%TO.P,R11,2*%
%TO.N,/IR Transmit S*%
X83813000Y-100877000D03*
%TD*%
D49*
%TO.P,D6,1*%
%TO.N,N/C*%
X82060182Y-84724056D03*
D50*
%TO.P,D6,A*%
%TO.N,Net-(D6-PadA)*%
X82838000Y-83027000D03*
%TO.P,D6,C*%
%TO.N,GND*%
X80363126Y-85501874D03*
%TD*%
D19*
%TO.P,TP2,1,1*%
%TO.N,+3V3_HULL*%
X106175000Y-97700000D03*
%TD*%
D43*
%TO.P,C1,1*%
%TO.N,+BATT*%
X106163000Y-93277000D03*
%TO.P,C1,2*%
%TO.N,Net-(U2-VCP)*%
X104613000Y-93277000D03*
%TD*%
D51*
%TO.P,L1,1,1*%
%TO.N,Net-(PS1-LX)*%
X111788000Y-90527000D03*
%TO.P,L1,2,2*%
%TO.N,+3V3_HULL*%
X111788000Y-95977000D03*
%TD*%
D45*
%TO.P,R15,1*%
%TO.N,+3V3_HULL*%
X119588000Y-95727000D03*
%TO.P,R15,2*%
%TO.N,Net-(PS1-FB)*%
X119588000Y-94077000D03*
%TD*%
D34*
%TO.P,U3,1,~{SLEEP}*%
%TO.N,/Motors Sleep*%
X97075500Y-112777000D03*
%TO.P,U3,2,AOUT1*%
%TO.N,/Turret Motor 2*%
X97075500Y-113427000D03*
%TO.P,U3,3,AISEN*%
%TO.N,GND*%
X97075500Y-114077000D03*
%TO.P,U3,4,AOUT2*%
%TO.N,/Turret Motor 1*%
X97075500Y-114727000D03*
%TO.P,U3,5,BOUT2*%
%TO.N,/Left Drive Motor 2*%
X97075500Y-115377000D03*
%TO.P,U3,6,BISEN*%
%TO.N,GND*%
X97075500Y-116027000D03*
%TO.P,U3,7,BOUT1*%
%TO.N,/Left Drive Motor 1*%
X97075500Y-116677000D03*
%TO.P,U3,8,~{FAULT}*%
%TO.N,unconnected-(U3-~{FAULT}-Pad8)*%
X97075500Y-117327000D03*
%TO.P,U3,9,BIN1*%
%TO.N,/Turret Motor Control 1*%
X102800500Y-117327000D03*
%TO.P,U3,10,BIN2*%
%TO.N,/Turret Motor Control 2*%
X102800500Y-116677000D03*
%TO.P,U3,11,VCP*%
%TO.N,Net-(U3-VCP)*%
X102800500Y-116027000D03*
%TO.P,U3,12,VM*%
%TO.N,+BATT*%
X102800500Y-115377000D03*
%TO.P,U3,13,GND*%
%TO.N,GND*%
X102800500Y-114727000D03*
%TO.P,U3,14,VINT*%
%TO.N,Net-(U3-VINT)*%
X102800500Y-114077000D03*
%TO.P,U3,15,AIN2*%
%TO.N,/Left Motor Control 2*%
X102800500Y-113427000D03*
%TO.P,U3,16,AIN1*%
%TO.N,/Left Motor Control 1*%
X102800500Y-112777000D03*
D35*
%TO.P,U3,17,GND*%
%TO.N,GND*%
X99188000Y-113552000D03*
X99188000Y-115052000D03*
X99188000Y-116552000D03*
D36*
X99938000Y-115052000D03*
D35*
X100688000Y-113552000D03*
X100688000Y-115052000D03*
X100688000Y-116552000D03*
%TD*%
D52*
%TO.P,R14,1*%
%TO.N,Net-(J10-Pin_1)*%
X153999363Y-87959363D03*
%TO.P,R14,2*%
%TO.N,/IR Transmit NE*%
X152832637Y-86792637D03*
%TD*%
D21*
%TO.P,D7,1*%
%TO.N,N/C*%
X118388000Y-83377000D03*
D22*
%TO.P,D7,A*%
%TO.N,Net-(D7-PadA)*%
X120138000Y-82727000D03*
%TO.P,D7,C*%
%TO.N,GND*%
X116638000Y-82727000D03*
%TD*%
D43*
%TO.P,C6,1*%
%TO.N,+BATT*%
X106838000Y-117002000D03*
%TO.P,C6,2*%
%TO.N,Net-(U3-VCP)*%
X105288000Y-117002000D03*
%TD*%
%TO.P,C3,1*%
%TO.N,GND*%
X105738000Y-87402000D03*
%TO.P,C3,2*%
%TO.N,Net-(U2-VINT)*%
X104188000Y-87402000D03*
%TD*%
D53*
%TO.P,D9,1,K*%
%TO.N,GND*%
X155194000Y-111099500D03*
%TO.P,D9,2,A*%
%TO.N,Net-(D9-A)*%
X155194000Y-112674500D03*
%TD*%
D45*
%TO.P,R4,1*%
%TO.N,Net-(Q1-G)*%
X129638000Y-89739500D03*
%TO.P,R4,2*%
%TO.N,Net-(J6-Pin_2)*%
X129638000Y-88089500D03*
%TD*%
D16*
%TO.P,R8,1*%
%TO.N,Net-(D2-PadA)*%
X114713000Y-120577000D03*
%TO.P,R8,2*%
%TO.N,/IR Transmit W*%
X113063000Y-120577000D03*
%TD*%
D23*
%TO.P,C4,1*%
%TO.N,GND*%
X106113000Y-89877000D03*
%TO.P,C4,2*%
%TO.N,+BATT*%
X106113000Y-91427000D03*
%TD*%
D21*
%TO.P,D4,1*%
%TO.N,N/C*%
X156138000Y-102627000D03*
D22*
%TO.P,D4,A*%
%TO.N,Net-(J8-Pin_1)*%
X156788000Y-104377000D03*
%TO.P,D4,C*%
%TO.N,GND*%
X156788000Y-100877000D03*
%TD*%
D16*
%TO.P,R13,1*%
%TO.N,Net-(D7-PadA)*%
X114563000Y-84602000D03*
%TO.P,R13,2*%
%TO.N,/IR Transmit E*%
X112913000Y-84602000D03*
%TD*%
D54*
%TO.N,GND*%
X97888000Y-101127000D03*
X116638000Y-84102000D03*
X133375000Y-119800000D03*
X109454500Y-100310500D03*
X106313000Y-112502000D03*
X81588000Y-86702000D03*
X83913000Y-121202000D03*
X121138000Y-96852000D03*
X97888000Y-101777000D03*
X155388000Y-118802000D03*
X154888000Y-100852000D03*
X153797000Y-111125000D03*
X97888000Y-100477000D03*
X122038000Y-92952000D03*
X152288000Y-84652000D03*
X119138000Y-91152000D03*
X81638000Y-104377000D03*
X95150000Y-97225000D03*
X101488000Y-102102000D03*
X101938000Y-97077000D03*
X96813000Y-109002000D03*
X129838000Y-93014500D03*
X105363000Y-88602000D03*
X120188000Y-120977000D03*
X138463000Y-93177000D03*
%TO.N,/SDA*%
X121625000Y-114600000D03*
X125950000Y-116200000D03*
%TO.N,/SCL*%
X116351000Y-115175000D03*
X120025000Y-118400000D03*
%TO.N,/Motors Sleep*%
X99388000Y-97477000D03*
X94563000Y-89202000D03*
X99983558Y-105972558D03*
X99988000Y-108427000D03*
%TO.N,/Turret Motor Control 1*%
X106113000Y-109427000D03*
X103263000Y-118102000D03*
%TO.N,/Turret Motor Control 2*%
X104178668Y-117249306D03*
X106788000Y-110102000D03*
%TO.N,+3V3_HULL*%
X128375000Y-114150000D03*
X127775000Y-111150000D03*
X125400000Y-109300000D03*
X122300000Y-109325000D03*
%TD*%
D55*
%TO.N,Net-(J9-Pin_1)*%
X151800000Y-118450000D02*
X152225000Y-118025000D01*
X151800000Y-120875000D02*
X151800000Y-118450000D01*
D56*
%TO.N,/IR Transmit NW*%
X150150000Y-118490000D02*
X149685000Y-118025000D01*
X150150000Y-120875000D02*
X150150000Y-118490000D01*
D55*
%TO.N,Net-(J9-Pin_1)*%
X152521363Y-120860363D02*
X153988000Y-122327000D01*
X151814637Y-120860363D02*
X152521363Y-120860363D01*
X151800000Y-120875000D02*
X151814637Y-120860363D01*
D56*
%TO.N,/IR Transmit NW*%
X101813001Y-105677000D02*
X102550500Y-105677000D01*
X97127001Y-110363000D02*
X101813001Y-105677000D01*
X96266000Y-110363000D02*
X97127001Y-110363000D01*
X90030000Y-104127000D02*
X96266000Y-110363000D01*
X86838000Y-116352000D02*
X86838000Y-105477000D01*
X88188000Y-104127000D02*
X90030000Y-104127000D01*
X86838000Y-105477000D02*
X88188000Y-104127000D01*
X89786000Y-119300000D02*
X86838000Y-116352000D01*
X121025000Y-119300000D02*
X89786000Y-119300000D01*
X122325000Y-120600000D02*
X121025000Y-119300000D01*
X150150000Y-120875000D02*
X149875000Y-120600000D01*
X149875000Y-120600000D02*
X122325000Y-120600000D01*
%TO.N,/IR Transmit NE*%
X151915261Y-86792637D02*
X152832637Y-86792637D01*
X150303949Y-88403949D02*
X151915261Y-86792637D01*
%TO.N,Net-(J10-Pin_1)*%
X153999363Y-88300637D02*
X153999363Y-87959363D01*
X152100000Y-90200000D02*
X153999363Y-88300637D01*
%TO.N,/IR Transmit N*%
X153063000Y-104937000D02*
X153063000Y-104252000D01*
X151685000Y-106315000D02*
X153063000Y-104937000D01*
X151685000Y-107275000D02*
X151685000Y-106315000D01*
%TO.N,Net-(J8-Pin_1)*%
X154225000Y-104740000D02*
X154713000Y-104252000D01*
X154225000Y-107275000D02*
X154225000Y-104740000D01*
D57*
%TO.N,+BATT*%
X139925000Y-114150000D02*
X138424000Y-112649000D01*
X109188000Y-87902000D02*
X108213000Y-88877000D01*
X105338000Y-115377000D02*
X104214978Y-115377000D01*
X106163000Y-93277000D02*
X106163000Y-91502000D01*
X125238000Y-88852000D02*
X124012998Y-88852000D01*
X125238000Y-88852000D02*
X123413000Y-88852000D01*
X106695218Y-91352000D02*
X106188000Y-91352000D01*
X123813000Y-113902000D02*
X121538000Y-116177000D01*
X108213000Y-89834218D02*
X106695218Y-91352000D01*
X124213000Y-112702000D02*
X124160000Y-112649000D01*
X108013000Y-115377000D02*
X108813000Y-116177000D01*
X139925000Y-114150000D02*
X142810000Y-117035000D01*
X108213000Y-88877000D02*
X108213000Y-89834218D01*
X120138000Y-89902000D02*
X120088000Y-89852000D01*
X123712999Y-89151999D02*
X123712999Y-112380001D01*
X106113000Y-91427000D02*
X104538000Y-91427000D01*
D55*
X103688000Y-91777000D02*
X102375500Y-91777000D01*
D57*
X125238000Y-88852000D02*
X125300500Y-88914500D01*
X123825000Y-113006000D02*
X123813000Y-113018000D01*
X123825000Y-112492002D02*
X123825000Y-112649000D01*
X108813000Y-116177000D02*
X107988000Y-117002000D01*
X123413000Y-88852000D02*
X122463000Y-87902000D01*
X123813000Y-113018000D02*
X123813000Y-113902000D01*
D58*
X150460000Y-112649000D02*
X150538000Y-112727000D01*
D57*
X122463000Y-87902000D02*
X109188000Y-87902000D01*
X124160000Y-112649000D02*
X123825000Y-112649000D01*
D59*
X104038000Y-91427000D02*
X103688000Y-91777000D01*
D57*
X104538000Y-91427000D02*
X104038000Y-91427000D01*
X106038000Y-91502000D02*
X106113000Y-91427000D01*
X107988000Y-117002000D02*
X106838000Y-117002000D01*
D58*
X138424000Y-112649000D02*
X150460000Y-112649000D01*
D57*
X138424000Y-112649000D02*
X123825000Y-112649000D01*
X106113000Y-91452000D02*
X106113000Y-91427000D01*
X106988000Y-115377000D02*
X108013000Y-115377000D01*
X122038000Y-89902000D02*
X120138000Y-89902000D01*
X124288000Y-88914500D02*
X125300500Y-88914500D01*
X123825000Y-112649000D02*
X123825000Y-113006000D01*
X123300500Y-89902000D02*
X124288000Y-88914500D01*
X121538000Y-116177000D02*
X108813000Y-116177000D01*
X106788000Y-115377000D02*
X105413000Y-115377000D01*
X106163000Y-91502000D02*
X106113000Y-91452000D01*
X120088000Y-89852000D02*
X119389000Y-89852000D01*
X123712999Y-112380001D02*
X123825000Y-112492002D01*
X124012998Y-88852000D02*
X123712999Y-89151999D01*
X142810000Y-117035000D02*
X142810000Y-118325000D01*
X106188000Y-91352000D02*
X106113000Y-91427000D01*
D55*
X102800500Y-115377000D02*
X104063000Y-115377000D01*
D57*
X122038000Y-89902000D02*
X123300500Y-89902000D01*
D60*
%TO.N,GND*%
X106313000Y-111252000D02*
X106338000Y-111227000D01*
D55*
X99863000Y-92627000D02*
X99538000Y-92952000D01*
D60*
X156788000Y-100877000D02*
X154913000Y-100877000D01*
X106313000Y-112527000D02*
X106313000Y-112502000D01*
X102313000Y-98052000D02*
X102313000Y-97452000D01*
X153913126Y-83002126D02*
X153913126Y-83026874D01*
D55*
X97075500Y-114077000D02*
X98213000Y-114077000D01*
X98538000Y-90477000D02*
X99513000Y-91452000D01*
X97638000Y-102427000D02*
X96825500Y-102427000D01*
X104538000Y-89427000D02*
X105363000Y-88602000D01*
D60*
X128813000Y-93014500D02*
X128788000Y-93039500D01*
X154913000Y-100877000D02*
X154888000Y-100852000D01*
D55*
X105788000Y-89552000D02*
X106113000Y-89877000D01*
X98037000Y-100252000D02*
X98037000Y-102028000D01*
X98538000Y-92427000D02*
X99513000Y-91452000D01*
D60*
X109454500Y-99688500D02*
X108966000Y-99200000D01*
D55*
X99838000Y-91127000D02*
X99513000Y-91452000D01*
D60*
X121138000Y-95702000D02*
X121138000Y-96852000D01*
X156462874Y-119852126D02*
X156438126Y-119852126D01*
D55*
X98213000Y-114077000D02*
X99188000Y-115052000D01*
D60*
X96825500Y-108989500D02*
X96813000Y-109002000D01*
D55*
X96825500Y-101777000D02*
X97888000Y-101777000D01*
X105738000Y-87402000D02*
X105738000Y-88227000D01*
D60*
X106313000Y-112527000D02*
X106888000Y-113102000D01*
X109454500Y-100310500D02*
X109803000Y-99962000D01*
D55*
X102800500Y-114727000D02*
X100263000Y-114727000D01*
D61*
X136988000Y-93177000D02*
X136888000Y-93077000D01*
D55*
X100263000Y-114727000D02*
X99938000Y-115052000D01*
D60*
X109803000Y-99962000D02*
X110617000Y-99962000D01*
D55*
X105738000Y-87402000D02*
X105788000Y-87452000D01*
D62*
X138463000Y-93177000D02*
X136988000Y-93177000D01*
D60*
X122038000Y-92952000D02*
X122038000Y-91802000D01*
X129838000Y-93014500D02*
X128813000Y-93014500D01*
D55*
X96650500Y-92427000D02*
X98538000Y-92427000D01*
D60*
X153797000Y-111125000D02*
X155168500Y-111125000D01*
X155168500Y-111125000D02*
X155194000Y-111099500D01*
X133375000Y-119050000D02*
X132650000Y-118325000D01*
D55*
X102550500Y-102427000D02*
X101813000Y-102427000D01*
X98037000Y-102028000D02*
X97638000Y-102427000D01*
D60*
X96825500Y-108277000D02*
X96825500Y-108989500D01*
X106313000Y-112502000D02*
X106313000Y-111252000D01*
D55*
X106113000Y-89877000D02*
X106113000Y-89352000D01*
D60*
X93400000Y-97225000D02*
X95150000Y-97225000D01*
D55*
X101813000Y-101777000D02*
X101488000Y-102102000D01*
X120188000Y-122485000D02*
X120188000Y-120977000D01*
D60*
X105338000Y-113827000D02*
X105313000Y-113802000D01*
D55*
X105738000Y-88227000D02*
X105363000Y-88602000D01*
D60*
X133375000Y-119800000D02*
X133375000Y-119050000D01*
D55*
X97075500Y-116027000D02*
X98963000Y-116027000D01*
D60*
X156438126Y-119852126D02*
X155388000Y-118802000D01*
X153913126Y-83026874D02*
X152288000Y-84652000D01*
X116638000Y-82727000D02*
X116638000Y-84102000D01*
X80363126Y-85501874D02*
X80387874Y-85501874D01*
X102313000Y-97452000D02*
X101938000Y-97077000D01*
D55*
X102550500Y-101777000D02*
X101813000Y-101777000D01*
X97612000Y-99827000D02*
X98037000Y-100252000D01*
X96825500Y-100477000D02*
X97888000Y-100477000D01*
X104538000Y-89877000D02*
X104538000Y-89427000D01*
D60*
X119138000Y-92452000D02*
X119138000Y-91152000D01*
X80088000Y-104377000D02*
X81638000Y-104377000D01*
X105313000Y-113527000D02*
X106313000Y-112527000D01*
X82838000Y-122277000D02*
X83913000Y-121202000D01*
D55*
X96650500Y-90477000D02*
X98538000Y-90477000D01*
D60*
X80387874Y-85501874D02*
X81588000Y-86702000D01*
D55*
X98963000Y-116027000D02*
X99938000Y-115052000D01*
D60*
X109454500Y-100310500D02*
X109454500Y-99688500D01*
D55*
X96825500Y-101127000D02*
X97888000Y-101127000D01*
D60*
X105313000Y-113802000D02*
X105313000Y-113527000D01*
D55*
X96825500Y-99827000D02*
X97612000Y-99827000D01*
D60*
X106888000Y-113102000D02*
X106888000Y-113827000D01*
D55*
X102375500Y-91127000D02*
X99838000Y-91127000D01*
X106113000Y-89352000D02*
X105363000Y-88602000D01*
X101813000Y-102427000D02*
X101488000Y-102102000D01*
D56*
%TO.N,Net-(U3-VCP)*%
X103555416Y-116027000D02*
X102800500Y-116027000D01*
X103755416Y-116227000D02*
X103555416Y-116027000D01*
X104588000Y-116777000D02*
X104114000Y-116303000D01*
X105288000Y-117002000D02*
X105063000Y-116777000D01*
X103831416Y-116303000D02*
X103755416Y-116227000D01*
X104114000Y-116303000D02*
X103831416Y-116303000D01*
X105063000Y-116777000D02*
X104588000Y-116777000D01*
D62*
%TO.N,/VBAT_RAW*%
X145542000Y-101600000D02*
X145542000Y-94234000D01*
D63*
%TO.N,/SDA*%
X107314000Y-103250000D02*
X115944000Y-111880000D01*
X115944000Y-112268000D02*
X116325000Y-112649000D01*
X104063000Y-100477000D02*
X104288000Y-100252000D01*
X121475000Y-114450000D02*
X118126000Y-114450000D01*
X125950000Y-116200000D02*
X125975000Y-116175000D01*
X102550500Y-100477000D02*
X104063000Y-100477000D01*
X121625000Y-114600000D02*
X121475000Y-114450000D01*
X105821936Y-103250000D02*
X107314000Y-103250000D01*
X125975000Y-116175000D02*
X135580000Y-116175000D01*
X115944000Y-111880000D02*
X115944000Y-112268000D01*
X105088000Y-101052000D02*
X105088000Y-102516064D01*
X118126000Y-114450000D02*
X116325000Y-112649000D01*
X135580000Y-116175000D02*
X137730000Y-118325000D01*
X105088000Y-102516064D02*
X105821936Y-103250000D01*
X104288000Y-100252000D02*
X105088000Y-101052000D01*
%TO.N,/SCL*%
X134039000Y-117174000D02*
X135190000Y-118325000D01*
X120025000Y-118400000D02*
X129074000Y-118400000D01*
X102550500Y-101127000D02*
X103207870Y-101127000D01*
X104288000Y-102755000D02*
X113825000Y-112292000D01*
X130300000Y-117174000D02*
X134039000Y-117174000D01*
X103207870Y-101127000D02*
X104257870Y-102177000D01*
X104288000Y-102177000D02*
X104288000Y-102755000D01*
X116351000Y-115175000D02*
X113825000Y-112649000D01*
X104257870Y-102177000D02*
X104288000Y-102177000D01*
X135190000Y-118400000D02*
X135115000Y-118400000D01*
X129074000Y-118400000D02*
X130300000Y-117174000D01*
X135115000Y-118400000D02*
X135190000Y-118325000D01*
X113825000Y-112292000D02*
X113825000Y-112649000D01*
D60*
%TO.N,/Left Drive Motor 2*%
X93425000Y-114100000D02*
X92577000Y-113252000D01*
X94702000Y-115377000D02*
X93425000Y-114100000D01*
X96013000Y-115377000D02*
X94702000Y-115377000D01*
X92577000Y-113252000D02*
X88638000Y-113252000D01*
D55*
X97075500Y-115377000D02*
X96013000Y-115377000D01*
D60*
%TO.N,/Left Drive Motor 1*%
X93450000Y-116400000D02*
X92302000Y-115252000D01*
X93677000Y-116677000D02*
X93450000Y-116450000D01*
D55*
X96113000Y-116677000D02*
X97075500Y-116677000D01*
D60*
X96113000Y-116677000D02*
X93677000Y-116677000D01*
X92302000Y-115252000D02*
X88638000Y-115252000D01*
X93450000Y-116450000D02*
X93450000Y-116400000D01*
%TO.N,/Right Drive Motor 1*%
X95663000Y-93077000D02*
X92813000Y-93077000D01*
D58*
X96650500Y-93077000D02*
X95663000Y-93077000D01*
D60*
X92163000Y-92427000D02*
X88988000Y-92427000D01*
X92813000Y-93077000D02*
X92163000Y-92427000D01*
%TO.N,/Right Drive Motor 2*%
X92763000Y-90427000D02*
X88988000Y-90427000D01*
D58*
X96650500Y-91777000D02*
X95388000Y-91777000D01*
D60*
X95388000Y-91777000D02*
X94113000Y-91777000D01*
X94113000Y-91777000D02*
X92763000Y-90427000D01*
%TO.N,/Turret Motor 2*%
X95504000Y-111518000D02*
X89863000Y-105877000D01*
X96100000Y-113427000D02*
X95863000Y-113427000D01*
X89863000Y-105877000D02*
X88988000Y-105877000D01*
X95504000Y-113068000D02*
X95504000Y-111518000D01*
D55*
X97075500Y-113427000D02*
X96100000Y-113427000D01*
D60*
X95863000Y-113427000D02*
X95504000Y-113068000D01*
D55*
%TO.N,/Turret Motor 1*%
X97075500Y-114727000D02*
X96288000Y-114727000D01*
D60*
X88988000Y-107877000D02*
X89888000Y-107877000D01*
X94615000Y-112604000D02*
X94615000Y-113481000D01*
X89888000Y-107877000D02*
X94615000Y-112604000D01*
D55*
X96282653Y-114726000D02*
X96064000Y-114726000D01*
X96287000Y-114726000D02*
X96282653Y-114726000D01*
X96288000Y-114727000D02*
X96287000Y-114726000D01*
D60*
X89688000Y-107702000D02*
X89713000Y-107702000D01*
X94615000Y-113481000D02*
X95760000Y-114626000D01*
X95760000Y-114626000D02*
X95913000Y-114626000D01*
D55*
%TO.N,/Motors Sleep*%
X94563000Y-89202000D02*
X96625500Y-89202000D01*
X100663000Y-98077000D02*
X99988000Y-98077000D01*
X99988000Y-108427000D02*
X99988000Y-109864500D01*
X100663000Y-103571136D02*
X101468864Y-104377000D01*
X95872418Y-89177000D02*
X96650500Y-89177000D01*
X99988000Y-98077000D02*
X99388000Y-97477000D01*
X100663000Y-98077000D02*
X100663000Y-103571136D01*
X99988000Y-98077000D02*
X99988000Y-105968117D01*
X97213000Y-112639500D02*
X97075500Y-112777000D01*
X102550500Y-104377000D02*
X101813001Y-104377000D01*
X96625500Y-89202000D02*
X96650500Y-89177000D01*
X99988000Y-105968117D02*
X99983558Y-105972558D01*
X99988000Y-109864500D02*
X97075500Y-112777000D01*
X101468864Y-104377000D02*
X102550500Y-104377000D01*
D56*
%TO.N,/IR Transmit N*%
X153063000Y-94389000D02*
X153063000Y-104252000D01*
X144272000Y-85598000D02*
X153063000Y-94389000D01*
X125349000Y-86106000D02*
X125857000Y-85598000D01*
X96132774Y-104377000D02*
X95188000Y-103432226D01*
X96825500Y-104377000D02*
X96132774Y-104377000D01*
X87088000Y-89427000D02*
X90409000Y-86106000D01*
X125857000Y-85598000D02*
X144272000Y-85598000D01*
X90409000Y-86106000D02*
X125349000Y-86106000D01*
X87088000Y-93658500D02*
X87088000Y-89427000D01*
X95188000Y-101758500D02*
X87088000Y-93658500D01*
X95188000Y-103432226D02*
X95188000Y-101758500D01*
%TO.N,/IR Transmit NE*%
X124968000Y-84582000D02*
X150622000Y-84582000D01*
X96132774Y-105027000D02*
X94717000Y-103611226D01*
X89699000Y-85053000D02*
X109914000Y-85053000D01*
X94715000Y-102462000D02*
X85979000Y-93726000D01*
X124147000Y-85403000D02*
X124968000Y-84582000D01*
X94717000Y-102754760D02*
X94715000Y-102752760D01*
X85979000Y-88773000D02*
X89699000Y-85053000D01*
X109973810Y-85075000D02*
X110301810Y-85403000D01*
X150622000Y-84582000D02*
X152832637Y-86792637D01*
X94717000Y-103611226D02*
X94717000Y-102754760D01*
X94715000Y-102752760D02*
X94715000Y-102462000D01*
X110301810Y-85403000D02*
X124147000Y-85403000D01*
X85979000Y-93726000D02*
X85979000Y-88773000D01*
X96825500Y-105027000D02*
X96132774Y-105027000D01*
X109936000Y-85075000D02*
X109973810Y-85075000D01*
X109914000Y-85053000D02*
X109936000Y-85075000D01*
%TO.N,/IR Transmit E*%
X88900000Y-84201000D02*
X112512000Y-84201000D01*
X84963000Y-93980000D02*
X84963000Y-88138000D01*
X94107000Y-103651226D02*
X94107000Y-103632000D01*
X94107000Y-103124000D02*
X84963000Y-93980000D01*
X96825500Y-105677000D02*
X96132774Y-105677000D01*
X96132774Y-105677000D02*
X94107000Y-103651226D01*
X112512000Y-84201000D02*
X112913000Y-84602000D01*
X84963000Y-88138000D02*
X88900000Y-84201000D01*
X94107000Y-103632000D02*
X94107000Y-103124000D01*
%TO.N,/IR Transmit SE*%
X83254637Y-94430637D02*
X83254637Y-85760363D01*
X96132774Y-106327000D02*
X86932774Y-97127000D01*
X86013000Y-97127000D02*
X85951000Y-97127000D01*
X85951000Y-97127000D02*
X83254637Y-94430637D01*
X86932774Y-97127000D02*
X86013000Y-97127000D01*
X96825500Y-106327000D02*
X96132774Y-106327000D01*
%TO.N,/IR Transmit S*%
X83813000Y-100877000D02*
X84536000Y-101600000D01*
X95988000Y-106977000D02*
X96825500Y-106977000D01*
X90611000Y-101600000D02*
X95988000Y-106977000D01*
X84536000Y-101600000D02*
X90611000Y-101600000D01*
%TO.N,/IR Transmit SW*%
X83563000Y-116552000D02*
X83563000Y-104780096D01*
X85741096Y-102602000D02*
X90537000Y-102602000D01*
X83021363Y-117093637D02*
X83563000Y-116552000D01*
X95562000Y-107627000D02*
X96825500Y-107627000D01*
X90537000Y-102602000D02*
X95562000Y-107627000D01*
X83563000Y-104780096D02*
X85741096Y-102602000D01*
%TO.N,/IR Transmit W*%
X87475000Y-103325000D02*
X85725000Y-105075000D01*
X89663000Y-120577000D02*
X113063000Y-120577000D01*
X90211000Y-103325000D02*
X87475000Y-103325000D01*
X85725000Y-116639000D02*
X89663000Y-120577000D01*
X96514000Y-109628000D02*
X90211000Y-103325000D01*
X97212001Y-109628000D02*
X96514000Y-109628000D01*
X85725000Y-105075000D02*
X85725000Y-116639000D01*
X101813001Y-105027000D02*
X97212001Y-109628000D01*
X102550500Y-105027000D02*
X101813001Y-105027000D01*
%TO.N,/IR Transmit NW*%
X102550500Y-105677000D02*
X102550500Y-105801000D01*
D55*
%TO.N,/Turret Motor Control 1*%
X103263000Y-118102000D02*
X103238000Y-118102000D01*
X102800500Y-117664500D02*
X102800500Y-117327000D01*
X106150000Y-108325000D02*
X104802000Y-106977000D01*
X106113000Y-109427000D02*
X106150000Y-109390000D01*
X103238000Y-118102000D02*
X102800500Y-117664500D01*
X104802000Y-106977000D02*
X102550500Y-106977000D01*
X106150000Y-109390000D02*
X106150000Y-108325000D01*
%TO.N,/Turret Motor Control 2*%
X103634250Y-116779000D02*
X103558250Y-116703000D01*
X103680582Y-116779000D02*
X103634250Y-116779000D01*
X106788000Y-110102000D02*
X107163000Y-109727000D01*
X107163000Y-109727000D02*
X107163000Y-107977000D01*
X103558250Y-116703000D02*
X103532250Y-116677000D01*
X103532250Y-116677000D02*
X102800500Y-116677000D01*
X104150888Y-117249306D02*
X103680582Y-116779000D01*
X104178668Y-117249306D02*
X104150888Y-117249306D01*
X105513000Y-106327000D02*
X102550500Y-106327000D01*
X107163000Y-107977000D02*
X105513000Y-106327000D01*
%TO.N,+3V3_HULL*%
X115825000Y-109325000D02*
X122300000Y-109325000D01*
D56*
X109855000Y-97650000D02*
X110617000Y-98412000D01*
D55*
X136670000Y-114725000D02*
X140270000Y-118325000D01*
X105938000Y-100252000D02*
X105938000Y-100202000D01*
D56*
X112113000Y-95652000D02*
X111788000Y-95977000D01*
X111788000Y-95977000D02*
X110115000Y-97650000D01*
D55*
X110363000Y-98412000D02*
X110617000Y-98412000D01*
D56*
X108966000Y-97650000D02*
X109855000Y-97650000D01*
D55*
X108241000Y-97650000D02*
X108966000Y-97650000D01*
X107839000Y-98052000D02*
X108241000Y-97650000D01*
X110617000Y-98412000D02*
X110363000Y-98158000D01*
X127750000Y-111150000D02*
X125900000Y-109300000D01*
X102238000Y-96427000D02*
X100663000Y-96427000D01*
X107839000Y-98301000D02*
X107839000Y-98052000D01*
X128675000Y-114450000D02*
X128950000Y-114725000D01*
X107839000Y-101339000D02*
X107950000Y-101450000D01*
X102550500Y-99364500D02*
X103863000Y-98052000D01*
X105938000Y-100202000D02*
X107839000Y-98301000D01*
D56*
X110115000Y-97650000D02*
X108966000Y-97650000D01*
D55*
X105938000Y-102177000D02*
X105938000Y-100252000D01*
X102550500Y-99827000D02*
X102550500Y-99364500D01*
X103863000Y-98052000D02*
X102238000Y-96427000D01*
X107839000Y-98301000D02*
X107839000Y-101339000D01*
D56*
X118038000Y-95677000D02*
X113163000Y-95677000D01*
D55*
X103863000Y-98052000D02*
X107839000Y-98052000D01*
D56*
X118088000Y-95727000D02*
X118038000Y-95677000D01*
D55*
X107950000Y-101450000D02*
X115825000Y-109325000D01*
X125900000Y-109300000D02*
X125400000Y-109300000D01*
X128950000Y-114725000D02*
X136670000Y-114725000D01*
X127775000Y-111150000D02*
X127750000Y-111150000D01*
D56*
X119588000Y-95727000D02*
X118088000Y-95727000D01*
D55*
X128375000Y-114150000D02*
X128675000Y-114450000D01*
%TO.N,Net-(D2-PadA)*%
X114713000Y-120577000D02*
X114780000Y-120577000D01*
X114780000Y-120577000D02*
X116688000Y-122485000D01*
%TO.N,Net-(D3-PadA)*%
X81854637Y-118260363D02*
X81854637Y-118310615D01*
X81854637Y-118310615D02*
X80363126Y-119802126D01*
%TO.N,Net-(J8-Pin_1)*%
X156663000Y-104252000D02*
X156788000Y-104377000D01*
X154713000Y-104252000D02*
X156663000Y-104252000D01*
%TO.N,Net-(D5-PadA)*%
X82163000Y-100877000D02*
X80088000Y-100877000D01*
%TO.N,Net-(D6-PadA)*%
X82854726Y-83027000D02*
X84421363Y-84593637D01*
X82838000Y-83027000D02*
X82854726Y-83027000D01*
D56*
%TO.N,Net-(D7-PadA)*%
X120138000Y-83727000D02*
X120138000Y-82727000D01*
X119138000Y-84727000D02*
X120138000Y-83727000D01*
X114688000Y-84727000D02*
X119138000Y-84727000D01*
X114563000Y-84602000D02*
X114688000Y-84727000D01*
D55*
%TO.N,Net-(J10-Pin_1)*%
X153999363Y-87865637D02*
X156388000Y-85477000D01*
X153999363Y-87959363D02*
X153999363Y-87865637D01*
D56*
%TO.N,Net-(U2-VCP)*%
X102375500Y-92427000D02*
X103363000Y-92427000D01*
X104213000Y-93277000D02*
X104613000Y-93277000D01*
X103363000Y-92427000D02*
X104213000Y-93277000D01*
D55*
%TO.N,Net-(U2-VINT)*%
X102375500Y-90477000D02*
X103162999Y-90477000D01*
X103162999Y-90477000D02*
X103613000Y-90026999D01*
X104188000Y-88302000D02*
X104188000Y-87402000D01*
X103613000Y-88877000D02*
X104188000Y-88302000D01*
X103613000Y-90026999D02*
X103613000Y-88877000D01*
D56*
%TO.N,Net-(U3-VINT)*%
X102800500Y-114077000D02*
X103663000Y-114077000D01*
X103663000Y-114077000D02*
X104363000Y-113377000D01*
X104363000Y-113377000D02*
X104363000Y-112527000D01*
X104713000Y-112177000D02*
X104713000Y-111302000D01*
X104713000Y-111302000D02*
X104788000Y-111227000D01*
X104363000Y-112527000D02*
X104713000Y-112177000D01*
D61*
%TO.N,Net-(PS1-BS)*%
X116488000Y-92052000D02*
X116888000Y-92452000D01*
X116888000Y-92452000D02*
X118188000Y-92452000D01*
D56*
%TO.N,Net-(Q1-G)*%
X128788000Y-91077000D02*
X128788000Y-91464500D01*
X127575500Y-89864500D02*
X128788000Y-91077000D01*
X128788000Y-91114500D02*
X129638000Y-90264500D01*
X129638000Y-90264500D02*
X129638000Y-89739500D01*
X128788000Y-91464500D02*
X128788000Y-91114500D01*
D61*
%TO.N,Net-(PS1-LX)*%
X116438000Y-90452000D02*
X116488000Y-90502000D01*
D64*
X118188000Y-89852000D02*
X117856000Y-89852000D01*
D61*
X111863000Y-90452000D02*
X116438000Y-90452000D01*
X117138000Y-89852000D02*
X116488000Y-90502000D01*
X111788000Y-90527000D02*
X111863000Y-90452000D01*
X117856000Y-89852000D02*
X117138000Y-89852000D01*
D56*
%TO.N,Net-(PS1-FB)*%
X121138000Y-94027000D02*
X118138000Y-94027000D01*
X120088000Y-92452000D02*
X121138000Y-93502000D01*
X118138000Y-94027000D02*
X118038000Y-94127000D01*
X121138000Y-93502000D02*
X121138000Y-94027000D01*
D63*
%TO.N,/OE*%
X103287999Y-103077000D02*
X111325000Y-111114001D01*
X111325000Y-111114001D02*
X111325000Y-112649000D01*
X102550500Y-103077000D02*
X103287999Y-103077000D01*
%TO.N,/Right Motor Control 1*%
X103464000Y-93995870D02*
X103464000Y-93378001D01*
X98488000Y-97412936D02*
X100269936Y-95631000D01*
X103162999Y-93077000D02*
X102375500Y-93077000D01*
X97788000Y-103077000D02*
X98488000Y-102377000D01*
X103464000Y-93378001D02*
X103162999Y-93077000D01*
X96825500Y-103077000D02*
X97788000Y-103077000D01*
X100269936Y-95631000D02*
X101828870Y-95631000D01*
X101828870Y-95631000D02*
X103464000Y-93995870D01*
X98488000Y-102377000D02*
X98488000Y-97412936D01*
%TO.N,/Left Motor Control 1*%
X102625000Y-110575000D02*
X102675000Y-110575000D01*
X102800500Y-112777000D02*
X102949500Y-112926000D01*
X102949500Y-112926000D02*
X103445900Y-112926000D01*
X102800500Y-108527000D02*
X102550500Y-108277000D01*
X102800500Y-110399500D02*
X102800500Y-108527000D01*
X102625000Y-110575000D02*
X102800500Y-110399500D01*
X103445900Y-112926000D02*
X103488000Y-112883900D01*
X102800500Y-110700500D02*
X102800500Y-112777000D01*
X102675000Y-110575000D02*
X102800500Y-110700500D01*
%TO.N,/Left Motor Control 2*%
X102550500Y-107627000D02*
X103727000Y-107627000D01*
X103512000Y-113427000D02*
X102800500Y-113427000D01*
X103727000Y-107627000D02*
X104650000Y-108550000D01*
X103889000Y-113050000D02*
X103512000Y-113427000D01*
X104650000Y-108550000D02*
X103889000Y-109311000D01*
X103889000Y-109311000D02*
X103889000Y-113050000D01*
%TO.N,/Right Motor Control 2*%
X95787000Y-103425999D02*
X95787000Y-100103000D01*
X99949000Y-94869000D02*
X101021000Y-94869000D01*
X101021000Y-94869000D02*
X102163000Y-93727000D01*
X102163000Y-93727000D02*
X102375500Y-93727000D01*
X95787000Y-99031000D02*
X99949000Y-94869000D01*
X96088001Y-103727000D02*
X95787000Y-103425999D01*
X95787000Y-100095870D02*
X95787000Y-99031000D01*
X96825500Y-103727000D02*
X96088001Y-103727000D01*
X95787000Y-100103000D02*
X95790565Y-100099435D01*
X95790565Y-100099435D02*
X95787000Y-100095870D01*
D56*
%TO.N,Net-(D9-A)*%
X155200500Y-112702000D02*
X155238000Y-112664500D01*
X152188000Y-112727000D02*
X152213000Y-112702000D01*
X152213000Y-112702000D02*
X155200500Y-112702000D01*
D62*
%TO.N,Net-(J6-Pin_2)*%
X129750500Y-87977000D02*
X129638000Y-88089500D01*
X145542000Y-91956000D02*
X141343000Y-87757000D01*
X141343000Y-87757000D02*
X136968000Y-87757000D01*
X136888000Y-87677000D02*
X136588000Y-87977000D01*
X127575500Y-87964500D02*
X129513000Y-87964500D01*
X136588000Y-87977000D02*
X129750500Y-87977000D01*
X129513000Y-87964500D02*
X129638000Y-88089500D01*
X145542000Y-92734000D02*
X145542000Y-91956000D01*
X136968000Y-87757000D02*
X136888000Y-87677000D01*
%TD*%
M02*
