%TF.GenerationSoftware,KiCad,Pcbnew,9.0.0*%
%TF.CreationDate,2025-06-23T21:36:03+01:00*%
%TF.ProjectId,TankHull,54616e6b-4875-46c6-9c2e-6b696361645f,rev?*%
%TF.SameCoordinates,Original*%
%TF.FileFunction,Paste,Top*%
%TF.FilePolarity,Positive*%
%FSLAX46Y46*%
G04 Gerber Fmt 4.6, Leading zero omitted, Abs format (unit mm)*
G04 Created by KiCad (PCBNEW 9.0.0) date 2025-06-23 21:36:03*
%MOMM*%
%LPD*%
G01*
G04 APERTURE LIST*
G04 Aperture macros list*
%AMRoundRect*
0 Rectangle with rounded corners*
0 $1 Rounding radius*
0 $2 $3 $4 $5 $6 $7 $8 $9 X,Y pos of 4 corners*
0 Add a 4 corners polygon primitive as box body*
4,1,4,$2,$3,$4,$5,$6,$7,$8,$9,$2,$3,0*
0 Add four circle primitives for the rounded corners*
1,1,$1+$1,$2,$3*
1,1,$1+$1,$4,$5*
1,1,$1+$1,$6,$7*
1,1,$1+$1,$8,$9*
0 Add four rect primitives between the rounded corners*
20,1,$1+$1,$2,$3,$4,$5,0*
20,1,$1+$1,$4,$5,$6,$7,0*
20,1,$1+$1,$6,$7,$8,$9,0*
20,1,$1+$1,$8,$9,$2,$3,0*%
%AMRotRect*
0 Rectangle, with rotation*
0 The origin of the aperture is its center*
0 $1 length*
0 $2 width*
0 $3 Rotation angle, in degrees counterclockwise*
0 Add horizontal line*
21,1,$1,$2,0,0,$3*%
G04 Aperture macros list end*
%ADD10RotRect,0.900000X0.900000X135.000000*%
%ADD11RotRect,1.500000X1.500000X135.000000*%
%ADD12RoundRect,0.200000X0.200000X0.275000X-0.200000X0.275000X-0.200000X-0.275000X0.200000X-0.275000X0*%
%ADD13RoundRect,0.200000X-0.200000X-0.275000X0.200000X-0.275000X0.200000X0.275000X-0.200000X0.275000X0*%
%ADD14R,0.900000X0.900000*%
%ADD15R,1.500000X1.500000*%
%ADD16RoundRect,0.225000X-0.250000X0.225000X-0.250000X-0.225000X0.250000X-0.225000X0.250000X0.225000X0*%
%ADD17RotRect,0.900000X0.900000X225.000000*%
%ADD18RotRect,1.500000X1.500000X225.000000*%
%ADD19RoundRect,0.200000X-0.275000X0.200000X-0.275000X-0.200000X0.275000X-0.200000X0.275000X0.200000X0*%
%ADD20RoundRect,0.225000X0.250000X-0.225000X0.250000X0.225000X-0.250000X0.225000X-0.250000X-0.225000X0*%
%ADD21RoundRect,0.225000X-0.225000X-0.250000X0.225000X-0.250000X0.225000X0.250000X-0.225000X0.250000X0*%
%ADD22R,0.600000X1.200000*%
%ADD23RoundRect,0.100000X-0.637500X-0.100000X0.637500X-0.100000X0.637500X0.100000X-0.637500X0.100000X0*%
%ADD24RoundRect,0.150000X0.512500X0.150000X-0.512500X0.150000X-0.512500X-0.150000X0.512500X-0.150000X0*%
%ADD25RoundRect,0.232500X-0.757500X-0.232500X0.757500X-0.232500X0.757500X0.232500X-0.757500X0.232500X0*%
%ADD26RoundRect,0.100000X-0.687500X-0.100000X0.687500X-0.100000X0.687500X0.100000X-0.687500X0.100000X0*%
%ADD27RotRect,0.900000X0.900000X315.000000*%
%ADD28RotRect,1.500000X1.500000X315.000000*%
%ADD29RoundRect,0.200000X-0.053033X0.335876X-0.335876X0.053033X0.053033X-0.335876X0.335876X-0.053033X0*%
%ADD30RoundRect,0.200000X0.053033X-0.335876X0.335876X-0.053033X-0.053033X0.335876X-0.335876X0.053033X0*%
%ADD31RoundRect,0.225000X0.225000X0.250000X-0.225000X0.250000X-0.225000X-0.250000X0.225000X-0.250000X0*%
%ADD32RoundRect,0.250000X-0.550000X1.500000X-0.550000X-1.500000X0.550000X-1.500000X0.550000X1.500000X0*%
%ADD33RoundRect,0.200000X0.275000X-0.200000X0.275000X0.200000X-0.275000X0.200000X-0.275000X-0.200000X0*%
%ADD34RoundRect,0.250000X0.475000X-0.250000X0.475000X0.250000X-0.475000X0.250000X-0.475000X-0.250000X0*%
%ADD35RotRect,0.900000X0.900000X45.000000*%
%ADD36RotRect,1.500000X1.500000X45.000000*%
%ADD37R,3.500000X2.950000*%
%ADD38RoundRect,0.200000X0.335876X0.053033X0.053033X0.335876X-0.335876X-0.053033X-0.053033X-0.335876X0*%
%ADD39RoundRect,0.218750X-0.256250X0.218750X-0.256250X-0.218750X0.256250X-0.218750X0.256250X0.218750X0*%
G04 APERTURE END LIST*
D10*
%TO.C,D3*%
X82060182Y-120579944D03*
D11*
X80363126Y-119802126D03*
X82838000Y-122277000D03*
%TD*%
D12*
%TO.C,R7*%
X151800000Y-120875000D03*
X150150000Y-120875000D03*
%TD*%
%TO.C,R10*%
X154713000Y-104252000D03*
X153063000Y-104252000D03*
%TD*%
D13*
%TO.C,R17*%
X150538000Y-112727000D03*
X152188000Y-112727000D03*
%TD*%
D14*
%TO.C,D2*%
X118438000Y-121835000D03*
D15*
X116688000Y-122485000D03*
X120188000Y-122485000D03*
%TD*%
D16*
%TO.C,C12*%
X105338000Y-113827000D03*
X105338000Y-115377000D03*
%TD*%
D17*
%TO.C,D1*%
X154765818Y-120629944D03*
D18*
X153988000Y-122327000D03*
X156462874Y-119852126D03*
%TD*%
D19*
%TO.C,R5*%
X100663000Y-96427000D03*
X100663000Y-98077000D03*
%TD*%
D20*
%TO.C,C13*%
X116488000Y-92052000D03*
X116488000Y-90502000D03*
%TD*%
D16*
%TO.C,C14*%
X118038000Y-94127000D03*
X118038000Y-95677000D03*
%TD*%
D19*
%TO.C,R6*%
X128788000Y-91389500D03*
X128788000Y-93039500D03*
%TD*%
D12*
%TO.C,R1*%
X105938000Y-102177000D03*
X104288000Y-102177000D03*
%TD*%
D21*
%TO.C,C2*%
X102313000Y-98052000D03*
X103863000Y-98052000D03*
%TD*%
D22*
%TO.C,PS1*%
X118188000Y-92452000D03*
X119138000Y-92452000D03*
X120088000Y-92452000D03*
X120088000Y-89852000D03*
X119138000Y-89852000D03*
X118188000Y-89852000D03*
%TD*%
D23*
%TO.C,U1*%
X96825500Y-99827000D03*
X96825500Y-100477000D03*
X96825500Y-101127000D03*
X96825500Y-101777000D03*
X96825500Y-102427000D03*
X96825500Y-103077000D03*
X96825500Y-103727000D03*
X96825500Y-104377000D03*
X96825500Y-105027000D03*
X96825500Y-105677000D03*
X96825500Y-106327000D03*
X96825500Y-106977000D03*
X96825500Y-107627000D03*
X96825500Y-108277000D03*
X102550500Y-108277000D03*
X102550500Y-107627000D03*
X102550500Y-106977000D03*
X102550500Y-106327000D03*
X102550500Y-105677000D03*
X102550500Y-105027000D03*
X102550500Y-104377000D03*
X102550500Y-103727000D03*
X102550500Y-103077000D03*
X102550500Y-102427000D03*
X102550500Y-101777000D03*
X102550500Y-101127000D03*
X102550500Y-100477000D03*
X102550500Y-99827000D03*
%TD*%
D24*
%TO.C,Q1*%
X127575500Y-89864500D03*
X127575500Y-87964500D03*
X125300500Y-88914500D03*
%TD*%
D25*
%TO.C,U2*%
X99513000Y-90872000D03*
X99513000Y-92032000D03*
D26*
X96650500Y-89177000D03*
X96650500Y-89827000D03*
X96650500Y-90477000D03*
X96650500Y-91127000D03*
X96650500Y-91777000D03*
X96650500Y-92427000D03*
X96650500Y-93077000D03*
X96650500Y-93727000D03*
X102375500Y-93727000D03*
X102375500Y-93077000D03*
X102375500Y-92427000D03*
X102375500Y-91777000D03*
X102375500Y-91127000D03*
X102375500Y-90477000D03*
X102375500Y-89827000D03*
X102375500Y-89177000D03*
%TD*%
D27*
%TO.C,D8*%
X154690944Y-84699182D03*
D28*
X156388000Y-85477000D03*
X153913126Y-83002126D03*
%TD*%
D16*
%TO.C,C5*%
X104538000Y-89877000D03*
X104538000Y-91427000D03*
%TD*%
%TO.C,C11*%
X106888000Y-113827000D03*
X106888000Y-115377000D03*
%TD*%
D29*
%TO.C,R12*%
X84421363Y-84593637D03*
X83254637Y-85760363D03*
%TD*%
D30*
%TO.C,R9*%
X81854637Y-118260363D03*
X83021363Y-117093637D03*
%TD*%
D12*
%TO.C,R2*%
X105938000Y-100252000D03*
X104288000Y-100252000D03*
%TD*%
D31*
%TO.C,C8*%
X106338000Y-111227000D03*
X104788000Y-111227000D03*
%TD*%
D32*
%TO.C,C15*%
X136888000Y-87677000D03*
X136888000Y-93077000D03*
%TD*%
D14*
%TO.C,D5*%
X80738000Y-102627000D03*
D15*
X80088000Y-100877000D03*
X80088000Y-104377000D03*
%TD*%
D16*
%TO.C,C7*%
X110617000Y-98412000D03*
X110617000Y-99962000D03*
%TD*%
%TO.C,C9*%
X108966000Y-97650000D03*
X108966000Y-99200000D03*
%TD*%
D33*
%TO.C,R16*%
X121138000Y-95702000D03*
X121138000Y-94052000D03*
%TD*%
D34*
%TO.C,C10*%
X122038000Y-91802000D03*
X122038000Y-89902000D03*
%TD*%
D13*
%TO.C,R11*%
X82163000Y-100877000D03*
X83813000Y-100877000D03*
%TD*%
D35*
%TO.C,D6*%
X82060182Y-84724056D03*
D36*
X82838000Y-83027000D03*
X80363126Y-85501874D03*
%TD*%
D31*
%TO.C,C1*%
X106163000Y-93277000D03*
X104613000Y-93277000D03*
%TD*%
D37*
%TO.C,L1*%
X111788000Y-90527000D03*
X111788000Y-95977000D03*
%TD*%
D33*
%TO.C,R15*%
X119588000Y-95727000D03*
X119588000Y-94077000D03*
%TD*%
D25*
%TO.C,U3*%
X99938000Y-114472000D03*
X99938000Y-115632000D03*
D26*
X97075500Y-112777000D03*
X97075500Y-113427000D03*
X97075500Y-114077000D03*
X97075500Y-114727000D03*
X97075500Y-115377000D03*
X97075500Y-116027000D03*
X97075500Y-116677000D03*
X97075500Y-117327000D03*
X102800500Y-117327000D03*
X102800500Y-116677000D03*
X102800500Y-116027000D03*
X102800500Y-115377000D03*
X102800500Y-114727000D03*
X102800500Y-114077000D03*
X102800500Y-113427000D03*
X102800500Y-112777000D03*
%TD*%
D38*
%TO.C,R14*%
X153999363Y-87959363D03*
X152832637Y-86792637D03*
%TD*%
D14*
%TO.C,D7*%
X118388000Y-83377000D03*
D15*
X120138000Y-82727000D03*
X116638000Y-82727000D03*
%TD*%
D31*
%TO.C,C6*%
X106838000Y-117002000D03*
X105288000Y-117002000D03*
%TD*%
%TO.C,C3*%
X105738000Y-87402000D03*
X104188000Y-87402000D03*
%TD*%
D39*
%TO.C,D9*%
X155194000Y-111099500D03*
X155194000Y-112674500D03*
%TD*%
D33*
%TO.C,R4*%
X129638000Y-89739500D03*
X129638000Y-88089500D03*
%TD*%
D12*
%TO.C,R8*%
X114713000Y-120577000D03*
X113063000Y-120577000D03*
%TD*%
D16*
%TO.C,C4*%
X106113000Y-89877000D03*
X106113000Y-91427000D03*
%TD*%
D14*
%TO.C,D4*%
X156138000Y-102627000D03*
D15*
X156788000Y-104377000D03*
X156788000Y-100877000D03*
%TD*%
D12*
%TO.C,R13*%
X114563000Y-84602000D03*
X112913000Y-84602000D03*
%TD*%
M02*
