%TF.GenerationSoftware,KiCad,Pcbnew,9.0.0*%
%TF.CreationDate,2025-06-23T21:36:03+01:00*%
%TF.ProjectId,TankHull,54616e6b-4875-46c6-9c2e-6b696361645f,rev?*%
%TF.SameCoordinates,Original*%
%TF.FileFunction,Legend,Top*%
%TF.FilePolarity,Positive*%
%FSLAX46Y46*%
G04 Gerber Fmt 4.6, Leading zero omitted, Abs format (unit mm)*
G04 Created by KiCad (PCBNEW 9.0.0) date 2025-06-23 21:36:03*
%MOMM*%
%LPD*%
G01*
G04 APERTURE LIST*
%ADD10C,0.300000*%
%ADD11C,0.400000*%
%ADD12C,0.150000*%
%ADD13C,0.250000*%
%ADD14C,0.254000*%
%ADD15C,0.120000*%
%ADD16C,0.127000*%
%ADD17C,0.200000*%
G04 APERTURE END LIST*
D10*
X150074296Y-95650000D02*
X148524296Y-95650000D01*
X148524296Y-95650000D02*
X148524296Y-95078571D01*
X148524296Y-95078571D02*
X148598106Y-94935714D01*
X148598106Y-94935714D02*
X148671915Y-94864285D01*
X148671915Y-94864285D02*
X148819534Y-94792857D01*
X148819534Y-94792857D02*
X149040963Y-94792857D01*
X149040963Y-94792857D02*
X149188582Y-94864285D01*
X149188582Y-94864285D02*
X149262391Y-94935714D01*
X149262391Y-94935714D02*
X149336201Y-95078571D01*
X149336201Y-95078571D02*
X149336201Y-95650000D01*
X148524296Y-94292857D02*
X150074296Y-93935714D01*
X150074296Y-93935714D02*
X148967153Y-93650000D01*
X148967153Y-93650000D02*
X150074296Y-93364285D01*
X150074296Y-93364285D02*
X148524296Y-93007143D01*
X150074296Y-91578571D02*
X149336201Y-92078571D01*
X150074296Y-92435714D02*
X148524296Y-92435714D01*
X148524296Y-92435714D02*
X148524296Y-91864285D01*
X148524296Y-91864285D02*
X148598106Y-91721428D01*
X148598106Y-91721428D02*
X148671915Y-91649999D01*
X148671915Y-91649999D02*
X148819534Y-91578571D01*
X148819534Y-91578571D02*
X149040963Y-91578571D01*
X149040963Y-91578571D02*
X149188582Y-91649999D01*
X149188582Y-91649999D02*
X149262391Y-91721428D01*
X149262391Y-91721428D02*
X149336201Y-91864285D01*
X149336201Y-91864285D02*
X149336201Y-92435714D01*
X152495900Y-94935713D02*
X152569709Y-94721428D01*
X152569709Y-94721428D02*
X152569709Y-94364285D01*
X152569709Y-94364285D02*
X152495900Y-94221428D01*
X152495900Y-94221428D02*
X152422090Y-94149999D01*
X152422090Y-94149999D02*
X152274471Y-94078570D01*
X152274471Y-94078570D02*
X152126852Y-94078570D01*
X152126852Y-94078570D02*
X151979233Y-94149999D01*
X151979233Y-94149999D02*
X151905423Y-94221428D01*
X151905423Y-94221428D02*
X151831614Y-94364285D01*
X151831614Y-94364285D02*
X151757804Y-94649999D01*
X151757804Y-94649999D02*
X151683995Y-94792856D01*
X151683995Y-94792856D02*
X151610185Y-94864285D01*
X151610185Y-94864285D02*
X151462566Y-94935713D01*
X151462566Y-94935713D02*
X151314947Y-94935713D01*
X151314947Y-94935713D02*
X151167328Y-94864285D01*
X151167328Y-94864285D02*
X151093519Y-94792856D01*
X151093519Y-94792856D02*
X151019709Y-94649999D01*
X151019709Y-94649999D02*
X151019709Y-94292856D01*
X151019709Y-94292856D02*
X151093519Y-94078570D01*
X151019709Y-93578571D02*
X152569709Y-93221428D01*
X152569709Y-93221428D02*
X151462566Y-92935714D01*
X151462566Y-92935714D02*
X152569709Y-92649999D01*
X152569709Y-92649999D02*
X151019709Y-92292857D01*
D11*
X155055438Y-102765652D02*
X153055438Y-102765652D01*
X153055438Y-102765652D02*
X155055438Y-101622795D01*
X155055438Y-101622795D02*
X153055438Y-101622795D01*
D12*
X93784875Y-112262030D02*
X93784875Y-112738220D01*
X93784875Y-112738220D02*
X92784875Y-112738220D01*
X93784875Y-111928696D02*
X92784875Y-111928696D01*
X92784875Y-111928696D02*
X92784875Y-111690601D01*
X92784875Y-111690601D02*
X92832494Y-111547744D01*
X92832494Y-111547744D02*
X92927732Y-111452506D01*
X92927732Y-111452506D02*
X93022970Y-111404887D01*
X93022970Y-111404887D02*
X93213446Y-111357268D01*
X93213446Y-111357268D02*
X93356303Y-111357268D01*
X93356303Y-111357268D02*
X93546779Y-111404887D01*
X93546779Y-111404887D02*
X93642017Y-111452506D01*
X93642017Y-111452506D02*
X93737256Y-111547744D01*
X93737256Y-111547744D02*
X93784875Y-111690601D01*
X93784875Y-111690601D02*
X93784875Y-111928696D01*
X93784875Y-110357268D02*
X93308684Y-110690601D01*
X93784875Y-110928696D02*
X92784875Y-110928696D01*
X92784875Y-110928696D02*
X92784875Y-110547744D01*
X92784875Y-110547744D02*
X92832494Y-110452506D01*
X92832494Y-110452506D02*
X92880113Y-110404887D01*
X92880113Y-110404887D02*
X92975351Y-110357268D01*
X92975351Y-110357268D02*
X93118208Y-110357268D01*
X93118208Y-110357268D02*
X93213446Y-110404887D01*
X93213446Y-110404887D02*
X93261065Y-110452506D01*
X93261065Y-110452506D02*
X93308684Y-110547744D01*
X93308684Y-110547744D02*
X93308684Y-110928696D01*
X92784875Y-110071553D02*
X93784875Y-109738220D01*
X93784875Y-109738220D02*
X92784875Y-109404887D01*
X92880113Y-109119172D02*
X92832494Y-109071553D01*
X92832494Y-109071553D02*
X92784875Y-108976315D01*
X92784875Y-108976315D02*
X92784875Y-108738220D01*
X92784875Y-108738220D02*
X92832494Y-108642982D01*
X92832494Y-108642982D02*
X92880113Y-108595363D01*
X92880113Y-108595363D02*
X92975351Y-108547744D01*
X92975351Y-108547744D02*
X93070589Y-108547744D01*
X93070589Y-108547744D02*
X93213446Y-108595363D01*
X93213446Y-108595363D02*
X93784875Y-109166791D01*
X93784875Y-109166791D02*
X93784875Y-108547744D01*
X94394819Y-112881077D02*
X94394819Y-112309649D01*
X95394819Y-112595363D02*
X94394819Y-112595363D01*
X94871009Y-111976315D02*
X94871009Y-111642982D01*
X95394819Y-111500125D02*
X95394819Y-111976315D01*
X95394819Y-111976315D02*
X94394819Y-111976315D01*
X94394819Y-111976315D02*
X94394819Y-111500125D01*
X95347200Y-111119172D02*
X95394819Y-110976315D01*
X95394819Y-110976315D02*
X95394819Y-110738220D01*
X95394819Y-110738220D02*
X95347200Y-110642982D01*
X95347200Y-110642982D02*
X95299580Y-110595363D01*
X95299580Y-110595363D02*
X95204342Y-110547744D01*
X95204342Y-110547744D02*
X95109104Y-110547744D01*
X95109104Y-110547744D02*
X95013866Y-110595363D01*
X95013866Y-110595363D02*
X94966247Y-110642982D01*
X94966247Y-110642982D02*
X94918628Y-110738220D01*
X94918628Y-110738220D02*
X94871009Y-110928696D01*
X94871009Y-110928696D02*
X94823390Y-111023934D01*
X94823390Y-111023934D02*
X94775771Y-111071553D01*
X94775771Y-111071553D02*
X94680533Y-111119172D01*
X94680533Y-111119172D02*
X94585295Y-111119172D01*
X94585295Y-111119172D02*
X94490057Y-111071553D01*
X94490057Y-111071553D02*
X94442438Y-111023934D01*
X94442438Y-111023934D02*
X94394819Y-110928696D01*
X94394819Y-110928696D02*
X94394819Y-110690601D01*
X94394819Y-110690601D02*
X94442438Y-110547744D01*
X94394819Y-110262029D02*
X94394819Y-109690601D01*
X95394819Y-109976315D02*
X94394819Y-109976315D01*
X97232267Y-110409875D02*
X96756077Y-110409875D01*
X96756077Y-110409875D02*
X96756077Y-109409875D01*
X98137029Y-110314636D02*
X98089410Y-110362256D01*
X98089410Y-110362256D02*
X97946553Y-110409875D01*
X97946553Y-110409875D02*
X97851315Y-110409875D01*
X97851315Y-110409875D02*
X97708458Y-110362256D01*
X97708458Y-110362256D02*
X97613220Y-110267017D01*
X97613220Y-110267017D02*
X97565601Y-110171779D01*
X97565601Y-110171779D02*
X97517982Y-109981303D01*
X97517982Y-109981303D02*
X97517982Y-109838446D01*
X97517982Y-109838446D02*
X97565601Y-109647970D01*
X97565601Y-109647970D02*
X97613220Y-109552732D01*
X97613220Y-109552732D02*
X97708458Y-109457494D01*
X97708458Y-109457494D02*
X97851315Y-109409875D01*
X97851315Y-109409875D02*
X97946553Y-109409875D01*
X97946553Y-109409875D02*
X98089410Y-109457494D01*
X98089410Y-109457494D02*
X98137029Y-109505113D01*
X98422744Y-109409875D02*
X98994172Y-109409875D01*
X98708458Y-110409875D02*
X98708458Y-109409875D01*
X99898934Y-110409875D02*
X99565601Y-109933684D01*
X99327506Y-110409875D02*
X99327506Y-109409875D01*
X99327506Y-109409875D02*
X99708458Y-109409875D01*
X99708458Y-109409875D02*
X99803696Y-109457494D01*
X99803696Y-109457494D02*
X99851315Y-109505113D01*
X99851315Y-109505113D02*
X99898934Y-109600351D01*
X99898934Y-109600351D02*
X99898934Y-109743208D01*
X99898934Y-109743208D02*
X99851315Y-109838446D01*
X99851315Y-109838446D02*
X99803696Y-109886065D01*
X99803696Y-109886065D02*
X99708458Y-109933684D01*
X99708458Y-109933684D02*
X99327506Y-109933684D01*
X100803696Y-110409875D02*
X100327506Y-110409875D01*
X100327506Y-110409875D02*
X100327506Y-109409875D01*
X101660839Y-110409875D02*
X101089411Y-110409875D01*
X101375125Y-110409875D02*
X101375125Y-109409875D01*
X101375125Y-109409875D02*
X101279887Y-109552732D01*
X101279887Y-109552732D02*
X101184649Y-109647970D01*
X101184649Y-109647970D02*
X101089411Y-109695589D01*
X98565601Y-111019819D02*
X99137029Y-111019819D01*
X98851315Y-112019819D02*
X98851315Y-111019819D01*
X99470363Y-111496009D02*
X99803696Y-111496009D01*
X99946553Y-112019819D02*
X99470363Y-112019819D01*
X99470363Y-112019819D02*
X99470363Y-111019819D01*
X99470363Y-111019819D02*
X99946553Y-111019819D01*
X100327506Y-111972200D02*
X100470363Y-112019819D01*
X100470363Y-112019819D02*
X100708458Y-112019819D01*
X100708458Y-112019819D02*
X100803696Y-111972200D01*
X100803696Y-111972200D02*
X100851315Y-111924580D01*
X100851315Y-111924580D02*
X100898934Y-111829342D01*
X100898934Y-111829342D02*
X100898934Y-111734104D01*
X100898934Y-111734104D02*
X100851315Y-111638866D01*
X100851315Y-111638866D02*
X100803696Y-111591247D01*
X100803696Y-111591247D02*
X100708458Y-111543628D01*
X100708458Y-111543628D02*
X100517982Y-111496009D01*
X100517982Y-111496009D02*
X100422744Y-111448390D01*
X100422744Y-111448390D02*
X100375125Y-111400771D01*
X100375125Y-111400771D02*
X100327506Y-111305533D01*
X100327506Y-111305533D02*
X100327506Y-111210295D01*
X100327506Y-111210295D02*
X100375125Y-111115057D01*
X100375125Y-111115057D02*
X100422744Y-111067438D01*
X100422744Y-111067438D02*
X100517982Y-111019819D01*
X100517982Y-111019819D02*
X100756077Y-111019819D01*
X100756077Y-111019819D02*
X100898934Y-111067438D01*
X101184649Y-111019819D02*
X101756077Y-111019819D01*
X101470363Y-112019819D02*
X101470363Y-111019819D01*
D11*
X85353109Y-121051200D02*
X85638823Y-121146438D01*
X85638823Y-121146438D02*
X86115014Y-121146438D01*
X86115014Y-121146438D02*
X86305490Y-121051200D01*
X86305490Y-121051200D02*
X86400728Y-120955961D01*
X86400728Y-120955961D02*
X86495966Y-120765485D01*
X86495966Y-120765485D02*
X86495966Y-120575009D01*
X86495966Y-120575009D02*
X86400728Y-120384533D01*
X86400728Y-120384533D02*
X86305490Y-120289295D01*
X86305490Y-120289295D02*
X86115014Y-120194057D01*
X86115014Y-120194057D02*
X85734061Y-120098819D01*
X85734061Y-120098819D02*
X85543585Y-120003580D01*
X85543585Y-120003580D02*
X85448347Y-119908342D01*
X85448347Y-119908342D02*
X85353109Y-119717866D01*
X85353109Y-119717866D02*
X85353109Y-119527390D01*
X85353109Y-119527390D02*
X85448347Y-119336914D01*
X85448347Y-119336914D02*
X85543585Y-119241676D01*
X85543585Y-119241676D02*
X85734061Y-119146438D01*
X85734061Y-119146438D02*
X86210252Y-119146438D01*
X86210252Y-119146438D02*
X86495966Y-119241676D01*
X87162633Y-119146438D02*
X87638823Y-121146438D01*
X87638823Y-121146438D02*
X88019776Y-119717866D01*
X88019776Y-119717866D02*
X88400728Y-121146438D01*
X88400728Y-121146438D02*
X88876919Y-119146438D01*
D13*
X138179500Y-116760901D02*
X138227119Y-116618044D01*
X138227119Y-116618044D02*
X138227119Y-116379949D01*
X138227119Y-116379949D02*
X138179500Y-116284711D01*
X138179500Y-116284711D02*
X138131880Y-116237092D01*
X138131880Y-116237092D02*
X138036642Y-116189473D01*
X138036642Y-116189473D02*
X137941404Y-116189473D01*
X137941404Y-116189473D02*
X137846166Y-116237092D01*
X137846166Y-116237092D02*
X137798547Y-116284711D01*
X137798547Y-116284711D02*
X137750928Y-116379949D01*
X137750928Y-116379949D02*
X137703309Y-116570425D01*
X137703309Y-116570425D02*
X137655690Y-116665663D01*
X137655690Y-116665663D02*
X137608071Y-116713282D01*
X137608071Y-116713282D02*
X137512833Y-116760901D01*
X137512833Y-116760901D02*
X137417595Y-116760901D01*
X137417595Y-116760901D02*
X137322357Y-116713282D01*
X137322357Y-116713282D02*
X137274738Y-116665663D01*
X137274738Y-116665663D02*
X137227119Y-116570425D01*
X137227119Y-116570425D02*
X137227119Y-116332330D01*
X137227119Y-116332330D02*
X137274738Y-116189473D01*
X138227119Y-115760901D02*
X137227119Y-115760901D01*
X137227119Y-115760901D02*
X137227119Y-115522806D01*
X137227119Y-115522806D02*
X137274738Y-115379949D01*
X137274738Y-115379949D02*
X137369976Y-115284711D01*
X137369976Y-115284711D02*
X137465214Y-115237092D01*
X137465214Y-115237092D02*
X137655690Y-115189473D01*
X137655690Y-115189473D02*
X137798547Y-115189473D01*
X137798547Y-115189473D02*
X137989023Y-115237092D01*
X137989023Y-115237092D02*
X138084261Y-115284711D01*
X138084261Y-115284711D02*
X138179500Y-115379949D01*
X138179500Y-115379949D02*
X138227119Y-115522806D01*
X138227119Y-115522806D02*
X138227119Y-115760901D01*
X137941404Y-114808520D02*
X137941404Y-114332330D01*
X138227119Y-114903758D02*
X137227119Y-114570425D01*
X137227119Y-114570425D02*
X138227119Y-114237092D01*
D11*
X117598871Y-118859438D02*
X118075061Y-120859438D01*
X118075061Y-120859438D02*
X118456014Y-119430866D01*
X118456014Y-119430866D02*
X118836966Y-120859438D01*
X118836966Y-120859438D02*
X119313157Y-118859438D01*
D12*
X81686779Y-96534875D02*
X81686779Y-95534875D01*
X82734397Y-96534875D02*
X82401064Y-96058684D01*
X82162969Y-96534875D02*
X82162969Y-95534875D01*
X82162969Y-95534875D02*
X82543921Y-95534875D01*
X82543921Y-95534875D02*
X82639159Y-95582494D01*
X82639159Y-95582494D02*
X82686778Y-95630113D01*
X82686778Y-95630113D02*
X82734397Y-95725351D01*
X82734397Y-95725351D02*
X82734397Y-95868208D01*
X82734397Y-95868208D02*
X82686778Y-95963446D01*
X82686778Y-95963446D02*
X82639159Y-96011065D01*
X82639159Y-96011065D02*
X82543921Y-96058684D01*
X82543921Y-96058684D02*
X82162969Y-96058684D01*
X83877255Y-96487256D02*
X84020112Y-96534875D01*
X84020112Y-96534875D02*
X84258207Y-96534875D01*
X84258207Y-96534875D02*
X84353445Y-96487256D01*
X84353445Y-96487256D02*
X84401064Y-96439636D01*
X84401064Y-96439636D02*
X84448683Y-96344398D01*
X84448683Y-96344398D02*
X84448683Y-96249160D01*
X84448683Y-96249160D02*
X84401064Y-96153922D01*
X84401064Y-96153922D02*
X84353445Y-96106303D01*
X84353445Y-96106303D02*
X84258207Y-96058684D01*
X84258207Y-96058684D02*
X84067731Y-96011065D01*
X84067731Y-96011065D02*
X83972493Y-95963446D01*
X83972493Y-95963446D02*
X83924874Y-95915827D01*
X83924874Y-95915827D02*
X83877255Y-95820589D01*
X83877255Y-95820589D02*
X83877255Y-95725351D01*
X83877255Y-95725351D02*
X83924874Y-95630113D01*
X83924874Y-95630113D02*
X83972493Y-95582494D01*
X83972493Y-95582494D02*
X84067731Y-95534875D01*
X84067731Y-95534875D02*
X84305826Y-95534875D01*
X84305826Y-95534875D02*
X84448683Y-95582494D01*
X84877255Y-96011065D02*
X85210588Y-96011065D01*
X85353445Y-96534875D02*
X84877255Y-96534875D01*
X84877255Y-96534875D02*
X84877255Y-95534875D01*
X84877255Y-95534875D02*
X85353445Y-95534875D01*
X81543922Y-97144819D02*
X82115350Y-97144819D01*
X81829636Y-98144819D02*
X81829636Y-97144819D01*
X82448684Y-97621009D02*
X82782017Y-97621009D01*
X82924874Y-98144819D02*
X82448684Y-98144819D01*
X82448684Y-98144819D02*
X82448684Y-97144819D01*
X82448684Y-97144819D02*
X82924874Y-97144819D01*
X83305827Y-98097200D02*
X83448684Y-98144819D01*
X83448684Y-98144819D02*
X83686779Y-98144819D01*
X83686779Y-98144819D02*
X83782017Y-98097200D01*
X83782017Y-98097200D02*
X83829636Y-98049580D01*
X83829636Y-98049580D02*
X83877255Y-97954342D01*
X83877255Y-97954342D02*
X83877255Y-97859104D01*
X83877255Y-97859104D02*
X83829636Y-97763866D01*
X83829636Y-97763866D02*
X83782017Y-97716247D01*
X83782017Y-97716247D02*
X83686779Y-97668628D01*
X83686779Y-97668628D02*
X83496303Y-97621009D01*
X83496303Y-97621009D02*
X83401065Y-97573390D01*
X83401065Y-97573390D02*
X83353446Y-97525771D01*
X83353446Y-97525771D02*
X83305827Y-97430533D01*
X83305827Y-97430533D02*
X83305827Y-97335295D01*
X83305827Y-97335295D02*
X83353446Y-97240057D01*
X83353446Y-97240057D02*
X83401065Y-97192438D01*
X83401065Y-97192438D02*
X83496303Y-97144819D01*
X83496303Y-97144819D02*
X83734398Y-97144819D01*
X83734398Y-97144819D02*
X83877255Y-97192438D01*
X84162970Y-97144819D02*
X84734398Y-97144819D01*
X84448684Y-98144819D02*
X84448684Y-97144819D01*
D11*
X118767652Y-85387180D02*
X118100985Y-85387180D01*
X117815271Y-84339561D02*
X118767652Y-84339561D01*
X118767652Y-84339561D02*
X118767652Y-86339561D01*
X118767652Y-86339561D02*
X117815271Y-86339561D01*
D13*
X132262238Y-116189473D02*
X132214619Y-116284711D01*
X132214619Y-116284711D02*
X132214619Y-116427568D01*
X132214619Y-116427568D02*
X132262238Y-116570425D01*
X132262238Y-116570425D02*
X132357476Y-116665663D01*
X132357476Y-116665663D02*
X132452714Y-116713282D01*
X132452714Y-116713282D02*
X132643190Y-116760901D01*
X132643190Y-116760901D02*
X132786047Y-116760901D01*
X132786047Y-116760901D02*
X132976523Y-116713282D01*
X132976523Y-116713282D02*
X133071761Y-116665663D01*
X133071761Y-116665663D02*
X133167000Y-116570425D01*
X133167000Y-116570425D02*
X133214619Y-116427568D01*
X133214619Y-116427568D02*
X133214619Y-116332330D01*
X133214619Y-116332330D02*
X133167000Y-116189473D01*
X133167000Y-116189473D02*
X133119380Y-116141854D01*
X133119380Y-116141854D02*
X132786047Y-116141854D01*
X132786047Y-116141854D02*
X132786047Y-116332330D01*
X133214619Y-115713282D02*
X132214619Y-115713282D01*
X132214619Y-115713282D02*
X133214619Y-115141854D01*
X133214619Y-115141854D02*
X132214619Y-115141854D01*
X133214619Y-114665663D02*
X132214619Y-114665663D01*
X132214619Y-114665663D02*
X132214619Y-114427568D01*
X132214619Y-114427568D02*
X132262238Y-114284711D01*
X132262238Y-114284711D02*
X132357476Y-114189473D01*
X132357476Y-114189473D02*
X132452714Y-114141854D01*
X132452714Y-114141854D02*
X132643190Y-114094235D01*
X132643190Y-114094235D02*
X132786047Y-114094235D01*
X132786047Y-114094235D02*
X132976523Y-114141854D01*
X132976523Y-114141854D02*
X133071761Y-114189473D01*
X133071761Y-114189473D02*
X133167000Y-114284711D01*
X133167000Y-114284711D02*
X133214619Y-114427568D01*
X133214619Y-114427568D02*
X133214619Y-114665663D01*
D11*
X145639347Y-121709438D02*
X145639347Y-119709438D01*
X145639347Y-119709438D02*
X146782204Y-121709438D01*
X146782204Y-121709438D02*
X146782204Y-119709438D01*
X147544109Y-119709438D02*
X148020299Y-121709438D01*
X148020299Y-121709438D02*
X148401252Y-120280866D01*
X148401252Y-120280866D02*
X148782204Y-121709438D01*
X148782204Y-121709438D02*
X149258395Y-119709438D01*
D10*
X128920900Y-120941917D02*
X128994709Y-120727632D01*
X128994709Y-120727632D02*
X128994709Y-120370489D01*
X128994709Y-120370489D02*
X128920900Y-120227632D01*
X128920900Y-120227632D02*
X128847090Y-120156203D01*
X128847090Y-120156203D02*
X128699471Y-120084774D01*
X128699471Y-120084774D02*
X128551852Y-120084774D01*
X128551852Y-120084774D02*
X128404233Y-120156203D01*
X128404233Y-120156203D02*
X128330423Y-120227632D01*
X128330423Y-120227632D02*
X128256614Y-120370489D01*
X128256614Y-120370489D02*
X128182804Y-120656203D01*
X128182804Y-120656203D02*
X128108995Y-120799060D01*
X128108995Y-120799060D02*
X128035185Y-120870489D01*
X128035185Y-120870489D02*
X127887566Y-120941917D01*
X127887566Y-120941917D02*
X127739947Y-120941917D01*
X127739947Y-120941917D02*
X127592328Y-120870489D01*
X127592328Y-120870489D02*
X127518519Y-120799060D01*
X127518519Y-120799060D02*
X127444709Y-120656203D01*
X127444709Y-120656203D02*
X127444709Y-120299060D01*
X127444709Y-120299060D02*
X127518519Y-120084774D01*
X128994709Y-118727632D02*
X128994709Y-119441918D01*
X128994709Y-119441918D02*
X127444709Y-119441918D01*
X128994709Y-118227632D02*
X127444709Y-118227632D01*
X128994709Y-117513346D02*
X127444709Y-117513346D01*
X127444709Y-117513346D02*
X127444709Y-116941917D01*
X127444709Y-116941917D02*
X127518519Y-116799060D01*
X127518519Y-116799060D02*
X127592328Y-116727631D01*
X127592328Y-116727631D02*
X127739947Y-116656203D01*
X127739947Y-116656203D02*
X127961376Y-116656203D01*
X127961376Y-116656203D02*
X128108995Y-116727631D01*
X128108995Y-116727631D02*
X128182804Y-116799060D01*
X128182804Y-116799060D02*
X128256614Y-116941917D01*
X128256614Y-116941917D02*
X128256614Y-117513346D01*
X128994709Y-114013346D02*
X128256614Y-114513346D01*
X128994709Y-114870489D02*
X127444709Y-114870489D01*
X127444709Y-114870489D02*
X127444709Y-114299060D01*
X127444709Y-114299060D02*
X127518519Y-114156203D01*
X127518519Y-114156203D02*
X127592328Y-114084774D01*
X127592328Y-114084774D02*
X127739947Y-114013346D01*
X127739947Y-114013346D02*
X127961376Y-114013346D01*
X127961376Y-114013346D02*
X128108995Y-114084774D01*
X128108995Y-114084774D02*
X128182804Y-114156203D01*
X128182804Y-114156203D02*
X128256614Y-114299060D01*
X128256614Y-114299060D02*
X128256614Y-114870489D01*
X128994709Y-113370489D02*
X127444709Y-113370489D01*
X128994709Y-112656203D02*
X127444709Y-112656203D01*
X127444709Y-112656203D02*
X128994709Y-111799060D01*
X128994709Y-111799060D02*
X127444709Y-111799060D01*
X127518519Y-110299059D02*
X127444709Y-110441917D01*
X127444709Y-110441917D02*
X127444709Y-110656202D01*
X127444709Y-110656202D02*
X127518519Y-110870488D01*
X127518519Y-110870488D02*
X127666138Y-111013345D01*
X127666138Y-111013345D02*
X127813757Y-111084774D01*
X127813757Y-111084774D02*
X128108995Y-111156202D01*
X128108995Y-111156202D02*
X128330423Y-111156202D01*
X128330423Y-111156202D02*
X128625661Y-111084774D01*
X128625661Y-111084774D02*
X128773280Y-111013345D01*
X128773280Y-111013345D02*
X128920900Y-110870488D01*
X128920900Y-110870488D02*
X128994709Y-110656202D01*
X128994709Y-110656202D02*
X128994709Y-110513345D01*
X128994709Y-110513345D02*
X128920900Y-110299059D01*
X128920900Y-110299059D02*
X128847090Y-110227631D01*
X128847090Y-110227631D02*
X128330423Y-110227631D01*
X128330423Y-110227631D02*
X128330423Y-110513345D01*
D13*
X118322238Y-117849187D02*
X118274619Y-117944425D01*
X118274619Y-117944425D02*
X118274619Y-118087282D01*
X118274619Y-118087282D02*
X118322238Y-118230139D01*
X118322238Y-118230139D02*
X118417476Y-118325377D01*
X118417476Y-118325377D02*
X118512714Y-118372996D01*
X118512714Y-118372996D02*
X118703190Y-118420615D01*
X118703190Y-118420615D02*
X118846047Y-118420615D01*
X118846047Y-118420615D02*
X119036523Y-118372996D01*
X119036523Y-118372996D02*
X119131761Y-118325377D01*
X119131761Y-118325377D02*
X119227000Y-118230139D01*
X119227000Y-118230139D02*
X119274619Y-118087282D01*
X119274619Y-118087282D02*
X119274619Y-117992044D01*
X119274619Y-117992044D02*
X119227000Y-117849187D01*
X119227000Y-117849187D02*
X119179380Y-117801568D01*
X119179380Y-117801568D02*
X118846047Y-117801568D01*
X118846047Y-117801568D02*
X118846047Y-117992044D01*
X119274619Y-117372996D02*
X118274619Y-117372996D01*
X118274619Y-117372996D02*
X119274619Y-116801568D01*
X119274619Y-116801568D02*
X118274619Y-116801568D01*
X119274619Y-116325377D02*
X118274619Y-116325377D01*
X118274619Y-116325377D02*
X118274619Y-116087282D01*
X118274619Y-116087282D02*
X118322238Y-115944425D01*
X118322238Y-115944425D02*
X118417476Y-115849187D01*
X118417476Y-115849187D02*
X118512714Y-115801568D01*
X118512714Y-115801568D02*
X118703190Y-115753949D01*
X118703190Y-115753949D02*
X118846047Y-115753949D01*
X118846047Y-115753949D02*
X119036523Y-115801568D01*
X119036523Y-115801568D02*
X119131761Y-115849187D01*
X119131761Y-115849187D02*
X119227000Y-115944425D01*
X119227000Y-115944425D02*
X119274619Y-116087282D01*
X119274619Y-116087282D02*
X119274619Y-116325377D01*
X123790809Y-117611092D02*
X123838428Y-117468235D01*
X123838428Y-117468235D02*
X123886047Y-117420616D01*
X123886047Y-117420616D02*
X123981285Y-117372997D01*
X123981285Y-117372997D02*
X124124142Y-117372997D01*
X124124142Y-117372997D02*
X124219380Y-117420616D01*
X124219380Y-117420616D02*
X124267000Y-117468235D01*
X124267000Y-117468235D02*
X124314619Y-117563473D01*
X124314619Y-117563473D02*
X124314619Y-117944425D01*
X124314619Y-117944425D02*
X123314619Y-117944425D01*
X123314619Y-117944425D02*
X123314619Y-117611092D01*
X123314619Y-117611092D02*
X123362238Y-117515854D01*
X123362238Y-117515854D02*
X123409857Y-117468235D01*
X123409857Y-117468235D02*
X123505095Y-117420616D01*
X123505095Y-117420616D02*
X123600333Y-117420616D01*
X123600333Y-117420616D02*
X123695571Y-117468235D01*
X123695571Y-117468235D02*
X123743190Y-117515854D01*
X123743190Y-117515854D02*
X123790809Y-117611092D01*
X123790809Y-117611092D02*
X123790809Y-117944425D01*
X124028904Y-116992044D02*
X124028904Y-116515854D01*
X124314619Y-117087282D02*
X123314619Y-116753949D01*
X123314619Y-116753949D02*
X124314619Y-116420616D01*
X123314619Y-116230139D02*
X123314619Y-115658711D01*
X124314619Y-115944425D02*
X123314619Y-115944425D01*
X114187000Y-118134901D02*
X114234619Y-117992044D01*
X114234619Y-117992044D02*
X114234619Y-117753949D01*
X114234619Y-117753949D02*
X114187000Y-117658711D01*
X114187000Y-117658711D02*
X114139380Y-117611092D01*
X114139380Y-117611092D02*
X114044142Y-117563473D01*
X114044142Y-117563473D02*
X113948904Y-117563473D01*
X113948904Y-117563473D02*
X113853666Y-117611092D01*
X113853666Y-117611092D02*
X113806047Y-117658711D01*
X113806047Y-117658711D02*
X113758428Y-117753949D01*
X113758428Y-117753949D02*
X113710809Y-117944425D01*
X113710809Y-117944425D02*
X113663190Y-118039663D01*
X113663190Y-118039663D02*
X113615571Y-118087282D01*
X113615571Y-118087282D02*
X113520333Y-118134901D01*
X113520333Y-118134901D02*
X113425095Y-118134901D01*
X113425095Y-118134901D02*
X113329857Y-118087282D01*
X113329857Y-118087282D02*
X113282238Y-118039663D01*
X113282238Y-118039663D02*
X113234619Y-117944425D01*
X113234619Y-117944425D02*
X113234619Y-117706330D01*
X113234619Y-117706330D02*
X113282238Y-117563473D01*
X114139380Y-116563473D02*
X114187000Y-116611092D01*
X114187000Y-116611092D02*
X114234619Y-116753949D01*
X114234619Y-116753949D02*
X114234619Y-116849187D01*
X114234619Y-116849187D02*
X114187000Y-116992044D01*
X114187000Y-116992044D02*
X114091761Y-117087282D01*
X114091761Y-117087282D02*
X113996523Y-117134901D01*
X113996523Y-117134901D02*
X113806047Y-117182520D01*
X113806047Y-117182520D02*
X113663190Y-117182520D01*
X113663190Y-117182520D02*
X113472714Y-117134901D01*
X113472714Y-117134901D02*
X113377476Y-117087282D01*
X113377476Y-117087282D02*
X113282238Y-116992044D01*
X113282238Y-116992044D02*
X113234619Y-116849187D01*
X113234619Y-116849187D02*
X113234619Y-116753949D01*
X113234619Y-116753949D02*
X113282238Y-116611092D01*
X113282238Y-116611092D02*
X113329857Y-116563473D01*
X114234619Y-115658711D02*
X114234619Y-116134901D01*
X114234619Y-116134901D02*
X113234619Y-116134901D01*
X110714619Y-117087282D02*
X110714619Y-116896806D01*
X110714619Y-116896806D02*
X110762238Y-116801568D01*
X110762238Y-116801568D02*
X110857476Y-116706330D01*
X110857476Y-116706330D02*
X111047952Y-116658711D01*
X111047952Y-116658711D02*
X111381285Y-116658711D01*
X111381285Y-116658711D02*
X111571761Y-116706330D01*
X111571761Y-116706330D02*
X111667000Y-116801568D01*
X111667000Y-116801568D02*
X111714619Y-116896806D01*
X111714619Y-116896806D02*
X111714619Y-117087282D01*
X111714619Y-117087282D02*
X111667000Y-117182520D01*
X111667000Y-117182520D02*
X111571761Y-117277758D01*
X111571761Y-117277758D02*
X111381285Y-117325377D01*
X111381285Y-117325377D02*
X111047952Y-117325377D01*
X111047952Y-117325377D02*
X110857476Y-117277758D01*
X110857476Y-117277758D02*
X110762238Y-117182520D01*
X110762238Y-117182520D02*
X110714619Y-117087282D01*
X111190809Y-116230139D02*
X111190809Y-115896806D01*
X111714619Y-115753949D02*
X111714619Y-116230139D01*
X111714619Y-116230139D02*
X110714619Y-116230139D01*
X110714619Y-116230139D02*
X110714619Y-115753949D01*
X142715809Y-116379949D02*
X142763428Y-116237092D01*
X142763428Y-116237092D02*
X142811047Y-116189473D01*
X142811047Y-116189473D02*
X142906285Y-116141854D01*
X142906285Y-116141854D02*
X143049142Y-116141854D01*
X143049142Y-116141854D02*
X143144380Y-116189473D01*
X143144380Y-116189473D02*
X143192000Y-116237092D01*
X143192000Y-116237092D02*
X143239619Y-116332330D01*
X143239619Y-116332330D02*
X143239619Y-116713282D01*
X143239619Y-116713282D02*
X142239619Y-116713282D01*
X142239619Y-116713282D02*
X142239619Y-116379949D01*
X142239619Y-116379949D02*
X142287238Y-116284711D01*
X142287238Y-116284711D02*
X142334857Y-116237092D01*
X142334857Y-116237092D02*
X142430095Y-116189473D01*
X142430095Y-116189473D02*
X142525333Y-116189473D01*
X142525333Y-116189473D02*
X142620571Y-116237092D01*
X142620571Y-116237092D02*
X142668190Y-116284711D01*
X142668190Y-116284711D02*
X142715809Y-116379949D01*
X142715809Y-116379949D02*
X142715809Y-116713282D01*
X142953904Y-115760901D02*
X142953904Y-115284711D01*
X143239619Y-115856139D02*
X142239619Y-115522806D01*
X142239619Y-115522806D02*
X143239619Y-115189473D01*
X142239619Y-114998996D02*
X142239619Y-114427568D01*
X143239619Y-114713282D02*
X142239619Y-114713282D01*
X135673250Y-116760901D02*
X135720869Y-116618044D01*
X135720869Y-116618044D02*
X135720869Y-116379949D01*
X135720869Y-116379949D02*
X135673250Y-116284711D01*
X135673250Y-116284711D02*
X135625630Y-116237092D01*
X135625630Y-116237092D02*
X135530392Y-116189473D01*
X135530392Y-116189473D02*
X135435154Y-116189473D01*
X135435154Y-116189473D02*
X135339916Y-116237092D01*
X135339916Y-116237092D02*
X135292297Y-116284711D01*
X135292297Y-116284711D02*
X135244678Y-116379949D01*
X135244678Y-116379949D02*
X135197059Y-116570425D01*
X135197059Y-116570425D02*
X135149440Y-116665663D01*
X135149440Y-116665663D02*
X135101821Y-116713282D01*
X135101821Y-116713282D02*
X135006583Y-116760901D01*
X135006583Y-116760901D02*
X134911345Y-116760901D01*
X134911345Y-116760901D02*
X134816107Y-116713282D01*
X134816107Y-116713282D02*
X134768488Y-116665663D01*
X134768488Y-116665663D02*
X134720869Y-116570425D01*
X134720869Y-116570425D02*
X134720869Y-116332330D01*
X134720869Y-116332330D02*
X134768488Y-116189473D01*
X135625630Y-115189473D02*
X135673250Y-115237092D01*
X135673250Y-115237092D02*
X135720869Y-115379949D01*
X135720869Y-115379949D02*
X135720869Y-115475187D01*
X135720869Y-115475187D02*
X135673250Y-115618044D01*
X135673250Y-115618044D02*
X135578011Y-115713282D01*
X135578011Y-115713282D02*
X135482773Y-115760901D01*
X135482773Y-115760901D02*
X135292297Y-115808520D01*
X135292297Y-115808520D02*
X135149440Y-115808520D01*
X135149440Y-115808520D02*
X134958964Y-115760901D01*
X134958964Y-115760901D02*
X134863726Y-115713282D01*
X134863726Y-115713282D02*
X134768488Y-115618044D01*
X134768488Y-115618044D02*
X134720869Y-115475187D01*
X134720869Y-115475187D02*
X134720869Y-115379949D01*
X134720869Y-115379949D02*
X134768488Y-115237092D01*
X134768488Y-115237092D02*
X134816107Y-115189473D01*
X135720869Y-114284711D02*
X135720869Y-114760901D01*
X135720869Y-114760901D02*
X134720869Y-114760901D01*
D10*
X149257804Y-106470489D02*
X149331614Y-106256203D01*
X149331614Y-106256203D02*
X149405423Y-106184774D01*
X149405423Y-106184774D02*
X149553042Y-106113346D01*
X149553042Y-106113346D02*
X149774471Y-106113346D01*
X149774471Y-106113346D02*
X149922090Y-106184774D01*
X149922090Y-106184774D02*
X149995900Y-106256203D01*
X149995900Y-106256203D02*
X150069709Y-106399060D01*
X150069709Y-106399060D02*
X150069709Y-106970489D01*
X150069709Y-106970489D02*
X148519709Y-106970489D01*
X148519709Y-106970489D02*
X148519709Y-106470489D01*
X148519709Y-106470489D02*
X148593519Y-106327632D01*
X148593519Y-106327632D02*
X148667328Y-106256203D01*
X148667328Y-106256203D02*
X148814947Y-106184774D01*
X148814947Y-106184774D02*
X148962566Y-106184774D01*
X148962566Y-106184774D02*
X149110185Y-106256203D01*
X149110185Y-106256203D02*
X149183995Y-106327632D01*
X149183995Y-106327632D02*
X149257804Y-106470489D01*
X149257804Y-106470489D02*
X149257804Y-106970489D01*
X149626852Y-105541917D02*
X149626852Y-104827632D01*
X150069709Y-105684774D02*
X148519709Y-105184774D01*
X148519709Y-105184774D02*
X150069709Y-104684774D01*
X148519709Y-104399060D02*
X148519709Y-103541918D01*
X150069709Y-103970489D02*
X148519709Y-103970489D01*
X148519709Y-103256203D02*
X148519709Y-102399061D01*
X150069709Y-102827632D02*
X148519709Y-102827632D01*
X149257804Y-101899061D02*
X149257804Y-101399061D01*
X150069709Y-101184775D02*
X150069709Y-101899061D01*
X150069709Y-101899061D02*
X148519709Y-101899061D01*
X148519709Y-101899061D02*
X148519709Y-101184775D01*
X150069709Y-99684775D02*
X149331614Y-100184775D01*
X150069709Y-100541918D02*
X148519709Y-100541918D01*
X148519709Y-100541918D02*
X148519709Y-99970489D01*
X148519709Y-99970489D02*
X148593519Y-99827632D01*
X148593519Y-99827632D02*
X148667328Y-99756203D01*
X148667328Y-99756203D02*
X148814947Y-99684775D01*
X148814947Y-99684775D02*
X149036376Y-99684775D01*
X149036376Y-99684775D02*
X149183995Y-99756203D01*
X149183995Y-99756203D02*
X149257804Y-99827632D01*
X149257804Y-99827632D02*
X149331614Y-99970489D01*
X149331614Y-99970489D02*
X149331614Y-100541918D01*
X149331614Y-98756203D02*
X150069709Y-98756203D01*
X148519709Y-99256203D02*
X149331614Y-98756203D01*
X149331614Y-98756203D02*
X148519709Y-98256203D01*
X84787828Y-109895774D02*
X84787828Y-109038632D01*
X86287828Y-109467203D02*
X84787828Y-109467203D01*
X84787828Y-108538632D02*
X86002114Y-108538632D01*
X86002114Y-108538632D02*
X86144971Y-108467203D01*
X86144971Y-108467203D02*
X86216400Y-108395775D01*
X86216400Y-108395775D02*
X86287828Y-108252917D01*
X86287828Y-108252917D02*
X86287828Y-107967203D01*
X86287828Y-107967203D02*
X86216400Y-107824346D01*
X86216400Y-107824346D02*
X86144971Y-107752917D01*
X86144971Y-107752917D02*
X86002114Y-107681489D01*
X86002114Y-107681489D02*
X84787828Y-107681489D01*
X86287828Y-106110060D02*
X85573542Y-106610060D01*
X86287828Y-106967203D02*
X84787828Y-106967203D01*
X84787828Y-106967203D02*
X84787828Y-106395774D01*
X84787828Y-106395774D02*
X84859257Y-106252917D01*
X84859257Y-106252917D02*
X84930685Y-106181488D01*
X84930685Y-106181488D02*
X85073542Y-106110060D01*
X85073542Y-106110060D02*
X85287828Y-106110060D01*
X85287828Y-106110060D02*
X85430685Y-106181488D01*
X85430685Y-106181488D02*
X85502114Y-106252917D01*
X85502114Y-106252917D02*
X85573542Y-106395774D01*
X85573542Y-106395774D02*
X85573542Y-106967203D01*
X86287828Y-104610060D02*
X85573542Y-105110060D01*
X86287828Y-105467203D02*
X84787828Y-105467203D01*
X84787828Y-105467203D02*
X84787828Y-104895774D01*
X84787828Y-104895774D02*
X84859257Y-104752917D01*
X84859257Y-104752917D02*
X84930685Y-104681488D01*
X84930685Y-104681488D02*
X85073542Y-104610060D01*
X85073542Y-104610060D02*
X85287828Y-104610060D01*
X85287828Y-104610060D02*
X85430685Y-104681488D01*
X85430685Y-104681488D02*
X85502114Y-104752917D01*
X85502114Y-104752917D02*
X85573542Y-104895774D01*
X85573542Y-104895774D02*
X85573542Y-105467203D01*
X85502114Y-103967203D02*
X85502114Y-103467203D01*
X86287828Y-103252917D02*
X86287828Y-103967203D01*
X86287828Y-103967203D02*
X84787828Y-103967203D01*
X84787828Y-103967203D02*
X84787828Y-103252917D01*
X84787828Y-102824345D02*
X84787828Y-101967203D01*
X86287828Y-102395774D02*
X84787828Y-102395774D01*
D12*
X107069819Y-99533458D02*
X107069819Y-98914411D01*
X107069819Y-98914411D02*
X107450771Y-99247744D01*
X107450771Y-99247744D02*
X107450771Y-99104887D01*
X107450771Y-99104887D02*
X107498390Y-99009649D01*
X107498390Y-99009649D02*
X107546009Y-98962030D01*
X107546009Y-98962030D02*
X107641247Y-98914411D01*
X107641247Y-98914411D02*
X107879342Y-98914411D01*
X107879342Y-98914411D02*
X107974580Y-98962030D01*
X107974580Y-98962030D02*
X108022200Y-99009649D01*
X108022200Y-99009649D02*
X108069819Y-99104887D01*
X108069819Y-99104887D02*
X108069819Y-99390601D01*
X108069819Y-99390601D02*
X108022200Y-99485839D01*
X108022200Y-99485839D02*
X107974580Y-99533458D01*
X107069819Y-98628696D02*
X108069819Y-98295363D01*
X108069819Y-98295363D02*
X107069819Y-97962030D01*
X107069819Y-97723934D02*
X107069819Y-97104887D01*
X107069819Y-97104887D02*
X107450771Y-97438220D01*
X107450771Y-97438220D02*
X107450771Y-97295363D01*
X107450771Y-97295363D02*
X107498390Y-97200125D01*
X107498390Y-97200125D02*
X107546009Y-97152506D01*
X107546009Y-97152506D02*
X107641247Y-97104887D01*
X107641247Y-97104887D02*
X107879342Y-97104887D01*
X107879342Y-97104887D02*
X107974580Y-97152506D01*
X107974580Y-97152506D02*
X108022200Y-97200125D01*
X108022200Y-97200125D02*
X108069819Y-97295363D01*
X108069819Y-97295363D02*
X108069819Y-97581077D01*
X108069819Y-97581077D02*
X108022200Y-97676315D01*
X108022200Y-97676315D02*
X107974580Y-97723934D01*
X107069819Y-96057267D02*
X107069819Y-95485839D01*
X108069819Y-95771553D02*
X107069819Y-95771553D01*
X107546009Y-95152505D02*
X107546009Y-94819172D01*
X108069819Y-94676315D02*
X108069819Y-95152505D01*
X108069819Y-95152505D02*
X107069819Y-95152505D01*
X107069819Y-95152505D02*
X107069819Y-94676315D01*
X108022200Y-94295362D02*
X108069819Y-94152505D01*
X108069819Y-94152505D02*
X108069819Y-93914410D01*
X108069819Y-93914410D02*
X108022200Y-93819172D01*
X108022200Y-93819172D02*
X107974580Y-93771553D01*
X107974580Y-93771553D02*
X107879342Y-93723934D01*
X107879342Y-93723934D02*
X107784104Y-93723934D01*
X107784104Y-93723934D02*
X107688866Y-93771553D01*
X107688866Y-93771553D02*
X107641247Y-93819172D01*
X107641247Y-93819172D02*
X107593628Y-93914410D01*
X107593628Y-93914410D02*
X107546009Y-94104886D01*
X107546009Y-94104886D02*
X107498390Y-94200124D01*
X107498390Y-94200124D02*
X107450771Y-94247743D01*
X107450771Y-94247743D02*
X107355533Y-94295362D01*
X107355533Y-94295362D02*
X107260295Y-94295362D01*
X107260295Y-94295362D02*
X107165057Y-94247743D01*
X107165057Y-94247743D02*
X107117438Y-94200124D01*
X107117438Y-94200124D02*
X107069819Y-94104886D01*
X107069819Y-94104886D02*
X107069819Y-93866791D01*
X107069819Y-93866791D02*
X107117438Y-93723934D01*
X107069819Y-93438219D02*
X107069819Y-92866791D01*
X108069819Y-93152505D02*
X107069819Y-93152505D01*
X104532267Y-107109875D02*
X104056077Y-107109875D01*
X104056077Y-107109875D02*
X104056077Y-106109875D01*
X105437029Y-107014636D02*
X105389410Y-107062256D01*
X105389410Y-107062256D02*
X105246553Y-107109875D01*
X105246553Y-107109875D02*
X105151315Y-107109875D01*
X105151315Y-107109875D02*
X105008458Y-107062256D01*
X105008458Y-107062256D02*
X104913220Y-106967017D01*
X104913220Y-106967017D02*
X104865601Y-106871779D01*
X104865601Y-106871779D02*
X104817982Y-106681303D01*
X104817982Y-106681303D02*
X104817982Y-106538446D01*
X104817982Y-106538446D02*
X104865601Y-106347970D01*
X104865601Y-106347970D02*
X104913220Y-106252732D01*
X104913220Y-106252732D02*
X105008458Y-106157494D01*
X105008458Y-106157494D02*
X105151315Y-106109875D01*
X105151315Y-106109875D02*
X105246553Y-106109875D01*
X105246553Y-106109875D02*
X105389410Y-106157494D01*
X105389410Y-106157494D02*
X105437029Y-106205113D01*
X105722744Y-106109875D02*
X106294172Y-106109875D01*
X106008458Y-107109875D02*
X106008458Y-106109875D01*
X107198934Y-107109875D02*
X106865601Y-106633684D01*
X106627506Y-107109875D02*
X106627506Y-106109875D01*
X106627506Y-106109875D02*
X107008458Y-106109875D01*
X107008458Y-106109875D02*
X107103696Y-106157494D01*
X107103696Y-106157494D02*
X107151315Y-106205113D01*
X107151315Y-106205113D02*
X107198934Y-106300351D01*
X107198934Y-106300351D02*
X107198934Y-106443208D01*
X107198934Y-106443208D02*
X107151315Y-106538446D01*
X107151315Y-106538446D02*
X107103696Y-106586065D01*
X107103696Y-106586065D02*
X107008458Y-106633684D01*
X107008458Y-106633684D02*
X106627506Y-106633684D01*
X108103696Y-107109875D02*
X107627506Y-107109875D01*
X107627506Y-107109875D02*
X107627506Y-106109875D01*
X108389411Y-106205113D02*
X108437030Y-106157494D01*
X108437030Y-106157494D02*
X108532268Y-106109875D01*
X108532268Y-106109875D02*
X108770363Y-106109875D01*
X108770363Y-106109875D02*
X108865601Y-106157494D01*
X108865601Y-106157494D02*
X108913220Y-106205113D01*
X108913220Y-106205113D02*
X108960839Y-106300351D01*
X108960839Y-106300351D02*
X108960839Y-106395589D01*
X108960839Y-106395589D02*
X108913220Y-106538446D01*
X108913220Y-106538446D02*
X108341792Y-107109875D01*
X108341792Y-107109875D02*
X108960839Y-107109875D01*
X105865601Y-107719819D02*
X106437029Y-107719819D01*
X106151315Y-108719819D02*
X106151315Y-107719819D01*
X106770363Y-108196009D02*
X107103696Y-108196009D01*
X107246553Y-108719819D02*
X106770363Y-108719819D01*
X106770363Y-108719819D02*
X106770363Y-107719819D01*
X106770363Y-107719819D02*
X107246553Y-107719819D01*
X107627506Y-108672200D02*
X107770363Y-108719819D01*
X107770363Y-108719819D02*
X108008458Y-108719819D01*
X108008458Y-108719819D02*
X108103696Y-108672200D01*
X108103696Y-108672200D02*
X108151315Y-108624580D01*
X108151315Y-108624580D02*
X108198934Y-108529342D01*
X108198934Y-108529342D02*
X108198934Y-108434104D01*
X108198934Y-108434104D02*
X108151315Y-108338866D01*
X108151315Y-108338866D02*
X108103696Y-108291247D01*
X108103696Y-108291247D02*
X108008458Y-108243628D01*
X108008458Y-108243628D02*
X107817982Y-108196009D01*
X107817982Y-108196009D02*
X107722744Y-108148390D01*
X107722744Y-108148390D02*
X107675125Y-108100771D01*
X107675125Y-108100771D02*
X107627506Y-108005533D01*
X107627506Y-108005533D02*
X107627506Y-107910295D01*
X107627506Y-107910295D02*
X107675125Y-107815057D01*
X107675125Y-107815057D02*
X107722744Y-107767438D01*
X107722744Y-107767438D02*
X107817982Y-107719819D01*
X107817982Y-107719819D02*
X108056077Y-107719819D01*
X108056077Y-107719819D02*
X108198934Y-107767438D01*
X108484649Y-107719819D02*
X109056077Y-107719819D01*
X108770363Y-108719819D02*
X108770363Y-107719819D01*
X106820112Y-86296009D02*
X106962969Y-86343628D01*
X106962969Y-86343628D02*
X107010588Y-86391247D01*
X107010588Y-86391247D02*
X107058207Y-86486485D01*
X107058207Y-86486485D02*
X107058207Y-86629342D01*
X107058207Y-86629342D02*
X107010588Y-86724580D01*
X107010588Y-86724580D02*
X106962969Y-86772200D01*
X106962969Y-86772200D02*
X106867731Y-86819819D01*
X106867731Y-86819819D02*
X106486779Y-86819819D01*
X106486779Y-86819819D02*
X106486779Y-85819819D01*
X106486779Y-85819819D02*
X106820112Y-85819819D01*
X106820112Y-85819819D02*
X106915350Y-85867438D01*
X106915350Y-85867438D02*
X106962969Y-85915057D01*
X106962969Y-85915057D02*
X107010588Y-86010295D01*
X107010588Y-86010295D02*
X107010588Y-86105533D01*
X107010588Y-86105533D02*
X106962969Y-86200771D01*
X106962969Y-86200771D02*
X106915350Y-86248390D01*
X106915350Y-86248390D02*
X106820112Y-86296009D01*
X106820112Y-86296009D02*
X106486779Y-86296009D01*
X107439160Y-86534104D02*
X107915350Y-86534104D01*
X107343922Y-86819819D02*
X107677255Y-85819819D01*
X107677255Y-85819819D02*
X108010588Y-86819819D01*
X108201065Y-85819819D02*
X108772493Y-85819819D01*
X108486779Y-86819819D02*
X108486779Y-85819819D01*
X109724875Y-85819819D02*
X110296303Y-85819819D01*
X110010589Y-86819819D02*
X110010589Y-85819819D01*
X110629637Y-86296009D02*
X110962970Y-86296009D01*
X111105827Y-86819819D02*
X110629637Y-86819819D01*
X110629637Y-86819819D02*
X110629637Y-85819819D01*
X110629637Y-85819819D02*
X111105827Y-85819819D01*
X111486780Y-86772200D02*
X111629637Y-86819819D01*
X111629637Y-86819819D02*
X111867732Y-86819819D01*
X111867732Y-86819819D02*
X111962970Y-86772200D01*
X111962970Y-86772200D02*
X112010589Y-86724580D01*
X112010589Y-86724580D02*
X112058208Y-86629342D01*
X112058208Y-86629342D02*
X112058208Y-86534104D01*
X112058208Y-86534104D02*
X112010589Y-86438866D01*
X112010589Y-86438866D02*
X111962970Y-86391247D01*
X111962970Y-86391247D02*
X111867732Y-86343628D01*
X111867732Y-86343628D02*
X111677256Y-86296009D01*
X111677256Y-86296009D02*
X111582018Y-86248390D01*
X111582018Y-86248390D02*
X111534399Y-86200771D01*
X111534399Y-86200771D02*
X111486780Y-86105533D01*
X111486780Y-86105533D02*
X111486780Y-86010295D01*
X111486780Y-86010295D02*
X111534399Y-85915057D01*
X111534399Y-85915057D02*
X111582018Y-85867438D01*
X111582018Y-85867438D02*
X111677256Y-85819819D01*
X111677256Y-85819819D02*
X111915351Y-85819819D01*
X111915351Y-85819819D02*
X112058208Y-85867438D01*
X112343923Y-85819819D02*
X112915351Y-85819819D01*
X112629637Y-86819819D02*
X112629637Y-85819819D01*
D10*
X83872912Y-114996939D02*
X83872912Y-115711225D01*
X83872912Y-115711225D02*
X82372912Y-115711225D01*
X83087198Y-114496939D02*
X83087198Y-113996939D01*
X83872912Y-113782653D02*
X83872912Y-114496939D01*
X83872912Y-114496939D02*
X82372912Y-114496939D01*
X82372912Y-114496939D02*
X82372912Y-113782653D01*
X83087198Y-112639796D02*
X83087198Y-113139796D01*
X83872912Y-113139796D02*
X82372912Y-113139796D01*
X82372912Y-113139796D02*
X82372912Y-112425510D01*
X82372912Y-112068367D02*
X82372912Y-111211225D01*
X83872912Y-111639796D02*
X82372912Y-111639796D01*
X84787828Y-117854081D02*
X84787828Y-116996939D01*
X86287828Y-117425510D02*
X84787828Y-117425510D01*
X86287828Y-115639796D02*
X85573542Y-116139796D01*
X86287828Y-116496939D02*
X84787828Y-116496939D01*
X84787828Y-116496939D02*
X84787828Y-115925510D01*
X84787828Y-115925510D02*
X84859257Y-115782653D01*
X84859257Y-115782653D02*
X84930685Y-115711224D01*
X84930685Y-115711224D02*
X85073542Y-115639796D01*
X85073542Y-115639796D02*
X85287828Y-115639796D01*
X85287828Y-115639796D02*
X85430685Y-115711224D01*
X85430685Y-115711224D02*
X85502114Y-115782653D01*
X85502114Y-115782653D02*
X85573542Y-115925510D01*
X85573542Y-115925510D02*
X85573542Y-116496939D01*
X85859257Y-115068367D02*
X85859257Y-114354082D01*
X86287828Y-115211224D02*
X84787828Y-114711224D01*
X84787828Y-114711224D02*
X86287828Y-114211224D01*
X86144971Y-112854082D02*
X86216400Y-112925510D01*
X86216400Y-112925510D02*
X86287828Y-113139796D01*
X86287828Y-113139796D02*
X86287828Y-113282653D01*
X86287828Y-113282653D02*
X86216400Y-113496939D01*
X86216400Y-113496939D02*
X86073542Y-113639796D01*
X86073542Y-113639796D02*
X85930685Y-113711225D01*
X85930685Y-113711225D02*
X85644971Y-113782653D01*
X85644971Y-113782653D02*
X85430685Y-113782653D01*
X85430685Y-113782653D02*
X85144971Y-113711225D01*
X85144971Y-113711225D02*
X85002114Y-113639796D01*
X85002114Y-113639796D02*
X84859257Y-113496939D01*
X84859257Y-113496939D02*
X84787828Y-113282653D01*
X84787828Y-113282653D02*
X84787828Y-113139796D01*
X84787828Y-113139796D02*
X84859257Y-112925510D01*
X84859257Y-112925510D02*
X84930685Y-112854082D01*
X86287828Y-112211225D02*
X84787828Y-112211225D01*
X86287828Y-111354082D02*
X85430685Y-111996939D01*
X84787828Y-111354082D02*
X85644971Y-112211225D01*
X132329510Y-112432804D02*
X132829510Y-112432804D01*
X133043796Y-113244709D02*
X132329510Y-113244709D01*
X132329510Y-113244709D02*
X132329510Y-111694709D01*
X132329510Y-111694709D02*
X133043796Y-111694709D01*
X133543796Y-111694709D02*
X134543796Y-113244709D01*
X134543796Y-111694709D02*
X133543796Y-113244709D01*
X135115224Y-113244709D02*
X135115224Y-111694709D01*
X135115224Y-111694709D02*
X135686653Y-111694709D01*
X135686653Y-111694709D02*
X135829510Y-111768519D01*
X135829510Y-111768519D02*
X135900939Y-111842328D01*
X135900939Y-111842328D02*
X135972367Y-111989947D01*
X135972367Y-111989947D02*
X135972367Y-112211376D01*
X135972367Y-112211376D02*
X135900939Y-112358995D01*
X135900939Y-112358995D02*
X135829510Y-112432804D01*
X135829510Y-112432804D02*
X135686653Y-112506614D01*
X135686653Y-112506614D02*
X135115224Y-112506614D01*
X136543796Y-112801852D02*
X137258082Y-112801852D01*
X136400939Y-113244709D02*
X136900939Y-111694709D01*
X136900939Y-111694709D02*
X137400939Y-113244709D01*
X137900938Y-113244709D02*
X137900938Y-111694709D01*
X137900938Y-111694709D02*
X138758081Y-113244709D01*
X138758081Y-113244709D02*
X138758081Y-111694709D01*
X139400939Y-113170900D02*
X139615225Y-113244709D01*
X139615225Y-113244709D02*
X139972367Y-113244709D01*
X139972367Y-113244709D02*
X140115225Y-113170900D01*
X140115225Y-113170900D02*
X140186653Y-113097090D01*
X140186653Y-113097090D02*
X140258082Y-112949471D01*
X140258082Y-112949471D02*
X140258082Y-112801852D01*
X140258082Y-112801852D02*
X140186653Y-112654233D01*
X140186653Y-112654233D02*
X140115225Y-112580423D01*
X140115225Y-112580423D02*
X139972367Y-112506614D01*
X139972367Y-112506614D02*
X139686653Y-112432804D01*
X139686653Y-112432804D02*
X139543796Y-112358995D01*
X139543796Y-112358995D02*
X139472367Y-112285185D01*
X139472367Y-112285185D02*
X139400939Y-112137566D01*
X139400939Y-112137566D02*
X139400939Y-111989947D01*
X139400939Y-111989947D02*
X139472367Y-111842328D01*
X139472367Y-111842328D02*
X139543796Y-111768519D01*
X139543796Y-111768519D02*
X139686653Y-111694709D01*
X139686653Y-111694709D02*
X140043796Y-111694709D01*
X140043796Y-111694709D02*
X140258082Y-111768519D01*
X140900938Y-113244709D02*
X140900938Y-111694709D01*
X141900939Y-111694709D02*
X142186653Y-111694709D01*
X142186653Y-111694709D02*
X142329510Y-111768519D01*
X142329510Y-111768519D02*
X142472367Y-111916138D01*
X142472367Y-111916138D02*
X142543796Y-112211376D01*
X142543796Y-112211376D02*
X142543796Y-112728042D01*
X142543796Y-112728042D02*
X142472367Y-113023280D01*
X142472367Y-113023280D02*
X142329510Y-113170900D01*
X142329510Y-113170900D02*
X142186653Y-113244709D01*
X142186653Y-113244709D02*
X141900939Y-113244709D01*
X141900939Y-113244709D02*
X141758082Y-113170900D01*
X141758082Y-113170900D02*
X141615224Y-113023280D01*
X141615224Y-113023280D02*
X141543796Y-112728042D01*
X141543796Y-112728042D02*
X141543796Y-112211376D01*
X141543796Y-112211376D02*
X141615224Y-111916138D01*
X141615224Y-111916138D02*
X141758082Y-111768519D01*
X141758082Y-111768519D02*
X141900939Y-111694709D01*
X143186653Y-113244709D02*
X143186653Y-111694709D01*
X143186653Y-111694709D02*
X144043796Y-113244709D01*
X144043796Y-113244709D02*
X144043796Y-111694709D01*
D13*
X139733369Y-116808520D02*
X139733369Y-116189473D01*
X139733369Y-116189473D02*
X140114321Y-116522806D01*
X140114321Y-116522806D02*
X140114321Y-116379949D01*
X140114321Y-116379949D02*
X140161940Y-116284711D01*
X140161940Y-116284711D02*
X140209559Y-116237092D01*
X140209559Y-116237092D02*
X140304797Y-116189473D01*
X140304797Y-116189473D02*
X140542892Y-116189473D01*
X140542892Y-116189473D02*
X140638130Y-116237092D01*
X140638130Y-116237092D02*
X140685750Y-116284711D01*
X140685750Y-116284711D02*
X140733369Y-116379949D01*
X140733369Y-116379949D02*
X140733369Y-116665663D01*
X140733369Y-116665663D02*
X140685750Y-116760901D01*
X140685750Y-116760901D02*
X140638130Y-116808520D01*
X139733369Y-115903758D02*
X140733369Y-115570425D01*
X140733369Y-115570425D02*
X139733369Y-115237092D01*
X139733369Y-114998996D02*
X139733369Y-114379949D01*
X139733369Y-114379949D02*
X140114321Y-114713282D01*
X140114321Y-114713282D02*
X140114321Y-114570425D01*
X140114321Y-114570425D02*
X140161940Y-114475187D01*
X140161940Y-114475187D02*
X140209559Y-114427568D01*
X140209559Y-114427568D02*
X140304797Y-114379949D01*
X140304797Y-114379949D02*
X140542892Y-114379949D01*
X140542892Y-114379949D02*
X140638130Y-114427568D01*
X140638130Y-114427568D02*
X140685750Y-114475187D01*
X140685750Y-114475187D02*
X140733369Y-114570425D01*
X140733369Y-114570425D02*
X140733369Y-114856139D01*
X140733369Y-114856139D02*
X140685750Y-114951377D01*
X140685750Y-114951377D02*
X140638130Y-114998996D01*
D11*
X81894800Y-102244109D02*
X81799561Y-102529823D01*
X81799561Y-102529823D02*
X81799561Y-103006014D01*
X81799561Y-103006014D02*
X81894800Y-103196490D01*
X81894800Y-103196490D02*
X81990038Y-103291728D01*
X81990038Y-103291728D02*
X82180514Y-103386966D01*
X82180514Y-103386966D02*
X82370990Y-103386966D01*
X82370990Y-103386966D02*
X82561466Y-103291728D01*
X82561466Y-103291728D02*
X82656704Y-103196490D01*
X82656704Y-103196490D02*
X82751942Y-103006014D01*
X82751942Y-103006014D02*
X82847180Y-102625061D01*
X82847180Y-102625061D02*
X82942419Y-102434585D01*
X82942419Y-102434585D02*
X83037657Y-102339347D01*
X83037657Y-102339347D02*
X83228133Y-102244109D01*
X83228133Y-102244109D02*
X83418609Y-102244109D01*
X83418609Y-102244109D02*
X83609085Y-102339347D01*
X83609085Y-102339347D02*
X83704323Y-102434585D01*
X83704323Y-102434585D02*
X83799561Y-102625061D01*
X83799561Y-102625061D02*
X83799561Y-103101252D01*
X83799561Y-103101252D02*
X83704323Y-103386966D01*
X89017890Y-84180800D02*
X88732176Y-84085561D01*
X88732176Y-84085561D02*
X88255985Y-84085561D01*
X88255985Y-84085561D02*
X88065509Y-84180800D01*
X88065509Y-84180800D02*
X87970271Y-84276038D01*
X87970271Y-84276038D02*
X87875033Y-84466514D01*
X87875033Y-84466514D02*
X87875033Y-84656990D01*
X87875033Y-84656990D02*
X87970271Y-84847466D01*
X87970271Y-84847466D02*
X88065509Y-84942704D01*
X88065509Y-84942704D02*
X88255985Y-85037942D01*
X88255985Y-85037942D02*
X88636938Y-85133180D01*
X88636938Y-85133180D02*
X88827414Y-85228419D01*
X88827414Y-85228419D02*
X88922652Y-85323657D01*
X88922652Y-85323657D02*
X89017890Y-85514133D01*
X89017890Y-85514133D02*
X89017890Y-85704609D01*
X89017890Y-85704609D02*
X88922652Y-85895085D01*
X88922652Y-85895085D02*
X88827414Y-85990323D01*
X88827414Y-85990323D02*
X88636938Y-86085561D01*
X88636938Y-86085561D02*
X88160747Y-86085561D01*
X88160747Y-86085561D02*
X87875033Y-85990323D01*
X87017890Y-85133180D02*
X86351223Y-85133180D01*
X86065509Y-84085561D02*
X87017890Y-84085561D01*
X87017890Y-84085561D02*
X87017890Y-86085561D01*
X87017890Y-86085561D02*
X86065509Y-86085561D01*
D12*
X90060588Y-96007494D02*
X89965350Y-95959875D01*
X89965350Y-95959875D02*
X89822493Y-95959875D01*
X89822493Y-95959875D02*
X89679636Y-96007494D01*
X89679636Y-96007494D02*
X89584398Y-96102732D01*
X89584398Y-96102732D02*
X89536779Y-96197970D01*
X89536779Y-96197970D02*
X89489160Y-96388446D01*
X89489160Y-96388446D02*
X89489160Y-96531303D01*
X89489160Y-96531303D02*
X89536779Y-96721779D01*
X89536779Y-96721779D02*
X89584398Y-96817017D01*
X89584398Y-96817017D02*
X89679636Y-96912256D01*
X89679636Y-96912256D02*
X89822493Y-96959875D01*
X89822493Y-96959875D02*
X89917731Y-96959875D01*
X89917731Y-96959875D02*
X90060588Y-96912256D01*
X90060588Y-96912256D02*
X90108207Y-96864636D01*
X90108207Y-96864636D02*
X90108207Y-96531303D01*
X90108207Y-96531303D02*
X89917731Y-96531303D01*
X90536779Y-96959875D02*
X90536779Y-95959875D01*
X90536779Y-95959875D02*
X91108207Y-96959875D01*
X91108207Y-96959875D02*
X91108207Y-95959875D01*
X91584398Y-96959875D02*
X91584398Y-95959875D01*
X91584398Y-95959875D02*
X91822493Y-95959875D01*
X91822493Y-95959875D02*
X91965350Y-96007494D01*
X91965350Y-96007494D02*
X92060588Y-96102732D01*
X92060588Y-96102732D02*
X92108207Y-96197970D01*
X92108207Y-96197970D02*
X92155826Y-96388446D01*
X92155826Y-96388446D02*
X92155826Y-96531303D01*
X92155826Y-96531303D02*
X92108207Y-96721779D01*
X92108207Y-96721779D02*
X92060588Y-96817017D01*
X92060588Y-96817017D02*
X91965350Y-96912256D01*
X91965350Y-96912256D02*
X91822493Y-96959875D01*
X91822493Y-96959875D02*
X91584398Y-96959875D01*
X89393922Y-97569819D02*
X89965350Y-97569819D01*
X89679636Y-98569819D02*
X89679636Y-97569819D01*
X90298684Y-98046009D02*
X90632017Y-98046009D01*
X90774874Y-98569819D02*
X90298684Y-98569819D01*
X90298684Y-98569819D02*
X90298684Y-97569819D01*
X90298684Y-97569819D02*
X90774874Y-97569819D01*
X91155827Y-98522200D02*
X91298684Y-98569819D01*
X91298684Y-98569819D02*
X91536779Y-98569819D01*
X91536779Y-98569819D02*
X91632017Y-98522200D01*
X91632017Y-98522200D02*
X91679636Y-98474580D01*
X91679636Y-98474580D02*
X91727255Y-98379342D01*
X91727255Y-98379342D02*
X91727255Y-98284104D01*
X91727255Y-98284104D02*
X91679636Y-98188866D01*
X91679636Y-98188866D02*
X91632017Y-98141247D01*
X91632017Y-98141247D02*
X91536779Y-98093628D01*
X91536779Y-98093628D02*
X91346303Y-98046009D01*
X91346303Y-98046009D02*
X91251065Y-97998390D01*
X91251065Y-97998390D02*
X91203446Y-97950771D01*
X91203446Y-97950771D02*
X91155827Y-97855533D01*
X91155827Y-97855533D02*
X91155827Y-97760295D01*
X91155827Y-97760295D02*
X91203446Y-97665057D01*
X91203446Y-97665057D02*
X91251065Y-97617438D01*
X91251065Y-97617438D02*
X91346303Y-97569819D01*
X91346303Y-97569819D02*
X91584398Y-97569819D01*
X91584398Y-97569819D02*
X91727255Y-97617438D01*
X92012970Y-97569819D02*
X92584398Y-97569819D01*
X92298684Y-98569819D02*
X92298684Y-97569819D01*
D10*
X83745912Y-93711346D02*
X83031626Y-94211346D01*
X83745912Y-94568489D02*
X82245912Y-94568489D01*
X82245912Y-94568489D02*
X82245912Y-93997060D01*
X82245912Y-93997060D02*
X82317341Y-93854203D01*
X82317341Y-93854203D02*
X82388769Y-93782774D01*
X82388769Y-93782774D02*
X82531626Y-93711346D01*
X82531626Y-93711346D02*
X82745912Y-93711346D01*
X82745912Y-93711346D02*
X82888769Y-93782774D01*
X82888769Y-93782774D02*
X82960198Y-93854203D01*
X82960198Y-93854203D02*
X83031626Y-93997060D01*
X83031626Y-93997060D02*
X83031626Y-94568489D01*
X83745912Y-93068489D02*
X82245912Y-93068489D01*
X82317341Y-91568488D02*
X82245912Y-91711346D01*
X82245912Y-91711346D02*
X82245912Y-91925631D01*
X82245912Y-91925631D02*
X82317341Y-92139917D01*
X82317341Y-92139917D02*
X82460198Y-92282774D01*
X82460198Y-92282774D02*
X82603055Y-92354203D01*
X82603055Y-92354203D02*
X82888769Y-92425631D01*
X82888769Y-92425631D02*
X83103055Y-92425631D01*
X83103055Y-92425631D02*
X83388769Y-92354203D01*
X83388769Y-92354203D02*
X83531626Y-92282774D01*
X83531626Y-92282774D02*
X83674484Y-92139917D01*
X83674484Y-92139917D02*
X83745912Y-91925631D01*
X83745912Y-91925631D02*
X83745912Y-91782774D01*
X83745912Y-91782774D02*
X83674484Y-91568488D01*
X83674484Y-91568488D02*
X83603055Y-91497060D01*
X83603055Y-91497060D02*
X83103055Y-91497060D01*
X83103055Y-91497060D02*
X83103055Y-91782774D01*
X83745912Y-90854203D02*
X82245912Y-90854203D01*
X82960198Y-90854203D02*
X82960198Y-89997060D01*
X83745912Y-89997060D02*
X82245912Y-89997060D01*
X82245912Y-89497059D02*
X82245912Y-88639917D01*
X83745912Y-89068488D02*
X82245912Y-89068488D01*
X84660828Y-94782774D02*
X84660828Y-93925632D01*
X86160828Y-94354203D02*
X84660828Y-94354203D01*
X86160828Y-92568489D02*
X85446542Y-93068489D01*
X86160828Y-93425632D02*
X84660828Y-93425632D01*
X84660828Y-93425632D02*
X84660828Y-92854203D01*
X84660828Y-92854203D02*
X84732257Y-92711346D01*
X84732257Y-92711346D02*
X84803685Y-92639917D01*
X84803685Y-92639917D02*
X84946542Y-92568489D01*
X84946542Y-92568489D02*
X85160828Y-92568489D01*
X85160828Y-92568489D02*
X85303685Y-92639917D01*
X85303685Y-92639917D02*
X85375114Y-92711346D01*
X85375114Y-92711346D02*
X85446542Y-92854203D01*
X85446542Y-92854203D02*
X85446542Y-93425632D01*
X85732257Y-91997060D02*
X85732257Y-91282775D01*
X86160828Y-92139917D02*
X84660828Y-91639917D01*
X84660828Y-91639917D02*
X86160828Y-91139917D01*
X86017971Y-89782775D02*
X86089400Y-89854203D01*
X86089400Y-89854203D02*
X86160828Y-90068489D01*
X86160828Y-90068489D02*
X86160828Y-90211346D01*
X86160828Y-90211346D02*
X86089400Y-90425632D01*
X86089400Y-90425632D02*
X85946542Y-90568489D01*
X85946542Y-90568489D02*
X85803685Y-90639918D01*
X85803685Y-90639918D02*
X85517971Y-90711346D01*
X85517971Y-90711346D02*
X85303685Y-90711346D01*
X85303685Y-90711346D02*
X85017971Y-90639918D01*
X85017971Y-90639918D02*
X84875114Y-90568489D01*
X84875114Y-90568489D02*
X84732257Y-90425632D01*
X84732257Y-90425632D02*
X84660828Y-90211346D01*
X84660828Y-90211346D02*
X84660828Y-90068489D01*
X84660828Y-90068489D02*
X84732257Y-89854203D01*
X84732257Y-89854203D02*
X84803685Y-89782775D01*
X86160828Y-89139918D02*
X84660828Y-89139918D01*
X86160828Y-88282775D02*
X85303685Y-88925632D01*
X84660828Y-88282775D02*
X85517971Y-89139918D01*
D12*
X92412969Y-118634875D02*
X91936779Y-118634875D01*
X91936779Y-118634875D02*
X91936779Y-117634875D01*
X92746303Y-118634875D02*
X92746303Y-117634875D01*
X92746303Y-117634875D02*
X92984398Y-117634875D01*
X92984398Y-117634875D02*
X93127255Y-117682494D01*
X93127255Y-117682494D02*
X93222493Y-117777732D01*
X93222493Y-117777732D02*
X93270112Y-117872970D01*
X93270112Y-117872970D02*
X93317731Y-118063446D01*
X93317731Y-118063446D02*
X93317731Y-118206303D01*
X93317731Y-118206303D02*
X93270112Y-118396779D01*
X93270112Y-118396779D02*
X93222493Y-118492017D01*
X93222493Y-118492017D02*
X93127255Y-118587256D01*
X93127255Y-118587256D02*
X92984398Y-118634875D01*
X92984398Y-118634875D02*
X92746303Y-118634875D01*
X94317731Y-118634875D02*
X93984398Y-118158684D01*
X93746303Y-118634875D02*
X93746303Y-117634875D01*
X93746303Y-117634875D02*
X94127255Y-117634875D01*
X94127255Y-117634875D02*
X94222493Y-117682494D01*
X94222493Y-117682494D02*
X94270112Y-117730113D01*
X94270112Y-117730113D02*
X94317731Y-117825351D01*
X94317731Y-117825351D02*
X94317731Y-117968208D01*
X94317731Y-117968208D02*
X94270112Y-118063446D01*
X94270112Y-118063446D02*
X94222493Y-118111065D01*
X94222493Y-118111065D02*
X94127255Y-118158684D01*
X94127255Y-118158684D02*
X93746303Y-118158684D01*
X94603446Y-117634875D02*
X94936779Y-118634875D01*
X94936779Y-118634875D02*
X95270112Y-117634875D01*
X96127255Y-118634875D02*
X95555827Y-118634875D01*
X95841541Y-118634875D02*
X95841541Y-117634875D01*
X95841541Y-117634875D02*
X95746303Y-117777732D01*
X95746303Y-117777732D02*
X95651065Y-117872970D01*
X95651065Y-117872970D02*
X95555827Y-117920589D01*
X91793922Y-119244819D02*
X92365350Y-119244819D01*
X92079636Y-120244819D02*
X92079636Y-119244819D01*
X92698684Y-119721009D02*
X93032017Y-119721009D01*
X93174874Y-120244819D02*
X92698684Y-120244819D01*
X92698684Y-120244819D02*
X92698684Y-119244819D01*
X92698684Y-119244819D02*
X93174874Y-119244819D01*
X93555827Y-120197200D02*
X93698684Y-120244819D01*
X93698684Y-120244819D02*
X93936779Y-120244819D01*
X93936779Y-120244819D02*
X94032017Y-120197200D01*
X94032017Y-120197200D02*
X94079636Y-120149580D01*
X94079636Y-120149580D02*
X94127255Y-120054342D01*
X94127255Y-120054342D02*
X94127255Y-119959104D01*
X94127255Y-119959104D02*
X94079636Y-119863866D01*
X94079636Y-119863866D02*
X94032017Y-119816247D01*
X94032017Y-119816247D02*
X93936779Y-119768628D01*
X93936779Y-119768628D02*
X93746303Y-119721009D01*
X93746303Y-119721009D02*
X93651065Y-119673390D01*
X93651065Y-119673390D02*
X93603446Y-119625771D01*
X93603446Y-119625771D02*
X93555827Y-119530533D01*
X93555827Y-119530533D02*
X93555827Y-119435295D01*
X93555827Y-119435295D02*
X93603446Y-119340057D01*
X93603446Y-119340057D02*
X93651065Y-119292438D01*
X93651065Y-119292438D02*
X93746303Y-119244819D01*
X93746303Y-119244819D02*
X93984398Y-119244819D01*
X93984398Y-119244819D02*
X94127255Y-119292438D01*
X94412970Y-119244819D02*
X94984398Y-119244819D01*
X94698684Y-120244819D02*
X94698684Y-119244819D01*
D13*
X121127952Y-116468234D02*
X121699380Y-115896806D01*
X121127952Y-115896806D02*
X121699380Y-116468234D01*
X116707000Y-118182520D02*
X116754619Y-118039663D01*
X116754619Y-118039663D02*
X116754619Y-117801568D01*
X116754619Y-117801568D02*
X116707000Y-117706330D01*
X116707000Y-117706330D02*
X116659380Y-117658711D01*
X116659380Y-117658711D02*
X116564142Y-117611092D01*
X116564142Y-117611092D02*
X116468904Y-117611092D01*
X116468904Y-117611092D02*
X116373666Y-117658711D01*
X116373666Y-117658711D02*
X116326047Y-117706330D01*
X116326047Y-117706330D02*
X116278428Y-117801568D01*
X116278428Y-117801568D02*
X116230809Y-117992044D01*
X116230809Y-117992044D02*
X116183190Y-118087282D01*
X116183190Y-118087282D02*
X116135571Y-118134901D01*
X116135571Y-118134901D02*
X116040333Y-118182520D01*
X116040333Y-118182520D02*
X115945095Y-118182520D01*
X115945095Y-118182520D02*
X115849857Y-118134901D01*
X115849857Y-118134901D02*
X115802238Y-118087282D01*
X115802238Y-118087282D02*
X115754619Y-117992044D01*
X115754619Y-117992044D02*
X115754619Y-117753949D01*
X115754619Y-117753949D02*
X115802238Y-117611092D01*
X116754619Y-117182520D02*
X115754619Y-117182520D01*
X115754619Y-117182520D02*
X115754619Y-116944425D01*
X115754619Y-116944425D02*
X115802238Y-116801568D01*
X115802238Y-116801568D02*
X115897476Y-116706330D01*
X115897476Y-116706330D02*
X115992714Y-116658711D01*
X115992714Y-116658711D02*
X116183190Y-116611092D01*
X116183190Y-116611092D02*
X116326047Y-116611092D01*
X116326047Y-116611092D02*
X116516523Y-116658711D01*
X116516523Y-116658711D02*
X116611761Y-116706330D01*
X116611761Y-116706330D02*
X116707000Y-116801568D01*
X116707000Y-116801568D02*
X116754619Y-116944425D01*
X116754619Y-116944425D02*
X116754619Y-117182520D01*
X116468904Y-116230139D02*
X116468904Y-115753949D01*
X116754619Y-116325377D02*
X115754619Y-115992044D01*
X115754619Y-115992044D02*
X116754619Y-115658711D01*
D11*
X151279652Y-83958561D02*
X151279652Y-85958561D01*
X151279652Y-85958561D02*
X150136795Y-83958561D01*
X150136795Y-83958561D02*
X150136795Y-85958561D01*
X149184414Y-85006180D02*
X148517747Y-85006180D01*
X148232033Y-83958561D02*
X149184414Y-83958561D01*
X149184414Y-83958561D02*
X149184414Y-85958561D01*
X149184414Y-85958561D02*
X148232033Y-85958561D01*
D12*
X129334819Y-118658333D02*
X130049104Y-118658333D01*
X130049104Y-118658333D02*
X130191961Y-118705952D01*
X130191961Y-118705952D02*
X130287200Y-118801190D01*
X130287200Y-118801190D02*
X130334819Y-118944047D01*
X130334819Y-118944047D02*
X130334819Y-119039285D01*
X129334819Y-118277380D02*
X129334819Y-117610714D01*
X129334819Y-117610714D02*
X130334819Y-118039285D01*
X152789638Y-92034477D02*
X153294714Y-92539553D01*
X153294714Y-92539553D02*
X153362058Y-92674240D01*
X153362058Y-92674240D02*
X153362058Y-92808927D01*
X153362058Y-92808927D02*
X153294714Y-92943614D01*
X153294714Y-92943614D02*
X153227371Y-93010958D01*
X154203852Y-92034477D02*
X153799791Y-92438538D01*
X154001821Y-92236507D02*
X153294714Y-91529400D01*
X153294714Y-91529400D02*
X153328386Y-91697759D01*
X153328386Y-91697759D02*
X153328386Y-91832446D01*
X153328386Y-91832446D02*
X153294714Y-91933461D01*
X153934478Y-90889637D02*
X154001821Y-90822294D01*
X154001821Y-90822294D02*
X154102836Y-90788622D01*
X154102836Y-90788622D02*
X154170180Y-90788622D01*
X154170180Y-90788622D02*
X154271195Y-90822294D01*
X154271195Y-90822294D02*
X154439554Y-90923309D01*
X154439554Y-90923309D02*
X154607913Y-91091668D01*
X154607913Y-91091668D02*
X154708928Y-91260026D01*
X154708928Y-91260026D02*
X154742600Y-91361042D01*
X154742600Y-91361042D02*
X154742600Y-91428385D01*
X154742600Y-91428385D02*
X154708928Y-91529400D01*
X154708928Y-91529400D02*
X154641584Y-91596744D01*
X154641584Y-91596744D02*
X154540569Y-91630416D01*
X154540569Y-91630416D02*
X154473226Y-91630416D01*
X154473226Y-91630416D02*
X154372210Y-91596744D01*
X154372210Y-91596744D02*
X154203852Y-91495729D01*
X154203852Y-91495729D02*
X154035493Y-91327370D01*
X154035493Y-91327370D02*
X153934478Y-91159011D01*
X153934478Y-91159011D02*
X153900806Y-91057996D01*
X153900806Y-91057996D02*
X153900806Y-90990652D01*
X153900806Y-90990652D02*
X153934478Y-90889637D01*
X146579819Y-117258333D02*
X147294104Y-117258333D01*
X147294104Y-117258333D02*
X147436961Y-117305952D01*
X147436961Y-117305952D02*
X147532200Y-117401190D01*
X147532200Y-117401190D02*
X147579819Y-117544047D01*
X147579819Y-117544047D02*
X147579819Y-117639285D01*
X147579819Y-116734523D02*
X147579819Y-116544047D01*
X147579819Y-116544047D02*
X147532200Y-116448809D01*
X147532200Y-116448809D02*
X147484580Y-116401190D01*
X147484580Y-116401190D02*
X147341723Y-116305952D01*
X147341723Y-116305952D02*
X147151247Y-116258333D01*
X147151247Y-116258333D02*
X146770295Y-116258333D01*
X146770295Y-116258333D02*
X146675057Y-116305952D01*
X146675057Y-116305952D02*
X146627438Y-116353571D01*
X146627438Y-116353571D02*
X146579819Y-116448809D01*
X146579819Y-116448809D02*
X146579819Y-116639285D01*
X146579819Y-116639285D02*
X146627438Y-116734523D01*
X146627438Y-116734523D02*
X146675057Y-116782142D01*
X146675057Y-116782142D02*
X146770295Y-116829761D01*
X146770295Y-116829761D02*
X147008390Y-116829761D01*
X147008390Y-116829761D02*
X147103628Y-116782142D01*
X147103628Y-116782142D02*
X147151247Y-116734523D01*
X147151247Y-116734523D02*
X147198866Y-116639285D01*
X147198866Y-116639285D02*
X147198866Y-116448809D01*
X147198866Y-116448809D02*
X147151247Y-116353571D01*
X147151247Y-116353571D02*
X147103628Y-116305952D01*
X147103628Y-116305952D02*
X147008390Y-116258333D01*
X148579819Y-108808333D02*
X149294104Y-108808333D01*
X149294104Y-108808333D02*
X149436961Y-108855952D01*
X149436961Y-108855952D02*
X149532200Y-108951190D01*
X149532200Y-108951190D02*
X149579819Y-109094047D01*
X149579819Y-109094047D02*
X149579819Y-109189285D01*
X149008390Y-108189285D02*
X148960771Y-108284523D01*
X148960771Y-108284523D02*
X148913152Y-108332142D01*
X148913152Y-108332142D02*
X148817914Y-108379761D01*
X148817914Y-108379761D02*
X148770295Y-108379761D01*
X148770295Y-108379761D02*
X148675057Y-108332142D01*
X148675057Y-108332142D02*
X148627438Y-108284523D01*
X148627438Y-108284523D02*
X148579819Y-108189285D01*
X148579819Y-108189285D02*
X148579819Y-107998809D01*
X148579819Y-107998809D02*
X148627438Y-107903571D01*
X148627438Y-107903571D02*
X148675057Y-107855952D01*
X148675057Y-107855952D02*
X148770295Y-107808333D01*
X148770295Y-107808333D02*
X148817914Y-107808333D01*
X148817914Y-107808333D02*
X148913152Y-107855952D01*
X148913152Y-107855952D02*
X148960771Y-107903571D01*
X148960771Y-107903571D02*
X149008390Y-107998809D01*
X149008390Y-107998809D02*
X149008390Y-108189285D01*
X149008390Y-108189285D02*
X149056009Y-108284523D01*
X149056009Y-108284523D02*
X149103628Y-108332142D01*
X149103628Y-108332142D02*
X149198866Y-108379761D01*
X149198866Y-108379761D02*
X149389342Y-108379761D01*
X149389342Y-108379761D02*
X149484580Y-108332142D01*
X149484580Y-108332142D02*
X149532200Y-108284523D01*
X149532200Y-108284523D02*
X149579819Y-108189285D01*
X149579819Y-108189285D02*
X149579819Y-107998809D01*
X149579819Y-107998809D02*
X149532200Y-107903571D01*
X149532200Y-107903571D02*
X149484580Y-107855952D01*
X149484580Y-107855952D02*
X149389342Y-107808333D01*
X149389342Y-107808333D02*
X149198866Y-107808333D01*
X149198866Y-107808333D02*
X149103628Y-107855952D01*
X149103628Y-107855952D02*
X149056009Y-107903571D01*
X149056009Y-107903571D02*
X149008390Y-107998809D01*
X83484482Y-120195693D02*
X84191589Y-119488587D01*
X84191589Y-119488587D02*
X84359948Y-119656945D01*
X84359948Y-119656945D02*
X84427291Y-119791632D01*
X84427291Y-119791632D02*
X84427291Y-119926319D01*
X84427291Y-119926319D02*
X84393619Y-120027335D01*
X84393619Y-120027335D02*
X84292604Y-120195693D01*
X84292604Y-120195693D02*
X84191589Y-120296709D01*
X84191589Y-120296709D02*
X84023230Y-120397724D01*
X84023230Y-120397724D02*
X83922215Y-120431396D01*
X83922215Y-120431396D02*
X83787528Y-120431396D01*
X83787528Y-120431396D02*
X83652841Y-120364052D01*
X83652841Y-120364052D02*
X83484482Y-120195693D01*
X84831352Y-120128350D02*
X85269085Y-120566083D01*
X85269085Y-120566083D02*
X84764009Y-120599754D01*
X84764009Y-120599754D02*
X84865024Y-120700770D01*
X84865024Y-120700770D02*
X84898696Y-120801785D01*
X84898696Y-120801785D02*
X84898696Y-120869128D01*
X84898696Y-120869128D02*
X84865024Y-120970144D01*
X84865024Y-120970144D02*
X84696665Y-121138502D01*
X84696665Y-121138502D02*
X84595650Y-121172174D01*
X84595650Y-121172174D02*
X84528306Y-121172174D01*
X84528306Y-121172174D02*
X84427291Y-121138502D01*
X84427291Y-121138502D02*
X84225261Y-120936472D01*
X84225261Y-120936472D02*
X84191589Y-120835457D01*
X84191589Y-120835457D02*
X84191589Y-120768113D01*
X152908333Y-120429819D02*
X152575000Y-119953628D01*
X152336905Y-120429819D02*
X152336905Y-119429819D01*
X152336905Y-119429819D02*
X152717857Y-119429819D01*
X152717857Y-119429819D02*
X152813095Y-119477438D01*
X152813095Y-119477438D02*
X152860714Y-119525057D01*
X152860714Y-119525057D02*
X152908333Y-119620295D01*
X152908333Y-119620295D02*
X152908333Y-119763152D01*
X152908333Y-119763152D02*
X152860714Y-119858390D01*
X152860714Y-119858390D02*
X152813095Y-119906009D01*
X152813095Y-119906009D02*
X152717857Y-119953628D01*
X152717857Y-119953628D02*
X152336905Y-119953628D01*
X153241667Y-119429819D02*
X153908333Y-119429819D01*
X153908333Y-119429819D02*
X153479762Y-120429819D01*
X141948819Y-108283333D02*
X142663104Y-108283333D01*
X142663104Y-108283333D02*
X142805961Y-108330952D01*
X142805961Y-108330952D02*
X142901200Y-108426190D01*
X142901200Y-108426190D02*
X142948819Y-108569047D01*
X142948819Y-108569047D02*
X142948819Y-108664285D01*
X142044057Y-107854761D02*
X141996438Y-107807142D01*
X141996438Y-107807142D02*
X141948819Y-107711904D01*
X141948819Y-107711904D02*
X141948819Y-107473809D01*
X141948819Y-107473809D02*
X141996438Y-107378571D01*
X141996438Y-107378571D02*
X142044057Y-107330952D01*
X142044057Y-107330952D02*
X142139295Y-107283333D01*
X142139295Y-107283333D02*
X142234533Y-107283333D01*
X142234533Y-107283333D02*
X142377390Y-107330952D01*
X142377390Y-107330952D02*
X142948819Y-107902380D01*
X142948819Y-107902380D02*
X142948819Y-107283333D01*
X152104819Y-104217857D02*
X151628628Y-104551190D01*
X152104819Y-104789285D02*
X151104819Y-104789285D01*
X151104819Y-104789285D02*
X151104819Y-104408333D01*
X151104819Y-104408333D02*
X151152438Y-104313095D01*
X151152438Y-104313095D02*
X151200057Y-104265476D01*
X151200057Y-104265476D02*
X151295295Y-104217857D01*
X151295295Y-104217857D02*
X151438152Y-104217857D01*
X151438152Y-104217857D02*
X151533390Y-104265476D01*
X151533390Y-104265476D02*
X151581009Y-104313095D01*
X151581009Y-104313095D02*
X151628628Y-104408333D01*
X151628628Y-104408333D02*
X151628628Y-104789285D01*
X152104819Y-103265476D02*
X152104819Y-103836904D01*
X152104819Y-103551190D02*
X151104819Y-103551190D01*
X151104819Y-103551190D02*
X151247676Y-103646428D01*
X151247676Y-103646428D02*
X151342914Y-103741666D01*
X151342914Y-103741666D02*
X151390533Y-103836904D01*
X151104819Y-102646428D02*
X151104819Y-102551190D01*
X151104819Y-102551190D02*
X151152438Y-102455952D01*
X151152438Y-102455952D02*
X151200057Y-102408333D01*
X151200057Y-102408333D02*
X151295295Y-102360714D01*
X151295295Y-102360714D02*
X151485771Y-102313095D01*
X151485771Y-102313095D02*
X151723866Y-102313095D01*
X151723866Y-102313095D02*
X151914342Y-102360714D01*
X151914342Y-102360714D02*
X152009580Y-102408333D01*
X152009580Y-102408333D02*
X152057200Y-102455952D01*
X152057200Y-102455952D02*
X152104819Y-102551190D01*
X152104819Y-102551190D02*
X152104819Y-102646428D01*
X152104819Y-102646428D02*
X152057200Y-102741666D01*
X152057200Y-102741666D02*
X152009580Y-102789285D01*
X152009580Y-102789285D02*
X151914342Y-102836904D01*
X151914342Y-102836904D02*
X151723866Y-102884523D01*
X151723866Y-102884523D02*
X151485771Y-102884523D01*
X151485771Y-102884523D02*
X151295295Y-102836904D01*
X151295295Y-102836904D02*
X151200057Y-102789285D01*
X151200057Y-102789285D02*
X151152438Y-102741666D01*
X151152438Y-102741666D02*
X151104819Y-102646428D01*
X150720142Y-111751819D02*
X150386809Y-111275628D01*
X150148714Y-111751819D02*
X150148714Y-110751819D01*
X150148714Y-110751819D02*
X150529666Y-110751819D01*
X150529666Y-110751819D02*
X150624904Y-110799438D01*
X150624904Y-110799438D02*
X150672523Y-110847057D01*
X150672523Y-110847057D02*
X150720142Y-110942295D01*
X150720142Y-110942295D02*
X150720142Y-111085152D01*
X150720142Y-111085152D02*
X150672523Y-111180390D01*
X150672523Y-111180390D02*
X150624904Y-111228009D01*
X150624904Y-111228009D02*
X150529666Y-111275628D01*
X150529666Y-111275628D02*
X150148714Y-111275628D01*
X151672523Y-111751819D02*
X151101095Y-111751819D01*
X151386809Y-111751819D02*
X151386809Y-110751819D01*
X151386809Y-110751819D02*
X151291571Y-110894676D01*
X151291571Y-110894676D02*
X151196333Y-110989914D01*
X151196333Y-110989914D02*
X151101095Y-111037533D01*
X152005857Y-110751819D02*
X152672523Y-110751819D01*
X152672523Y-110751819D02*
X152243952Y-111751819D01*
X122959905Y-121739819D02*
X122959905Y-120739819D01*
X122959905Y-120739819D02*
X123198000Y-120739819D01*
X123198000Y-120739819D02*
X123340857Y-120787438D01*
X123340857Y-120787438D02*
X123436095Y-120882676D01*
X123436095Y-120882676D02*
X123483714Y-120977914D01*
X123483714Y-120977914D02*
X123531333Y-121168390D01*
X123531333Y-121168390D02*
X123531333Y-121311247D01*
X123531333Y-121311247D02*
X123483714Y-121501723D01*
X123483714Y-121501723D02*
X123436095Y-121596961D01*
X123436095Y-121596961D02*
X123340857Y-121692200D01*
X123340857Y-121692200D02*
X123198000Y-121739819D01*
X123198000Y-121739819D02*
X122959905Y-121739819D01*
X123912286Y-120835057D02*
X123959905Y-120787438D01*
X123959905Y-120787438D02*
X124055143Y-120739819D01*
X124055143Y-120739819D02*
X124293238Y-120739819D01*
X124293238Y-120739819D02*
X124388476Y-120787438D01*
X124388476Y-120787438D02*
X124436095Y-120835057D01*
X124436095Y-120835057D02*
X124483714Y-120930295D01*
X124483714Y-120930295D02*
X124483714Y-121025533D01*
X124483714Y-121025533D02*
X124436095Y-121168390D01*
X124436095Y-121168390D02*
X123864667Y-121739819D01*
X123864667Y-121739819D02*
X124483714Y-121739819D01*
X105070142Y-112911580D02*
X105022523Y-112959200D01*
X105022523Y-112959200D02*
X104879666Y-113006819D01*
X104879666Y-113006819D02*
X104784428Y-113006819D01*
X104784428Y-113006819D02*
X104641571Y-112959200D01*
X104641571Y-112959200D02*
X104546333Y-112863961D01*
X104546333Y-112863961D02*
X104498714Y-112768723D01*
X104498714Y-112768723D02*
X104451095Y-112578247D01*
X104451095Y-112578247D02*
X104451095Y-112435390D01*
X104451095Y-112435390D02*
X104498714Y-112244914D01*
X104498714Y-112244914D02*
X104546333Y-112149676D01*
X104546333Y-112149676D02*
X104641571Y-112054438D01*
X104641571Y-112054438D02*
X104784428Y-112006819D01*
X104784428Y-112006819D02*
X104879666Y-112006819D01*
X104879666Y-112006819D02*
X105022523Y-112054438D01*
X105022523Y-112054438D02*
X105070142Y-112102057D01*
X106022523Y-113006819D02*
X105451095Y-113006819D01*
X105736809Y-113006819D02*
X105736809Y-112006819D01*
X105736809Y-112006819D02*
X105641571Y-112149676D01*
X105641571Y-112149676D02*
X105546333Y-112244914D01*
X105546333Y-112244914D02*
X105451095Y-112292533D01*
X106403476Y-112102057D02*
X106451095Y-112054438D01*
X106451095Y-112054438D02*
X106546333Y-112006819D01*
X106546333Y-112006819D02*
X106784428Y-112006819D01*
X106784428Y-112006819D02*
X106879666Y-112054438D01*
X106879666Y-112054438D02*
X106927285Y-112102057D01*
X106927285Y-112102057D02*
X106974904Y-112197295D01*
X106974904Y-112197295D02*
X106974904Y-112292533D01*
X106974904Y-112292533D02*
X106927285Y-112435390D01*
X106927285Y-112435390D02*
X106355857Y-113006819D01*
X106355857Y-113006819D02*
X106974904Y-113006819D01*
X154674693Y-119043517D02*
X153967587Y-118336410D01*
X153967587Y-118336410D02*
X154135945Y-118168051D01*
X154135945Y-118168051D02*
X154270632Y-118100708D01*
X154270632Y-118100708D02*
X154405319Y-118100708D01*
X154405319Y-118100708D02*
X154506335Y-118134380D01*
X154506335Y-118134380D02*
X154674693Y-118235395D01*
X154674693Y-118235395D02*
X154775709Y-118336410D01*
X154775709Y-118336410D02*
X154876724Y-118504769D01*
X154876724Y-118504769D02*
X154910396Y-118605784D01*
X154910396Y-118605784D02*
X154910396Y-118740471D01*
X154910396Y-118740471D02*
X154843052Y-118875158D01*
X154843052Y-118875158D02*
X154674693Y-119043517D01*
X155752189Y-117966021D02*
X155348128Y-118370082D01*
X155550159Y-118168051D02*
X154843052Y-117460945D01*
X154843052Y-117460945D02*
X154876724Y-117629303D01*
X154876724Y-117629303D02*
X154876724Y-117763990D01*
X154876724Y-117763990D02*
X154843052Y-117865006D01*
X102467819Y-95893666D02*
X101991628Y-96226999D01*
X102467819Y-96465094D02*
X101467819Y-96465094D01*
X101467819Y-96465094D02*
X101467819Y-96084142D01*
X101467819Y-96084142D02*
X101515438Y-95988904D01*
X101515438Y-95988904D02*
X101563057Y-95941285D01*
X101563057Y-95941285D02*
X101658295Y-95893666D01*
X101658295Y-95893666D02*
X101801152Y-95893666D01*
X101801152Y-95893666D02*
X101896390Y-95941285D01*
X101896390Y-95941285D02*
X101944009Y-95988904D01*
X101944009Y-95988904D02*
X101991628Y-96084142D01*
X101991628Y-96084142D02*
X101991628Y-96465094D01*
X101467819Y-94988904D02*
X101467819Y-95465094D01*
X101467819Y-95465094D02*
X101944009Y-95512713D01*
X101944009Y-95512713D02*
X101896390Y-95465094D01*
X101896390Y-95465094D02*
X101848771Y-95369856D01*
X101848771Y-95369856D02*
X101848771Y-95131761D01*
X101848771Y-95131761D02*
X101896390Y-95036523D01*
X101896390Y-95036523D02*
X101944009Y-94988904D01*
X101944009Y-94988904D02*
X102039247Y-94941285D01*
X102039247Y-94941285D02*
X102277342Y-94941285D01*
X102277342Y-94941285D02*
X102372580Y-94988904D01*
X102372580Y-94988904D02*
X102420200Y-95036523D01*
X102420200Y-95036523D02*
X102467819Y-95131761D01*
X102467819Y-95131761D02*
X102467819Y-95369856D01*
X102467819Y-95369856D02*
X102420200Y-95465094D01*
X102420200Y-95465094D02*
X102372580Y-95512713D01*
X116797580Y-89019857D02*
X116845200Y-89067476D01*
X116845200Y-89067476D02*
X116892819Y-89210333D01*
X116892819Y-89210333D02*
X116892819Y-89305571D01*
X116892819Y-89305571D02*
X116845200Y-89448428D01*
X116845200Y-89448428D02*
X116749961Y-89543666D01*
X116749961Y-89543666D02*
X116654723Y-89591285D01*
X116654723Y-89591285D02*
X116464247Y-89638904D01*
X116464247Y-89638904D02*
X116321390Y-89638904D01*
X116321390Y-89638904D02*
X116130914Y-89591285D01*
X116130914Y-89591285D02*
X116035676Y-89543666D01*
X116035676Y-89543666D02*
X115940438Y-89448428D01*
X115940438Y-89448428D02*
X115892819Y-89305571D01*
X115892819Y-89305571D02*
X115892819Y-89210333D01*
X115892819Y-89210333D02*
X115940438Y-89067476D01*
X115940438Y-89067476D02*
X115988057Y-89019857D01*
X116892819Y-88067476D02*
X116892819Y-88638904D01*
X116892819Y-88353190D02*
X115892819Y-88353190D01*
X115892819Y-88353190D02*
X116035676Y-88448428D01*
X116035676Y-88448428D02*
X116130914Y-88543666D01*
X116130914Y-88543666D02*
X116178533Y-88638904D01*
X115892819Y-87734142D02*
X115892819Y-87115095D01*
X115892819Y-87115095D02*
X116273771Y-87448428D01*
X116273771Y-87448428D02*
X116273771Y-87305571D01*
X116273771Y-87305571D02*
X116321390Y-87210333D01*
X116321390Y-87210333D02*
X116369009Y-87162714D01*
X116369009Y-87162714D02*
X116464247Y-87115095D01*
X116464247Y-87115095D02*
X116702342Y-87115095D01*
X116702342Y-87115095D02*
X116797580Y-87162714D01*
X116797580Y-87162714D02*
X116845200Y-87210333D01*
X116845200Y-87210333D02*
X116892819Y-87305571D01*
X116892819Y-87305571D02*
X116892819Y-87591285D01*
X116892819Y-87591285D02*
X116845200Y-87686523D01*
X116845200Y-87686523D02*
X116797580Y-87734142D01*
X117072580Y-95519857D02*
X117120200Y-95567476D01*
X117120200Y-95567476D02*
X117167819Y-95710333D01*
X117167819Y-95710333D02*
X117167819Y-95805571D01*
X117167819Y-95805571D02*
X117120200Y-95948428D01*
X117120200Y-95948428D02*
X117024961Y-96043666D01*
X117024961Y-96043666D02*
X116929723Y-96091285D01*
X116929723Y-96091285D02*
X116739247Y-96138904D01*
X116739247Y-96138904D02*
X116596390Y-96138904D01*
X116596390Y-96138904D02*
X116405914Y-96091285D01*
X116405914Y-96091285D02*
X116310676Y-96043666D01*
X116310676Y-96043666D02*
X116215438Y-95948428D01*
X116215438Y-95948428D02*
X116167819Y-95805571D01*
X116167819Y-95805571D02*
X116167819Y-95710333D01*
X116167819Y-95710333D02*
X116215438Y-95567476D01*
X116215438Y-95567476D02*
X116263057Y-95519857D01*
X117167819Y-94567476D02*
X117167819Y-95138904D01*
X117167819Y-94853190D02*
X116167819Y-94853190D01*
X116167819Y-94853190D02*
X116310676Y-94948428D01*
X116310676Y-94948428D02*
X116405914Y-95043666D01*
X116405914Y-95043666D02*
X116453533Y-95138904D01*
X116501152Y-93710333D02*
X117167819Y-93710333D01*
X116120200Y-93948428D02*
X116834485Y-94186523D01*
X116834485Y-94186523D02*
X116834485Y-93567476D01*
X130767819Y-91668666D02*
X130291628Y-92001999D01*
X130767819Y-92240094D02*
X129767819Y-92240094D01*
X129767819Y-92240094D02*
X129767819Y-91859142D01*
X129767819Y-91859142D02*
X129815438Y-91763904D01*
X129815438Y-91763904D02*
X129863057Y-91716285D01*
X129863057Y-91716285D02*
X129958295Y-91668666D01*
X129958295Y-91668666D02*
X130101152Y-91668666D01*
X130101152Y-91668666D02*
X130196390Y-91716285D01*
X130196390Y-91716285D02*
X130244009Y-91763904D01*
X130244009Y-91763904D02*
X130291628Y-91859142D01*
X130291628Y-91859142D02*
X130291628Y-92240094D01*
X129767819Y-90811523D02*
X129767819Y-91001999D01*
X129767819Y-91001999D02*
X129815438Y-91097237D01*
X129815438Y-91097237D02*
X129863057Y-91144856D01*
X129863057Y-91144856D02*
X130005914Y-91240094D01*
X130005914Y-91240094D02*
X130196390Y-91287713D01*
X130196390Y-91287713D02*
X130577342Y-91287713D01*
X130577342Y-91287713D02*
X130672580Y-91240094D01*
X130672580Y-91240094D02*
X130720200Y-91192475D01*
X130720200Y-91192475D02*
X130767819Y-91097237D01*
X130767819Y-91097237D02*
X130767819Y-90906761D01*
X130767819Y-90906761D02*
X130720200Y-90811523D01*
X130720200Y-90811523D02*
X130672580Y-90763904D01*
X130672580Y-90763904D02*
X130577342Y-90716285D01*
X130577342Y-90716285D02*
X130339247Y-90716285D01*
X130339247Y-90716285D02*
X130244009Y-90763904D01*
X130244009Y-90763904D02*
X130196390Y-90811523D01*
X130196390Y-90811523D02*
X130148771Y-90906761D01*
X130148771Y-90906761D02*
X130148771Y-91097237D01*
X130148771Y-91097237D02*
X130196390Y-91192475D01*
X130196390Y-91192475D02*
X130244009Y-91240094D01*
X130244009Y-91240094D02*
X130339247Y-91287713D01*
X105071333Y-104156819D02*
X104738000Y-103680628D01*
X104499905Y-104156819D02*
X104499905Y-103156819D01*
X104499905Y-103156819D02*
X104880857Y-103156819D01*
X104880857Y-103156819D02*
X104976095Y-103204438D01*
X104976095Y-103204438D02*
X105023714Y-103252057D01*
X105023714Y-103252057D02*
X105071333Y-103347295D01*
X105071333Y-103347295D02*
X105071333Y-103490152D01*
X105071333Y-103490152D02*
X105023714Y-103585390D01*
X105023714Y-103585390D02*
X104976095Y-103633009D01*
X104976095Y-103633009D02*
X104880857Y-103680628D01*
X104880857Y-103680628D02*
X104499905Y-103680628D01*
X106023714Y-104156819D02*
X105452286Y-104156819D01*
X105738000Y-104156819D02*
X105738000Y-103156819D01*
X105738000Y-103156819D02*
X105642762Y-103299676D01*
X105642762Y-103299676D02*
X105547524Y-103394914D01*
X105547524Y-103394914D02*
X105452286Y-103442533D01*
X103396333Y-97011580D02*
X103348714Y-97059200D01*
X103348714Y-97059200D02*
X103205857Y-97106819D01*
X103205857Y-97106819D02*
X103110619Y-97106819D01*
X103110619Y-97106819D02*
X102967762Y-97059200D01*
X102967762Y-97059200D02*
X102872524Y-96963961D01*
X102872524Y-96963961D02*
X102824905Y-96868723D01*
X102824905Y-96868723D02*
X102777286Y-96678247D01*
X102777286Y-96678247D02*
X102777286Y-96535390D01*
X102777286Y-96535390D02*
X102824905Y-96344914D01*
X102824905Y-96344914D02*
X102872524Y-96249676D01*
X102872524Y-96249676D02*
X102967762Y-96154438D01*
X102967762Y-96154438D02*
X103110619Y-96106819D01*
X103110619Y-96106819D02*
X103205857Y-96106819D01*
X103205857Y-96106819D02*
X103348714Y-96154438D01*
X103348714Y-96154438D02*
X103396333Y-96202057D01*
X103777286Y-96202057D02*
X103824905Y-96154438D01*
X103824905Y-96154438D02*
X103920143Y-96106819D01*
X103920143Y-96106819D02*
X104158238Y-96106819D01*
X104158238Y-96106819D02*
X104253476Y-96154438D01*
X104253476Y-96154438D02*
X104301095Y-96202057D01*
X104301095Y-96202057D02*
X104348714Y-96297295D01*
X104348714Y-96297295D02*
X104348714Y-96392533D01*
X104348714Y-96392533D02*
X104301095Y-96535390D01*
X104301095Y-96535390D02*
X103729667Y-97106819D01*
X103729667Y-97106819D02*
X104348714Y-97106819D01*
D14*
X117595856Y-88751318D02*
X117595856Y-87481318D01*
X117595856Y-87481318D02*
X118079666Y-87481318D01*
X118079666Y-87481318D02*
X118200618Y-87541794D01*
X118200618Y-87541794D02*
X118261095Y-87602270D01*
X118261095Y-87602270D02*
X118321571Y-87723222D01*
X118321571Y-87723222D02*
X118321571Y-87904651D01*
X118321571Y-87904651D02*
X118261095Y-88025603D01*
X118261095Y-88025603D02*
X118200618Y-88086080D01*
X118200618Y-88086080D02*
X118079666Y-88146556D01*
X118079666Y-88146556D02*
X117595856Y-88146556D01*
X118805380Y-88690842D02*
X118986809Y-88751318D01*
X118986809Y-88751318D02*
X119289190Y-88751318D01*
X119289190Y-88751318D02*
X119410142Y-88690842D01*
X119410142Y-88690842D02*
X119470618Y-88630365D01*
X119470618Y-88630365D02*
X119531095Y-88509413D01*
X119531095Y-88509413D02*
X119531095Y-88388461D01*
X119531095Y-88388461D02*
X119470618Y-88267508D01*
X119470618Y-88267508D02*
X119410142Y-88207032D01*
X119410142Y-88207032D02*
X119289190Y-88146556D01*
X119289190Y-88146556D02*
X119047285Y-88086080D01*
X119047285Y-88086080D02*
X118926333Y-88025603D01*
X118926333Y-88025603D02*
X118865856Y-87965127D01*
X118865856Y-87965127D02*
X118805380Y-87844175D01*
X118805380Y-87844175D02*
X118805380Y-87723222D01*
X118805380Y-87723222D02*
X118865856Y-87602270D01*
X118865856Y-87602270D02*
X118926333Y-87541794D01*
X118926333Y-87541794D02*
X119047285Y-87481318D01*
X119047285Y-87481318D02*
X119349666Y-87481318D01*
X119349666Y-87481318D02*
X119531095Y-87541794D01*
X120740619Y-88751318D02*
X120014904Y-88751318D01*
X120377761Y-88751318D02*
X120377761Y-87481318D01*
X120377761Y-87481318D02*
X120256809Y-87662746D01*
X120256809Y-87662746D02*
X120135857Y-87783699D01*
X120135857Y-87783699D02*
X120014904Y-87844175D01*
D12*
X92604819Y-94533333D02*
X93319104Y-94533333D01*
X93319104Y-94533333D02*
X93461961Y-94580952D01*
X93461961Y-94580952D02*
X93557200Y-94676190D01*
X93557200Y-94676190D02*
X93604819Y-94819047D01*
X93604819Y-94819047D02*
X93604819Y-94914285D01*
X92604819Y-94152380D02*
X92604819Y-93533333D01*
X92604819Y-93533333D02*
X92985771Y-93866666D01*
X92985771Y-93866666D02*
X92985771Y-93723809D01*
X92985771Y-93723809D02*
X93033390Y-93628571D01*
X93033390Y-93628571D02*
X93081009Y-93580952D01*
X93081009Y-93580952D02*
X93176247Y-93533333D01*
X93176247Y-93533333D02*
X93414342Y-93533333D01*
X93414342Y-93533333D02*
X93509580Y-93580952D01*
X93509580Y-93580952D02*
X93557200Y-93628571D01*
X93557200Y-93628571D02*
X93604819Y-93723809D01*
X93604819Y-93723809D02*
X93604819Y-94009523D01*
X93604819Y-94009523D02*
X93557200Y-94104761D01*
X93557200Y-94104761D02*
X93509580Y-94152380D01*
X96101095Y-97606819D02*
X96101095Y-98416342D01*
X96101095Y-98416342D02*
X96148714Y-98511580D01*
X96148714Y-98511580D02*
X96196333Y-98559200D01*
X96196333Y-98559200D02*
X96291571Y-98606819D01*
X96291571Y-98606819D02*
X96482047Y-98606819D01*
X96482047Y-98606819D02*
X96577285Y-98559200D01*
X96577285Y-98559200D02*
X96624904Y-98511580D01*
X96624904Y-98511580D02*
X96672523Y-98416342D01*
X96672523Y-98416342D02*
X96672523Y-97606819D01*
X97672523Y-98606819D02*
X97101095Y-98606819D01*
X97386809Y-98606819D02*
X97386809Y-97606819D01*
X97386809Y-97606819D02*
X97291571Y-97749676D01*
X97291571Y-97749676D02*
X97196333Y-97844914D01*
X97196333Y-97844914D02*
X97101095Y-97892533D01*
X125588057Y-91822238D02*
X125540438Y-91917476D01*
X125540438Y-91917476D02*
X125445200Y-92012714D01*
X125445200Y-92012714D02*
X125302342Y-92155571D01*
X125302342Y-92155571D02*
X125254723Y-92250809D01*
X125254723Y-92250809D02*
X125254723Y-92346047D01*
X125492819Y-92298428D02*
X125445200Y-92393666D01*
X125445200Y-92393666D02*
X125349961Y-92488904D01*
X125349961Y-92488904D02*
X125159485Y-92536523D01*
X125159485Y-92536523D02*
X124826152Y-92536523D01*
X124826152Y-92536523D02*
X124635676Y-92488904D01*
X124635676Y-92488904D02*
X124540438Y-92393666D01*
X124540438Y-92393666D02*
X124492819Y-92298428D01*
X124492819Y-92298428D02*
X124492819Y-92107952D01*
X124492819Y-92107952D02*
X124540438Y-92012714D01*
X124540438Y-92012714D02*
X124635676Y-91917476D01*
X124635676Y-91917476D02*
X124826152Y-91869857D01*
X124826152Y-91869857D02*
X125159485Y-91869857D01*
X125159485Y-91869857D02*
X125349961Y-91917476D01*
X125349961Y-91917476D02*
X125445200Y-92012714D01*
X125445200Y-92012714D02*
X125492819Y-92107952D01*
X125492819Y-92107952D02*
X125492819Y-92298428D01*
X125492819Y-90917476D02*
X125492819Y-91488904D01*
X125492819Y-91203190D02*
X124492819Y-91203190D01*
X124492819Y-91203190D02*
X124635676Y-91298428D01*
X124635676Y-91298428D02*
X124730914Y-91393666D01*
X124730914Y-91393666D02*
X124778533Y-91488904D01*
X98751095Y-87456819D02*
X98751095Y-88266342D01*
X98751095Y-88266342D02*
X98798714Y-88361580D01*
X98798714Y-88361580D02*
X98846333Y-88409200D01*
X98846333Y-88409200D02*
X98941571Y-88456819D01*
X98941571Y-88456819D02*
X99132047Y-88456819D01*
X99132047Y-88456819D02*
X99227285Y-88409200D01*
X99227285Y-88409200D02*
X99274904Y-88361580D01*
X99274904Y-88361580D02*
X99322523Y-88266342D01*
X99322523Y-88266342D02*
X99322523Y-87456819D01*
X99751095Y-87552057D02*
X99798714Y-87504438D01*
X99798714Y-87504438D02*
X99893952Y-87456819D01*
X99893952Y-87456819D02*
X100132047Y-87456819D01*
X100132047Y-87456819D02*
X100227285Y-87504438D01*
X100227285Y-87504438D02*
X100274904Y-87552057D01*
X100274904Y-87552057D02*
X100322523Y-87647295D01*
X100322523Y-87647295D02*
X100322523Y-87742533D01*
X100322523Y-87742533D02*
X100274904Y-87885390D01*
X100274904Y-87885390D02*
X99703476Y-88456819D01*
X99703476Y-88456819D02*
X100322523Y-88456819D01*
X152953482Y-85524693D02*
X153660589Y-84817587D01*
X153660589Y-84817587D02*
X153828948Y-84985945D01*
X153828948Y-84985945D02*
X153896291Y-85120632D01*
X153896291Y-85120632D02*
X153896291Y-85255319D01*
X153896291Y-85255319D02*
X153862619Y-85356335D01*
X153862619Y-85356335D02*
X153761604Y-85524693D01*
X153761604Y-85524693D02*
X153660589Y-85625709D01*
X153660589Y-85625709D02*
X153492230Y-85726724D01*
X153492230Y-85726724D02*
X153391215Y-85760396D01*
X153391215Y-85760396D02*
X153256528Y-85760396D01*
X153256528Y-85760396D02*
X153121841Y-85693052D01*
X153121841Y-85693052D02*
X152953482Y-85524693D01*
X154165665Y-85928754D02*
X154131993Y-85827739D01*
X154131993Y-85827739D02*
X154131993Y-85760396D01*
X154131993Y-85760396D02*
X154165665Y-85659380D01*
X154165665Y-85659380D02*
X154199337Y-85625709D01*
X154199337Y-85625709D02*
X154300352Y-85592037D01*
X154300352Y-85592037D02*
X154367696Y-85592037D01*
X154367696Y-85592037D02*
X154468711Y-85625709D01*
X154468711Y-85625709D02*
X154603398Y-85760396D01*
X154603398Y-85760396D02*
X154637070Y-85861411D01*
X154637070Y-85861411D02*
X154637070Y-85928754D01*
X154637070Y-85928754D02*
X154603398Y-86029770D01*
X154603398Y-86029770D02*
X154569726Y-86063441D01*
X154569726Y-86063441D02*
X154468711Y-86097113D01*
X154468711Y-86097113D02*
X154401367Y-86097113D01*
X154401367Y-86097113D02*
X154300352Y-86063441D01*
X154300352Y-86063441D02*
X154165665Y-85928754D01*
X154165665Y-85928754D02*
X154064650Y-85895083D01*
X154064650Y-85895083D02*
X153997306Y-85895083D01*
X153997306Y-85895083D02*
X153896291Y-85928754D01*
X153896291Y-85928754D02*
X153761604Y-86063441D01*
X153761604Y-86063441D02*
X153727932Y-86164457D01*
X153727932Y-86164457D02*
X153727932Y-86231800D01*
X153727932Y-86231800D02*
X153761604Y-86332815D01*
X153761604Y-86332815D02*
X153896291Y-86467502D01*
X153896291Y-86467502D02*
X153997306Y-86501174D01*
X153997306Y-86501174D02*
X154064650Y-86501174D01*
X154064650Y-86501174D02*
X154165665Y-86467502D01*
X154165665Y-86467502D02*
X154300352Y-86332815D01*
X154300352Y-86332815D02*
X154334024Y-86231800D01*
X154334024Y-86231800D02*
X154334024Y-86164457D01*
X154334024Y-86164457D02*
X154300352Y-86063441D01*
X103946333Y-89111580D02*
X103898714Y-89159200D01*
X103898714Y-89159200D02*
X103755857Y-89206819D01*
X103755857Y-89206819D02*
X103660619Y-89206819D01*
X103660619Y-89206819D02*
X103517762Y-89159200D01*
X103517762Y-89159200D02*
X103422524Y-89063961D01*
X103422524Y-89063961D02*
X103374905Y-88968723D01*
X103374905Y-88968723D02*
X103327286Y-88778247D01*
X103327286Y-88778247D02*
X103327286Y-88635390D01*
X103327286Y-88635390D02*
X103374905Y-88444914D01*
X103374905Y-88444914D02*
X103422524Y-88349676D01*
X103422524Y-88349676D02*
X103517762Y-88254438D01*
X103517762Y-88254438D02*
X103660619Y-88206819D01*
X103660619Y-88206819D02*
X103755857Y-88206819D01*
X103755857Y-88206819D02*
X103898714Y-88254438D01*
X103898714Y-88254438D02*
X103946333Y-88302057D01*
X104851095Y-88206819D02*
X104374905Y-88206819D01*
X104374905Y-88206819D02*
X104327286Y-88683009D01*
X104327286Y-88683009D02*
X104374905Y-88635390D01*
X104374905Y-88635390D02*
X104470143Y-88587771D01*
X104470143Y-88587771D02*
X104708238Y-88587771D01*
X104708238Y-88587771D02*
X104803476Y-88635390D01*
X104803476Y-88635390D02*
X104851095Y-88683009D01*
X104851095Y-88683009D02*
X104898714Y-88778247D01*
X104898714Y-88778247D02*
X104898714Y-89016342D01*
X104898714Y-89016342D02*
X104851095Y-89111580D01*
X104851095Y-89111580D02*
X104803476Y-89159200D01*
X104803476Y-89159200D02*
X104708238Y-89206819D01*
X104708238Y-89206819D02*
X104470143Y-89206819D01*
X104470143Y-89206819D02*
X104374905Y-89159200D01*
X104374905Y-89159200D02*
X104327286Y-89111580D01*
X91067819Y-102810333D02*
X91782104Y-102810333D01*
X91782104Y-102810333D02*
X91924961Y-102857952D01*
X91924961Y-102857952D02*
X92020200Y-102953190D01*
X92020200Y-102953190D02*
X92067819Y-103096047D01*
X92067819Y-103096047D02*
X92067819Y-103191285D01*
X91401152Y-101905571D02*
X92067819Y-101905571D01*
X91020200Y-102143666D02*
X91734485Y-102381761D01*
X91734485Y-102381761D02*
X91734485Y-101762714D01*
X89729819Y-118858333D02*
X90444104Y-118858333D01*
X90444104Y-118858333D02*
X90586961Y-118905952D01*
X90586961Y-118905952D02*
X90682200Y-119001190D01*
X90682200Y-119001190D02*
X90729819Y-119144047D01*
X90729819Y-119144047D02*
X90729819Y-119239285D01*
X89729819Y-117905952D02*
X89729819Y-118382142D01*
X89729819Y-118382142D02*
X90206009Y-118429761D01*
X90206009Y-118429761D02*
X90158390Y-118382142D01*
X90158390Y-118382142D02*
X90110771Y-118286904D01*
X90110771Y-118286904D02*
X90110771Y-118048809D01*
X90110771Y-118048809D02*
X90158390Y-117953571D01*
X90158390Y-117953571D02*
X90206009Y-117905952D01*
X90206009Y-117905952D02*
X90301247Y-117858333D01*
X90301247Y-117858333D02*
X90539342Y-117858333D01*
X90539342Y-117858333D02*
X90634580Y-117905952D01*
X90634580Y-117905952D02*
X90682200Y-117953571D01*
X90682200Y-117953571D02*
X90729819Y-118048809D01*
X90729819Y-118048809D02*
X90729819Y-118286904D01*
X90729819Y-118286904D02*
X90682200Y-118382142D01*
X90682200Y-118382142D02*
X90634580Y-118429761D01*
X108484580Y-115267857D02*
X108532200Y-115315476D01*
X108532200Y-115315476D02*
X108579819Y-115458333D01*
X108579819Y-115458333D02*
X108579819Y-115553571D01*
X108579819Y-115553571D02*
X108532200Y-115696428D01*
X108532200Y-115696428D02*
X108436961Y-115791666D01*
X108436961Y-115791666D02*
X108341723Y-115839285D01*
X108341723Y-115839285D02*
X108151247Y-115886904D01*
X108151247Y-115886904D02*
X108008390Y-115886904D01*
X108008390Y-115886904D02*
X107817914Y-115839285D01*
X107817914Y-115839285D02*
X107722676Y-115791666D01*
X107722676Y-115791666D02*
X107627438Y-115696428D01*
X107627438Y-115696428D02*
X107579819Y-115553571D01*
X107579819Y-115553571D02*
X107579819Y-115458333D01*
X107579819Y-115458333D02*
X107627438Y-115315476D01*
X107627438Y-115315476D02*
X107675057Y-115267857D01*
X108579819Y-114315476D02*
X108579819Y-114886904D01*
X108579819Y-114601190D02*
X107579819Y-114601190D01*
X107579819Y-114601190D02*
X107722676Y-114696428D01*
X107722676Y-114696428D02*
X107817914Y-114791666D01*
X107817914Y-114791666D02*
X107865533Y-114886904D01*
X108579819Y-113363095D02*
X108579819Y-113934523D01*
X108579819Y-113648809D02*
X107579819Y-113648809D01*
X107579819Y-113648809D02*
X107722676Y-113744047D01*
X107722676Y-113744047D02*
X107817914Y-113839285D01*
X107817914Y-113839285D02*
X107865533Y-113934523D01*
X142496819Y-93817333D02*
X143211104Y-93817333D01*
X143211104Y-93817333D02*
X143353961Y-93864952D01*
X143353961Y-93864952D02*
X143449200Y-93960190D01*
X143449200Y-93960190D02*
X143496819Y-94103047D01*
X143496819Y-94103047D02*
X143496819Y-94198285D01*
X142496819Y-92912571D02*
X142496819Y-93103047D01*
X142496819Y-93103047D02*
X142544438Y-93198285D01*
X142544438Y-93198285D02*
X142592057Y-93245904D01*
X142592057Y-93245904D02*
X142734914Y-93341142D01*
X142734914Y-93341142D02*
X142925390Y-93388761D01*
X142925390Y-93388761D02*
X143306342Y-93388761D01*
X143306342Y-93388761D02*
X143401580Y-93341142D01*
X143401580Y-93341142D02*
X143449200Y-93293523D01*
X143449200Y-93293523D02*
X143496819Y-93198285D01*
X143496819Y-93198285D02*
X143496819Y-93007809D01*
X143496819Y-93007809D02*
X143449200Y-92912571D01*
X143449200Y-92912571D02*
X143401580Y-92864952D01*
X143401580Y-92864952D02*
X143306342Y-92817333D01*
X143306342Y-92817333D02*
X143068247Y-92817333D01*
X143068247Y-92817333D02*
X142973009Y-92864952D01*
X142973009Y-92864952D02*
X142925390Y-92912571D01*
X142925390Y-92912571D02*
X142877771Y-93007809D01*
X142877771Y-93007809D02*
X142877771Y-93198285D01*
X142877771Y-93198285D02*
X142925390Y-93293523D01*
X142925390Y-93293523D02*
X142973009Y-93341142D01*
X142973009Y-93341142D02*
X143068247Y-93388761D01*
X84068036Y-87771174D02*
X83495617Y-87670159D01*
X83663975Y-88175235D02*
X82956869Y-87468128D01*
X82956869Y-87468128D02*
X83226243Y-87198754D01*
X83226243Y-87198754D02*
X83327258Y-87165082D01*
X83327258Y-87165082D02*
X83394601Y-87165082D01*
X83394601Y-87165082D02*
X83495617Y-87198754D01*
X83495617Y-87198754D02*
X83596632Y-87299769D01*
X83596632Y-87299769D02*
X83630304Y-87400785D01*
X83630304Y-87400785D02*
X83630304Y-87468128D01*
X83630304Y-87468128D02*
X83596632Y-87569143D01*
X83596632Y-87569143D02*
X83327258Y-87838517D01*
X84741471Y-87097739D02*
X84337410Y-87501800D01*
X84539441Y-87299769D02*
X83832334Y-86592663D01*
X83832334Y-86592663D02*
X83866006Y-86761021D01*
X83866006Y-86761021D02*
X83866006Y-86895708D01*
X83866006Y-86895708D02*
X83832334Y-86996724D01*
X84371082Y-86188601D02*
X84371082Y-86121258D01*
X84371082Y-86121258D02*
X84404754Y-86020243D01*
X84404754Y-86020243D02*
X84573113Y-85851884D01*
X84573113Y-85851884D02*
X84674128Y-85818212D01*
X84674128Y-85818212D02*
X84741472Y-85818212D01*
X84741472Y-85818212D02*
X84842487Y-85851884D01*
X84842487Y-85851884D02*
X84909830Y-85919227D01*
X84909830Y-85919227D02*
X84977174Y-86053914D01*
X84977174Y-86053914D02*
X84977174Y-86862036D01*
X84977174Y-86862036D02*
X85414907Y-86424304D01*
X84023754Y-118803456D02*
X83451335Y-118702441D01*
X83619693Y-119207517D02*
X82912587Y-118500410D01*
X82912587Y-118500410D02*
X83181961Y-118231036D01*
X83181961Y-118231036D02*
X83282976Y-118197364D01*
X83282976Y-118197364D02*
X83350319Y-118197364D01*
X83350319Y-118197364D02*
X83451335Y-118231036D01*
X83451335Y-118231036D02*
X83552350Y-118332051D01*
X83552350Y-118332051D02*
X83586022Y-118433067D01*
X83586022Y-118433067D02*
X83586022Y-118500410D01*
X83586022Y-118500410D02*
X83552350Y-118601425D01*
X83552350Y-118601425D02*
X83282976Y-118870799D01*
X84360472Y-118466738D02*
X84495159Y-118332051D01*
X84495159Y-118332051D02*
X84528831Y-118231036D01*
X84528831Y-118231036D02*
X84528831Y-118163693D01*
X84528831Y-118163693D02*
X84495159Y-117995334D01*
X84495159Y-117995334D02*
X84394144Y-117826975D01*
X84394144Y-117826975D02*
X84124770Y-117557601D01*
X84124770Y-117557601D02*
X84023754Y-117523929D01*
X84023754Y-117523929D02*
X83956411Y-117523929D01*
X83956411Y-117523929D02*
X83855396Y-117557601D01*
X83855396Y-117557601D02*
X83720709Y-117692288D01*
X83720709Y-117692288D02*
X83687037Y-117793303D01*
X83687037Y-117793303D02*
X83687037Y-117860647D01*
X83687037Y-117860647D02*
X83720709Y-117961662D01*
X83720709Y-117961662D02*
X83889067Y-118130021D01*
X83889067Y-118130021D02*
X83990083Y-118163693D01*
X83990083Y-118163693D02*
X84057426Y-118163693D01*
X84057426Y-118163693D02*
X84158441Y-118130021D01*
X84158441Y-118130021D02*
X84293128Y-117995334D01*
X84293128Y-117995334D02*
X84326800Y-117894319D01*
X84326800Y-117894319D02*
X84326800Y-117826975D01*
X84326800Y-117826975D02*
X84293128Y-117725960D01*
X105008333Y-99479819D02*
X104675000Y-99003628D01*
X104436905Y-99479819D02*
X104436905Y-98479819D01*
X104436905Y-98479819D02*
X104817857Y-98479819D01*
X104817857Y-98479819D02*
X104913095Y-98527438D01*
X104913095Y-98527438D02*
X104960714Y-98575057D01*
X104960714Y-98575057D02*
X105008333Y-98670295D01*
X105008333Y-98670295D02*
X105008333Y-98813152D01*
X105008333Y-98813152D02*
X104960714Y-98908390D01*
X104960714Y-98908390D02*
X104913095Y-98956009D01*
X104913095Y-98956009D02*
X104817857Y-99003628D01*
X104817857Y-99003628D02*
X104436905Y-99003628D01*
X105389286Y-98575057D02*
X105436905Y-98527438D01*
X105436905Y-98527438D02*
X105532143Y-98479819D01*
X105532143Y-98479819D02*
X105770238Y-98479819D01*
X105770238Y-98479819D02*
X105865476Y-98527438D01*
X105865476Y-98527438D02*
X105913095Y-98575057D01*
X105913095Y-98575057D02*
X105960714Y-98670295D01*
X105960714Y-98670295D02*
X105960714Y-98765533D01*
X105960714Y-98765533D02*
X105913095Y-98908390D01*
X105913095Y-98908390D02*
X105341667Y-99479819D01*
X105341667Y-99479819D02*
X105960714Y-99479819D01*
X108047580Y-111343666D02*
X108095200Y-111391285D01*
X108095200Y-111391285D02*
X108142819Y-111534142D01*
X108142819Y-111534142D02*
X108142819Y-111629380D01*
X108142819Y-111629380D02*
X108095200Y-111772237D01*
X108095200Y-111772237D02*
X107999961Y-111867475D01*
X107999961Y-111867475D02*
X107904723Y-111915094D01*
X107904723Y-111915094D02*
X107714247Y-111962713D01*
X107714247Y-111962713D02*
X107571390Y-111962713D01*
X107571390Y-111962713D02*
X107380914Y-111915094D01*
X107380914Y-111915094D02*
X107285676Y-111867475D01*
X107285676Y-111867475D02*
X107190438Y-111772237D01*
X107190438Y-111772237D02*
X107142819Y-111629380D01*
X107142819Y-111629380D02*
X107142819Y-111534142D01*
X107142819Y-111534142D02*
X107190438Y-111391285D01*
X107190438Y-111391285D02*
X107238057Y-111343666D01*
X107571390Y-110772237D02*
X107523771Y-110867475D01*
X107523771Y-110867475D02*
X107476152Y-110915094D01*
X107476152Y-110915094D02*
X107380914Y-110962713D01*
X107380914Y-110962713D02*
X107333295Y-110962713D01*
X107333295Y-110962713D02*
X107238057Y-110915094D01*
X107238057Y-110915094D02*
X107190438Y-110867475D01*
X107190438Y-110867475D02*
X107142819Y-110772237D01*
X107142819Y-110772237D02*
X107142819Y-110581761D01*
X107142819Y-110581761D02*
X107190438Y-110486523D01*
X107190438Y-110486523D02*
X107238057Y-110438904D01*
X107238057Y-110438904D02*
X107333295Y-110391285D01*
X107333295Y-110391285D02*
X107380914Y-110391285D01*
X107380914Y-110391285D02*
X107476152Y-110438904D01*
X107476152Y-110438904D02*
X107523771Y-110486523D01*
X107523771Y-110486523D02*
X107571390Y-110581761D01*
X107571390Y-110581761D02*
X107571390Y-110772237D01*
X107571390Y-110772237D02*
X107619009Y-110867475D01*
X107619009Y-110867475D02*
X107666628Y-110915094D01*
X107666628Y-110915094D02*
X107761866Y-110962713D01*
X107761866Y-110962713D02*
X107952342Y-110962713D01*
X107952342Y-110962713D02*
X108047580Y-110915094D01*
X108047580Y-110915094D02*
X108095200Y-110867475D01*
X108095200Y-110867475D02*
X108142819Y-110772237D01*
X108142819Y-110772237D02*
X108142819Y-110581761D01*
X108142819Y-110581761D02*
X108095200Y-110486523D01*
X108095200Y-110486523D02*
X108047580Y-110438904D01*
X108047580Y-110438904D02*
X107952342Y-110391285D01*
X107952342Y-110391285D02*
X107761866Y-110391285D01*
X107761866Y-110391285D02*
X107666628Y-110438904D01*
X107666628Y-110438904D02*
X107619009Y-110486523D01*
X107619009Y-110486523D02*
X107571390Y-110581761D01*
X140047580Y-96119857D02*
X140095200Y-96167476D01*
X140095200Y-96167476D02*
X140142819Y-96310333D01*
X140142819Y-96310333D02*
X140142819Y-96405571D01*
X140142819Y-96405571D02*
X140095200Y-96548428D01*
X140095200Y-96548428D02*
X139999961Y-96643666D01*
X139999961Y-96643666D02*
X139904723Y-96691285D01*
X139904723Y-96691285D02*
X139714247Y-96738904D01*
X139714247Y-96738904D02*
X139571390Y-96738904D01*
X139571390Y-96738904D02*
X139380914Y-96691285D01*
X139380914Y-96691285D02*
X139285676Y-96643666D01*
X139285676Y-96643666D02*
X139190438Y-96548428D01*
X139190438Y-96548428D02*
X139142819Y-96405571D01*
X139142819Y-96405571D02*
X139142819Y-96310333D01*
X139142819Y-96310333D02*
X139190438Y-96167476D01*
X139190438Y-96167476D02*
X139238057Y-96119857D01*
X140142819Y-95167476D02*
X140142819Y-95738904D01*
X140142819Y-95453190D02*
X139142819Y-95453190D01*
X139142819Y-95453190D02*
X139285676Y-95548428D01*
X139285676Y-95548428D02*
X139380914Y-95643666D01*
X139380914Y-95643666D02*
X139428533Y-95738904D01*
X139142819Y-94262714D02*
X139142819Y-94738904D01*
X139142819Y-94738904D02*
X139619009Y-94786523D01*
X139619009Y-94786523D02*
X139571390Y-94738904D01*
X139571390Y-94738904D02*
X139523771Y-94643666D01*
X139523771Y-94643666D02*
X139523771Y-94405571D01*
X139523771Y-94405571D02*
X139571390Y-94310333D01*
X139571390Y-94310333D02*
X139619009Y-94262714D01*
X139619009Y-94262714D02*
X139714247Y-94215095D01*
X139714247Y-94215095D02*
X139952342Y-94215095D01*
X139952342Y-94215095D02*
X140047580Y-94262714D01*
X140047580Y-94262714D02*
X140095200Y-94310333D01*
X140095200Y-94310333D02*
X140142819Y-94405571D01*
X140142819Y-94405571D02*
X140142819Y-94643666D01*
X140142819Y-94643666D02*
X140095200Y-94738904D01*
X140095200Y-94738904D02*
X140047580Y-94786523D01*
X82242819Y-107037094D02*
X81242819Y-107037094D01*
X81242819Y-107037094D02*
X81242819Y-106798999D01*
X81242819Y-106798999D02*
X81290438Y-106656142D01*
X81290438Y-106656142D02*
X81385676Y-106560904D01*
X81385676Y-106560904D02*
X81480914Y-106513285D01*
X81480914Y-106513285D02*
X81671390Y-106465666D01*
X81671390Y-106465666D02*
X81814247Y-106465666D01*
X81814247Y-106465666D02*
X82004723Y-106513285D01*
X82004723Y-106513285D02*
X82099961Y-106560904D01*
X82099961Y-106560904D02*
X82195200Y-106656142D01*
X82195200Y-106656142D02*
X82242819Y-106798999D01*
X82242819Y-106798999D02*
X82242819Y-107037094D01*
X81242819Y-105560904D02*
X81242819Y-106037094D01*
X81242819Y-106037094D02*
X81719009Y-106084713D01*
X81719009Y-106084713D02*
X81671390Y-106037094D01*
X81671390Y-106037094D02*
X81623771Y-105941856D01*
X81623771Y-105941856D02*
X81623771Y-105703761D01*
X81623771Y-105703761D02*
X81671390Y-105608523D01*
X81671390Y-105608523D02*
X81719009Y-105560904D01*
X81719009Y-105560904D02*
X81814247Y-105513285D01*
X81814247Y-105513285D02*
X82052342Y-105513285D01*
X82052342Y-105513285D02*
X82147580Y-105560904D01*
X82147580Y-105560904D02*
X82195200Y-105608523D01*
X82195200Y-105608523D02*
X82242819Y-105703761D01*
X82242819Y-105703761D02*
X82242819Y-105941856D01*
X82242819Y-105941856D02*
X82195200Y-106037094D01*
X82195200Y-106037094D02*
X82147580Y-106084713D01*
X110323333Y-101705580D02*
X110275714Y-101753200D01*
X110275714Y-101753200D02*
X110132857Y-101800819D01*
X110132857Y-101800819D02*
X110037619Y-101800819D01*
X110037619Y-101800819D02*
X109894762Y-101753200D01*
X109894762Y-101753200D02*
X109799524Y-101657961D01*
X109799524Y-101657961D02*
X109751905Y-101562723D01*
X109751905Y-101562723D02*
X109704286Y-101372247D01*
X109704286Y-101372247D02*
X109704286Y-101229390D01*
X109704286Y-101229390D02*
X109751905Y-101038914D01*
X109751905Y-101038914D02*
X109799524Y-100943676D01*
X109799524Y-100943676D02*
X109894762Y-100848438D01*
X109894762Y-100848438D02*
X110037619Y-100800819D01*
X110037619Y-100800819D02*
X110132857Y-100800819D01*
X110132857Y-100800819D02*
X110275714Y-100848438D01*
X110275714Y-100848438D02*
X110323333Y-100896057D01*
X110656667Y-100800819D02*
X111323333Y-100800819D01*
X111323333Y-100800819D02*
X110894762Y-101800819D01*
X108037333Y-100943580D02*
X107989714Y-100991200D01*
X107989714Y-100991200D02*
X107846857Y-101038819D01*
X107846857Y-101038819D02*
X107751619Y-101038819D01*
X107751619Y-101038819D02*
X107608762Y-100991200D01*
X107608762Y-100991200D02*
X107513524Y-100895961D01*
X107513524Y-100895961D02*
X107465905Y-100800723D01*
X107465905Y-100800723D02*
X107418286Y-100610247D01*
X107418286Y-100610247D02*
X107418286Y-100467390D01*
X107418286Y-100467390D02*
X107465905Y-100276914D01*
X107465905Y-100276914D02*
X107513524Y-100181676D01*
X107513524Y-100181676D02*
X107608762Y-100086438D01*
X107608762Y-100086438D02*
X107751619Y-100038819D01*
X107751619Y-100038819D02*
X107846857Y-100038819D01*
X107846857Y-100038819D02*
X107989714Y-100086438D01*
X107989714Y-100086438D02*
X108037333Y-100134057D01*
X108513524Y-101038819D02*
X108704000Y-101038819D01*
X108704000Y-101038819D02*
X108799238Y-100991200D01*
X108799238Y-100991200D02*
X108846857Y-100943580D01*
X108846857Y-100943580D02*
X108942095Y-100800723D01*
X108942095Y-100800723D02*
X108989714Y-100610247D01*
X108989714Y-100610247D02*
X108989714Y-100229295D01*
X108989714Y-100229295D02*
X108942095Y-100134057D01*
X108942095Y-100134057D02*
X108894476Y-100086438D01*
X108894476Y-100086438D02*
X108799238Y-100038819D01*
X108799238Y-100038819D02*
X108608762Y-100038819D01*
X108608762Y-100038819D02*
X108513524Y-100086438D01*
X108513524Y-100086438D02*
X108465905Y-100134057D01*
X108465905Y-100134057D02*
X108418286Y-100229295D01*
X108418286Y-100229295D02*
X108418286Y-100467390D01*
X108418286Y-100467390D02*
X108465905Y-100562628D01*
X108465905Y-100562628D02*
X108513524Y-100610247D01*
X108513524Y-100610247D02*
X108608762Y-100657866D01*
X108608762Y-100657866D02*
X108799238Y-100657866D01*
X108799238Y-100657866D02*
X108894476Y-100610247D01*
X108894476Y-100610247D02*
X108942095Y-100562628D01*
X108942095Y-100562628D02*
X108989714Y-100467390D01*
X122967819Y-95519857D02*
X122491628Y-95853190D01*
X122967819Y-96091285D02*
X121967819Y-96091285D01*
X121967819Y-96091285D02*
X121967819Y-95710333D01*
X121967819Y-95710333D02*
X122015438Y-95615095D01*
X122015438Y-95615095D02*
X122063057Y-95567476D01*
X122063057Y-95567476D02*
X122158295Y-95519857D01*
X122158295Y-95519857D02*
X122301152Y-95519857D01*
X122301152Y-95519857D02*
X122396390Y-95567476D01*
X122396390Y-95567476D02*
X122444009Y-95615095D01*
X122444009Y-95615095D02*
X122491628Y-95710333D01*
X122491628Y-95710333D02*
X122491628Y-96091285D01*
X122967819Y-94567476D02*
X122967819Y-95138904D01*
X122967819Y-94853190D02*
X121967819Y-94853190D01*
X121967819Y-94853190D02*
X122110676Y-94948428D01*
X122110676Y-94948428D02*
X122205914Y-95043666D01*
X122205914Y-95043666D02*
X122253533Y-95138904D01*
X121967819Y-93710333D02*
X121967819Y-93900809D01*
X121967819Y-93900809D02*
X122015438Y-93996047D01*
X122015438Y-93996047D02*
X122063057Y-94043666D01*
X122063057Y-94043666D02*
X122205914Y-94138904D01*
X122205914Y-94138904D02*
X122396390Y-94186523D01*
X122396390Y-94186523D02*
X122777342Y-94186523D01*
X122777342Y-94186523D02*
X122872580Y-94138904D01*
X122872580Y-94138904D02*
X122920200Y-94091285D01*
X122920200Y-94091285D02*
X122967819Y-93996047D01*
X122967819Y-93996047D02*
X122967819Y-93805571D01*
X122967819Y-93805571D02*
X122920200Y-93710333D01*
X122920200Y-93710333D02*
X122872580Y-93662714D01*
X122872580Y-93662714D02*
X122777342Y-93615095D01*
X122777342Y-93615095D02*
X122539247Y-93615095D01*
X122539247Y-93615095D02*
X122444009Y-93662714D01*
X122444009Y-93662714D02*
X122396390Y-93710333D01*
X122396390Y-93710333D02*
X122348771Y-93805571D01*
X122348771Y-93805571D02*
X122348771Y-93996047D01*
X122348771Y-93996047D02*
X122396390Y-94091285D01*
X122396390Y-94091285D02*
X122444009Y-94138904D01*
X122444009Y-94138904D02*
X122539247Y-94186523D01*
X121695142Y-88586580D02*
X121647523Y-88634200D01*
X121647523Y-88634200D02*
X121504666Y-88681819D01*
X121504666Y-88681819D02*
X121409428Y-88681819D01*
X121409428Y-88681819D02*
X121266571Y-88634200D01*
X121266571Y-88634200D02*
X121171333Y-88538961D01*
X121171333Y-88538961D02*
X121123714Y-88443723D01*
X121123714Y-88443723D02*
X121076095Y-88253247D01*
X121076095Y-88253247D02*
X121076095Y-88110390D01*
X121076095Y-88110390D02*
X121123714Y-87919914D01*
X121123714Y-87919914D02*
X121171333Y-87824676D01*
X121171333Y-87824676D02*
X121266571Y-87729438D01*
X121266571Y-87729438D02*
X121409428Y-87681819D01*
X121409428Y-87681819D02*
X121504666Y-87681819D01*
X121504666Y-87681819D02*
X121647523Y-87729438D01*
X121647523Y-87729438D02*
X121695142Y-87777057D01*
X122647523Y-88681819D02*
X122076095Y-88681819D01*
X122361809Y-88681819D02*
X122361809Y-87681819D01*
X122361809Y-87681819D02*
X122266571Y-87824676D01*
X122266571Y-87824676D02*
X122171333Y-87919914D01*
X122171333Y-87919914D02*
X122076095Y-87967533D01*
X123266571Y-87681819D02*
X123361809Y-87681819D01*
X123361809Y-87681819D02*
X123457047Y-87729438D01*
X123457047Y-87729438D02*
X123504666Y-87777057D01*
X123504666Y-87777057D02*
X123552285Y-87872295D01*
X123552285Y-87872295D02*
X123599904Y-88062771D01*
X123599904Y-88062771D02*
X123599904Y-88300866D01*
X123599904Y-88300866D02*
X123552285Y-88491342D01*
X123552285Y-88491342D02*
X123504666Y-88586580D01*
X123504666Y-88586580D02*
X123457047Y-88634200D01*
X123457047Y-88634200D02*
X123361809Y-88681819D01*
X123361809Y-88681819D02*
X123266571Y-88681819D01*
X123266571Y-88681819D02*
X123171333Y-88634200D01*
X123171333Y-88634200D02*
X123123714Y-88586580D01*
X123123714Y-88586580D02*
X123076095Y-88491342D01*
X123076095Y-88491342D02*
X123028476Y-88300866D01*
X123028476Y-88300866D02*
X123028476Y-88062771D01*
X123028476Y-88062771D02*
X123076095Y-87872295D01*
X123076095Y-87872295D02*
X123123714Y-87777057D01*
X123123714Y-87777057D02*
X123171333Y-87729438D01*
X123171333Y-87729438D02*
X123266571Y-87681819D01*
X124791666Y-107453819D02*
X124791666Y-108168104D01*
X124791666Y-108168104D02*
X124744047Y-108310961D01*
X124744047Y-108310961D02*
X124648809Y-108406200D01*
X124648809Y-108406200D02*
X124505952Y-108453819D01*
X124505952Y-108453819D02*
X124410714Y-108453819D01*
X125791666Y-108453819D02*
X125220238Y-108453819D01*
X125505952Y-108453819D02*
X125505952Y-107453819D01*
X125505952Y-107453819D02*
X125410714Y-107596676D01*
X125410714Y-107596676D02*
X125315476Y-107691914D01*
X125315476Y-107691914D02*
X125220238Y-107739533D01*
X82345142Y-99901819D02*
X82011809Y-99425628D01*
X81773714Y-99901819D02*
X81773714Y-98901819D01*
X81773714Y-98901819D02*
X82154666Y-98901819D01*
X82154666Y-98901819D02*
X82249904Y-98949438D01*
X82249904Y-98949438D02*
X82297523Y-98997057D01*
X82297523Y-98997057D02*
X82345142Y-99092295D01*
X82345142Y-99092295D02*
X82345142Y-99235152D01*
X82345142Y-99235152D02*
X82297523Y-99330390D01*
X82297523Y-99330390D02*
X82249904Y-99378009D01*
X82249904Y-99378009D02*
X82154666Y-99425628D01*
X82154666Y-99425628D02*
X81773714Y-99425628D01*
X83297523Y-99901819D02*
X82726095Y-99901819D01*
X83011809Y-99901819D02*
X83011809Y-98901819D01*
X83011809Y-98901819D02*
X82916571Y-99044676D01*
X82916571Y-99044676D02*
X82821333Y-99139914D01*
X82821333Y-99139914D02*
X82726095Y-99187533D01*
X84249904Y-99901819D02*
X83678476Y-99901819D01*
X83964190Y-99901819D02*
X83964190Y-98901819D01*
X83964190Y-98901819D02*
X83868952Y-99044676D01*
X83868952Y-99044676D02*
X83773714Y-99139914D01*
X83773714Y-99139914D02*
X83678476Y-99187533D01*
X81887693Y-88195517D02*
X81180587Y-87488410D01*
X81180587Y-87488410D02*
X81348945Y-87320051D01*
X81348945Y-87320051D02*
X81483632Y-87252708D01*
X81483632Y-87252708D02*
X81618319Y-87252708D01*
X81618319Y-87252708D02*
X81719335Y-87286380D01*
X81719335Y-87286380D02*
X81887693Y-87387395D01*
X81887693Y-87387395D02*
X81988709Y-87488410D01*
X81988709Y-87488410D02*
X82089724Y-87656769D01*
X82089724Y-87656769D02*
X82123396Y-87757784D01*
X82123396Y-87757784D02*
X82123396Y-87892471D01*
X82123396Y-87892471D02*
X82056052Y-88027158D01*
X82056052Y-88027158D02*
X81887693Y-88195517D01*
X82190739Y-86478258D02*
X82056052Y-86612945D01*
X82056052Y-86612945D02*
X82022380Y-86713960D01*
X82022380Y-86713960D02*
X82022380Y-86781303D01*
X82022380Y-86781303D02*
X82056052Y-86949662D01*
X82056052Y-86949662D02*
X82157067Y-87118021D01*
X82157067Y-87118021D02*
X82426441Y-87387395D01*
X82426441Y-87387395D02*
X82527457Y-87421067D01*
X82527457Y-87421067D02*
X82594800Y-87421067D01*
X82594800Y-87421067D02*
X82695815Y-87387395D01*
X82695815Y-87387395D02*
X82830502Y-87252708D01*
X82830502Y-87252708D02*
X82864174Y-87151693D01*
X82864174Y-87151693D02*
X82864174Y-87084349D01*
X82864174Y-87084349D02*
X82830502Y-86983334D01*
X82830502Y-86983334D02*
X82662144Y-86814975D01*
X82662144Y-86814975D02*
X82561128Y-86781303D01*
X82561128Y-86781303D02*
X82493785Y-86781303D01*
X82493785Y-86781303D02*
X82392770Y-86814975D01*
X82392770Y-86814975D02*
X82258083Y-86949662D01*
X82258083Y-86949662D02*
X82224411Y-87050677D01*
X82224411Y-87050677D02*
X82224411Y-87118021D01*
X82224411Y-87118021D02*
X82258083Y-87219036D01*
X105321333Y-95111580D02*
X105273714Y-95159200D01*
X105273714Y-95159200D02*
X105130857Y-95206819D01*
X105130857Y-95206819D02*
X105035619Y-95206819D01*
X105035619Y-95206819D02*
X104892762Y-95159200D01*
X104892762Y-95159200D02*
X104797524Y-95063961D01*
X104797524Y-95063961D02*
X104749905Y-94968723D01*
X104749905Y-94968723D02*
X104702286Y-94778247D01*
X104702286Y-94778247D02*
X104702286Y-94635390D01*
X104702286Y-94635390D02*
X104749905Y-94444914D01*
X104749905Y-94444914D02*
X104797524Y-94349676D01*
X104797524Y-94349676D02*
X104892762Y-94254438D01*
X104892762Y-94254438D02*
X105035619Y-94206819D01*
X105035619Y-94206819D02*
X105130857Y-94206819D01*
X105130857Y-94206819D02*
X105273714Y-94254438D01*
X105273714Y-94254438D02*
X105321333Y-94302057D01*
X106273714Y-95206819D02*
X105702286Y-95206819D01*
X105988000Y-95206819D02*
X105988000Y-94206819D01*
X105988000Y-94206819D02*
X105892762Y-94349676D01*
X105892762Y-94349676D02*
X105797524Y-94444914D01*
X105797524Y-94444914D02*
X105702286Y-94492533D01*
X112542819Y-88093666D02*
X112542819Y-88569856D01*
X112542819Y-88569856D02*
X111542819Y-88569856D01*
X112542819Y-87236523D02*
X112542819Y-87807951D01*
X112542819Y-87522237D02*
X111542819Y-87522237D01*
X111542819Y-87522237D02*
X111685676Y-87617475D01*
X111685676Y-87617475D02*
X111780914Y-87712713D01*
X111780914Y-87712713D02*
X111828533Y-87807951D01*
X118737142Y-97355819D02*
X118403809Y-96879628D01*
X118165714Y-97355819D02*
X118165714Y-96355819D01*
X118165714Y-96355819D02*
X118546666Y-96355819D01*
X118546666Y-96355819D02*
X118641904Y-96403438D01*
X118641904Y-96403438D02*
X118689523Y-96451057D01*
X118689523Y-96451057D02*
X118737142Y-96546295D01*
X118737142Y-96546295D02*
X118737142Y-96689152D01*
X118737142Y-96689152D02*
X118689523Y-96784390D01*
X118689523Y-96784390D02*
X118641904Y-96832009D01*
X118641904Y-96832009D02*
X118546666Y-96879628D01*
X118546666Y-96879628D02*
X118165714Y-96879628D01*
X119689523Y-97355819D02*
X119118095Y-97355819D01*
X119403809Y-97355819D02*
X119403809Y-96355819D01*
X119403809Y-96355819D02*
X119308571Y-96498676D01*
X119308571Y-96498676D02*
X119213333Y-96593914D01*
X119213333Y-96593914D02*
X119118095Y-96641533D01*
X120594285Y-96355819D02*
X120118095Y-96355819D01*
X120118095Y-96355819D02*
X120070476Y-96832009D01*
X120070476Y-96832009D02*
X120118095Y-96784390D01*
X120118095Y-96784390D02*
X120213333Y-96736771D01*
X120213333Y-96736771D02*
X120451428Y-96736771D01*
X120451428Y-96736771D02*
X120546666Y-96784390D01*
X120546666Y-96784390D02*
X120594285Y-96832009D01*
X120594285Y-96832009D02*
X120641904Y-96927247D01*
X120641904Y-96927247D02*
X120641904Y-97165342D01*
X120641904Y-97165342D02*
X120594285Y-97260580D01*
X120594285Y-97260580D02*
X120546666Y-97308200D01*
X120546666Y-97308200D02*
X120451428Y-97355819D01*
X120451428Y-97355819D02*
X120213333Y-97355819D01*
X120213333Y-97355819D02*
X120118095Y-97308200D01*
X120118095Y-97308200D02*
X120070476Y-97260580D01*
X99188095Y-118179819D02*
X99188095Y-118989342D01*
X99188095Y-118989342D02*
X99235714Y-119084580D01*
X99235714Y-119084580D02*
X99283333Y-119132200D01*
X99283333Y-119132200D02*
X99378571Y-119179819D01*
X99378571Y-119179819D02*
X99569047Y-119179819D01*
X99569047Y-119179819D02*
X99664285Y-119132200D01*
X99664285Y-119132200D02*
X99711904Y-119084580D01*
X99711904Y-119084580D02*
X99759523Y-118989342D01*
X99759523Y-118989342D02*
X99759523Y-118179819D01*
X100140476Y-118179819D02*
X100759523Y-118179819D01*
X100759523Y-118179819D02*
X100426190Y-118560771D01*
X100426190Y-118560771D02*
X100569047Y-118560771D01*
X100569047Y-118560771D02*
X100664285Y-118608390D01*
X100664285Y-118608390D02*
X100711904Y-118656009D01*
X100711904Y-118656009D02*
X100759523Y-118751247D01*
X100759523Y-118751247D02*
X100759523Y-118989342D01*
X100759523Y-118989342D02*
X100711904Y-119084580D01*
X100711904Y-119084580D02*
X100664285Y-119132200D01*
X100664285Y-119132200D02*
X100569047Y-119179819D01*
X100569047Y-119179819D02*
X100283333Y-119179819D01*
X100283333Y-119179819D02*
X100188095Y-119132200D01*
X100188095Y-119132200D02*
X100140476Y-119084580D01*
X155654819Y-89767857D02*
X155178628Y-90101190D01*
X155654819Y-90339285D02*
X154654819Y-90339285D01*
X154654819Y-90339285D02*
X154654819Y-89958333D01*
X154654819Y-89958333D02*
X154702438Y-89863095D01*
X154702438Y-89863095D02*
X154750057Y-89815476D01*
X154750057Y-89815476D02*
X154845295Y-89767857D01*
X154845295Y-89767857D02*
X154988152Y-89767857D01*
X154988152Y-89767857D02*
X155083390Y-89815476D01*
X155083390Y-89815476D02*
X155131009Y-89863095D01*
X155131009Y-89863095D02*
X155178628Y-89958333D01*
X155178628Y-89958333D02*
X155178628Y-90339285D01*
X155654819Y-88815476D02*
X155654819Y-89386904D01*
X155654819Y-89101190D02*
X154654819Y-89101190D01*
X154654819Y-89101190D02*
X154797676Y-89196428D01*
X154797676Y-89196428D02*
X154892914Y-89291666D01*
X154892914Y-89291666D02*
X154940533Y-89386904D01*
X154988152Y-87958333D02*
X155654819Y-87958333D01*
X154607200Y-88196428D02*
X155321485Y-88434523D01*
X155321485Y-88434523D02*
X155321485Y-87815476D01*
X121435905Y-84909819D02*
X121435905Y-83909819D01*
X121435905Y-83909819D02*
X121674000Y-83909819D01*
X121674000Y-83909819D02*
X121816857Y-83957438D01*
X121816857Y-83957438D02*
X121912095Y-84052676D01*
X121912095Y-84052676D02*
X121959714Y-84147914D01*
X121959714Y-84147914D02*
X122007333Y-84338390D01*
X122007333Y-84338390D02*
X122007333Y-84481247D01*
X122007333Y-84481247D02*
X121959714Y-84671723D01*
X121959714Y-84671723D02*
X121912095Y-84766961D01*
X121912095Y-84766961D02*
X121816857Y-84862200D01*
X121816857Y-84862200D02*
X121674000Y-84909819D01*
X121674000Y-84909819D02*
X121435905Y-84909819D01*
X122340667Y-83909819D02*
X123007333Y-83909819D01*
X123007333Y-83909819D02*
X122578762Y-84909819D01*
X105896333Y-118791580D02*
X105848714Y-118839200D01*
X105848714Y-118839200D02*
X105705857Y-118886819D01*
X105705857Y-118886819D02*
X105610619Y-118886819D01*
X105610619Y-118886819D02*
X105467762Y-118839200D01*
X105467762Y-118839200D02*
X105372524Y-118743961D01*
X105372524Y-118743961D02*
X105324905Y-118648723D01*
X105324905Y-118648723D02*
X105277286Y-118458247D01*
X105277286Y-118458247D02*
X105277286Y-118315390D01*
X105277286Y-118315390D02*
X105324905Y-118124914D01*
X105324905Y-118124914D02*
X105372524Y-118029676D01*
X105372524Y-118029676D02*
X105467762Y-117934438D01*
X105467762Y-117934438D02*
X105610619Y-117886819D01*
X105610619Y-117886819D02*
X105705857Y-117886819D01*
X105705857Y-117886819D02*
X105848714Y-117934438D01*
X105848714Y-117934438D02*
X105896333Y-117982057D01*
X106753476Y-117886819D02*
X106563000Y-117886819D01*
X106563000Y-117886819D02*
X106467762Y-117934438D01*
X106467762Y-117934438D02*
X106420143Y-117982057D01*
X106420143Y-117982057D02*
X106324905Y-118124914D01*
X106324905Y-118124914D02*
X106277286Y-118315390D01*
X106277286Y-118315390D02*
X106277286Y-118696342D01*
X106277286Y-118696342D02*
X106324905Y-118791580D01*
X106324905Y-118791580D02*
X106372524Y-118839200D01*
X106372524Y-118839200D02*
X106467762Y-118886819D01*
X106467762Y-118886819D02*
X106658238Y-118886819D01*
X106658238Y-118886819D02*
X106753476Y-118839200D01*
X106753476Y-118839200D02*
X106801095Y-118791580D01*
X106801095Y-118791580D02*
X106848714Y-118696342D01*
X106848714Y-118696342D02*
X106848714Y-118458247D01*
X106848714Y-118458247D02*
X106801095Y-118363009D01*
X106801095Y-118363009D02*
X106753476Y-118315390D01*
X106753476Y-118315390D02*
X106658238Y-118267771D01*
X106658238Y-118267771D02*
X106467762Y-118267771D01*
X106467762Y-118267771D02*
X106372524Y-118315390D01*
X106372524Y-118315390D02*
X106324905Y-118363009D01*
X106324905Y-118363009D02*
X106277286Y-118458247D01*
X103996333Y-86386580D02*
X103948714Y-86434200D01*
X103948714Y-86434200D02*
X103805857Y-86481819D01*
X103805857Y-86481819D02*
X103710619Y-86481819D01*
X103710619Y-86481819D02*
X103567762Y-86434200D01*
X103567762Y-86434200D02*
X103472524Y-86338961D01*
X103472524Y-86338961D02*
X103424905Y-86243723D01*
X103424905Y-86243723D02*
X103377286Y-86053247D01*
X103377286Y-86053247D02*
X103377286Y-85910390D01*
X103377286Y-85910390D02*
X103424905Y-85719914D01*
X103424905Y-85719914D02*
X103472524Y-85624676D01*
X103472524Y-85624676D02*
X103567762Y-85529438D01*
X103567762Y-85529438D02*
X103710619Y-85481819D01*
X103710619Y-85481819D02*
X103805857Y-85481819D01*
X103805857Y-85481819D02*
X103948714Y-85529438D01*
X103948714Y-85529438D02*
X103996333Y-85577057D01*
X104329667Y-85481819D02*
X104948714Y-85481819D01*
X104948714Y-85481819D02*
X104615381Y-85862771D01*
X104615381Y-85862771D02*
X104758238Y-85862771D01*
X104758238Y-85862771D02*
X104853476Y-85910390D01*
X104853476Y-85910390D02*
X104901095Y-85958009D01*
X104901095Y-85958009D02*
X104948714Y-86053247D01*
X104948714Y-86053247D02*
X104948714Y-86291342D01*
X104948714Y-86291342D02*
X104901095Y-86386580D01*
X104901095Y-86386580D02*
X104853476Y-86434200D01*
X104853476Y-86434200D02*
X104758238Y-86481819D01*
X104758238Y-86481819D02*
X104472524Y-86481819D01*
X104472524Y-86481819D02*
X104377286Y-86434200D01*
X104377286Y-86434200D02*
X104329667Y-86386580D01*
X155754819Y-115238094D02*
X154754819Y-115238094D01*
X154754819Y-115238094D02*
X154754819Y-114999999D01*
X154754819Y-114999999D02*
X154802438Y-114857142D01*
X154802438Y-114857142D02*
X154897676Y-114761904D01*
X154897676Y-114761904D02*
X154992914Y-114714285D01*
X154992914Y-114714285D02*
X155183390Y-114666666D01*
X155183390Y-114666666D02*
X155326247Y-114666666D01*
X155326247Y-114666666D02*
X155516723Y-114714285D01*
X155516723Y-114714285D02*
X155611961Y-114761904D01*
X155611961Y-114761904D02*
X155707200Y-114857142D01*
X155707200Y-114857142D02*
X155754819Y-114999999D01*
X155754819Y-114999999D02*
X155754819Y-115238094D01*
X155754819Y-114190475D02*
X155754819Y-113999999D01*
X155754819Y-113999999D02*
X155707200Y-113904761D01*
X155707200Y-113904761D02*
X155659580Y-113857142D01*
X155659580Y-113857142D02*
X155516723Y-113761904D01*
X155516723Y-113761904D02*
X155326247Y-113714285D01*
X155326247Y-113714285D02*
X154945295Y-113714285D01*
X154945295Y-113714285D02*
X154850057Y-113761904D01*
X154850057Y-113761904D02*
X154802438Y-113809523D01*
X154802438Y-113809523D02*
X154754819Y-113904761D01*
X154754819Y-113904761D02*
X154754819Y-114095237D01*
X154754819Y-114095237D02*
X154802438Y-114190475D01*
X154802438Y-114190475D02*
X154850057Y-114238094D01*
X154850057Y-114238094D02*
X154945295Y-114285713D01*
X154945295Y-114285713D02*
X155183390Y-114285713D01*
X155183390Y-114285713D02*
X155278628Y-114238094D01*
X155278628Y-114238094D02*
X155326247Y-114190475D01*
X155326247Y-114190475D02*
X155373866Y-114095237D01*
X155373866Y-114095237D02*
X155373866Y-113904761D01*
X155373866Y-113904761D02*
X155326247Y-113809523D01*
X155326247Y-113809523D02*
X155278628Y-113761904D01*
X155278628Y-113761904D02*
X155183390Y-113714285D01*
X131592819Y-88956166D02*
X131116628Y-89289499D01*
X131592819Y-89527594D02*
X130592819Y-89527594D01*
X130592819Y-89527594D02*
X130592819Y-89146642D01*
X130592819Y-89146642D02*
X130640438Y-89051404D01*
X130640438Y-89051404D02*
X130688057Y-89003785D01*
X130688057Y-89003785D02*
X130783295Y-88956166D01*
X130783295Y-88956166D02*
X130926152Y-88956166D01*
X130926152Y-88956166D02*
X131021390Y-89003785D01*
X131021390Y-89003785D02*
X131069009Y-89051404D01*
X131069009Y-89051404D02*
X131116628Y-89146642D01*
X131116628Y-89146642D02*
X131116628Y-89527594D01*
X130926152Y-88099023D02*
X131592819Y-88099023D01*
X130545200Y-88337118D02*
X131259485Y-88575213D01*
X131259485Y-88575213D02*
X131259485Y-87956166D01*
X111221333Y-121081819D02*
X110888000Y-120605628D01*
X110649905Y-121081819D02*
X110649905Y-120081819D01*
X110649905Y-120081819D02*
X111030857Y-120081819D01*
X111030857Y-120081819D02*
X111126095Y-120129438D01*
X111126095Y-120129438D02*
X111173714Y-120177057D01*
X111173714Y-120177057D02*
X111221333Y-120272295D01*
X111221333Y-120272295D02*
X111221333Y-120415152D01*
X111221333Y-120415152D02*
X111173714Y-120510390D01*
X111173714Y-120510390D02*
X111126095Y-120558009D01*
X111126095Y-120558009D02*
X111030857Y-120605628D01*
X111030857Y-120605628D02*
X110649905Y-120605628D01*
X111792762Y-120510390D02*
X111697524Y-120462771D01*
X111697524Y-120462771D02*
X111649905Y-120415152D01*
X111649905Y-120415152D02*
X111602286Y-120319914D01*
X111602286Y-120319914D02*
X111602286Y-120272295D01*
X111602286Y-120272295D02*
X111649905Y-120177057D01*
X111649905Y-120177057D02*
X111697524Y-120129438D01*
X111697524Y-120129438D02*
X111792762Y-120081819D01*
X111792762Y-120081819D02*
X111983238Y-120081819D01*
X111983238Y-120081819D02*
X112078476Y-120129438D01*
X112078476Y-120129438D02*
X112126095Y-120177057D01*
X112126095Y-120177057D02*
X112173714Y-120272295D01*
X112173714Y-120272295D02*
X112173714Y-120319914D01*
X112173714Y-120319914D02*
X112126095Y-120415152D01*
X112126095Y-120415152D02*
X112078476Y-120462771D01*
X112078476Y-120462771D02*
X111983238Y-120510390D01*
X111983238Y-120510390D02*
X111792762Y-120510390D01*
X111792762Y-120510390D02*
X111697524Y-120558009D01*
X111697524Y-120558009D02*
X111649905Y-120605628D01*
X111649905Y-120605628D02*
X111602286Y-120700866D01*
X111602286Y-120700866D02*
X111602286Y-120891342D01*
X111602286Y-120891342D02*
X111649905Y-120986580D01*
X111649905Y-120986580D02*
X111697524Y-121034200D01*
X111697524Y-121034200D02*
X111792762Y-121081819D01*
X111792762Y-121081819D02*
X111983238Y-121081819D01*
X111983238Y-121081819D02*
X112078476Y-121034200D01*
X112078476Y-121034200D02*
X112126095Y-120986580D01*
X112126095Y-120986580D02*
X112173714Y-120891342D01*
X112173714Y-120891342D02*
X112173714Y-120700866D01*
X112173714Y-120700866D02*
X112126095Y-120605628D01*
X112126095Y-120605628D02*
X112078476Y-120558009D01*
X112078476Y-120558009D02*
X111983238Y-120510390D01*
X106396333Y-89061580D02*
X106348714Y-89109200D01*
X106348714Y-89109200D02*
X106205857Y-89156819D01*
X106205857Y-89156819D02*
X106110619Y-89156819D01*
X106110619Y-89156819D02*
X105967762Y-89109200D01*
X105967762Y-89109200D02*
X105872524Y-89013961D01*
X105872524Y-89013961D02*
X105824905Y-88918723D01*
X105824905Y-88918723D02*
X105777286Y-88728247D01*
X105777286Y-88728247D02*
X105777286Y-88585390D01*
X105777286Y-88585390D02*
X105824905Y-88394914D01*
X105824905Y-88394914D02*
X105872524Y-88299676D01*
X105872524Y-88299676D02*
X105967762Y-88204438D01*
X105967762Y-88204438D02*
X106110619Y-88156819D01*
X106110619Y-88156819D02*
X106205857Y-88156819D01*
X106205857Y-88156819D02*
X106348714Y-88204438D01*
X106348714Y-88204438D02*
X106396333Y-88252057D01*
X107253476Y-88490152D02*
X107253476Y-89156819D01*
X107015381Y-88109200D02*
X106777286Y-88823485D01*
X106777286Y-88823485D02*
X107396333Y-88823485D01*
X155013819Y-99925094D02*
X154013819Y-99925094D01*
X154013819Y-99925094D02*
X154013819Y-99686999D01*
X154013819Y-99686999D02*
X154061438Y-99544142D01*
X154061438Y-99544142D02*
X154156676Y-99448904D01*
X154156676Y-99448904D02*
X154251914Y-99401285D01*
X154251914Y-99401285D02*
X154442390Y-99353666D01*
X154442390Y-99353666D02*
X154585247Y-99353666D01*
X154585247Y-99353666D02*
X154775723Y-99401285D01*
X154775723Y-99401285D02*
X154870961Y-99448904D01*
X154870961Y-99448904D02*
X154966200Y-99544142D01*
X154966200Y-99544142D02*
X155013819Y-99686999D01*
X155013819Y-99686999D02*
X155013819Y-99925094D01*
X154347152Y-98496523D02*
X155013819Y-98496523D01*
X153966200Y-98734618D02*
X154680485Y-98972713D01*
X154680485Y-98972713D02*
X154680485Y-98353666D01*
X110020142Y-84981819D02*
X109686809Y-84505628D01*
X109448714Y-84981819D02*
X109448714Y-83981819D01*
X109448714Y-83981819D02*
X109829666Y-83981819D01*
X109829666Y-83981819D02*
X109924904Y-84029438D01*
X109924904Y-84029438D02*
X109972523Y-84077057D01*
X109972523Y-84077057D02*
X110020142Y-84172295D01*
X110020142Y-84172295D02*
X110020142Y-84315152D01*
X110020142Y-84315152D02*
X109972523Y-84410390D01*
X109972523Y-84410390D02*
X109924904Y-84458009D01*
X109924904Y-84458009D02*
X109829666Y-84505628D01*
X109829666Y-84505628D02*
X109448714Y-84505628D01*
X110972523Y-84981819D02*
X110401095Y-84981819D01*
X110686809Y-84981819D02*
X110686809Y-83981819D01*
X110686809Y-83981819D02*
X110591571Y-84124676D01*
X110591571Y-84124676D02*
X110496333Y-84219914D01*
X110496333Y-84219914D02*
X110401095Y-84267533D01*
X111305857Y-83981819D02*
X111924904Y-83981819D01*
X111924904Y-83981819D02*
X111591571Y-84362771D01*
X111591571Y-84362771D02*
X111734428Y-84362771D01*
X111734428Y-84362771D02*
X111829666Y-84410390D01*
X111829666Y-84410390D02*
X111877285Y-84458009D01*
X111877285Y-84458009D02*
X111924904Y-84553247D01*
X111924904Y-84553247D02*
X111924904Y-84791342D01*
X111924904Y-84791342D02*
X111877285Y-84886580D01*
X111877285Y-84886580D02*
X111829666Y-84934200D01*
X111829666Y-84934200D02*
X111734428Y-84981819D01*
X111734428Y-84981819D02*
X111448714Y-84981819D01*
X111448714Y-84981819D02*
X111353476Y-84934200D01*
X111353476Y-84934200D02*
X111305857Y-84886580D01*
D15*
%TO.C,J7*%
X133920000Y-119655000D02*
X144140000Y-119655000D01*
X133920000Y-119655000D02*
X133920000Y-116995000D01*
X144140000Y-119655000D02*
X144140000Y-116995000D01*
X131320000Y-118325000D02*
X131320000Y-116995000D01*
X131320000Y-116995000D02*
X132650000Y-116995000D01*
X133920000Y-116995000D02*
X144140000Y-116995000D01*
%TO.C,J10*%
X153980904Y-90200000D02*
X153040452Y-91140452D01*
X153040452Y-89259548D02*
X153980904Y-90200000D01*
X152142426Y-88361522D02*
X150303949Y-86523045D01*
X152142426Y-88361522D02*
X150261522Y-90242426D01*
X150303949Y-86523045D02*
X148423045Y-88403949D01*
X150261522Y-90242426D02*
X148423045Y-88403949D01*
%TO.C,J9*%
X153555000Y-116695000D02*
X153555000Y-118025000D01*
X152225000Y-116695000D02*
X153555000Y-116695000D01*
X150955000Y-116695000D02*
X148355000Y-116695000D01*
X150955000Y-116695000D02*
X150955000Y-119355000D01*
X148355000Y-116695000D02*
X148355000Y-119355000D01*
X150955000Y-119355000D02*
X148355000Y-119355000D01*
%TO.C,J8*%
X155555000Y-105945000D02*
X155555000Y-107275000D01*
X154225000Y-105945000D02*
X155555000Y-105945000D01*
X152955000Y-105945000D02*
X150355000Y-105945000D01*
X152955000Y-105945000D02*
X152955000Y-108605000D01*
X150355000Y-105945000D02*
X150355000Y-108605000D01*
X152955000Y-108605000D02*
X150355000Y-108605000D01*
D16*
%TO.C,D3*%
X81600563Y-121746670D02*
X80893456Y-121039563D01*
D15*
%TO.C,R7*%
X151212258Y-121397500D02*
X150737742Y-121397500D01*
X151212258Y-120352500D02*
X150737742Y-120352500D01*
%TO.C,J2*%
X142032000Y-99040000D02*
X142032000Y-106660000D01*
X142032000Y-106660000D02*
X148002000Y-106660000D01*
X142792000Y-99800000D02*
X142792000Y-102850000D01*
X142792000Y-105900000D02*
X142792000Y-102850000D01*
X145742000Y-99050000D02*
X145742000Y-99800000D01*
X145742000Y-99800000D02*
X142792000Y-99800000D01*
X145742000Y-105900000D02*
X142792000Y-105900000D01*
X145742000Y-106650000D02*
X145742000Y-105900000D01*
X147242000Y-99050000D02*
X147242000Y-100850000D01*
X147242000Y-100850000D02*
X147992000Y-100850000D01*
X147242000Y-102350000D02*
X147242000Y-103350000D01*
X147242000Y-103350000D02*
X147992000Y-103350000D01*
X147242000Y-104850000D02*
X147242000Y-106650000D01*
X147242000Y-106650000D02*
X147992000Y-106650000D01*
X147992000Y-99050000D02*
X147242000Y-99050000D01*
X147992000Y-100850000D02*
X147992000Y-99050000D01*
X147992000Y-102350000D02*
X147242000Y-102350000D01*
X147992000Y-103350000D02*
X147992000Y-102350000D01*
X147992000Y-104850000D02*
X147242000Y-104850000D01*
X147992000Y-106650000D02*
X147992000Y-104850000D01*
X148002000Y-99040000D02*
X142032000Y-99040000D01*
X148002000Y-106660000D02*
X148002000Y-99040000D01*
X148292000Y-98750000D02*
X147042000Y-98750000D01*
X148292000Y-100000000D02*
X148292000Y-98750000D01*
%TO.C,TP6*%
X94150000Y-116450000D02*
G75*
G02*
X92750000Y-116450000I-700000J0D01*
G01*
X92750000Y-116450000D02*
G75*
G02*
X94150000Y-116450000I700000J0D01*
G01*
%TO.C,R10*%
X154125258Y-103729500D02*
X153650742Y-103729500D01*
X154125258Y-104774500D02*
X153650742Y-104774500D01*
%TO.C,R17*%
X151125742Y-112204500D02*
X151600258Y-112204500D01*
X151125742Y-113249500D02*
X151600258Y-113249500D01*
D16*
%TO.C,D2*%
X118938000Y-122985000D02*
X117938000Y-122985000D01*
D15*
%TO.C,C12*%
X104828000Y-114461420D02*
X104828000Y-114742580D01*
X105848000Y-114461420D02*
X105848000Y-114742580D01*
D16*
%TO.C,D1*%
X155932544Y-121089563D02*
X155225437Y-121796670D01*
D15*
%TO.C,R5*%
X100140500Y-97014742D02*
X100140500Y-97489258D01*
X101185500Y-97014742D02*
X101185500Y-97489258D01*
%TO.C,C13*%
X115978000Y-91417580D02*
X115978000Y-91136420D01*
X116998000Y-91417580D02*
X116998000Y-91136420D01*
%TO.C,C14*%
X117528000Y-94761420D02*
X117528000Y-95042580D01*
X118548000Y-94761420D02*
X118548000Y-95042580D01*
%TO.C,R6*%
X128265500Y-91977242D02*
X128265500Y-92451758D01*
X129310500Y-91977242D02*
X129310500Y-92451758D01*
%TO.C,TP1*%
X109950000Y-87750000D02*
G75*
G02*
X108550000Y-87750000I-700000J0D01*
G01*
X108550000Y-87750000D02*
G75*
G02*
X109950000Y-87750000I700000J0D01*
G01*
%TO.C,R1*%
X105350258Y-101654500D02*
X104875742Y-101654500D01*
X105350258Y-102699500D02*
X104875742Y-102699500D01*
%TO.C,C2*%
X102947420Y-97542000D02*
X103228580Y-97542000D01*
X102947420Y-98562000D02*
X103228580Y-98562000D01*
D17*
%TO.C,PS1*%
X117538000Y-93052000D02*
X117538000Y-91852000D01*
X117663000Y-90802000D02*
X120613000Y-90802000D01*
X117663000Y-91502000D02*
X117663000Y-90802000D01*
X120613000Y-90802000D02*
X120613000Y-91502000D01*
X120613000Y-91502000D02*
X117663000Y-91502000D01*
D15*
%TO.C,J3*%
X86878000Y-93537000D02*
X86878000Y-94787000D01*
X86878000Y-94787000D02*
X88128000Y-94787000D01*
X86978000Y-92727000D02*
X86978000Y-93027000D01*
X86978000Y-93027000D02*
X87178000Y-93027000D01*
X87078000Y-92727000D02*
X87078000Y-93027000D01*
X87178000Y-88367000D02*
X87178000Y-94487000D01*
X87178000Y-91927000D02*
X87788000Y-91927000D01*
X87178000Y-92727000D02*
X86978000Y-92727000D01*
X87178000Y-94487000D02*
X91898000Y-94487000D01*
X87788000Y-88977000D02*
X87788000Y-90927000D01*
X87788000Y-90927000D02*
X87178000Y-90927000D01*
X87788000Y-91927000D02*
X87788000Y-93877000D01*
X87788000Y-93877000D02*
X91288000Y-93877000D01*
X88488000Y-88367000D02*
X88488000Y-88977000D01*
X88488000Y-94487000D02*
X88488000Y-93877000D01*
X89788000Y-88367000D02*
X89788000Y-88977000D01*
X89788000Y-94487000D02*
X89788000Y-93877000D01*
X90788000Y-91327000D02*
X91288000Y-91327000D01*
X90788000Y-91527000D02*
X90788000Y-91327000D01*
X91288000Y-88977000D02*
X87788000Y-88977000D01*
X91288000Y-91427000D02*
X90788000Y-91427000D01*
X91288000Y-91527000D02*
X90788000Y-91527000D01*
X91288000Y-93877000D02*
X91288000Y-88977000D01*
X91898000Y-88367000D02*
X87178000Y-88367000D01*
X91898000Y-94487000D02*
X91898000Y-88367000D01*
%TO.C,TP5*%
X105350000Y-108550000D02*
G75*
G02*
X103950000Y-108550000I-700000J0D01*
G01*
X103950000Y-108550000D02*
G75*
G02*
X105350000Y-108550000I700000J0D01*
G01*
%TO.C,U1*%
X97378000Y-99092000D02*
X97378000Y-99367000D01*
X97378000Y-109012000D02*
X97378000Y-108737000D01*
X99688000Y-99092000D02*
X97378000Y-99092000D01*
X99688000Y-99092000D02*
X101998000Y-99092000D01*
X99688000Y-109012000D02*
X97378000Y-109012000D01*
X99688000Y-109012000D02*
X101998000Y-109012000D01*
X101998000Y-99092000D02*
X101998000Y-99367000D01*
X101998000Y-109012000D02*
X101998000Y-108737000D01*
X96788000Y-99367000D02*
X96548000Y-99037000D01*
X97028000Y-99037000D01*
X96788000Y-99367000D01*
G36*
X96788000Y-99367000D02*
G01*
X96548000Y-99037000D01*
X97028000Y-99037000D01*
X96788000Y-99367000D01*
G37*
%TO.C,TP3*%
X86713000Y-97127000D02*
G75*
G02*
X85313000Y-97127000I-700000J0D01*
G01*
X85313000Y-97127000D02*
G75*
G02*
X86713000Y-97127000I700000J0D01*
G01*
%TO.C,Q1*%
X126438000Y-87354500D02*
X125638000Y-87354500D01*
X126438000Y-87354500D02*
X127238000Y-87354500D01*
X126438000Y-90474500D02*
X125638000Y-90474500D01*
X126438000Y-90474500D02*
X127238000Y-90474500D01*
X127978000Y-90754500D02*
X127498000Y-90754500D01*
X127738000Y-90424500D01*
X127978000Y-90754500D01*
G36*
X127978000Y-90754500D02*
G01*
X127498000Y-90754500D01*
X127738000Y-90424500D01*
X127978000Y-90754500D01*
G37*
%TO.C,U2*%
X99513000Y-88692000D02*
X97313000Y-88692000D01*
X99513000Y-88692000D02*
X101713000Y-88692000D01*
X99513000Y-94212000D02*
X97313000Y-94212000D01*
X99513000Y-94212000D02*
X101713000Y-94212000D01*
X95603000Y-89177000D02*
X95273000Y-89417000D01*
X95273000Y-88937000D01*
X95603000Y-89177000D01*
G36*
X95603000Y-89177000D02*
G01*
X95273000Y-89417000D01*
X95273000Y-88937000D01*
X95603000Y-89177000D01*
G37*
D16*
%TO.C,D8*%
X155150563Y-83532456D02*
X155857670Y-84239563D01*
D15*
%TO.C,C5*%
X104028000Y-90511420D02*
X104028000Y-90792580D01*
X105048000Y-90511420D02*
X105048000Y-90792580D01*
%TO.C,TP7*%
X94125000Y-114100000D02*
G75*
G02*
X92725000Y-114100000I-700000J0D01*
G01*
X92725000Y-114100000D02*
G75*
G02*
X94125000Y-114100000I700000J0D01*
G01*
%TO.C,J4*%
X86878000Y-108987000D02*
X86878000Y-110237000D01*
X86878000Y-110237000D02*
X88128000Y-110237000D01*
X86978000Y-108177000D02*
X86978000Y-108477000D01*
X86978000Y-108477000D02*
X87178000Y-108477000D01*
X87078000Y-108177000D02*
X87078000Y-108477000D01*
X87178000Y-103817000D02*
X87178000Y-109937000D01*
X87178000Y-107377000D02*
X87788000Y-107377000D01*
X87178000Y-108177000D02*
X86978000Y-108177000D01*
X87178000Y-109937000D02*
X91898000Y-109937000D01*
X87788000Y-104427000D02*
X87788000Y-106377000D01*
X87788000Y-106377000D02*
X87178000Y-106377000D01*
X87788000Y-107377000D02*
X87788000Y-109327000D01*
X87788000Y-109327000D02*
X91288000Y-109327000D01*
X88488000Y-103817000D02*
X88488000Y-104427000D01*
X88488000Y-109937000D02*
X88488000Y-109327000D01*
X89788000Y-103817000D02*
X89788000Y-104427000D01*
X89788000Y-109937000D02*
X89788000Y-109327000D01*
X90788000Y-106777000D02*
X91288000Y-106777000D01*
X90788000Y-106977000D02*
X90788000Y-106777000D01*
X91288000Y-104427000D02*
X87788000Y-104427000D01*
X91288000Y-106877000D02*
X90788000Y-106877000D01*
X91288000Y-106977000D02*
X90788000Y-106977000D01*
X91288000Y-109327000D02*
X91288000Y-104427000D01*
X91898000Y-103817000D02*
X87178000Y-103817000D01*
X91898000Y-109937000D02*
X91898000Y-103817000D01*
%TO.C,J5*%
X86878000Y-116362000D02*
X86878000Y-117612000D01*
X86878000Y-117612000D02*
X88128000Y-117612000D01*
X86978000Y-115552000D02*
X86978000Y-115852000D01*
X86978000Y-115852000D02*
X87178000Y-115852000D01*
X87078000Y-115552000D02*
X87078000Y-115852000D01*
X87178000Y-111192000D02*
X87178000Y-117312000D01*
X87178000Y-114752000D02*
X87788000Y-114752000D01*
X87178000Y-115552000D02*
X86978000Y-115552000D01*
X87178000Y-117312000D02*
X91898000Y-117312000D01*
X87788000Y-111802000D02*
X87788000Y-113752000D01*
X87788000Y-113752000D02*
X87178000Y-113752000D01*
X87788000Y-114752000D02*
X87788000Y-116702000D01*
X87788000Y-116702000D02*
X91288000Y-116702000D01*
X88488000Y-111192000D02*
X88488000Y-111802000D01*
X88488000Y-117312000D02*
X88488000Y-116702000D01*
X89788000Y-111192000D02*
X89788000Y-111802000D01*
X89788000Y-117312000D02*
X89788000Y-116702000D01*
X90788000Y-114152000D02*
X91288000Y-114152000D01*
X90788000Y-114352000D02*
X90788000Y-114152000D01*
X91288000Y-111802000D02*
X87788000Y-111802000D01*
X91288000Y-114252000D02*
X90788000Y-114252000D01*
X91288000Y-114352000D02*
X90788000Y-114352000D01*
X91288000Y-116702000D02*
X91288000Y-111802000D01*
X91898000Y-111192000D02*
X87178000Y-111192000D01*
X91898000Y-117312000D02*
X91898000Y-111192000D01*
%TO.C,C11*%
X106378000Y-114461420D02*
X106378000Y-114742580D01*
X107398000Y-114461420D02*
X107398000Y-114742580D01*
%TO.C,J6*%
X143932000Y-94534000D02*
X143932000Y-94834000D01*
X143932000Y-94834000D02*
X144132000Y-94834000D01*
X143932000Y-95244000D02*
X143932000Y-96044000D01*
X143932000Y-96044000D02*
X144732000Y-96044000D01*
X144032000Y-94534000D02*
X144032000Y-94834000D01*
X144132000Y-91124000D02*
X144132000Y-95844000D01*
X144132000Y-94534000D02*
X143932000Y-94534000D01*
X144132000Y-95844000D02*
X147852000Y-95844000D01*
X144532000Y-91524000D02*
X144532000Y-95444000D01*
X144532000Y-95444000D02*
X147452000Y-95444000D01*
X145042000Y-91124000D02*
X145042000Y-91524000D01*
X145042000Y-95844000D02*
X145042000Y-95444000D01*
X146042000Y-91124000D02*
X146042000Y-91524000D01*
X146042000Y-95844000D02*
X146042000Y-95444000D01*
X147052000Y-93384000D02*
X147452000Y-93384000D01*
X147052000Y-93584000D02*
X147052000Y-93384000D01*
X147452000Y-91524000D02*
X144532000Y-91524000D01*
X147452000Y-93484000D02*
X147052000Y-93484000D01*
X147452000Y-93584000D02*
X147052000Y-93584000D01*
X147452000Y-95444000D02*
X147452000Y-91524000D01*
X147852000Y-91124000D02*
X144132000Y-91124000D01*
X147852000Y-95844000D02*
X147852000Y-91124000D01*
%TO.C,TP8*%
X94100000Y-97225000D02*
G75*
G02*
X92700000Y-97225000I-700000J0D01*
G01*
X92700000Y-97225000D02*
G75*
G02*
X94100000Y-97225000I700000J0D01*
G01*
%TO.C,R12*%
X83636303Y-84639770D02*
X83300770Y-84975303D01*
X84375230Y-85378697D02*
X84039697Y-85714230D01*
%TO.C,R9*%
X81900770Y-117475303D02*
X82236303Y-117139770D01*
X82639697Y-118214230D02*
X82975230Y-117878697D01*
%TO.C,R2*%
X105350258Y-99729500D02*
X104875742Y-99729500D01*
X105350258Y-100774500D02*
X104875742Y-100774500D01*
%TO.C,C8*%
X105703580Y-110717000D02*
X105422420Y-110717000D01*
X105703580Y-111737000D02*
X105422420Y-111737000D01*
%TO.C,TP4*%
X103325000Y-110575000D02*
G75*
G02*
X101925000Y-110575000I-700000J0D01*
G01*
X101925000Y-110575000D02*
G75*
G02*
X103325000Y-110575000I700000J0D01*
G01*
%TO.C,C15*%
X133478000Y-88031437D02*
X133478000Y-93787000D01*
X133478000Y-93787000D02*
X135828000Y-93787000D01*
X134542437Y-86967000D02*
X133478000Y-88031437D01*
X134542437Y-86967000D02*
X135828000Y-86967000D01*
X138735500Y-85939500D02*
X138735500Y-86727000D01*
X139129250Y-86333250D02*
X138341750Y-86333250D01*
X139233563Y-86967000D02*
X137948000Y-86967000D01*
X139233563Y-86967000D02*
X140298000Y-88031437D01*
X140298000Y-88031437D02*
X140298000Y-93787000D01*
X140298000Y-93787000D02*
X137948000Y-93787000D01*
D16*
%TO.C,D5*%
X79588000Y-103127000D02*
X79588000Y-102127000D01*
D15*
%TO.C,C7*%
X110107000Y-99046420D02*
X110107000Y-99327580D01*
X111127000Y-99046420D02*
X111127000Y-99327580D01*
%TO.C,C9*%
X108456000Y-98284420D02*
X108456000Y-98565580D01*
X109476000Y-98284420D02*
X109476000Y-98565580D01*
%TO.C,R16*%
X120615500Y-95114258D02*
X120615500Y-94639742D01*
X121660500Y-95114258D02*
X121660500Y-94639742D01*
%TO.C,C10*%
X121303000Y-91113252D02*
X121303000Y-90590748D01*
X122773000Y-91113252D02*
X122773000Y-90590748D01*
%TO.C,J1*%
X108765000Y-109139000D02*
X108765000Y-115109000D01*
X108765000Y-115109000D02*
X126385000Y-115109000D01*
X108775000Y-112849000D02*
X109525000Y-112849000D01*
X108775000Y-114349000D02*
X108775000Y-115099000D01*
X108775000Y-115099000D02*
X110575000Y-115099000D01*
X109525000Y-109899000D02*
X117575000Y-109899000D01*
X109525000Y-112849000D02*
X109525000Y-109899000D01*
X110575000Y-114349000D02*
X108775000Y-114349000D01*
X110575000Y-115099000D02*
X110575000Y-114349000D01*
X112075000Y-114349000D02*
X112075000Y-115099000D01*
X112075000Y-115099000D02*
X123075000Y-115099000D01*
X123075000Y-114349000D02*
X112075000Y-114349000D01*
X123075000Y-115099000D02*
X123075000Y-114349000D01*
X124575000Y-114349000D02*
X124575000Y-115099000D01*
X124575000Y-115099000D02*
X126375000Y-115099000D01*
X125425000Y-115399000D02*
X126675000Y-115399000D01*
X125625000Y-109899000D02*
X117575000Y-109899000D01*
X125625000Y-112849000D02*
X125625000Y-109899000D01*
X126375000Y-112849000D02*
X125625000Y-112849000D01*
X126375000Y-114349000D02*
X124575000Y-114349000D01*
X126375000Y-115099000D02*
X126375000Y-114349000D01*
X126385000Y-109139000D02*
X108765000Y-109139000D01*
X126385000Y-115109000D02*
X126385000Y-109139000D01*
X126675000Y-115399000D02*
X126675000Y-114149000D01*
%TO.C,R11*%
X82750742Y-100354500D02*
X83225258Y-100354500D01*
X82750742Y-101399500D02*
X83225258Y-101399500D01*
D16*
%TO.C,D6*%
X80893456Y-84264437D02*
X81600563Y-83557330D01*
D15*
%TO.C,TP2*%
X106875000Y-97700000D02*
G75*
G02*
X105475000Y-97700000I-700000J0D01*
G01*
X105475000Y-97700000D02*
G75*
G02*
X106875000Y-97700000I700000J0D01*
G01*
%TO.C,C1*%
X105528580Y-92767000D02*
X105247420Y-92767000D01*
X105528580Y-93787000D02*
X105247420Y-93787000D01*
%TO.C,L1*%
X108378000Y-96102000D02*
X108378000Y-90452000D01*
X109038000Y-89792000D02*
X109838000Y-89792000D01*
X109838000Y-96712000D02*
X108988000Y-96712000D01*
X113738000Y-89792000D02*
X114588000Y-89792000D01*
X114588000Y-96712000D02*
X113738000Y-96712000D01*
X115198000Y-90402000D02*
X115198000Y-96102000D01*
X108378000Y-90452000D02*
G75*
G02*
X109038000Y-89792000I660002J-2D01*
G01*
X108988000Y-96712000D02*
G75*
G02*
X108378000Y-96102000I0J610000D01*
G01*
X114588000Y-89792000D02*
G75*
G02*
X115198000Y-90402000I0J-610000D01*
G01*
X115198000Y-96102000D02*
G75*
G02*
X114588000Y-96712000I-610000J0D01*
G01*
%TO.C,R15*%
X119065500Y-95139258D02*
X119065500Y-94664742D01*
X120110500Y-95139258D02*
X120110500Y-94664742D01*
%TO.C,U3*%
X99938000Y-112292000D02*
X97738000Y-112292000D01*
X99938000Y-112292000D02*
X102138000Y-112292000D01*
X99938000Y-117812000D02*
X97738000Y-117812000D01*
X99938000Y-117812000D02*
X102138000Y-117812000D01*
X96028000Y-112777000D02*
X95698000Y-113017000D01*
X95698000Y-112537000D01*
X96028000Y-112777000D01*
G36*
X96028000Y-112777000D02*
G01*
X95698000Y-113017000D01*
X95698000Y-112537000D01*
X96028000Y-112777000D01*
G37*
%TO.C,R14*%
X153214303Y-87913230D02*
X152878770Y-87577697D01*
X153953230Y-87174303D02*
X153617697Y-86838770D01*
D16*
%TO.C,D7*%
X117888000Y-82227000D02*
X118888000Y-82227000D01*
D15*
%TO.C,C6*%
X106203580Y-116492000D02*
X105922420Y-116492000D01*
X106203580Y-117512000D02*
X105922420Y-117512000D01*
%TO.C,C3*%
X105103580Y-86892000D02*
X104822420Y-86892000D01*
X105103580Y-87912000D02*
X104822420Y-87912000D01*
%TO.C,D9*%
X154459000Y-110402000D02*
X154459000Y-112687000D01*
X155929000Y-110402000D02*
X154459000Y-110402000D01*
X155929000Y-112687000D02*
X155929000Y-110402000D01*
%TO.C,R4*%
X129115500Y-89151758D02*
X129115500Y-88677242D01*
X130160500Y-89151758D02*
X130160500Y-88677242D01*
%TO.C,R8*%
X114125258Y-120054500D02*
X113650742Y-120054500D01*
X114125258Y-121099500D02*
X113650742Y-121099500D01*
%TO.C,C4*%
X105603000Y-90511420D02*
X105603000Y-90792580D01*
X106623000Y-90511420D02*
X106623000Y-90792580D01*
D16*
%TO.C,D4*%
X157288000Y-102127000D02*
X157288000Y-103127000D01*
D15*
%TO.C,R13*%
X113975258Y-84079500D02*
X113500742Y-84079500D01*
X113975258Y-85124500D02*
X113500742Y-85124500D01*
%TD*%
M02*
