%TF.GenerationSoftware,KiCad,Pcbnew,9.0.0*%
%TF.CreationDate,2025-06-23T21:36:03+01:00*%
%TF.ProjectId,TankHull,54616e6b-4875-46c6-9c2e-6b696361645f,rev?*%
%TF.SameCoordinates,Original*%
%TF.FileFunction,Copper,L2,Bot*%
%TF.FilePolarity,Positive*%
%FSLAX46Y46*%
G04 Gerber Fmt 4.6, Leading zero omitted, Abs format (unit mm)*
G04 Created by KiCad (PCBNEW 9.0.0) date 2025-06-23 21:36:03*
%MOMM*%
%LPD*%
G01*
G04 APERTURE LIST*
G04 Aperture macros list*
%AMRoundRect*
0 Rectangle with rounded corners*
0 $1 Rounding radius*
0 $2 $3 $4 $5 $6 $7 $8 $9 X,Y pos of 4 corners*
0 Add a 4 corners polygon primitive as box body*
4,1,4,$2,$3,$4,$5,$6,$7,$8,$9,$2,$3,0*
0 Add four circle primitives for the rounded corners*
1,1,$1+$1,$2,$3*
1,1,$1+$1,$4,$5*
1,1,$1+$1,$6,$7*
1,1,$1+$1,$8,$9*
0 Add four rect primitives between the rounded corners*
20,1,$1+$1,$2,$3,$4,$5,0*
20,1,$1+$1,$4,$5,$6,$7,0*
20,1,$1+$1,$6,$7,$8,$9,0*
20,1,$1+$1,$8,$9,$2,$3,0*%
%AMHorizOval*
0 Thick line with rounded ends*
0 $1 width*
0 $2 $3 position (X,Y) of the first rounded end (center of the circle)*
0 $4 $5 position (X,Y) of the second rounded end (center of the circle)*
0 Add line between two ends*
20,1,$1,$2,$3,$4,$5,0*
0 Add two circle primitives to create the rounded ends*
1,1,$1,$2,$3*
1,1,$1,$4,$5*%
%AMRotRect*
0 Rectangle, with rotation*
0 The origin of the aperture is its center*
0 $1 length*
0 $2 width*
0 $3 Rotation angle, in degrees counterclockwise*
0 Add horizontal line*
21,1,$1,$2,0,0,$3*%
G04 Aperture macros list end*
%TA.AperFunction,ComponentPad*%
%ADD10R,1.700000X1.700000*%
%TD*%
%TA.AperFunction,ComponentPad*%
%ADD11O,1.700000X1.700000*%
%TD*%
%TA.AperFunction,ComponentPad*%
%ADD12RotRect,1.700000X1.700000X225.000000*%
%TD*%
%TA.AperFunction,ComponentPad*%
%ADD13HorizOval,1.700000X0.000000X0.000000X0.000000X0.000000X0*%
%TD*%
%TA.AperFunction,ComponentPad*%
%ADD14RoundRect,0.250000X-0.750000X0.600000X-0.750000X-0.600000X0.750000X-0.600000X0.750000X0.600000X0*%
%TD*%
%TA.AperFunction,ComponentPad*%
%ADD15O,2.000000X1.700000*%
%TD*%
%TA.AperFunction,ComponentPad*%
%ADD16RoundRect,0.250000X0.625000X-0.350000X0.625000X0.350000X-0.625000X0.350000X-0.625000X-0.350000X0*%
%TD*%
%TA.AperFunction,ComponentPad*%
%ADD17O,1.750000X1.200000*%
%TD*%
%TA.AperFunction,HeatsinkPad*%
%ADD18C,0.500000*%
%TD*%
%TA.AperFunction,HeatsinkPad*%
%ADD19R,2.000000X3.500000*%
%TD*%
%TA.AperFunction,ComponentPad*%
%ADD20RoundRect,0.250000X0.615000X-0.265000X0.615000X0.265000X-0.615000X0.265000X-0.615000X-0.265000X0*%
%TD*%
%TA.AperFunction,ComponentPad*%
%ADD21O,1.730000X1.030000*%
%TD*%
%TA.AperFunction,ComponentPad*%
%ADD22RoundRect,0.250000X0.600000X0.725000X-0.600000X0.725000X-0.600000X-0.725000X0.600000X-0.725000X0*%
%TD*%
%TA.AperFunction,ComponentPad*%
%ADD23O,1.700000X1.950000*%
%TD*%
%TA.AperFunction,ViaPad*%
%ADD24C,0.600000*%
%TD*%
%TA.AperFunction,Conductor*%
%ADD25C,0.200000*%
%TD*%
%TA.AperFunction,Conductor*%
%ADD26C,0.300000*%
%TD*%
G04 APERTURE END LIST*
D10*
%TO.P,J7,1,Pin_1*%
%TO.N,GND*%
X132650000Y-118325000D03*
D11*
%TO.P,J7,2,Pin_2*%
%TO.N,/SCL*%
X135190000Y-118325000D03*
%TO.P,J7,3,Pin_3*%
%TO.N,/SDA*%
X137730000Y-118325000D03*
%TO.P,J7,4,Pin_4*%
%TO.N,+3V3_HULL*%
X140270000Y-118325000D03*
%TO.P,J7,5,Pin_5*%
%TO.N,+BATT*%
X142810000Y-118325000D03*
%TD*%
D12*
%TO.P,J10,1,Pin_1*%
%TO.N,Net-(J10-Pin_1)*%
X152100000Y-90200000D03*
D13*
%TO.P,J10,2,Pin_2*%
%TO.N,/IR Transmit NE*%
X150303949Y-88403949D03*
%TD*%
D10*
%TO.P,J9,1,Pin_1*%
%TO.N,Net-(J9-Pin_1)*%
X152225000Y-118025000D03*
D11*
%TO.P,J9,2,Pin_2*%
%TO.N,/IR Transmit NW*%
X149685000Y-118025000D03*
%TD*%
D10*
%TO.P,J8,1,Pin_1*%
%TO.N,Net-(J8-Pin_1)*%
X154225000Y-107275000D03*
D11*
%TO.P,J8,2,Pin_2*%
%TO.N,/IR Transmit N*%
X151685000Y-107275000D03*
%TD*%
D14*
%TO.P,J2,1,Pin_1*%
%TO.N,/VBAT_RAW*%
X145542000Y-101600000D03*
D15*
%TO.P,J2,2,Pin_2*%
%TO.N,GND*%
X145542000Y-104100000D03*
%TD*%
D16*
%TO.P,J3,1,Pin_1*%
%TO.N,/Right Drive Motor 1*%
X88988000Y-92427000D03*
D17*
%TO.P,J3,2,Pin_2*%
%TO.N,/Right Drive Motor 2*%
X88988000Y-90427000D03*
%TD*%
D18*
%TO.P,U2,17,GND*%
%TO.N,GND*%
X98763000Y-89952000D03*
X98763000Y-91452000D03*
X98763000Y-92952000D03*
D19*
X99513000Y-91452000D03*
D18*
X100263000Y-89952000D03*
X100263000Y-91452000D03*
X100263000Y-92952000D03*
%TD*%
D16*
%TO.P,J4,1,Pin_1*%
%TO.N,/Turret Motor 1*%
X88988000Y-107877000D03*
D17*
%TO.P,J4,2,Pin_2*%
%TO.N,/Turret Motor 2*%
X88988000Y-105877000D03*
%TD*%
D16*
%TO.P,J5,1,Pin_1*%
%TO.N,/Left Drive Motor 1*%
X88988000Y-115252000D03*
D17*
%TO.P,J5,2,Pin_2*%
%TO.N,/Left Drive Motor 2*%
X88988000Y-113252000D03*
%TD*%
D20*
%TO.P,J6,1,Pin_1*%
%TO.N,/VBAT_RAW*%
X145542000Y-94234000D03*
D21*
%TO.P,J6,2,Pin_2*%
%TO.N,Net-(J6-Pin_2)*%
X145542000Y-92734000D03*
%TD*%
D22*
%TO.P,J1,1,Pin_1*%
%TO.N,+BATT*%
X123825000Y-112649000D03*
D23*
%TO.P,J1,2,Pin_2*%
%TO.N,unconnected-(J1-Pin_2-Pad2)*%
X121325000Y-112649000D03*
%TO.P,J1,3,Pin_3*%
%TO.N,GND*%
X118825000Y-112649000D03*
%TO.P,J1,4,Pin_4*%
%TO.N,/SDA*%
X116325000Y-112649000D03*
%TO.P,J1,5,Pin_5*%
%TO.N,/SCL*%
X113825000Y-112649000D03*
%TO.P,J1,6,Pin_6*%
%TO.N,/OE*%
X111325000Y-112649000D03*
%TD*%
D18*
%TO.P,U3,17,GND*%
%TO.N,GND*%
X99188000Y-113552000D03*
X99188000Y-115052000D03*
X99188000Y-116552000D03*
D19*
X99938000Y-115052000D03*
D18*
X100688000Y-113552000D03*
X100688000Y-115052000D03*
X100688000Y-116552000D03*
%TD*%
D24*
%TO.N,GND*%
X97888000Y-101127000D03*
X116638000Y-84102000D03*
X133375000Y-119800000D03*
X109454500Y-100310500D03*
X106313000Y-112502000D03*
X81588000Y-86702000D03*
X83913000Y-121202000D03*
X121138000Y-96852000D03*
X97888000Y-101777000D03*
X155388000Y-118802000D03*
X154888000Y-100852000D03*
X153797000Y-111125000D03*
X97888000Y-100477000D03*
X122038000Y-92952000D03*
X152288000Y-84652000D03*
X119138000Y-91152000D03*
X81638000Y-104377000D03*
X95150000Y-97225000D03*
X101488000Y-102102000D03*
X101938000Y-97077000D03*
X96813000Y-109002000D03*
X129838000Y-93014500D03*
X105363000Y-88602000D03*
X120188000Y-120977000D03*
X138463000Y-93177000D03*
%TO.N,/SDA*%
X121625000Y-114600000D03*
X125950000Y-116200000D03*
%TO.N,/SCL*%
X116351000Y-115175000D03*
X120025000Y-118400000D03*
%TO.N,/Motors Sleep*%
X99388000Y-97477000D03*
X94563000Y-89202000D03*
X99983558Y-105972558D03*
X99988000Y-108427000D03*
%TO.N,/Turret Motor Control 1*%
X106113000Y-109427000D03*
X103263000Y-118102000D03*
%TO.N,/Turret Motor Control 2*%
X104178668Y-117249306D03*
X106788000Y-110102000D03*
%TO.N,+3V3_HULL*%
X128375000Y-114150000D03*
X127775000Y-111150000D03*
X125400000Y-109300000D03*
X122300000Y-109325000D03*
%TD*%
D25*
%TO.N,/SDA*%
X121550000Y-114600000D02*
X123150000Y-116200000D01*
X121625000Y-114600000D02*
X121550000Y-114600000D01*
X123150000Y-116200000D02*
X125950000Y-116200000D01*
%TO.N,/SCL*%
X117500000Y-118400000D02*
X116351000Y-117251000D01*
X120025000Y-118400000D02*
X117500000Y-118400000D01*
X116351000Y-117251000D02*
X116351000Y-115175000D01*
D26*
%TO.N,/Motors Sleep*%
X99388000Y-97477000D02*
X94563000Y-92652000D01*
X99988000Y-105977000D02*
X99983558Y-105972558D01*
X94563000Y-92652000D02*
X94563000Y-89202000D01*
X99988000Y-108427000D02*
X99988000Y-105977000D01*
%TO.N,/Turret Motor Control 1*%
X106113000Y-109437000D02*
X103263000Y-112287000D01*
X106113000Y-109427000D02*
X106113000Y-109437000D01*
X103263000Y-112287000D02*
X103263000Y-118102000D01*
%TO.N,/Turret Motor Control 2*%
X106788000Y-110127000D02*
X104450000Y-112465000D01*
X106788000Y-110102000D02*
X106788000Y-110127000D01*
X104450000Y-112465000D02*
X104450000Y-116977974D01*
X104450000Y-116977974D02*
X104178668Y-117249306D01*
%TO.N,+3V3_HULL*%
X127775000Y-113550000D02*
X128375000Y-114150000D01*
X125375000Y-109325000D02*
X125400000Y-109300000D01*
X127775000Y-111150000D02*
X127775000Y-113550000D01*
X122300000Y-109325000D02*
X125375000Y-109325000D01*
%TD*%
%TA.AperFunction,Conductor*%
%TO.N,GND*%
G36*
X120930540Y-81047185D02*
G01*
X120976295Y-81099989D01*
X120987501Y-81151500D01*
X120987501Y-82575635D01*
X120987500Y-82575638D01*
X120987500Y-82715694D01*
X121022103Y-82889657D01*
X121022106Y-82889666D01*
X121089983Y-83053539D01*
X121089990Y-83053552D01*
X121188532Y-83201031D01*
X121188533Y-83201032D01*
X121188536Y-83201036D01*
X121313966Y-83326465D01*
X121313969Y-83326467D01*
X121461451Y-83425012D01*
X121461453Y-83425012D01*
X121461455Y-83425014D01*
X121625336Y-83492895D01*
X121799307Y-83527499D01*
X121799311Y-83527500D01*
X121835275Y-83527500D01*
X151777616Y-83527502D01*
X151777617Y-83527503D01*
X151835200Y-83527503D01*
X151835200Y-83527502D01*
X151886567Y-83527502D01*
X151886568Y-83527503D01*
X151886568Y-83527502D01*
X151887927Y-83527503D01*
X151887931Y-83527502D01*
X151906071Y-83527502D01*
X151906076Y-83527502D01*
X151990269Y-83514166D01*
X152046067Y-83505329D01*
X152084342Y-83492893D01*
X152180867Y-83461531D01*
X152180869Y-83461529D01*
X152180872Y-83461529D01*
X152307165Y-83397180D01*
X152421836Y-83313866D01*
X152421844Y-83313858D01*
X152424458Y-83311245D01*
X153166286Y-82569417D01*
X154454627Y-81281075D01*
X154515948Y-81247592D01*
X154585640Y-81252576D01*
X154629986Y-81281076D01*
X158130873Y-84781964D01*
X158164357Y-84843285D01*
X158159373Y-84912977D01*
X158130872Y-84957324D01*
X156194552Y-86893644D01*
X156188882Y-86899313D01*
X156188861Y-86899326D01*
X156148194Y-86940004D01*
X156105525Y-86982672D01*
X156105133Y-86983118D01*
X156098079Y-86990173D01*
X156098076Y-86990177D01*
X156014796Y-87104817D01*
X155950465Y-87231067D01*
X155950461Y-87231077D01*
X155906662Y-87365822D01*
X155884463Y-87505781D01*
X155884461Y-87516041D01*
X155884459Y-87523972D01*
X155884446Y-87524022D01*
X155884446Y-87576597D01*
X155884446Y-87576666D01*
X155884426Y-87642541D01*
X155884445Y-87642818D01*
X155884445Y-99187542D01*
X155884483Y-99188134D01*
X155884478Y-99215628D01*
X155919061Y-99389620D01*
X155986926Y-99553518D01*
X155986927Y-99553520D01*
X156085471Y-99701028D01*
X156085473Y-99701030D01*
X156210903Y-99826473D01*
X156267496Y-99864288D01*
X156358400Y-99925030D01*
X156522294Y-99992913D01*
X156696283Y-100027512D01*
X156784975Y-100027505D01*
X156784982Y-100027505D01*
X158260445Y-100027505D01*
X158327484Y-100047190D01*
X158373239Y-100099994D01*
X158384445Y-100151505D01*
X158384445Y-102574269D01*
X158384445Y-105069406D01*
X158384443Y-105069413D01*
X158384444Y-105085781D01*
X158384444Y-105102488D01*
X158377287Y-105126859D01*
X158364761Y-105169522D01*
X158364758Y-105169523D01*
X158364758Y-105169527D01*
X158333979Y-105196196D01*
X158311958Y-105215278D01*
X158311955Y-105215278D01*
X158311953Y-105215281D01*
X158311927Y-105215284D01*
X158260429Y-105226485D01*
X158252778Y-105226484D01*
X158227405Y-105226481D01*
X158227404Y-105226481D01*
X158218646Y-105226480D01*
X158218423Y-105226496D01*
X156835099Y-105226496D01*
X156833011Y-105225907D01*
X156777596Y-105226496D01*
X156723966Y-105226496D01*
X156715502Y-105227092D01*
X156687333Y-105227374D01*
X156514857Y-105263351D01*
X156514854Y-105263352D01*
X156352611Y-105332076D01*
X156352609Y-105332077D01*
X156206761Y-105430936D01*
X156206757Y-105430940D01*
X156082832Y-105556189D01*
X156082829Y-105556192D01*
X155985526Y-105703080D01*
X155949633Y-105790389D01*
X155918531Y-105866045D01*
X155885248Y-106034547D01*
X155884387Y-106038905D01*
X155884445Y-106126468D01*
X155884445Y-117737759D01*
X155884463Y-117738034D01*
X155884463Y-117748081D01*
X155889233Y-117778213D01*
X155906624Y-117888080D01*
X155950415Y-118022890D01*
X156014758Y-118149188D01*
X156037757Y-118180846D01*
X156098071Y-118263869D01*
X156105237Y-118271035D01*
X156110897Y-118276695D01*
X156110904Y-118276707D01*
X156155139Y-118320942D01*
X156155142Y-118320945D01*
X156155143Y-118320947D01*
X156195952Y-118361758D01*
X156195971Y-118361774D01*
X158130639Y-120296442D01*
X158134778Y-120304022D01*
X158141729Y-120309154D01*
X158151271Y-120334226D01*
X158164124Y-120357765D01*
X158163507Y-120366380D01*
X158166581Y-120374455D01*
X158161053Y-120400704D01*
X158159140Y-120427457D01*
X158153586Y-120436162D01*
X158152183Y-120442825D01*
X158133918Y-120466990D01*
X158131220Y-120471220D01*
X158130216Y-120472236D01*
X158105713Y-120495975D01*
X158104255Y-120498545D01*
X158096549Y-120506355D01*
X158096418Y-120506427D01*
X158095968Y-120506939D01*
X154630175Y-123972734D01*
X154568852Y-124006219D01*
X154499160Y-124001235D01*
X154453736Y-123971644D01*
X154429169Y-123946462D01*
X154420967Y-123939265D01*
X152515707Y-122034005D01*
X152508793Y-122027051D01*
X152508073Y-122025756D01*
X152481108Y-121999207D01*
X152481055Y-121999153D01*
X152466981Y-121985275D01*
X152466365Y-121984663D01*
X152428863Y-121947161D01*
X152424294Y-121943181D01*
X152417079Y-121936067D01*
X152417077Y-121936065D01*
X152303011Y-121854272D01*
X152303010Y-121854271D01*
X152177651Y-121791135D01*
X152177648Y-121791134D01*
X152177647Y-121791133D01*
X152177646Y-121791133D01*
X152044015Y-121748177D01*
X152044012Y-121748176D01*
X151905343Y-121726439D01*
X151835160Y-121726497D01*
X151835024Y-121726497D01*
X121835274Y-121726501D01*
X121799305Y-121726501D01*
X121625342Y-121761104D01*
X121625334Y-121761106D01*
X121461456Y-121828986D01*
X121313966Y-121927536D01*
X121313962Y-121927539D01*
X121188539Y-122052962D01*
X121188536Y-122052966D01*
X121089986Y-122200456D01*
X121022106Y-122364334D01*
X121022104Y-122364342D01*
X120987501Y-122538305D01*
X120987501Y-124102501D01*
X120967816Y-124169540D01*
X120915012Y-124215295D01*
X120863501Y-124226501D01*
X115912500Y-124226501D01*
X115845461Y-124206816D01*
X115799706Y-124154012D01*
X115788500Y-124102501D01*
X115788500Y-122566679D01*
X115788499Y-122566661D01*
X115788499Y-122538305D01*
X115753892Y-122364332D01*
X115753889Y-122364321D01*
X115686009Y-122200451D01*
X115686008Y-122200450D01*
X115686006Y-122200444D01*
X115686002Y-122200438D01*
X115686000Y-122200434D01*
X115587456Y-122052957D01*
X115587455Y-122052956D01*
X115587453Y-122052953D01*
X115519160Y-121984663D01*
X115462018Y-121927522D01*
X115314526Y-121828978D01*
X115314525Y-121828977D01*
X115314523Y-121828976D01*
X115277405Y-121813602D01*
X115150637Y-121761098D01*
X115150630Y-121761096D01*
X115005379Y-121732209D01*
X114976654Y-121726497D01*
X114976653Y-121726497D01*
X114887959Y-121726501D01*
X84949863Y-121726501D01*
X84948800Y-121726496D01*
X84947935Y-121726488D01*
X84877755Y-121725885D01*
X84877740Y-121725886D01*
X84735835Y-121747257D01*
X84735827Y-121747259D01*
X84648677Y-121775031D01*
X84599090Y-121790834D01*
X84599088Y-121790834D01*
X84599088Y-121790835D01*
X84599084Y-121790836D01*
X84470979Y-121855511D01*
X84354719Y-121939664D01*
X84347119Y-121947251D01*
X84346555Y-121947747D01*
X82321375Y-123972927D01*
X82260052Y-124006412D01*
X82190360Y-124001428D01*
X82146013Y-123972927D01*
X78645127Y-120472041D01*
X78611642Y-120410718D01*
X78616626Y-120341026D01*
X78645127Y-120296679D01*
X80670217Y-118271591D01*
X80670245Y-118271558D01*
X80677877Y-118263929D01*
X80761205Y-118149265D01*
X80825476Y-118023153D01*
X102462500Y-118023153D01*
X102462500Y-118180846D01*
X102493261Y-118335489D01*
X102493264Y-118335501D01*
X102553602Y-118481172D01*
X102553609Y-118481185D01*
X102641210Y-118612288D01*
X102641213Y-118612292D01*
X102752707Y-118723786D01*
X102752711Y-118723789D01*
X102883814Y-118811390D01*
X102883827Y-118811397D01*
X103029498Y-118871735D01*
X103029503Y-118871737D01*
X103184153Y-118902499D01*
X103184156Y-118902500D01*
X103184158Y-118902500D01*
X103341844Y-118902500D01*
X103341845Y-118902499D01*
X103496497Y-118871737D01*
X103642179Y-118811394D01*
X103773289Y-118723789D01*
X103884789Y-118612289D01*
X103972394Y-118481179D01*
X104032737Y-118335497D01*
X104063500Y-118180842D01*
X104063500Y-118173806D01*
X104083185Y-118106767D01*
X104135989Y-118061012D01*
X104187500Y-118049806D01*
X104257512Y-118049806D01*
X104257513Y-118049805D01*
X104412165Y-118019043D01*
X104557847Y-117958700D01*
X104688957Y-117871095D01*
X104800457Y-117759595D01*
X104888062Y-117628485D01*
X104948405Y-117482803D01*
X104966216Y-117393257D01*
X104984729Y-117348561D01*
X105026465Y-117286101D01*
X105075501Y-117167718D01*
X105085429Y-117117809D01*
X105100500Y-117042045D01*
X105100500Y-115096153D01*
X115550500Y-115096153D01*
X115550500Y-115253846D01*
X115581261Y-115408489D01*
X115581264Y-115408501D01*
X115641602Y-115554172D01*
X115641609Y-115554185D01*
X115729602Y-115685874D01*
X115750480Y-115752551D01*
X115750500Y-115754765D01*
X115750500Y-117164330D01*
X115750499Y-117164348D01*
X115750499Y-117330054D01*
X115750498Y-117330054D01*
X115750499Y-117330057D01*
X115791423Y-117482785D01*
X115791434Y-117482804D01*
X115805165Y-117506588D01*
X115805166Y-117506589D01*
X115870475Y-117619709D01*
X115870481Y-117619717D01*
X115989349Y-117738585D01*
X115989355Y-117738590D01*
X117015139Y-118764374D01*
X117015149Y-118764385D01*
X117019479Y-118768715D01*
X117019480Y-118768716D01*
X117131284Y-118880520D01*
X117131286Y-118880521D01*
X117131290Y-118880524D01*
X117237025Y-118941569D01*
X117268216Y-118959577D01*
X117353703Y-118982483D01*
X117420942Y-119000500D01*
X117420943Y-119000500D01*
X119445234Y-119000500D01*
X119512273Y-119020185D01*
X119514125Y-119021398D01*
X119645814Y-119109390D01*
X119645827Y-119109397D01*
X119791498Y-119169735D01*
X119791503Y-119169737D01*
X119946153Y-119200499D01*
X119946156Y-119200500D01*
X119946158Y-119200500D01*
X120103844Y-119200500D01*
X120103845Y-119200499D01*
X120258497Y-119169737D01*
X120385017Y-119117331D01*
X120404172Y-119109397D01*
X120404172Y-119109396D01*
X120404179Y-119109394D01*
X120535289Y-119021789D01*
X120646789Y-118910289D01*
X120734394Y-118779179D01*
X120794737Y-118633497D01*
X120812656Y-118543412D01*
X120821402Y-118499447D01*
X120821402Y-118499446D01*
X120825500Y-118478844D01*
X120825500Y-118321155D01*
X120825499Y-118321153D01*
X120814104Y-118263869D01*
X120794737Y-118166503D01*
X120794735Y-118166498D01*
X120734397Y-118020827D01*
X120734389Y-118020812D01*
X120646789Y-117889711D01*
X120646786Y-117889707D01*
X120535292Y-117778213D01*
X120535288Y-117778210D01*
X120404185Y-117690609D01*
X120404172Y-117690602D01*
X120258501Y-117630264D01*
X120258489Y-117630261D01*
X120103845Y-117599500D01*
X120103842Y-117599500D01*
X119946158Y-117599500D01*
X119946155Y-117599500D01*
X119791510Y-117630261D01*
X119791498Y-117630264D01*
X119645827Y-117690602D01*
X119645814Y-117690609D01*
X119514125Y-117778602D01*
X119447447Y-117799480D01*
X119445234Y-117799500D01*
X117800097Y-117799500D01*
X117733058Y-117779815D01*
X117712416Y-117763181D01*
X117376390Y-117427155D01*
X131300000Y-117427155D01*
X131300000Y-118075000D01*
X132216988Y-118075000D01*
X132184075Y-118132007D01*
X132150000Y-118259174D01*
X132150000Y-118390826D01*
X132184075Y-118517993D01*
X132216988Y-118575000D01*
X131300000Y-118575000D01*
X131300000Y-119222844D01*
X131306401Y-119282372D01*
X131306403Y-119282379D01*
X131356645Y-119417086D01*
X131356649Y-119417093D01*
X131442809Y-119532187D01*
X131442812Y-119532190D01*
X131557906Y-119618350D01*
X131557913Y-119618354D01*
X131692620Y-119668596D01*
X131692627Y-119668598D01*
X131752155Y-119674999D01*
X131752172Y-119675000D01*
X132400000Y-119675000D01*
X132400000Y-118758012D01*
X132457007Y-118790925D01*
X132584174Y-118825000D01*
X132715826Y-118825000D01*
X132842993Y-118790925D01*
X132900000Y-118758012D01*
X132900000Y-119675000D01*
X133547828Y-119675000D01*
X133547844Y-119674999D01*
X133607372Y-119668598D01*
X133607379Y-119668596D01*
X133742086Y-119618354D01*
X133742093Y-119618350D01*
X133857187Y-119532190D01*
X133857190Y-119532187D01*
X133943350Y-119417093D01*
X133943354Y-119417086D01*
X133992422Y-119285529D01*
X134034293Y-119229595D01*
X134099757Y-119205178D01*
X134168030Y-119220030D01*
X134196285Y-119241181D01*
X134310213Y-119355109D01*
X134482179Y-119480048D01*
X134482181Y-119480049D01*
X134482184Y-119480051D01*
X134671588Y-119576557D01*
X134873757Y-119642246D01*
X135083713Y-119675500D01*
X135083714Y-119675500D01*
X135296286Y-119675500D01*
X135296287Y-119675500D01*
X135506243Y-119642246D01*
X135708412Y-119576557D01*
X135897816Y-119480051D01*
X135984471Y-119417093D01*
X136069786Y-119355109D01*
X136069788Y-119355106D01*
X136069792Y-119355104D01*
X136220104Y-119204792D01*
X136220106Y-119204788D01*
X136220109Y-119204786D01*
X136345048Y-119032820D01*
X136345047Y-119032820D01*
X136345051Y-119032816D01*
X136349514Y-119024054D01*
X136397488Y-118973259D01*
X136465308Y-118956463D01*
X136531444Y-118978999D01*
X136570486Y-119024056D01*
X136574951Y-119032820D01*
X136699890Y-119204786D01*
X136850213Y-119355109D01*
X137022179Y-119480048D01*
X137022181Y-119480049D01*
X137022184Y-119480051D01*
X137211588Y-119576557D01*
X137413757Y-119642246D01*
X137623713Y-119675500D01*
X137623714Y-119675500D01*
X137836286Y-119675500D01*
X137836287Y-119675500D01*
X138046243Y-119642246D01*
X138248412Y-119576557D01*
X138437816Y-119480051D01*
X138524471Y-119417093D01*
X138609786Y-119355109D01*
X138609788Y-119355106D01*
X138609792Y-119355104D01*
X138760104Y-119204792D01*
X138760106Y-119204788D01*
X138760109Y-119204786D01*
X138885048Y-119032820D01*
X138885047Y-119032820D01*
X138885051Y-119032816D01*
X138889514Y-119024054D01*
X138937488Y-118973259D01*
X139005308Y-118956463D01*
X139071444Y-118978999D01*
X139110486Y-119024056D01*
X139114951Y-119032820D01*
X139239890Y-119204786D01*
X139390213Y-119355109D01*
X139562179Y-119480048D01*
X139562181Y-119480049D01*
X139562184Y-119480051D01*
X139751588Y-119576557D01*
X139953757Y-119642246D01*
X140163713Y-119675500D01*
X140163714Y-119675500D01*
X140376286Y-119675500D01*
X140376287Y-119675500D01*
X140586243Y-119642246D01*
X140788412Y-119576557D01*
X140977816Y-119480051D01*
X141064471Y-119417093D01*
X141149786Y-119355109D01*
X141149788Y-119355106D01*
X141149792Y-119355104D01*
X141300104Y-119204792D01*
X141300106Y-119204788D01*
X141300109Y-119204786D01*
X141425048Y-119032820D01*
X141425047Y-119032820D01*
X141425051Y-119032816D01*
X141429514Y-119024054D01*
X141477488Y-118973259D01*
X141545308Y-118956463D01*
X141611444Y-118978999D01*
X141650486Y-119024056D01*
X141654951Y-119032820D01*
X141779890Y-119204786D01*
X141930213Y-119355109D01*
X142102179Y-119480048D01*
X142102181Y-119480049D01*
X142102184Y-119480051D01*
X142291588Y-119576557D01*
X142493757Y-119642246D01*
X142703713Y-119675500D01*
X142703714Y-119675500D01*
X142916286Y-119675500D01*
X142916287Y-119675500D01*
X143126243Y-119642246D01*
X143328412Y-119576557D01*
X143517816Y-119480051D01*
X143604471Y-119417093D01*
X143689786Y-119355109D01*
X143689788Y-119355106D01*
X143689792Y-119355104D01*
X143840104Y-119204792D01*
X143840106Y-119204788D01*
X143840109Y-119204786D01*
X143965048Y-119032820D01*
X143965047Y-119032820D01*
X143965051Y-119032816D01*
X144061557Y-118843412D01*
X144127246Y-118641243D01*
X144160500Y-118431287D01*
X144160500Y-118218713D01*
X144127246Y-118008757D01*
X144097989Y-117918713D01*
X148334500Y-117918713D01*
X148334500Y-118131287D01*
X148337348Y-118149269D01*
X148366844Y-118335501D01*
X148367754Y-118341243D01*
X148413222Y-118481179D01*
X148433444Y-118543414D01*
X148529951Y-118732820D01*
X148654890Y-118904786D01*
X148805213Y-119055109D01*
X148977179Y-119180048D01*
X148977181Y-119180049D01*
X148977184Y-119180051D01*
X149166588Y-119276557D01*
X149368757Y-119342246D01*
X149578713Y-119375500D01*
X149578714Y-119375500D01*
X149791286Y-119375500D01*
X149791287Y-119375500D01*
X150001243Y-119342246D01*
X150203412Y-119276557D01*
X150392816Y-119180051D01*
X150564792Y-119055104D01*
X150678329Y-118941566D01*
X150739648Y-118908084D01*
X150809340Y-118913068D01*
X150865274Y-118954939D01*
X150882189Y-118985917D01*
X150931202Y-119117328D01*
X150931206Y-119117335D01*
X151017452Y-119232544D01*
X151017455Y-119232547D01*
X151132664Y-119318793D01*
X151132671Y-119318797D01*
X151267517Y-119369091D01*
X151267516Y-119369091D01*
X151274444Y-119369835D01*
X151327127Y-119375500D01*
X153122872Y-119375499D01*
X153182483Y-119369091D01*
X153317331Y-119318796D01*
X153432546Y-119232546D01*
X153518796Y-119117331D01*
X153569091Y-118982483D01*
X153575500Y-118922873D01*
X153575499Y-117127128D01*
X153569091Y-117067517D01*
X153567810Y-117064083D01*
X153518797Y-116932671D01*
X153518793Y-116932664D01*
X153432547Y-116817455D01*
X153432544Y-116817452D01*
X153317335Y-116731206D01*
X153317328Y-116731202D01*
X153182482Y-116680908D01*
X153182483Y-116680908D01*
X153122883Y-116674501D01*
X153122881Y-116674500D01*
X153122873Y-116674500D01*
X153122864Y-116674500D01*
X151327129Y-116674500D01*
X151327123Y-116674501D01*
X151267516Y-116680908D01*
X151132671Y-116731202D01*
X151132664Y-116731206D01*
X151017455Y-116817452D01*
X151017452Y-116817455D01*
X150931206Y-116932664D01*
X150931203Y-116932669D01*
X150882189Y-117064083D01*
X150840317Y-117120016D01*
X150774853Y-117144433D01*
X150706580Y-117129581D01*
X150678326Y-117108430D01*
X150564786Y-116994890D01*
X150392820Y-116869951D01*
X150203414Y-116773444D01*
X150203413Y-116773443D01*
X150203412Y-116773443D01*
X150001243Y-116707754D01*
X150001241Y-116707753D01*
X150001240Y-116707753D01*
X149839957Y-116682208D01*
X149791287Y-116674500D01*
X149578713Y-116674500D01*
X149530042Y-116682208D01*
X149368760Y-116707753D01*
X149267672Y-116740598D01*
X149174849Y-116770759D01*
X149166585Y-116773444D01*
X148977179Y-116869951D01*
X148805213Y-116994890D01*
X148654890Y-117145213D01*
X148529951Y-117317179D01*
X148433444Y-117506585D01*
X148367753Y-117708760D01*
X148339337Y-117888171D01*
X148334500Y-117918713D01*
X144097989Y-117918713D01*
X144061557Y-117806588D01*
X143965051Y-117617184D01*
X143965049Y-117617181D01*
X143965048Y-117617179D01*
X143840109Y-117445213D01*
X143689786Y-117294890D01*
X143517820Y-117169951D01*
X143328414Y-117073444D01*
X143328413Y-117073443D01*
X143328412Y-117073443D01*
X143126243Y-117007754D01*
X143126241Y-117007753D01*
X143126240Y-117007753D01*
X142964957Y-116982208D01*
X142916287Y-116974500D01*
X142703713Y-116974500D01*
X142655042Y-116982208D01*
X142493760Y-117007753D01*
X142291585Y-117073444D01*
X142102179Y-117169951D01*
X141930213Y-117294890D01*
X141779890Y-117445213D01*
X141654949Y-117617182D01*
X141650484Y-117625946D01*
X141602509Y-117676742D01*
X141534688Y-117693536D01*
X141468553Y-117670998D01*
X141429516Y-117625946D01*
X141425050Y-117617182D01*
X141300109Y-117445213D01*
X141149786Y-117294890D01*
X140977820Y-117169951D01*
X140788414Y-117073444D01*
X140788413Y-117073443D01*
X140788412Y-117073443D01*
X140586243Y-117007754D01*
X140586241Y-117007753D01*
X140586240Y-117007753D01*
X140424957Y-116982208D01*
X140376287Y-116974500D01*
X140163713Y-116974500D01*
X140115042Y-116982208D01*
X139953760Y-117007753D01*
X139751585Y-117073444D01*
X139562179Y-117169951D01*
X139390213Y-117294890D01*
X139239890Y-117445213D01*
X139114949Y-117617182D01*
X139110484Y-117625946D01*
X139062509Y-117676742D01*
X138994688Y-117693536D01*
X138928553Y-117670998D01*
X138889516Y-117625946D01*
X138885050Y-117617182D01*
X138760109Y-117445213D01*
X138609786Y-117294890D01*
X138437820Y-117169951D01*
X138248414Y-117073444D01*
X138248413Y-117073443D01*
X138248412Y-117073443D01*
X138046243Y-117007754D01*
X138046241Y-117007753D01*
X138046240Y-117007753D01*
X137884957Y-116982208D01*
X137836287Y-116974500D01*
X137623713Y-116974500D01*
X137575042Y-116982208D01*
X137413760Y-117007753D01*
X137211585Y-117073444D01*
X137022179Y-117169951D01*
X136850213Y-117294890D01*
X136699890Y-117445213D01*
X136574949Y-117617182D01*
X136570484Y-117625946D01*
X136522509Y-117676742D01*
X136454688Y-117693536D01*
X136388553Y-117670998D01*
X136349516Y-117625946D01*
X136345050Y-117617182D01*
X136220109Y-117445213D01*
X136069786Y-117294890D01*
X135897820Y-117169951D01*
X135708414Y-117073444D01*
X135708413Y-117073443D01*
X135708412Y-117073443D01*
X135506243Y-117007754D01*
X135506241Y-117007753D01*
X135506240Y-117007753D01*
X135344957Y-116982208D01*
X135296287Y-116974500D01*
X135083713Y-116974500D01*
X135035042Y-116982208D01*
X134873760Y-117007753D01*
X134671585Y-117073444D01*
X134482179Y-117169951D01*
X134310215Y-117294889D01*
X134196285Y-117408819D01*
X134134962Y-117442303D01*
X134065270Y-117437319D01*
X134009337Y-117395447D01*
X133992422Y-117364470D01*
X133943354Y-117232913D01*
X133943350Y-117232906D01*
X133857190Y-117117812D01*
X133857187Y-117117809D01*
X133742093Y-117031649D01*
X133742086Y-117031645D01*
X133607379Y-116981403D01*
X133607372Y-116981401D01*
X133547844Y-116975000D01*
X132900000Y-116975000D01*
X132900000Y-117891988D01*
X132842993Y-117859075D01*
X132715826Y-117825000D01*
X132584174Y-117825000D01*
X132457007Y-117859075D01*
X132400000Y-117891988D01*
X132400000Y-116975000D01*
X131752155Y-116975000D01*
X131692627Y-116981401D01*
X131692620Y-116981403D01*
X131557913Y-117031645D01*
X131557906Y-117031649D01*
X131442812Y-117117809D01*
X131442809Y-117117812D01*
X131356649Y-117232906D01*
X131356645Y-117232913D01*
X131306403Y-117367620D01*
X131306401Y-117367627D01*
X131300000Y-117427155D01*
X117376390Y-117427155D01*
X116987819Y-117038584D01*
X116954334Y-116977261D01*
X116951500Y-116950903D01*
X116951500Y-115754765D01*
X116971185Y-115687726D01*
X116972398Y-115685874D01*
X117060390Y-115554185D01*
X117060390Y-115554184D01*
X117060394Y-115554179D01*
X117120737Y-115408497D01*
X117151500Y-115253842D01*
X117151500Y-115096158D01*
X117151500Y-115096155D01*
X117151499Y-115096153D01*
X117146673Y-115071891D01*
X117120737Y-114941503D01*
X117111721Y-114919737D01*
X117060397Y-114795827D01*
X117060390Y-114795814D01*
X116972789Y-114664711D01*
X116972786Y-114664707D01*
X116861292Y-114553213D01*
X116861288Y-114553210D01*
X116730185Y-114465609D01*
X116730172Y-114465602D01*
X116584501Y-114405264D01*
X116584489Y-114405261D01*
X116429845Y-114374500D01*
X116429842Y-114374500D01*
X116272158Y-114374500D01*
X116272155Y-114374500D01*
X116117510Y-114405261D01*
X116117498Y-114405264D01*
X115971827Y-114465602D01*
X115971814Y-114465609D01*
X115840711Y-114553210D01*
X115840707Y-114553213D01*
X115729213Y-114664707D01*
X115729210Y-114664711D01*
X115641609Y-114795814D01*
X115641602Y-114795827D01*
X115581264Y-114941498D01*
X115581261Y-114941510D01*
X115550500Y-115096153D01*
X105100500Y-115096153D01*
X105100500Y-112785807D01*
X105120185Y-112718768D01*
X105136814Y-112698131D01*
X105417232Y-112417713D01*
X109974500Y-112417713D01*
X109974500Y-112880287D01*
X110007754Y-113090243D01*
X110042911Y-113198446D01*
X110073444Y-113292414D01*
X110169951Y-113481820D01*
X110294890Y-113653786D01*
X110445213Y-113804109D01*
X110617179Y-113929048D01*
X110617181Y-113929049D01*
X110617184Y-113929051D01*
X110806588Y-114025557D01*
X111008757Y-114091246D01*
X111218713Y-114124500D01*
X111218714Y-114124500D01*
X111431286Y-114124500D01*
X111431287Y-114124500D01*
X111641243Y-114091246D01*
X111843412Y-114025557D01*
X112032816Y-113929051D01*
X112105802Y-113876024D01*
X112204786Y-113804109D01*
X112204788Y-113804106D01*
X112204792Y-113804104D01*
X112355104Y-113653792D01*
X112474683Y-113489204D01*
X112530011Y-113446540D01*
X112599624Y-113440561D01*
X112661420Y-113473166D01*
X112675313Y-113489199D01*
X112793594Y-113652000D01*
X112794896Y-113653792D01*
X112945213Y-113804109D01*
X113117179Y-113929048D01*
X113117181Y-113929049D01*
X113117184Y-113929051D01*
X113306588Y-114025557D01*
X113508757Y-114091246D01*
X113718713Y-114124500D01*
X113718714Y-114124500D01*
X113931286Y-114124500D01*
X113931287Y-114124500D01*
X114141243Y-114091246D01*
X114343412Y-114025557D01*
X114532816Y-113929051D01*
X114605802Y-113876024D01*
X114704786Y-113804109D01*
X114704788Y-113804106D01*
X114704792Y-113804104D01*
X114855104Y-113653792D01*
X114974683Y-113489204D01*
X115030011Y-113446540D01*
X115099624Y-113440561D01*
X115161420Y-113473166D01*
X115175313Y-113489199D01*
X115293594Y-113652000D01*
X115294896Y-113653792D01*
X115445213Y-113804109D01*
X115617179Y-113929048D01*
X115617181Y-113929049D01*
X115617184Y-113929051D01*
X115806588Y-114025557D01*
X116008757Y-114091246D01*
X116218713Y-114124500D01*
X116218714Y-114124500D01*
X116431286Y-114124500D01*
X116431287Y-114124500D01*
X116641243Y-114091246D01*
X116843412Y-114025557D01*
X117032816Y-113929051D01*
X117105802Y-113876024D01*
X117204786Y-113804109D01*
X117204788Y-113804106D01*
X117204792Y-113804104D01*
X117355104Y-113653792D01*
X117474991Y-113488779D01*
X117530320Y-113446115D01*
X117599933Y-113440136D01*
X117661729Y-113472741D01*
X117675627Y-113488781D01*
X117795272Y-113653459D01*
X117795276Y-113653464D01*
X117945535Y-113803723D01*
X117945540Y-113803727D01*
X118117442Y-113928620D01*
X118306782Y-114025095D01*
X118508871Y-114090757D01*
X118575000Y-114101231D01*
X118575000Y-113053145D01*
X118641657Y-113091630D01*
X118762465Y-113124000D01*
X118887535Y-113124000D01*
X119008343Y-113091630D01*
X119075000Y-113053145D01*
X119075000Y-114101230D01*
X119141126Y-114090757D01*
X119141129Y-114090757D01*
X119343217Y-114025095D01*
X119532557Y-113928620D01*
X119704459Y-113803727D01*
X119704464Y-113803723D01*
X119854721Y-113653466D01*
X119974371Y-113488781D01*
X120029701Y-113446115D01*
X120099314Y-113440136D01*
X120161110Y-113472741D01*
X120175008Y-113488781D01*
X120294890Y-113653785D01*
X120294894Y-113653790D01*
X120445213Y-113804109D01*
X120617179Y-113929048D01*
X120617181Y-113929049D01*
X120617184Y-113929051D01*
X120806588Y-114025557D01*
X120847565Y-114038871D01*
X120905241Y-114078309D01*
X120932439Y-114142667D01*
X120920524Y-114211514D01*
X120918316Y-114215358D01*
X120918479Y-114215446D01*
X120915602Y-114220827D01*
X120855264Y-114366498D01*
X120855261Y-114366510D01*
X120824500Y-114521153D01*
X120824500Y-114678846D01*
X120855261Y-114833489D01*
X120855264Y-114833501D01*
X120915602Y-114979172D01*
X120915609Y-114979185D01*
X121003210Y-115110288D01*
X121003213Y-115110292D01*
X121114707Y-115221786D01*
X121114711Y-115221789D01*
X121245814Y-115309390D01*
X121245827Y-115309397D01*
X121333230Y-115345599D01*
X121391503Y-115369737D01*
X121453226Y-115382014D01*
X121515136Y-115414398D01*
X121516713Y-115415948D01*
X122781284Y-116680520D01*
X122781286Y-116680521D01*
X122781290Y-116680524D01*
X122918209Y-116759573D01*
X122918216Y-116759577D01*
X123070943Y-116800501D01*
X123070945Y-116800501D01*
X123236654Y-116800501D01*
X123236670Y-116800500D01*
X125370234Y-116800500D01*
X125437273Y-116820185D01*
X125439125Y-116821398D01*
X125570814Y-116909390D01*
X125570827Y-116909397D01*
X125671033Y-116950903D01*
X125716503Y-116969737D01*
X125842955Y-116994890D01*
X125871153Y-117000499D01*
X125871156Y-117000500D01*
X125871158Y-117000500D01*
X126028844Y-117000500D01*
X126028845Y-117000499D01*
X126183497Y-116969737D01*
X126329179Y-116909394D01*
X126460289Y-116821789D01*
X126571789Y-116710289D01*
X126659394Y-116579179D01*
X126719737Y-116433497D01*
X126750500Y-116278842D01*
X126750500Y-116121158D01*
X126750500Y-116121155D01*
X126750499Y-116121153D01*
X126719738Y-115966510D01*
X126719737Y-115966503D01*
X126719735Y-115966498D01*
X126659397Y-115820827D01*
X126659390Y-115820814D01*
X126571789Y-115689711D01*
X126571786Y-115689707D01*
X126460292Y-115578213D01*
X126460288Y-115578210D01*
X126329185Y-115490609D01*
X126329172Y-115490602D01*
X126183501Y-115430264D01*
X126183489Y-115430261D01*
X126028845Y-115399500D01*
X126028842Y-115399500D01*
X125871158Y-115399500D01*
X125871155Y-115399500D01*
X125716510Y-115430261D01*
X125716498Y-115430264D01*
X125570827Y-115490602D01*
X125570814Y-115490609D01*
X125439125Y-115578602D01*
X125372447Y-115599480D01*
X125370234Y-115599500D01*
X123450098Y-115599500D01*
X123383059Y-115579815D01*
X123362417Y-115563181D01*
X122461819Y-114662583D01*
X122428334Y-114601260D01*
X122425500Y-114574902D01*
X122425500Y-114521155D01*
X122425499Y-114521153D01*
X122394737Y-114366503D01*
X122394735Y-114366498D01*
X122334397Y-114220827D01*
X122334390Y-114220814D01*
X122246789Y-114089711D01*
X122246786Y-114089707D01*
X122166356Y-114009277D01*
X122161275Y-113999973D01*
X122152948Y-113993409D01*
X122144819Y-113969835D01*
X122132871Y-113947954D01*
X122133627Y-113937379D01*
X122130171Y-113927356D01*
X122136076Y-113903133D01*
X122137855Y-113878262D01*
X122144647Y-113867977D01*
X122146720Y-113859475D01*
X122159968Y-113844777D01*
X122168569Y-113831756D01*
X122174506Y-113826107D01*
X122204792Y-113804104D01*
X122344724Y-113664171D01*
X122345814Y-113663135D01*
X122375569Y-113647837D01*
X122404923Y-113631809D01*
X122406523Y-113631923D01*
X122407952Y-113631189D01*
X122441267Y-113634408D01*
X122474615Y-113636793D01*
X122475899Y-113637754D01*
X122477498Y-113637909D01*
X122503775Y-113658621D01*
X122530549Y-113678664D01*
X122532108Y-113680955D01*
X122532371Y-113681162D01*
X122532495Y-113681524D01*
X122536821Y-113687878D01*
X122540185Y-113693333D01*
X122540186Y-113693334D01*
X122632288Y-113842656D01*
X122756344Y-113966712D01*
X122905666Y-114058814D01*
X123072203Y-114113999D01*
X123174991Y-114124500D01*
X124475008Y-114124499D01*
X124577797Y-114113999D01*
X124744334Y-114058814D01*
X124893656Y-113966712D01*
X125017712Y-113842656D01*
X125109814Y-113693334D01*
X125164999Y-113526797D01*
X125175500Y-113424009D01*
X125175499Y-111873992D01*
X125173851Y-111857863D01*
X125164999Y-111771203D01*
X125164998Y-111771200D01*
X125127104Y-111656845D01*
X125109814Y-111604666D01*
X125017712Y-111455344D01*
X124893656Y-111331288D01*
X124744334Y-111239186D01*
X124577797Y-111184001D01*
X124577795Y-111184000D01*
X124475010Y-111173500D01*
X123174998Y-111173500D01*
X123174981Y-111173501D01*
X123072203Y-111184000D01*
X123072200Y-111184001D01*
X122905668Y-111239185D01*
X122905663Y-111239187D01*
X122756342Y-111331289D01*
X122632289Y-111455342D01*
X122536821Y-111610121D01*
X122484873Y-111656845D01*
X122415910Y-111668068D01*
X122351828Y-111640224D01*
X122343601Y-111632705D01*
X122204786Y-111493890D01*
X122032820Y-111368951D01*
X121843414Y-111272444D01*
X121843413Y-111272443D01*
X121843412Y-111272443D01*
X121641243Y-111206754D01*
X121641241Y-111206753D01*
X121641240Y-111206753D01*
X121479957Y-111181208D01*
X121431287Y-111173500D01*
X121218713Y-111173500D01*
X121170042Y-111181208D01*
X121008760Y-111206753D01*
X120806585Y-111272444D01*
X120617179Y-111368951D01*
X120445213Y-111493890D01*
X120294894Y-111644209D01*
X120294890Y-111644214D01*
X120175008Y-111809218D01*
X120119678Y-111851884D01*
X120050065Y-111857863D01*
X119988270Y-111825257D01*
X119974372Y-111809218D01*
X119854727Y-111644540D01*
X119854723Y-111644535D01*
X119704464Y-111494276D01*
X119704459Y-111494272D01*
X119532557Y-111369379D01*
X119343215Y-111272903D01*
X119141124Y-111207241D01*
X119075000Y-111196768D01*
X119075000Y-112244854D01*
X119008343Y-112206370D01*
X118887535Y-112174000D01*
X118762465Y-112174000D01*
X118641657Y-112206370D01*
X118575000Y-112244854D01*
X118575000Y-111196768D01*
X118574999Y-111196768D01*
X118508875Y-111207241D01*
X118306784Y-111272903D01*
X118117442Y-111369379D01*
X117945540Y-111494272D01*
X117945535Y-111494276D01*
X117795276Y-111644535D01*
X117795272Y-111644540D01*
X117675627Y-111809218D01*
X117620297Y-111851884D01*
X117550684Y-111857863D01*
X117488889Y-111825257D01*
X117474991Y-111809218D01*
X117355109Y-111644214D01*
X117355105Y-111644209D01*
X117204786Y-111493890D01*
X117032820Y-111368951D01*
X116843414Y-111272444D01*
X116843413Y-111272443D01*
X116843412Y-111272443D01*
X116641243Y-111206754D01*
X116641241Y-111206753D01*
X116641240Y-111206753D01*
X116479957Y-111181208D01*
X116431287Y-111173500D01*
X116218713Y-111173500D01*
X116170042Y-111181208D01*
X116008760Y-111206753D01*
X115806585Y-111272444D01*
X115617179Y-111368951D01*
X115445213Y-111493890D01*
X115294894Y-111644209D01*
X115294890Y-111644214D01*
X115175318Y-111808793D01*
X115119989Y-111851459D01*
X115050375Y-111857438D01*
X114988580Y-111824833D01*
X114974682Y-111808793D01*
X114855109Y-111644214D01*
X114855105Y-111644209D01*
X114704786Y-111493890D01*
X114532820Y-111368951D01*
X114343414Y-111272444D01*
X114343413Y-111272443D01*
X114343412Y-111272443D01*
X114141243Y-111206754D01*
X114141241Y-111206753D01*
X114141240Y-111206753D01*
X113979957Y-111181208D01*
X113931287Y-111173500D01*
X113718713Y-111173500D01*
X113670042Y-111181208D01*
X113508760Y-111206753D01*
X113306585Y-111272444D01*
X113117179Y-111368951D01*
X112945213Y-111493890D01*
X112794894Y-111644209D01*
X112794890Y-111644214D01*
X112675318Y-111808793D01*
X112619989Y-111851459D01*
X112550375Y-111857438D01*
X112488580Y-111824833D01*
X112474682Y-111808793D01*
X112355109Y-111644214D01*
X112355105Y-111644209D01*
X112204786Y-111493890D01*
X112032820Y-111368951D01*
X111843414Y-111272444D01*
X111843413Y-111272443D01*
X111843412Y-111272443D01*
X111641243Y-111206754D01*
X111641241Y-111206753D01*
X111641240Y-111206753D01*
X111479957Y-111181208D01*
X111431287Y-111173500D01*
X111218713Y-111173500D01*
X111170042Y-111181208D01*
X111008760Y-111206753D01*
X110806585Y-111272444D01*
X110617179Y-111368951D01*
X110445213Y-111493890D01*
X110294890Y-111644213D01*
X110169951Y-111816179D01*
X110073444Y-112005585D01*
X110007753Y-112207760D01*
X109989159Y-112325160D01*
X109974500Y-112417713D01*
X105417232Y-112417713D01*
X106763791Y-111071153D01*
X126974500Y-111071153D01*
X126974500Y-111228846D01*
X127005261Y-111383489D01*
X127005264Y-111383501D01*
X127065602Y-111529172D01*
X127065606Y-111529179D01*
X127103602Y-111586044D01*
X127124480Y-111652721D01*
X127124500Y-111654935D01*
X127124500Y-113614071D01*
X127133362Y-113658621D01*
X127142281Y-113703458D01*
X127149499Y-113739744D01*
X127162352Y-113770775D01*
X127198535Y-113858127D01*
X127269723Y-113964669D01*
X127557985Y-114252930D01*
X127591469Y-114314251D01*
X127591920Y-114316419D01*
X127605261Y-114383489D01*
X127605264Y-114383501D01*
X127665602Y-114529172D01*
X127665609Y-114529185D01*
X127753210Y-114660288D01*
X127753213Y-114660292D01*
X127864707Y-114771786D01*
X127864711Y-114771789D01*
X127995814Y-114859390D01*
X127995827Y-114859397D01*
X128141498Y-114919735D01*
X128141503Y-114919737D01*
X128250963Y-114941510D01*
X128296153Y-114950499D01*
X128296156Y-114950500D01*
X128296158Y-114950500D01*
X128453844Y-114950500D01*
X128453845Y-114950499D01*
X128608497Y-114919737D01*
X128754179Y-114859394D01*
X128885289Y-114771789D01*
X128996789Y-114660289D01*
X129084394Y-114529179D01*
X129087719Y-114521153D01*
X129124090Y-114433344D01*
X129144737Y-114383497D01*
X129175500Y-114228842D01*
X129175500Y-114071158D01*
X129175500Y-114071155D01*
X129175499Y-114071153D01*
X129161340Y-113999973D01*
X129144737Y-113916503D01*
X129123996Y-113866430D01*
X129084397Y-113770827D01*
X129084390Y-113770814D01*
X128996789Y-113639711D01*
X128996786Y-113639707D01*
X128885292Y-113528213D01*
X128885288Y-113528210D01*
X128754185Y-113440609D01*
X128754172Y-113440602D01*
X128608501Y-113380264D01*
X128608489Y-113380261D01*
X128541420Y-113366920D01*
X128524661Y-113358153D01*
X128506181Y-113354133D01*
X128481143Y-113335390D01*
X128479509Y-113334535D01*
X128477927Y-113332982D01*
X128461816Y-113316870D01*
X128428333Y-113255545D01*
X128425500Y-113229191D01*
X128425500Y-111654935D01*
X128445185Y-111587896D01*
X128446366Y-111586090D01*
X128484394Y-111529179D01*
X128544737Y-111383497D01*
X128575500Y-111228842D01*
X128575500Y-111071158D01*
X128575500Y-111071155D01*
X128575499Y-111071153D01*
X128544738Y-110916510D01*
X128544737Y-110916503D01*
X128529149Y-110878870D01*
X128484397Y-110770827D01*
X128484390Y-110770814D01*
X128396789Y-110639711D01*
X128396786Y-110639707D01*
X128285292Y-110528213D01*
X128285288Y-110528210D01*
X128154185Y-110440609D01*
X128154172Y-110440602D01*
X128008501Y-110380264D01*
X128008489Y-110380261D01*
X127853845Y-110349500D01*
X127853842Y-110349500D01*
X127696158Y-110349500D01*
X127696155Y-110349500D01*
X127541510Y-110380261D01*
X127541498Y-110380264D01*
X127395827Y-110440602D01*
X127395814Y-110440609D01*
X127264711Y-110528210D01*
X127264707Y-110528213D01*
X127153213Y-110639707D01*
X127153210Y-110639711D01*
X127065609Y-110770814D01*
X127065602Y-110770827D01*
X127005264Y-110916498D01*
X127005261Y-110916510D01*
X126974500Y-111071153D01*
X106763791Y-111071153D01*
X106922139Y-110912805D01*
X106983460Y-110879322D01*
X106985495Y-110878897D01*
X107021497Y-110871737D01*
X107167179Y-110811394D01*
X107298289Y-110723789D01*
X107409789Y-110612289D01*
X107497394Y-110481179D01*
X107557737Y-110335497D01*
X107588500Y-110180842D01*
X107588500Y-110023158D01*
X107588500Y-110023155D01*
X107588499Y-110023153D01*
X107573309Y-109946789D01*
X107557737Y-109868503D01*
X107557735Y-109868498D01*
X107497397Y-109722827D01*
X107497390Y-109722814D01*
X107409789Y-109591711D01*
X107409786Y-109591707D01*
X107298292Y-109480213D01*
X107298288Y-109480210D01*
X107167185Y-109392609D01*
X107167172Y-109392602D01*
X107080011Y-109356499D01*
X107079998Y-109356494D01*
X107021497Y-109332263D01*
X106979861Y-109323981D01*
X106972916Y-109321726D01*
X106949854Y-109305963D01*
X106925107Y-109293018D01*
X106921406Y-109286519D01*
X106915233Y-109282300D01*
X106904355Y-109256575D01*
X106898421Y-109246153D01*
X121499500Y-109246153D01*
X121499500Y-109403846D01*
X121530261Y-109558489D01*
X121530264Y-109558501D01*
X121590602Y-109704172D01*
X121590609Y-109704185D01*
X121678210Y-109835288D01*
X121678213Y-109835292D01*
X121789707Y-109946786D01*
X121789711Y-109946789D01*
X121920814Y-110034390D01*
X121920827Y-110034397D01*
X122066498Y-110094735D01*
X122066503Y-110094737D01*
X122221153Y-110125499D01*
X122221156Y-110125500D01*
X122221158Y-110125500D01*
X122378844Y-110125500D01*
X122378845Y-110125499D01*
X122533497Y-110094737D01*
X122679179Y-110034394D01*
X122736044Y-109996397D01*
X122802721Y-109975520D01*
X122804935Y-109975500D01*
X124932480Y-109975500D01*
X124999519Y-109995185D01*
X125001372Y-109996399D01*
X125020813Y-110009389D01*
X125020815Y-110009390D01*
X125020821Y-110009394D01*
X125020823Y-110009395D01*
X125020827Y-110009397D01*
X125130854Y-110054971D01*
X125166503Y-110069737D01*
X125292176Y-110094735D01*
X125321153Y-110100499D01*
X125321156Y-110100500D01*
X125321158Y-110100500D01*
X125478844Y-110100500D01*
X125478845Y-110100499D01*
X125633497Y-110069737D01*
X125779179Y-110009394D01*
X125910289Y-109921789D01*
X126021789Y-109810289D01*
X126109394Y-109679179D01*
X126169737Y-109533497D01*
X126200500Y-109378842D01*
X126200500Y-109221158D01*
X126200500Y-109221155D01*
X126200499Y-109221153D01*
X126196114Y-109199110D01*
X126169737Y-109066503D01*
X126162400Y-109048789D01*
X126109397Y-108920827D01*
X126109390Y-108920814D01*
X126021789Y-108789711D01*
X126021786Y-108789707D01*
X125910292Y-108678213D01*
X125910288Y-108678210D01*
X125779185Y-108590609D01*
X125779172Y-108590602D01*
X125633501Y-108530264D01*
X125633489Y-108530261D01*
X125478845Y-108499500D01*
X125478842Y-108499500D01*
X125321158Y-108499500D01*
X125321155Y-108499500D01*
X125166510Y-108530261D01*
X125166498Y-108530264D01*
X125020827Y-108590602D01*
X125020815Y-108590609D01*
X124926541Y-108653602D01*
X124859864Y-108674480D01*
X124857650Y-108674500D01*
X122804935Y-108674500D01*
X122737896Y-108654815D01*
X122736090Y-108653633D01*
X122679179Y-108615606D01*
X122679172Y-108615602D01*
X122533501Y-108555264D01*
X122533489Y-108555261D01*
X122378845Y-108524500D01*
X122378842Y-108524500D01*
X122221158Y-108524500D01*
X122221155Y-108524500D01*
X122066510Y-108555261D01*
X122066498Y-108555264D01*
X121920827Y-108615602D01*
X121920814Y-108615609D01*
X121789711Y-108703210D01*
X121789707Y-108703213D01*
X121678213Y-108814707D01*
X121678210Y-108814711D01*
X121590609Y-108945814D01*
X121590602Y-108945827D01*
X121530264Y-109091498D01*
X121530261Y-109091510D01*
X121499500Y-109246153D01*
X106898421Y-109246153D01*
X106890534Y-109232302D01*
X106889603Y-109228023D01*
X106882737Y-109193503D01*
X106858599Y-109135230D01*
X106822397Y-109047827D01*
X106822390Y-109047814D01*
X106734789Y-108916711D01*
X106734786Y-108916707D01*
X106623292Y-108805213D01*
X106623288Y-108805210D01*
X106492185Y-108717609D01*
X106492172Y-108717602D01*
X106346501Y-108657264D01*
X106346489Y-108657261D01*
X106191845Y-108626500D01*
X106191842Y-108626500D01*
X106034158Y-108626500D01*
X106034155Y-108626500D01*
X105879510Y-108657261D01*
X105879498Y-108657264D01*
X105733827Y-108717602D01*
X105733814Y-108717609D01*
X105602711Y-108805210D01*
X105602707Y-108805213D01*
X105491213Y-108916707D01*
X105491210Y-108916711D01*
X105403609Y-109047814D01*
X105403602Y-109047827D01*
X105343264Y-109193498D01*
X105343261Y-109193508D01*
X105327437Y-109273062D01*
X105295052Y-109334973D01*
X105293501Y-109336551D01*
X102757724Y-111872328D01*
X102726047Y-111919736D01*
X102726048Y-111919737D01*
X102686534Y-111978874D01*
X102637499Y-112097255D01*
X102637497Y-112097261D01*
X102612500Y-112222928D01*
X102612500Y-117597064D01*
X102592815Y-117664103D01*
X102591603Y-117665954D01*
X102553608Y-117722817D01*
X102553602Y-117722828D01*
X102493264Y-117868498D01*
X102493261Y-117868510D01*
X102462500Y-118023153D01*
X80825476Y-118023153D01*
X80825566Y-118022976D01*
X80848581Y-117952159D01*
X80869371Y-117888184D01*
X80869375Y-117888172D01*
X80891553Y-117748174D01*
X80891553Y-117744470D01*
X80891554Y-117744461D01*
X80891554Y-117229577D01*
X98863975Y-117229577D01*
X98969236Y-117273178D01*
X98969240Y-117273179D01*
X99114126Y-117301999D01*
X99114129Y-117302000D01*
X99261871Y-117302000D01*
X99261873Y-117301999D01*
X99406760Y-117273179D01*
X99406775Y-117273175D01*
X99512024Y-117229578D01*
X99512024Y-117229577D01*
X100363975Y-117229577D01*
X100469236Y-117273178D01*
X100469240Y-117273179D01*
X100614126Y-117301999D01*
X100614129Y-117302000D01*
X100761871Y-117302000D01*
X100761873Y-117301999D01*
X100906760Y-117273179D01*
X100906775Y-117273175D01*
X101012024Y-117229578D01*
X101012024Y-117229577D01*
X100688001Y-116905554D01*
X100688000Y-116905554D01*
X100363975Y-117229577D01*
X99512024Y-117229577D01*
X99188001Y-116905554D01*
X99188000Y-116905554D01*
X98863975Y-117229577D01*
X80891554Y-117229577D01*
X80891554Y-116478126D01*
X98438000Y-116478126D01*
X98438000Y-116625873D01*
X98466820Y-116770759D01*
X98466822Y-116770767D01*
X98510421Y-116876024D01*
X98834446Y-116552000D01*
X98834446Y-116551999D01*
X98814556Y-116532109D01*
X99088000Y-116532109D01*
X99088000Y-116571891D01*
X99103224Y-116608645D01*
X99131355Y-116636776D01*
X99168109Y-116652000D01*
X99207891Y-116652000D01*
X99244645Y-116636776D01*
X99272776Y-116608645D01*
X99288000Y-116571891D01*
X99288000Y-116551999D01*
X99541554Y-116551999D01*
X99541554Y-116552001D01*
X99865576Y-116876023D01*
X99913807Y-116866430D01*
X99962191Y-116866430D01*
X100010422Y-116876024D01*
X100334446Y-116552000D01*
X100334446Y-116551999D01*
X100314556Y-116532109D01*
X100588000Y-116532109D01*
X100588000Y-116571891D01*
X100603224Y-116608645D01*
X100631355Y-116636776D01*
X100668109Y-116652000D01*
X100707891Y-116652000D01*
X100744645Y-116636776D01*
X100772776Y-116608645D01*
X100788000Y-116571891D01*
X100788000Y-116551999D01*
X101041554Y-116551999D01*
X101041554Y-116552001D01*
X101365577Y-116876024D01*
X101365578Y-116876024D01*
X101409175Y-116770775D01*
X101409179Y-116770760D01*
X101437999Y-116625873D01*
X101438000Y-116625871D01*
X101438000Y-116478128D01*
X101437999Y-116478126D01*
X101409179Y-116333240D01*
X101409178Y-116333236D01*
X101365577Y-116227975D01*
X101041554Y-116551999D01*
X100788000Y-116551999D01*
X100788000Y-116532109D01*
X100772776Y-116495355D01*
X100744645Y-116467224D01*
X100707891Y-116452000D01*
X100668109Y-116452000D01*
X100631355Y-116467224D01*
X100603224Y-116495355D01*
X100588000Y-116532109D01*
X100314556Y-116532109D01*
X100010421Y-116227974D01*
X99962190Y-116237568D01*
X99913808Y-116237568D01*
X99865577Y-116227974D01*
X99541554Y-116551999D01*
X99288000Y-116551999D01*
X99288000Y-116532109D01*
X99272776Y-116495355D01*
X99244645Y-116467224D01*
X99207891Y-116452000D01*
X99168109Y-116452000D01*
X99131355Y-116467224D01*
X99103224Y-116495355D01*
X99088000Y-116532109D01*
X98814556Y-116532109D01*
X98510421Y-116227974D01*
X98510420Y-116227974D01*
X98466823Y-116333228D01*
X98466820Y-116333240D01*
X98438000Y-116478126D01*
X80891554Y-116478126D01*
X80891554Y-113165389D01*
X87612500Y-113165389D01*
X87612500Y-113338611D01*
X87616984Y-113366920D01*
X87637325Y-113495355D01*
X87639598Y-113509701D01*
X87693127Y-113674445D01*
X87771768Y-113828788D01*
X87873586Y-113968928D01*
X87873588Y-113968930D01*
X87981127Y-114076469D01*
X88014612Y-114137792D01*
X88009628Y-114207484D01*
X87967756Y-114263417D01*
X87958544Y-114269688D01*
X87894344Y-114309287D01*
X87770289Y-114433342D01*
X87678187Y-114582663D01*
X87678185Y-114582668D01*
X87663739Y-114626264D01*
X87623001Y-114749203D01*
X87623001Y-114749204D01*
X87623000Y-114749204D01*
X87612500Y-114851983D01*
X87612500Y-115652001D01*
X87612501Y-115652019D01*
X87623000Y-115754796D01*
X87623001Y-115754799D01*
X87662641Y-115874422D01*
X87678186Y-115921334D01*
X87770288Y-116070656D01*
X87894344Y-116194712D01*
X88043666Y-116286814D01*
X88210203Y-116341999D01*
X88312991Y-116352500D01*
X89663008Y-116352499D01*
X89663016Y-116352498D01*
X89663019Y-116352498D01*
X89683132Y-116350443D01*
X89700384Y-116348681D01*
X89700385Y-116348681D01*
X89706236Y-116348083D01*
X89765797Y-116341999D01*
X89932334Y-116286814D01*
X90081656Y-116194712D01*
X90205712Y-116070656D01*
X90297814Y-115921334D01*
X90352999Y-115754797D01*
X90355575Y-115729577D01*
X98863974Y-115729577D01*
X98873568Y-115777808D01*
X98873568Y-115826190D01*
X98863974Y-115874421D01*
X99188000Y-116198446D01*
X99188001Y-116198446D01*
X99512024Y-115874422D01*
X99502430Y-115826191D01*
X99502430Y-115817853D01*
X99500540Y-115813050D01*
X99502430Y-115777807D01*
X99512023Y-115729577D01*
X100363974Y-115729577D01*
X100373568Y-115777808D01*
X100373568Y-115826190D01*
X100363974Y-115874421D01*
X100688000Y-116198446D01*
X100688001Y-116198446D01*
X101012024Y-115874422D01*
X101002430Y-115826191D01*
X101002430Y-115777807D01*
X101012023Y-115729576D01*
X100688001Y-115405554D01*
X100688000Y-115405554D01*
X100363974Y-115729577D01*
X99512023Y-115729577D01*
X99512023Y-115729576D01*
X99188001Y-115405554D01*
X99188000Y-115405554D01*
X98863974Y-115729577D01*
X90355575Y-115729577D01*
X90357925Y-115706578D01*
X90361033Y-115676160D01*
X90361033Y-115676159D01*
X90363499Y-115652018D01*
X90363500Y-115652009D01*
X90363499Y-114978126D01*
X98438000Y-114978126D01*
X98438000Y-115125873D01*
X98466820Y-115270759D01*
X98466822Y-115270767D01*
X98510421Y-115376024D01*
X98834446Y-115052000D01*
X98834446Y-115051999D01*
X98814556Y-115032109D01*
X99088000Y-115032109D01*
X99088000Y-115071891D01*
X99103224Y-115108645D01*
X99131355Y-115136776D01*
X99168109Y-115152000D01*
X99207891Y-115152000D01*
X99244645Y-115136776D01*
X99272776Y-115108645D01*
X99288000Y-115071891D01*
X99288000Y-115051999D01*
X99541554Y-115051999D01*
X99541554Y-115052001D01*
X99865576Y-115376023D01*
X99913807Y-115366430D01*
X99962191Y-115366430D01*
X100010422Y-115376024D01*
X100334446Y-115052000D01*
X100334446Y-115051999D01*
X100314556Y-115032109D01*
X100588000Y-115032109D01*
X100588000Y-115071891D01*
X100603224Y-115108645D01*
X100631355Y-115136776D01*
X100668109Y-115152000D01*
X100707891Y-115152000D01*
X100744645Y-115136776D01*
X100772776Y-115108645D01*
X100788000Y-115071891D01*
X100788000Y-115051999D01*
X101041554Y-115051999D01*
X101041554Y-115052001D01*
X101365577Y-115376024D01*
X101365578Y-115376024D01*
X101409175Y-115270775D01*
X101409179Y-115270760D01*
X101437999Y-115125873D01*
X101438000Y-115125871D01*
X101438000Y-114978128D01*
X101437999Y-114978126D01*
X101409179Y-114833240D01*
X101409178Y-114833236D01*
X101365577Y-114727975D01*
X101041554Y-115051999D01*
X100788000Y-115051999D01*
X100788000Y-115032109D01*
X100772776Y-114995355D01*
X100744645Y-114967224D01*
X100707891Y-114952000D01*
X100668109Y-114952000D01*
X100631355Y-114967224D01*
X100603224Y-114995355D01*
X100588000Y-115032109D01*
X100314556Y-115032109D01*
X100010421Y-114727974D01*
X99962190Y-114737568D01*
X99913808Y-114737568D01*
X99865577Y-114727974D01*
X99541554Y-115051999D01*
X99288000Y-115051999D01*
X99288000Y-115032109D01*
X99272776Y-114995355D01*
X99244645Y-114967224D01*
X99207891Y-114952000D01*
X99168109Y-114952000D01*
X99131355Y-114967224D01*
X99103224Y-114995355D01*
X99088000Y-115032109D01*
X98814556Y-115032109D01*
X98510421Y-114727974D01*
X98510420Y-114727974D01*
X98466823Y-114833228D01*
X98466820Y-114833240D01*
X98438000Y-114978126D01*
X90363499Y-114978126D01*
X90363499Y-114851992D01*
X90361583Y-114833240D01*
X90352999Y-114749203D01*
X90352998Y-114749200D01*
X90297814Y-114582666D01*
X90205712Y-114433344D01*
X90081656Y-114309288D01*
X90055442Y-114293119D01*
X90017455Y-114269688D01*
X89981378Y-114229577D01*
X98863974Y-114229577D01*
X98873568Y-114277808D01*
X98873568Y-114326190D01*
X98863974Y-114374421D01*
X99188000Y-114698446D01*
X99188001Y-114698446D01*
X99512024Y-114374422D01*
X99502430Y-114326191D01*
X99502430Y-114317853D01*
X99500540Y-114313050D01*
X99502430Y-114277807D01*
X99512023Y-114229577D01*
X100363974Y-114229577D01*
X100373568Y-114277808D01*
X100373568Y-114326190D01*
X100363974Y-114374421D01*
X100688000Y-114698446D01*
X100688001Y-114698446D01*
X101012024Y-114374422D01*
X101002430Y-114326191D01*
X101002430Y-114277807D01*
X101012023Y-114229576D01*
X100688001Y-113905554D01*
X100688000Y-113905554D01*
X100363974Y-114229577D01*
X99512023Y-114229577D01*
X99512023Y-114229576D01*
X99188001Y-113905554D01*
X99188000Y-113905554D01*
X98863974Y-114229577D01*
X89981378Y-114229577D01*
X89970731Y-114217740D01*
X89959510Y-114148777D01*
X89987354Y-114084695D01*
X89994850Y-114076491D01*
X90102414Y-113968928D01*
X90204232Y-113828788D01*
X90282873Y-113674445D01*
X90336402Y-113509701D01*
X90341403Y-113478126D01*
X98438000Y-113478126D01*
X98438000Y-113625873D01*
X98466820Y-113770759D01*
X98466822Y-113770767D01*
X98510421Y-113876024D01*
X98834446Y-113552000D01*
X98834446Y-113551999D01*
X98814556Y-113532109D01*
X99088000Y-113532109D01*
X99088000Y-113571891D01*
X99103224Y-113608645D01*
X99131355Y-113636776D01*
X99168109Y-113652000D01*
X99207891Y-113652000D01*
X99244645Y-113636776D01*
X99272776Y-113608645D01*
X99288000Y-113571891D01*
X99288000Y-113551999D01*
X99541554Y-113551999D01*
X99541554Y-113552001D01*
X99865576Y-113876023D01*
X99913807Y-113866430D01*
X99962191Y-113866430D01*
X100010422Y-113876024D01*
X100334446Y-113552000D01*
X100334446Y-113551999D01*
X100314556Y-113532109D01*
X100588000Y-113532109D01*
X100588000Y-113571891D01*
X100603224Y-113608645D01*
X100631355Y-113636776D01*
X100668109Y-113652000D01*
X100707891Y-113652000D01*
X100744645Y-113636776D01*
X100772776Y-113608645D01*
X100788000Y-113571891D01*
X100788000Y-113551999D01*
X101041554Y-113551999D01*
X101041554Y-113552001D01*
X101365577Y-113876024D01*
X101365578Y-113876024D01*
X101409175Y-113770775D01*
X101409179Y-113770760D01*
X101437999Y-113625873D01*
X101438000Y-113625871D01*
X101438000Y-113478128D01*
X101437999Y-113478126D01*
X101409179Y-113333240D01*
X101409178Y-113333236D01*
X101365577Y-113227975D01*
X101041554Y-113551999D01*
X100788000Y-113551999D01*
X100788000Y-113532109D01*
X100772776Y-113495355D01*
X100744645Y-113467224D01*
X100707891Y-113452000D01*
X100668109Y-113452000D01*
X100631355Y-113467224D01*
X100603224Y-113495355D01*
X100588000Y-113532109D01*
X100314556Y-113532109D01*
X100010421Y-113227974D01*
X99962190Y-113237568D01*
X99913808Y-113237568D01*
X99865577Y-113227974D01*
X99541554Y-113551999D01*
X99288000Y-113551999D01*
X99288000Y-113532109D01*
X99272776Y-113495355D01*
X99244645Y-113467224D01*
X99207891Y-113452000D01*
X99168109Y-113452000D01*
X99131355Y-113467224D01*
X99103224Y-113495355D01*
X99088000Y-113532109D01*
X98814556Y-113532109D01*
X98510421Y-113227974D01*
X98510420Y-113227974D01*
X98466823Y-113333228D01*
X98466820Y-113333240D01*
X98438000Y-113478126D01*
X90341403Y-113478126D01*
X90363500Y-113338611D01*
X90363500Y-113165389D01*
X90336402Y-112994299D01*
X90297451Y-112874420D01*
X98863974Y-112874420D01*
X98863974Y-112874421D01*
X99188000Y-113198446D01*
X99188001Y-113198446D01*
X99512024Y-112874421D01*
X99512022Y-112874420D01*
X100363974Y-112874420D01*
X100363974Y-112874421D01*
X100688000Y-113198446D01*
X100688001Y-113198446D01*
X101012024Y-112874421D01*
X100906767Y-112830822D01*
X100906759Y-112830820D01*
X100761872Y-112802000D01*
X100614128Y-112802000D01*
X100469240Y-112830820D01*
X100469228Y-112830823D01*
X100363974Y-112874420D01*
X99512022Y-112874420D01*
X99406767Y-112830822D01*
X99406759Y-112830820D01*
X99261872Y-112802000D01*
X99114128Y-112802000D01*
X98969240Y-112830820D01*
X98969228Y-112830823D01*
X98863974Y-112874420D01*
X90297451Y-112874420D01*
X90282873Y-112829555D01*
X90204232Y-112675212D01*
X90102414Y-112535072D01*
X89979928Y-112412586D01*
X89839788Y-112310768D01*
X89685445Y-112232127D01*
X89520701Y-112178598D01*
X89520699Y-112178597D01*
X89520698Y-112178597D01*
X89389271Y-112157781D01*
X89349611Y-112151500D01*
X88626389Y-112151500D01*
X88586728Y-112157781D01*
X88455302Y-112178597D01*
X88290552Y-112232128D01*
X88136211Y-112310768D01*
X88072107Y-112357343D01*
X87996072Y-112412586D01*
X87996070Y-112412588D01*
X87996069Y-112412588D01*
X87873588Y-112535069D01*
X87873588Y-112535070D01*
X87873586Y-112535072D01*
X87836247Y-112586465D01*
X87771768Y-112675211D01*
X87693128Y-112829552D01*
X87639597Y-112994302D01*
X87624402Y-113090243D01*
X87612500Y-113165389D01*
X80891554Y-113165389D01*
X80891554Y-106181418D01*
X80891800Y-106180567D01*
X80891554Y-106123905D01*
X80891554Y-106071999D01*
X80891554Y-106066606D01*
X80891242Y-106062007D01*
X80891131Y-106034547D01*
X80870106Y-105930909D01*
X80855965Y-105861206D01*
X80855964Y-105861205D01*
X80855964Y-105861202D01*
X80844317Y-105833343D01*
X80844317Y-105833340D01*
X80826361Y-105790389D01*
X87612500Y-105790389D01*
X87612500Y-105963611D01*
X87617134Y-105992866D01*
X87637261Y-106119949D01*
X87639598Y-106134701D01*
X87693127Y-106299445D01*
X87771768Y-106453788D01*
X87873586Y-106593928D01*
X87873588Y-106593930D01*
X87981127Y-106701469D01*
X88014612Y-106762792D01*
X88009628Y-106832484D01*
X87967756Y-106888417D01*
X87958544Y-106894688D01*
X87894344Y-106934287D01*
X87770289Y-107058342D01*
X87678187Y-107207663D01*
X87678186Y-107207666D01*
X87623001Y-107374203D01*
X87623001Y-107374204D01*
X87623000Y-107374204D01*
X87612500Y-107476983D01*
X87612500Y-108277001D01*
X87612501Y-108277019D01*
X87623000Y-108379796D01*
X87623001Y-108379799D01*
X87678185Y-108546331D01*
X87678187Y-108546336D01*
X87705491Y-108590602D01*
X87770288Y-108695656D01*
X87894344Y-108819712D01*
X88043666Y-108911814D01*
X88210203Y-108966999D01*
X88312991Y-108977500D01*
X89663008Y-108977499D01*
X89765797Y-108966999D01*
X89932334Y-108911814D01*
X90081656Y-108819712D01*
X90205712Y-108695656D01*
X90297814Y-108546334D01*
X90352999Y-108379797D01*
X90363500Y-108277009D01*
X90363499Y-107476992D01*
X90352999Y-107374203D01*
X90297814Y-107207666D01*
X90205712Y-107058344D01*
X90081656Y-106934288D01*
X90081652Y-106934285D01*
X90017456Y-106894688D01*
X89970731Y-106842740D01*
X89959510Y-106773777D01*
X89987353Y-106709695D01*
X89994850Y-106701491D01*
X90102414Y-106593928D01*
X90204232Y-106453788D01*
X90282873Y-106299445D01*
X90336402Y-106134701D01*
X90363500Y-105963611D01*
X90363500Y-105893711D01*
X99183058Y-105893711D01*
X99183058Y-106051404D01*
X99213819Y-106206047D01*
X99213822Y-106206059D01*
X99274161Y-106351732D01*
X99274162Y-106351733D01*
X99274164Y-106351737D01*
X99291130Y-106377128D01*
X99316602Y-106415249D01*
X99337480Y-106481926D01*
X99337500Y-106484140D01*
X99337500Y-107922064D01*
X99317815Y-107989103D01*
X99316603Y-107990954D01*
X99278608Y-108047817D01*
X99278602Y-108047828D01*
X99218264Y-108193498D01*
X99218261Y-108193510D01*
X99187500Y-108348153D01*
X99187500Y-108505846D01*
X99218261Y-108660489D01*
X99218264Y-108660501D01*
X99278602Y-108806172D01*
X99278609Y-108806185D01*
X99366210Y-108937288D01*
X99366213Y-108937292D01*
X99477707Y-109048786D01*
X99477711Y-109048789D01*
X99608814Y-109136390D01*
X99608827Y-109136397D01*
X99746695Y-109193503D01*
X99754503Y-109196737D01*
X99877250Y-109221153D01*
X99909153Y-109227499D01*
X99909156Y-109227500D01*
X99909158Y-109227500D01*
X100066844Y-109227500D01*
X100066845Y-109227499D01*
X100221497Y-109196737D01*
X100367179Y-109136394D01*
X100498289Y-109048789D01*
X100609789Y-108937289D01*
X100697394Y-108806179D01*
X100757737Y-108660497D01*
X100788500Y-108505842D01*
X100788500Y-108348158D01*
X100788500Y-108348155D01*
X100788499Y-108348153D01*
X100774346Y-108277001D01*
X100757737Y-108193503D01*
X100749192Y-108172873D01*
X100697397Y-108047828D01*
X100697396Y-108047827D01*
X100697394Y-108047821D01*
X100659396Y-107990953D01*
X100638520Y-107924276D01*
X100638500Y-107922064D01*
X100638500Y-106470845D01*
X100658185Y-106403806D01*
X100659365Y-106402002D01*
X100692952Y-106351737D01*
X100753295Y-106206055D01*
X100784058Y-106051400D01*
X100784058Y-105893716D01*
X100784058Y-105893713D01*
X100784057Y-105893711D01*
X100777591Y-105861206D01*
X100753295Y-105739061D01*
X100707994Y-105629693D01*
X100692955Y-105593385D01*
X100692948Y-105593372D01*
X100605347Y-105462269D01*
X100605344Y-105462265D01*
X100493850Y-105350771D01*
X100493846Y-105350768D01*
X100362743Y-105263167D01*
X100362730Y-105263160D01*
X100217059Y-105202822D01*
X100217047Y-105202819D01*
X100062403Y-105172058D01*
X100062400Y-105172058D01*
X99904716Y-105172058D01*
X99904713Y-105172058D01*
X99750068Y-105202819D01*
X99750056Y-105202822D01*
X99604385Y-105263160D01*
X99604372Y-105263167D01*
X99473269Y-105350768D01*
X99473265Y-105350771D01*
X99361771Y-105462265D01*
X99361768Y-105462269D01*
X99274167Y-105593372D01*
X99274160Y-105593385D01*
X99213822Y-105739056D01*
X99213819Y-105739068D01*
X99183058Y-105893711D01*
X90363500Y-105893711D01*
X90363500Y-105790389D01*
X90336402Y-105619299D01*
X90282873Y-105454555D01*
X90204232Y-105300212D01*
X90102414Y-105160072D01*
X89979928Y-105037586D01*
X89839788Y-104935768D01*
X89685445Y-104857127D01*
X89520701Y-104803598D01*
X89520699Y-104803597D01*
X89520698Y-104803597D01*
X89389271Y-104782781D01*
X89349611Y-104776500D01*
X88626389Y-104776500D01*
X88586728Y-104782781D01*
X88455302Y-104803597D01*
X88290552Y-104857128D01*
X88136211Y-104935768D01*
X88076070Y-104979464D01*
X87996072Y-105037586D01*
X87996070Y-105037588D01*
X87996069Y-105037588D01*
X87873588Y-105160069D01*
X87873588Y-105160070D01*
X87873586Y-105160072D01*
X87842527Y-105202821D01*
X87771768Y-105300211D01*
X87693128Y-105454552D01*
X87639597Y-105619302D01*
X87620628Y-105739068D01*
X87612500Y-105790389D01*
X80826361Y-105790389D01*
X80804904Y-105739061D01*
X80787743Y-105698011D01*
X80689075Y-105551212D01*
X80576906Y-105439533D01*
X80563730Y-105426414D01*
X80563726Y-105426411D01*
X80416502Y-105328390D01*
X80253014Y-105260883D01*
X80253010Y-105260882D01*
X80079513Y-105226473D01*
X79991104Y-105226499D01*
X79991078Y-105226500D01*
X78515556Y-105226500D01*
X78506877Y-105223951D01*
X78497924Y-105225240D01*
X78473875Y-105214261D01*
X78448517Y-105206815D01*
X78442595Y-105199980D01*
X78434364Y-105196223D01*
X78420067Y-105173982D01*
X78402762Y-105154011D01*
X78400475Y-105143504D01*
X78396583Y-105137449D01*
X78391556Y-105102515D01*
X78391555Y-105098311D01*
X78391554Y-105085781D01*
X78391554Y-102574273D01*
X78391554Y-102414809D01*
X111365223Y-102414809D01*
X111365223Y-102839192D01*
X111398519Y-103262251D01*
X111398519Y-103262252D01*
X111449127Y-103581782D01*
X111464905Y-103681399D01*
X111563973Y-104094046D01*
X111563977Y-104094057D01*
X111695108Y-104497642D01*
X111844013Y-104857128D01*
X111857512Y-104889717D01*
X112047889Y-105263353D01*
X112050180Y-105267849D01*
X112050183Y-105267854D01*
X112192169Y-105499553D01*
X112271907Y-105629673D01*
X112271915Y-105629684D01*
X112271921Y-105629693D01*
X112521340Y-105972990D01*
X112521350Y-105973004D01*
X112720399Y-106206059D01*
X112796954Y-106295693D01*
X113097031Y-106595770D01*
X113097037Y-106595775D01*
X113419719Y-106871373D01*
X113419733Y-106871383D01*
X113758449Y-107117474D01*
X113763051Y-107120817D01*
X113841210Y-107168713D01*
X114124869Y-107342540D01*
X114124874Y-107342543D01*
X114124879Y-107342545D01*
X114124888Y-107342551D01*
X114503007Y-107535212D01*
X114895076Y-107697613D01*
X114895081Y-107697615D01*
X114997702Y-107730958D01*
X115298678Y-107828751D01*
X115711325Y-107927819D01*
X116130473Y-107994205D01*
X116553537Y-108027501D01*
X116553545Y-108027501D01*
X116977901Y-108027501D01*
X116977909Y-108027501D01*
X117400973Y-107994205D01*
X117820121Y-107927819D01*
X118232768Y-107828751D01*
X118636370Y-107697613D01*
X119028439Y-107535212D01*
X119406558Y-107342551D01*
X119768395Y-107120817D01*
X120111720Y-106871378D01*
X120434415Y-106595770D01*
X120734492Y-106295693D01*
X120978990Y-106009421D01*
X121010095Y-105973004D01*
X121010095Y-105973003D01*
X121010100Y-105972998D01*
X121259539Y-105629673D01*
X121481273Y-105267836D01*
X121673934Y-104889717D01*
X121836335Y-104497648D01*
X121967473Y-104094046D01*
X122066541Y-103681399D01*
X122132927Y-103262251D01*
X122166223Y-102839187D01*
X122166223Y-102414815D01*
X122161923Y-102360181D01*
X124615223Y-102360181D01*
X124615223Y-102364680D01*
X124615223Y-102893821D01*
X124636638Y-103220541D01*
X124650125Y-103426325D01*
X124719778Y-103955390D01*
X124719780Y-103955401D01*
X124823881Y-104478753D01*
X124823887Y-104478779D01*
X124962001Y-104994228D01*
X124962005Y-104994242D01*
X125133535Y-105499550D01*
X125133539Y-105499561D01*
X125337752Y-105992575D01*
X125573772Y-106471178D01*
X125840587Y-106933315D01*
X125840603Y-106933340D01*
X126137067Y-107377030D01*
X126461920Y-107800386D01*
X126461925Y-107800391D01*
X126461926Y-107800393D01*
X126813779Y-108201605D01*
X127191119Y-108578945D01*
X127592331Y-108930798D01*
X127592337Y-108930803D01*
X128015693Y-109255656D01*
X128459383Y-109552120D01*
X128459408Y-109552136D01*
X128921545Y-109818951D01*
X129180770Y-109946786D01*
X129400152Y-110054973D01*
X129893171Y-110259188D01*
X130398490Y-110430721D01*
X130913947Y-110568837D01*
X130913956Y-110568838D01*
X130913970Y-110568842D01*
X131424268Y-110670346D01*
X131437332Y-110672945D01*
X131966406Y-110742599D01*
X132498903Y-110777501D01*
X132498914Y-110777501D01*
X133032532Y-110777501D01*
X133032543Y-110777501D01*
X133565040Y-110742599D01*
X134094114Y-110672945D01*
X134346008Y-110622839D01*
X134617475Y-110568842D01*
X134617482Y-110568840D01*
X134617499Y-110568837D01*
X135132956Y-110430721D01*
X135638275Y-110259188D01*
X136131294Y-110054973D01*
X136609900Y-109818951D01*
X137072046Y-109552131D01*
X137515751Y-109255657D01*
X137939115Y-108930798D01*
X138340327Y-108578945D01*
X138717667Y-108201605D01*
X139069520Y-107800393D01*
X139394379Y-107377029D01*
X139497884Y-107222123D01*
X139533572Y-107168713D01*
X150334500Y-107168713D01*
X150334500Y-107381287D01*
X150367754Y-107591243D01*
X150381998Y-107635082D01*
X150433444Y-107793414D01*
X150529951Y-107982820D01*
X150654890Y-108154786D01*
X150805213Y-108305109D01*
X150977179Y-108430048D01*
X150977181Y-108430049D01*
X150977184Y-108430051D01*
X151166588Y-108526557D01*
X151368757Y-108592246D01*
X151578713Y-108625500D01*
X151578714Y-108625500D01*
X151791286Y-108625500D01*
X151791287Y-108625500D01*
X152001243Y-108592246D01*
X152203412Y-108526557D01*
X152392816Y-108430051D01*
X152564792Y-108305104D01*
X152678329Y-108191566D01*
X152739648Y-108158084D01*
X152809340Y-108163068D01*
X152865274Y-108204939D01*
X152882189Y-108235917D01*
X152931202Y-108367328D01*
X152931206Y-108367335D01*
X153017452Y-108482544D01*
X153017455Y-108482547D01*
X153132664Y-108568793D01*
X153132671Y-108568797D01*
X153267517Y-108619091D01*
X153267516Y-108619091D01*
X153274444Y-108619835D01*
X153327127Y-108625500D01*
X155122872Y-108625499D01*
X155182483Y-108619091D01*
X155317331Y-108568796D01*
X155432546Y-108482546D01*
X155518796Y-108367331D01*
X155569091Y-108232483D01*
X155575500Y-108172873D01*
X155575499Y-106377128D01*
X155569091Y-106317517D01*
X155567810Y-106314083D01*
X155518797Y-106182671D01*
X155518793Y-106182664D01*
X155432547Y-106067455D01*
X155432544Y-106067452D01*
X155317335Y-105981206D01*
X155317328Y-105981202D01*
X155182482Y-105930908D01*
X155182483Y-105930908D01*
X155122883Y-105924501D01*
X155122881Y-105924500D01*
X155122873Y-105924500D01*
X155122864Y-105924500D01*
X153327129Y-105924500D01*
X153327123Y-105924501D01*
X153267516Y-105930908D01*
X153132671Y-105981202D01*
X153132664Y-105981206D01*
X153017455Y-106067452D01*
X153017452Y-106067455D01*
X152931206Y-106182664D01*
X152931203Y-106182669D01*
X152882189Y-106314083D01*
X152840317Y-106370016D01*
X152774853Y-106394433D01*
X152706580Y-106379581D01*
X152678326Y-106358430D01*
X152564786Y-106244890D01*
X152392820Y-106119951D01*
X152203414Y-106023444D01*
X152203413Y-106023443D01*
X152203412Y-106023443D01*
X152001243Y-105957754D01*
X152001241Y-105957753D01*
X152001240Y-105957753D01*
X151839957Y-105932208D01*
X151791287Y-105924500D01*
X151578713Y-105924500D01*
X151530042Y-105932208D01*
X151368760Y-105957753D01*
X151166585Y-106023444D01*
X150977179Y-106119951D01*
X150805213Y-106244890D01*
X150654890Y-106395213D01*
X150529951Y-106567179D01*
X150433444Y-106756585D01*
X150367753Y-106958760D01*
X150342088Y-107120802D01*
X150334500Y-107168713D01*
X139533572Y-107168713D01*
X139582859Y-107094950D01*
X139690209Y-106934288D01*
X139690853Y-106933324D01*
X139957673Y-106471178D01*
X140193695Y-105992572D01*
X140397910Y-105499553D01*
X140569443Y-104994234D01*
X140707559Y-104478777D01*
X140720021Y-104416129D01*
X140745359Y-104288745D01*
X140811665Y-103955401D01*
X140811667Y-103955390D01*
X140881320Y-103426325D01*
X140881321Y-103426318D01*
X140916223Y-102893821D01*
X140916223Y-102360181D01*
X140881321Y-101827684D01*
X140811667Y-101298610D01*
X140810855Y-101294532D01*
X140746507Y-100971025D01*
X140742321Y-100949983D01*
X144041500Y-100949983D01*
X144041500Y-102250001D01*
X144041501Y-102250018D01*
X144052000Y-102352796D01*
X144052001Y-102352799D01*
X144072554Y-102414822D01*
X144107186Y-102519334D01*
X144199288Y-102668656D01*
X144323344Y-102792712D01*
X144398692Y-102839187D01*
X144478558Y-102888448D01*
X144525283Y-102940396D01*
X144536506Y-103009358D01*
X144508663Y-103073441D01*
X144501144Y-103081668D01*
X144362271Y-103220541D01*
X144237379Y-103392442D01*
X144140904Y-103581782D01*
X144075242Y-103783870D01*
X144075242Y-103783873D01*
X144064769Y-103850000D01*
X145108988Y-103850000D01*
X145076075Y-103907007D01*
X145042000Y-104034174D01*
X145042000Y-104165826D01*
X145076075Y-104292993D01*
X145108988Y-104350000D01*
X144064769Y-104350000D01*
X144075242Y-104416126D01*
X144075242Y-104416129D01*
X144140904Y-104618217D01*
X144237379Y-104807557D01*
X144362272Y-104979459D01*
X144362276Y-104979464D01*
X144512535Y-105129723D01*
X144512540Y-105129727D01*
X144684442Y-105254620D01*
X144873782Y-105351095D01*
X145075870Y-105416757D01*
X145285754Y-105450000D01*
X145292000Y-105450000D01*
X145292000Y-104533012D01*
X145349007Y-104565925D01*
X145476174Y-104600000D01*
X145607826Y-104600000D01*
X145734993Y-104565925D01*
X145792000Y-104533012D01*
X145792000Y-105450000D01*
X145798246Y-105450000D01*
X146008127Y-105416757D01*
X146008130Y-105416757D01*
X146210217Y-105351095D01*
X146399557Y-105254620D01*
X146571459Y-105129727D01*
X146571464Y-105129723D01*
X146721723Y-104979464D01*
X146721727Y-104979459D01*
X146846620Y-104807557D01*
X146943095Y-104618217D01*
X147008757Y-104416129D01*
X147008757Y-104416126D01*
X147019231Y-104350000D01*
X145975012Y-104350000D01*
X146007925Y-104292993D01*
X146042000Y-104165826D01*
X146042000Y-104034174D01*
X146007925Y-103907007D01*
X145975012Y-103850000D01*
X147019231Y-103850000D01*
X147008757Y-103783873D01*
X147008757Y-103783870D01*
X146943095Y-103581782D01*
X146846620Y-103392442D01*
X146721727Y-103220540D01*
X146721723Y-103220535D01*
X146582856Y-103081668D01*
X146549371Y-103020345D01*
X146554355Y-102950653D01*
X146596227Y-102894720D01*
X146605441Y-102888448D01*
X146611331Y-102884814D01*
X146611334Y-102884814D01*
X146760656Y-102792712D01*
X146884712Y-102668656D01*
X146976814Y-102519334D01*
X147031999Y-102352797D01*
X147042500Y-102250009D01*
X147042499Y-100949992D01*
X147031999Y-100847203D01*
X146976814Y-100680666D01*
X146884712Y-100531344D01*
X146760656Y-100407288D01*
X146611334Y-100315186D01*
X146444797Y-100260001D01*
X146444795Y-100260000D01*
X146342010Y-100249500D01*
X144741998Y-100249500D01*
X144741981Y-100249501D01*
X144639203Y-100260000D01*
X144639200Y-100260001D01*
X144472668Y-100315185D01*
X144472663Y-100315187D01*
X144323342Y-100407289D01*
X144199289Y-100531342D01*
X144107187Y-100680663D01*
X144107186Y-100680666D01*
X144052001Y-100847203D01*
X144052001Y-100847204D01*
X144052000Y-100847204D01*
X144041500Y-100949983D01*
X140742321Y-100949983D01*
X140707564Y-100775248D01*
X140707558Y-100775222D01*
X140702504Y-100756359D01*
X140569443Y-100259768D01*
X140565957Y-100249500D01*
X140543898Y-100184514D01*
X140397910Y-99754449D01*
X140193695Y-99261430D01*
X140171108Y-99215628D01*
X139957673Y-98782823D01*
X139690858Y-98320686D01*
X139690842Y-98320661D01*
X139394378Y-97876971D01*
X139069525Y-97453615D01*
X139044654Y-97425255D01*
X138717667Y-97052397D01*
X138340327Y-96675057D01*
X137939115Y-96323204D01*
X137939113Y-96323203D01*
X137939108Y-96323198D01*
X137515752Y-95998345D01*
X137072062Y-95701881D01*
X137072037Y-95701865D01*
X136609900Y-95435050D01*
X136131297Y-95199030D01*
X135638283Y-94994817D01*
X135638272Y-94994813D01*
X135132964Y-94823283D01*
X135132950Y-94823279D01*
X134617501Y-94685165D01*
X134617475Y-94685159D01*
X134094123Y-94581058D01*
X134094112Y-94581056D01*
X133565047Y-94511403D01*
X133357957Y-94497830D01*
X133032543Y-94476501D01*
X132498903Y-94476501D01*
X132190615Y-94496707D01*
X131966398Y-94511403D01*
X131437333Y-94581056D01*
X131437322Y-94581058D01*
X130913970Y-94685159D01*
X130913944Y-94685165D01*
X130398495Y-94823279D01*
X130398481Y-94823283D01*
X129893173Y-94994813D01*
X129893162Y-94994817D01*
X129400148Y-95199030D01*
X128921545Y-95435050D01*
X128459408Y-95701865D01*
X128459383Y-95701881D01*
X128015693Y-95998345D01*
X127592337Y-96323198D01*
X127191114Y-96675061D01*
X126813783Y-97052392D01*
X126461920Y-97453615D01*
X126137067Y-97876971D01*
X125840603Y-98320661D01*
X125840587Y-98320686D01*
X125573772Y-98782823D01*
X125337752Y-99261426D01*
X125133539Y-99754440D01*
X125133535Y-99754451D01*
X124962005Y-100259759D01*
X124962001Y-100259773D01*
X124823887Y-100775222D01*
X124823881Y-100775248D01*
X124719780Y-101298600D01*
X124719778Y-101298611D01*
X124650125Y-101827676D01*
X124639371Y-101991750D01*
X124615223Y-102360181D01*
X122161923Y-102360181D01*
X122132927Y-101991751D01*
X122066541Y-101572603D01*
X121967473Y-101159956D01*
X121836335Y-100756354D01*
X121673934Y-100364285D01*
X121481273Y-99986166D01*
X121481267Y-99986157D01*
X121481265Y-99986152D01*
X121481262Y-99986147D01*
X121338196Y-99752686D01*
X121259539Y-99624329D01*
X121208112Y-99553546D01*
X121010105Y-99281011D01*
X121010095Y-99280997D01*
X120734497Y-98958315D01*
X120734492Y-98958309D01*
X120434415Y-98658232D01*
X120304408Y-98547195D01*
X120111726Y-98382628D01*
X120111712Y-98382618D01*
X119768415Y-98133199D01*
X119768406Y-98133193D01*
X119768395Y-98133185D01*
X119712261Y-98098786D01*
X119406576Y-97911461D01*
X119406571Y-97911458D01*
X119406561Y-97911453D01*
X119406558Y-97911451D01*
X119028439Y-97718790D01*
X119008428Y-97710501D01*
X118636364Y-97556386D01*
X118349201Y-97463082D01*
X118232768Y-97425251D01*
X117820121Y-97326183D01*
X117400973Y-97259797D01*
X116977914Y-97226501D01*
X116977909Y-97226501D01*
X116553537Y-97226501D01*
X116553531Y-97226501D01*
X116130472Y-97259797D01*
X116130471Y-97259797D01*
X115711330Y-97326182D01*
X115711327Y-97326182D01*
X115711325Y-97326183D01*
X115563540Y-97361662D01*
X115298689Y-97425248D01*
X115298683Y-97425249D01*
X115298678Y-97425251D01*
X115298666Y-97425255D01*
X114895081Y-97556386D01*
X114503020Y-97718784D01*
X114503007Y-97718790D01*
X114124874Y-97911458D01*
X114124869Y-97911461D01*
X113763063Y-98133177D01*
X113763030Y-98133199D01*
X113419733Y-98382618D01*
X113419719Y-98382628D01*
X113097037Y-98658226D01*
X113097023Y-98658239D01*
X112796961Y-98958301D01*
X112796948Y-98958315D01*
X112521350Y-99280997D01*
X112521340Y-99281011D01*
X112271921Y-99624308D01*
X112271899Y-99624341D01*
X112050183Y-99986147D01*
X112050180Y-99986152D01*
X111857512Y-100364285D01*
X111857506Y-100364298D01*
X111695108Y-100756359D01*
X111563977Y-101159944D01*
X111563970Y-101159967D01*
X111464904Y-101572608D01*
X111398519Y-101991749D01*
X111398519Y-101991750D01*
X111365223Y-102414809D01*
X78391554Y-102414809D01*
X78391554Y-100151502D01*
X78394103Y-100142819D01*
X78392815Y-100133861D01*
X78403796Y-100109812D01*
X78411239Y-100084463D01*
X78418077Y-100078537D01*
X78421837Y-100070304D01*
X78444071Y-100056013D01*
X78464043Y-100038708D01*
X78474555Y-100036420D01*
X78480614Y-100032527D01*
X78515507Y-100027510D01*
X78515545Y-100027502D01*
X78548594Y-100027506D01*
X78548612Y-100027500D01*
X78557678Y-100027500D01*
X79924422Y-100027500D01*
X79924518Y-100027506D01*
X79933510Y-100027505D01*
X79933512Y-100027506D01*
X79939672Y-100027505D01*
X79939854Y-100027558D01*
X79991095Y-100027552D01*
X79991095Y-100027554D01*
X80079786Y-100027545D01*
X80253757Y-99992923D01*
X80417631Y-99925029D01*
X80565112Y-99826471D01*
X80690533Y-99701036D01*
X80789075Y-99553545D01*
X80856951Y-99389663D01*
X80891554Y-99215689D01*
X80891554Y-99126998D01*
X80891554Y-99126929D01*
X80891554Y-90340389D01*
X87612500Y-90340389D01*
X87612500Y-90513611D01*
X87639598Y-90684701D01*
X87693127Y-90849445D01*
X87771768Y-91003788D01*
X87873586Y-91143928D01*
X87873588Y-91143930D01*
X87981127Y-91251469D01*
X88014612Y-91312792D01*
X88009628Y-91382484D01*
X87967756Y-91438417D01*
X87958544Y-91444688D01*
X87894344Y-91484287D01*
X87770289Y-91608342D01*
X87678187Y-91757663D01*
X87678185Y-91757668D01*
X87650349Y-91841670D01*
X87623001Y-91924203D01*
X87623001Y-91924204D01*
X87623000Y-91924204D01*
X87612500Y-92026983D01*
X87612500Y-92827001D01*
X87612501Y-92827019D01*
X87623000Y-92929796D01*
X87623001Y-92929799D01*
X87654837Y-93025871D01*
X87678186Y-93096334D01*
X87770288Y-93245656D01*
X87894344Y-93369712D01*
X88043666Y-93461814D01*
X88210203Y-93516999D01*
X88312991Y-93527500D01*
X89663008Y-93527499D01*
X89765797Y-93516999D01*
X89932334Y-93461814D01*
X90081656Y-93369712D01*
X90205712Y-93245656D01*
X90297814Y-93096334D01*
X90352999Y-92929797D01*
X90363500Y-92827009D01*
X90363499Y-92026992D01*
X90352999Y-91924203D01*
X90297814Y-91757666D01*
X90205712Y-91608344D01*
X90081656Y-91484288D01*
X90081652Y-91484285D01*
X90017456Y-91444688D01*
X89970731Y-91392740D01*
X89959510Y-91323777D01*
X89987353Y-91259695D01*
X89994850Y-91251491D01*
X90102414Y-91143928D01*
X90204232Y-91003788D01*
X90282873Y-90849445D01*
X90336402Y-90684701D01*
X90363500Y-90513611D01*
X90363500Y-90340389D01*
X90336402Y-90169299D01*
X90282873Y-90004555D01*
X90204232Y-89850212D01*
X90102414Y-89710072D01*
X89979928Y-89587586D01*
X89839788Y-89485768D01*
X89685445Y-89407127D01*
X89520701Y-89353598D01*
X89520699Y-89353597D01*
X89520698Y-89353597D01*
X89389271Y-89332781D01*
X89349611Y-89326500D01*
X88626389Y-89326500D01*
X88586728Y-89332781D01*
X88455302Y-89353597D01*
X88290552Y-89407128D01*
X88136211Y-89485768D01*
X88056256Y-89543859D01*
X87996072Y-89587586D01*
X87996070Y-89587588D01*
X87996069Y-89587588D01*
X87873588Y-89710069D01*
X87873588Y-89710070D01*
X87873586Y-89710072D01*
X87841344Y-89754449D01*
X87771768Y-89850211D01*
X87693128Y-90004552D01*
X87639597Y-90169302D01*
X87622694Y-90276024D01*
X87612500Y-90340389D01*
X80891554Y-90340389D01*
X80891554Y-89123153D01*
X93762500Y-89123153D01*
X93762500Y-89280846D01*
X93793261Y-89435489D01*
X93793264Y-89435501D01*
X93853602Y-89581172D01*
X93853606Y-89581179D01*
X93891602Y-89638044D01*
X93912480Y-89704721D01*
X93912500Y-89706935D01*
X93912500Y-92716069D01*
X93912500Y-92716071D01*
X93912499Y-92716071D01*
X93934567Y-92827005D01*
X93937497Y-92841738D01*
X93937500Y-92841747D01*
X93986532Y-92960123D01*
X93986535Y-92960127D01*
X94037749Y-93036776D01*
X94057726Y-93066673D01*
X94057727Y-93066674D01*
X98570984Y-97579930D01*
X98604469Y-97641253D01*
X98604920Y-97643420D01*
X98618261Y-97710489D01*
X98618264Y-97710501D01*
X98678602Y-97856172D01*
X98678609Y-97856185D01*
X98766210Y-97987288D01*
X98766213Y-97987292D01*
X98877707Y-98098786D01*
X98877711Y-98098789D01*
X99008814Y-98186390D01*
X99008827Y-98186397D01*
X99154498Y-98246735D01*
X99154503Y-98246737D01*
X99309153Y-98277499D01*
X99309156Y-98277500D01*
X99309158Y-98277500D01*
X99466844Y-98277500D01*
X99466845Y-98277499D01*
X99621497Y-98246737D01*
X99767179Y-98186394D01*
X99898289Y-98098789D01*
X100009789Y-97987289D01*
X100097394Y-97856179D01*
X100157737Y-97710497D01*
X100188500Y-97555842D01*
X100188500Y-97398158D01*
X100188500Y-97398155D01*
X100188499Y-97398153D01*
X100157738Y-97243510D01*
X100157737Y-97243503D01*
X100150695Y-97226501D01*
X100097397Y-97097827D01*
X100097390Y-97097814D01*
X100009789Y-96966711D01*
X100009786Y-96966707D01*
X99898292Y-96855213D01*
X99898288Y-96855210D01*
X99767185Y-96767609D01*
X99767172Y-96767602D01*
X99621501Y-96707264D01*
X99621489Y-96707261D01*
X99554420Y-96693920D01*
X99492509Y-96661535D01*
X99490930Y-96659984D01*
X96460523Y-93629577D01*
X98438975Y-93629577D01*
X98544236Y-93673178D01*
X98544240Y-93673179D01*
X98689126Y-93701999D01*
X98689129Y-93702000D01*
X98836871Y-93702000D01*
X98836873Y-93701999D01*
X98981760Y-93673179D01*
X98981775Y-93673175D01*
X99087024Y-93629578D01*
X99087024Y-93629577D01*
X99938975Y-93629577D01*
X100044236Y-93673178D01*
X100044240Y-93673179D01*
X100189126Y-93701999D01*
X100189129Y-93702000D01*
X100336871Y-93702000D01*
X100336873Y-93701999D01*
X100481760Y-93673179D01*
X100481775Y-93673175D01*
X100587024Y-93629578D01*
X100587024Y-93629577D01*
X100263001Y-93305554D01*
X100263000Y-93305554D01*
X99938975Y-93629577D01*
X99087024Y-93629577D01*
X98763001Y-93305554D01*
X98763000Y-93305554D01*
X98438975Y-93629577D01*
X96460523Y-93629577D01*
X95709072Y-92878126D01*
X98013000Y-92878126D01*
X98013000Y-93025873D01*
X98041820Y-93170759D01*
X98041822Y-93170767D01*
X98085421Y-93276024D01*
X98409446Y-92952000D01*
X98409446Y-92951999D01*
X98389556Y-92932109D01*
X98663000Y-92932109D01*
X98663000Y-92971891D01*
X98678224Y-93008645D01*
X98706355Y-93036776D01*
X98743109Y-93052000D01*
X98782891Y-93052000D01*
X98819645Y-93036776D01*
X98847776Y-93008645D01*
X98863000Y-92971891D01*
X98863000Y-92951999D01*
X99116554Y-92951999D01*
X99116554Y-92952001D01*
X99440576Y-93276023D01*
X99488807Y-93266430D01*
X99537191Y-93266430D01*
X99585422Y-93276024D01*
X99909446Y-92952000D01*
X99909446Y-92951999D01*
X99889556Y-92932109D01*
X100163000Y-92932109D01*
X100163000Y-92971891D01*
X100178224Y-93008645D01*
X100206355Y-93036776D01*
X100243109Y-93052000D01*
X100282891Y-93052000D01*
X100319645Y-93036776D01*
X100347776Y-93008645D01*
X100363000Y-92971891D01*
X100363000Y-92951999D01*
X100616554Y-92951999D01*
X100616554Y-92952001D01*
X100940577Y-93276024D01*
X100940578Y-93276024D01*
X100984175Y-93170775D01*
X100984179Y-93170760D01*
X101012999Y-93025873D01*
X101013000Y-93025871D01*
X101013000Y-92878128D01*
X101012999Y-92878126D01*
X100984179Y-92733240D01*
X100984176Y-92733227D01*
X100960210Y-92675370D01*
X100960198Y-92675343D01*
X100943064Y-92633977D01*
X144176500Y-92633977D01*
X144176500Y-92834022D01*
X144215523Y-93030203D01*
X144215526Y-93030215D01*
X144292071Y-93215013D01*
X144292078Y-93215026D01*
X144366729Y-93326749D01*
X144387607Y-93393427D01*
X144369122Y-93460807D01*
X144351312Y-93483317D01*
X144334293Y-93500337D01*
X144334289Y-93500342D01*
X144334288Y-93500344D01*
X144293287Y-93566816D01*
X144242187Y-93649663D01*
X144242185Y-93649668D01*
X144224844Y-93702000D01*
X144187001Y-93816203D01*
X144187001Y-93816204D01*
X144187000Y-93816204D01*
X144176500Y-93918983D01*
X144176500Y-94549001D01*
X144176501Y-94549019D01*
X144187000Y-94651796D01*
X144187001Y-94651799D01*
X144242185Y-94818331D01*
X144242187Y-94818336D01*
X144277069Y-94874888D01*
X144334288Y-94967656D01*
X144458344Y-95091712D01*
X144607666Y-95183814D01*
X144774203Y-95238999D01*
X144876991Y-95249500D01*
X146207008Y-95249499D01*
X146309797Y-95238999D01*
X146476334Y-95183814D01*
X146625656Y-95091712D01*
X146749712Y-94967656D01*
X146841814Y-94818334D01*
X146896999Y-94651797D01*
X146907500Y-94549009D01*
X146907499Y-93918992D01*
X146896999Y-93816203D01*
X146841814Y-93649666D01*
X146749712Y-93500344D01*
X146732690Y-93483322D01*
X146699205Y-93421999D01*
X146704189Y-93352307D01*
X146717269Y-93326750D01*
X146751164Y-93276023D01*
X146791925Y-93215020D01*
X146868475Y-93030211D01*
X146907500Y-92834018D01*
X146907500Y-92633982D01*
X146868475Y-92437789D01*
X146838792Y-92366127D01*
X146791928Y-92252986D01*
X146791921Y-92252973D01*
X146680791Y-92086656D01*
X146680788Y-92086652D01*
X146539347Y-91945211D01*
X146539343Y-91945208D01*
X146373026Y-91834078D01*
X146373013Y-91834071D01*
X146188215Y-91757526D01*
X146188203Y-91757523D01*
X145992022Y-91718500D01*
X145992018Y-91718500D01*
X145091982Y-91718500D01*
X145091977Y-91718500D01*
X144895796Y-91757523D01*
X144895784Y-91757526D01*
X144710986Y-91834071D01*
X144710973Y-91834078D01*
X144544656Y-91945208D01*
X144544652Y-91945211D01*
X144403211Y-92086652D01*
X144403208Y-92086656D01*
X144292078Y-92252973D01*
X144292071Y-92252986D01*
X144215526Y-92437784D01*
X144215523Y-92437796D01*
X144176500Y-92633977D01*
X100943064Y-92633977D01*
X100940577Y-92627974D01*
X100616554Y-92951999D01*
X100363000Y-92951999D01*
X100363000Y-92932109D01*
X100347776Y-92895355D01*
X100319645Y-92867224D01*
X100282891Y-92852000D01*
X100243109Y-92852000D01*
X100206355Y-92867224D01*
X100178224Y-92895355D01*
X100163000Y-92932109D01*
X99889556Y-92932109D01*
X99585421Y-92627974D01*
X99537190Y-92637568D01*
X99488808Y-92637568D01*
X99440577Y-92627974D01*
X99116554Y-92951999D01*
X98863000Y-92951999D01*
X98863000Y-92932109D01*
X98847776Y-92895355D01*
X98819645Y-92867224D01*
X98782891Y-92852000D01*
X98743109Y-92852000D01*
X98706355Y-92867224D01*
X98678224Y-92895355D01*
X98663000Y-92932109D01*
X98389556Y-92932109D01*
X98085421Y-92627974D01*
X98085420Y-92627974D01*
X98041823Y-92733228D01*
X98041820Y-92733240D01*
X98013000Y-92878126D01*
X95709072Y-92878126D01*
X95249819Y-92418873D01*
X95235115Y-92391945D01*
X95218523Y-92366127D01*
X95217631Y-92359926D01*
X95216334Y-92357550D01*
X95213500Y-92331192D01*
X95213500Y-92129577D01*
X98438974Y-92129577D01*
X98448568Y-92177808D01*
X98448568Y-92226190D01*
X98438974Y-92274421D01*
X98763000Y-92598446D01*
X98763001Y-92598446D01*
X99087024Y-92274422D01*
X99077430Y-92226191D01*
X99077430Y-92217853D01*
X99075540Y-92213050D01*
X99077430Y-92177807D01*
X99087023Y-92129577D01*
X99938974Y-92129577D01*
X99948568Y-92177808D01*
X99948568Y-92226190D01*
X99938974Y-92274421D01*
X100263000Y-92598446D01*
X100263001Y-92598446D01*
X100587024Y-92274422D01*
X100577430Y-92226191D01*
X100577430Y-92177807D01*
X100587023Y-92129576D01*
X100263001Y-91805554D01*
X100263000Y-91805554D01*
X99938974Y-92129577D01*
X99087023Y-92129577D01*
X99087023Y-92129576D01*
X98763001Y-91805554D01*
X98763000Y-91805554D01*
X98438974Y-92129577D01*
X95213500Y-92129577D01*
X95213500Y-91378126D01*
X98013000Y-91378126D01*
X98013000Y-91525873D01*
X98041820Y-91670759D01*
X98041822Y-91670767D01*
X98085421Y-91776024D01*
X98409446Y-91452000D01*
X98409446Y-91451999D01*
X98389556Y-91432109D01*
X98663000Y-91432109D01*
X98663000Y-91471891D01*
X98678224Y-91508645D01*
X98706355Y-91536776D01*
X98743109Y-91552000D01*
X98782891Y-91552000D01*
X98819645Y-91536776D01*
X98847776Y-91508645D01*
X98863000Y-91471891D01*
X98863000Y-91451999D01*
X99116554Y-91451999D01*
X99116554Y-91452001D01*
X99440576Y-91776023D01*
X99488807Y-91766430D01*
X99537191Y-91766430D01*
X99585422Y-91776024D01*
X99909446Y-91452000D01*
X99909446Y-91451999D01*
X99889556Y-91432109D01*
X100163000Y-91432109D01*
X100163000Y-91471891D01*
X100178224Y-91508645D01*
X100206355Y-91536776D01*
X100243109Y-91552000D01*
X100282891Y-91552000D01*
X100319645Y-91536776D01*
X100347776Y-91508645D01*
X100363000Y-91471891D01*
X100363000Y-91451999D01*
X100616554Y-91451999D01*
X100616554Y-91452001D01*
X100940577Y-91776024D01*
X100940578Y-91776024D01*
X100984175Y-91670775D01*
X100984179Y-91670760D01*
X101012999Y-91525873D01*
X101013000Y-91525871D01*
X101013000Y-91378128D01*
X101012999Y-91378126D01*
X100984179Y-91233240D01*
X100984178Y-91233236D01*
X100940577Y-91127975D01*
X100616554Y-91451999D01*
X100363000Y-91451999D01*
X100363000Y-91432109D01*
X100347776Y-91395355D01*
X100319645Y-91367224D01*
X100282891Y-91352000D01*
X100243109Y-91352000D01*
X100206355Y-91367224D01*
X100178224Y-91395355D01*
X100163000Y-91432109D01*
X99889556Y-91432109D01*
X99585421Y-91127974D01*
X99537190Y-91137568D01*
X99488808Y-91137568D01*
X99440577Y-91127974D01*
X99116554Y-91451999D01*
X98863000Y-91451999D01*
X98863000Y-91432109D01*
X98847776Y-91395355D01*
X98819645Y-91367224D01*
X98782891Y-91352000D01*
X98743109Y-91352000D01*
X98706355Y-91367224D01*
X98678224Y-91395355D01*
X98663000Y-91432109D01*
X98389556Y-91432109D01*
X98085421Y-91127974D01*
X98085420Y-91127974D01*
X98041823Y-91233228D01*
X98041820Y-91233240D01*
X98013000Y-91378126D01*
X95213500Y-91378126D01*
X95213500Y-90629577D01*
X98438974Y-90629577D01*
X98448568Y-90677808D01*
X98448568Y-90726190D01*
X98438974Y-90774421D01*
X98763000Y-91098446D01*
X98763001Y-91098446D01*
X99087024Y-90774422D01*
X99077430Y-90726191D01*
X99077430Y-90717853D01*
X99075540Y-90713050D01*
X99077430Y-90677807D01*
X99087023Y-90629577D01*
X99938974Y-90629577D01*
X99948568Y-90677808D01*
X99948568Y-90726190D01*
X99938974Y-90774421D01*
X100263000Y-91098446D01*
X100263001Y-91098446D01*
X100587024Y-90774422D01*
X100577430Y-90726191D01*
X100577430Y-90677807D01*
X100587023Y-90629576D01*
X100263001Y-90305554D01*
X100263000Y-90305554D01*
X99938974Y-90629577D01*
X99087023Y-90629577D01*
X99087023Y-90629576D01*
X98763001Y-90305554D01*
X98763000Y-90305554D01*
X98438974Y-90629577D01*
X95213500Y-90629577D01*
X95213500Y-89878126D01*
X98013000Y-89878126D01*
X98013000Y-90025873D01*
X98041820Y-90170759D01*
X98041822Y-90170767D01*
X98085421Y-90276024D01*
X98409446Y-89952000D01*
X98409446Y-89951999D01*
X98389556Y-89932109D01*
X98663000Y-89932109D01*
X98663000Y-89971891D01*
X98678224Y-90008645D01*
X98706355Y-90036776D01*
X98743109Y-90052000D01*
X98782891Y-90052000D01*
X98819645Y-90036776D01*
X98847776Y-90008645D01*
X98863000Y-89971891D01*
X98863000Y-89951999D01*
X99116554Y-89951999D01*
X99116554Y-89952001D01*
X99440576Y-90276023D01*
X99488807Y-90266430D01*
X99537191Y-90266430D01*
X99585422Y-90276024D01*
X99909446Y-89952000D01*
X99909446Y-89951999D01*
X99889556Y-89932109D01*
X100163000Y-89932109D01*
X100163000Y-89971891D01*
X100178224Y-90008645D01*
X100206355Y-90036776D01*
X100243109Y-90052000D01*
X100282891Y-90052000D01*
X100319645Y-90036776D01*
X100347776Y-90008645D01*
X100363000Y-89971891D01*
X100363000Y-89951999D01*
X100616554Y-89951999D01*
X100616554Y-89952001D01*
X100940577Y-90276024D01*
X100940578Y-90276024D01*
X100984175Y-90170775D01*
X100984179Y-90170760D01*
X101012999Y-90025873D01*
X101013000Y-90025871D01*
X101013000Y-89878128D01*
X101012999Y-89878126D01*
X100984179Y-89733240D01*
X100984178Y-89733236D01*
X100940577Y-89627975D01*
X100616554Y-89951999D01*
X100363000Y-89951999D01*
X100363000Y-89932109D01*
X100347776Y-89895355D01*
X100319645Y-89867224D01*
X100282891Y-89852000D01*
X100243109Y-89852000D01*
X100206355Y-89867224D01*
X100178224Y-89895355D01*
X100163000Y-89932109D01*
X99889556Y-89932109D01*
X99585421Y-89627974D01*
X99537190Y-89637568D01*
X99488808Y-89637568D01*
X99440577Y-89627974D01*
X99116554Y-89951999D01*
X98863000Y-89951999D01*
X98863000Y-89932109D01*
X98847776Y-89895355D01*
X98819645Y-89867224D01*
X98782891Y-89852000D01*
X98743109Y-89852000D01*
X98706355Y-89867224D01*
X98678224Y-89895355D01*
X98663000Y-89932109D01*
X98389556Y-89932109D01*
X98085421Y-89627974D01*
X98085420Y-89627974D01*
X98041823Y-89733228D01*
X98041820Y-89733240D01*
X98013000Y-89878126D01*
X95213500Y-89878126D01*
X95213500Y-89706935D01*
X95233185Y-89639896D01*
X95234366Y-89638090D01*
X95272394Y-89581179D01*
X95332737Y-89435497D01*
X95354418Y-89326500D01*
X95361471Y-89291045D01*
X95361471Y-89291043D01*
X95363500Y-89280843D01*
X95363500Y-89274420D01*
X98438974Y-89274420D01*
X98438974Y-89274421D01*
X98763000Y-89598446D01*
X98763001Y-89598446D01*
X99087024Y-89274421D01*
X99087022Y-89274420D01*
X99938974Y-89274420D01*
X99938974Y-89274421D01*
X100263000Y-89598446D01*
X100263001Y-89598446D01*
X100587024Y-89274421D01*
X100481767Y-89230822D01*
X100481759Y-89230820D01*
X100336872Y-89202000D01*
X100189128Y-89202000D01*
X100044240Y-89230820D01*
X100044228Y-89230823D01*
X99938974Y-89274420D01*
X99087022Y-89274420D01*
X98981767Y-89230822D01*
X98981759Y-89230820D01*
X98836872Y-89202000D01*
X98689128Y-89202000D01*
X98544240Y-89230820D01*
X98544228Y-89230823D01*
X98438974Y-89274420D01*
X95363500Y-89274420D01*
X95363500Y-89123155D01*
X95363499Y-89123153D01*
X95332738Y-88968510D01*
X95332737Y-88968503D01*
X95332735Y-88968498D01*
X95272397Y-88822827D01*
X95272390Y-88822814D01*
X95184789Y-88691711D01*
X95184786Y-88691707D01*
X95073292Y-88580213D01*
X95073288Y-88580210D01*
X94942185Y-88492609D01*
X94942172Y-88492602D01*
X94796501Y-88432264D01*
X94796491Y-88432261D01*
X94706732Y-88414407D01*
X94706731Y-88414406D01*
X94641845Y-88401500D01*
X94641842Y-88401500D01*
X94484158Y-88401500D01*
X94484155Y-88401500D01*
X94329510Y-88432261D01*
X94329498Y-88432264D01*
X94183827Y-88492602D01*
X94183814Y-88492609D01*
X94052711Y-88580210D01*
X94052707Y-88580213D01*
X93941213Y-88691707D01*
X93941210Y-88691711D01*
X93853609Y-88822814D01*
X93853602Y-88822827D01*
X93793264Y-88968498D01*
X93793261Y-88968510D01*
X93762500Y-89123153D01*
X80891554Y-89123153D01*
X80891554Y-88297662D01*
X148953449Y-88297662D01*
X148953449Y-88510236D01*
X148953848Y-88512753D01*
X148969275Y-88610160D01*
X148986703Y-88720192D01*
X149020051Y-88822827D01*
X149052393Y-88922363D01*
X149148900Y-89111769D01*
X149273839Y-89283735D01*
X149424162Y-89434058D01*
X149596128Y-89558997D01*
X149596130Y-89558998D01*
X149596133Y-89559000D01*
X149785537Y-89655506D01*
X149987706Y-89721195D01*
X150197662Y-89754449D01*
X150197663Y-89754449D01*
X150358224Y-89754449D01*
X150425263Y-89774134D01*
X150471018Y-89826938D01*
X150480962Y-89896096D01*
X150471018Y-89929961D01*
X150412753Y-90057540D01*
X150412752Y-90057544D01*
X150392272Y-90200000D01*
X150412752Y-90342455D01*
X150412753Y-90342459D01*
X150472539Y-90473370D01*
X150472540Y-90473371D01*
X150472541Y-90473373D01*
X150510160Y-90520056D01*
X150510163Y-90520059D01*
X150510168Y-90520065D01*
X151598448Y-91608342D01*
X151779944Y-91789838D01*
X151779948Y-91789841D01*
X151779950Y-91789843D01*
X151826626Y-91827459D01*
X151957540Y-91887246D01*
X151957541Y-91887246D01*
X151957543Y-91887247D01*
X152100000Y-91907728D01*
X152242457Y-91887247D01*
X152373373Y-91827459D01*
X152420056Y-91789840D01*
X153689838Y-90520056D01*
X153727459Y-90473373D01*
X153787247Y-90342457D01*
X153807728Y-90200000D01*
X153787247Y-90057543D01*
X153727459Y-89926627D01*
X153689840Y-89879944D01*
X153689835Y-89879939D01*
X153689831Y-89879934D01*
X152420059Y-88610165D01*
X152420053Y-88610160D01*
X152420049Y-88610156D01*
X152373373Y-88572540D01*
X152242459Y-88512753D01*
X152242455Y-88512752D01*
X152100000Y-88492272D01*
X151957544Y-88512752D01*
X151957536Y-88512754D01*
X151829960Y-88571017D01*
X151760802Y-88580961D01*
X151697246Y-88551936D01*
X151659472Y-88493158D01*
X151654449Y-88458223D01*
X151654449Y-88297662D01*
X151621195Y-88087709D01*
X151621195Y-88087706D01*
X151555506Y-87885537D01*
X151459000Y-87696133D01*
X151458998Y-87696130D01*
X151458997Y-87696128D01*
X151334058Y-87524162D01*
X151183735Y-87373839D01*
X151011769Y-87248900D01*
X150822363Y-87152393D01*
X150822362Y-87152392D01*
X150822361Y-87152392D01*
X150620192Y-87086703D01*
X150620190Y-87086702D01*
X150620189Y-87086702D01*
X150458906Y-87061157D01*
X150410236Y-87053449D01*
X150197662Y-87053449D01*
X150148991Y-87061157D01*
X149987709Y-87086702D01*
X149785534Y-87152393D01*
X149596128Y-87248900D01*
X149424162Y-87373839D01*
X149273839Y-87524162D01*
X149148900Y-87696128D01*
X149052393Y-87885534D01*
X148986702Y-88087709D01*
X148953449Y-88297662D01*
X80891554Y-88297662D01*
X80891554Y-87642541D01*
X80891556Y-87634296D01*
X80891560Y-87634286D01*
X80891559Y-87628034D01*
X80891579Y-87627964D01*
X80891574Y-87576703D01*
X80891575Y-87576703D01*
X80891568Y-87505837D01*
X80869385Y-87365851D01*
X80825579Y-87231058D01*
X80761229Y-87104776D01*
X80677923Y-86990118D01*
X80677923Y-86990117D01*
X80677919Y-86990113D01*
X80665090Y-86977284D01*
X78668499Y-84980693D01*
X78668486Y-84980669D01*
X78645121Y-84957310D01*
X78628009Y-84925965D01*
X78611648Y-84896012D01*
X78611649Y-84895997D01*
X78611643Y-84895986D01*
X78613912Y-84864283D01*
X78616623Y-84826320D01*
X78616632Y-84826305D01*
X78616633Y-84826295D01*
X78616675Y-84826237D01*
X78645132Y-84781955D01*
X78668514Y-84758575D01*
X78668514Y-84758574D01*
X78677409Y-84749680D01*
X78677421Y-84749664D01*
X82122622Y-81304464D01*
X82122625Y-81304463D01*
X82146019Y-81281068D01*
X82176024Y-81264685D01*
X82207333Y-81247589D01*
X82207336Y-81247589D01*
X82207341Y-81247587D01*
X82242683Y-81250116D01*
X82277025Y-81252571D01*
X82277029Y-81252573D01*
X82277032Y-81252574D01*
X82277046Y-81252584D01*
X82321376Y-81281073D01*
X84259000Y-83218697D01*
X84259021Y-83218720D01*
X84267733Y-83227431D01*
X84267736Y-83227438D01*
X84267738Y-83227437D01*
X84354170Y-83313869D01*
X84371510Y-83326467D01*
X84468840Y-83397180D01*
X84595131Y-83461528D01*
X84595137Y-83461530D01*
X84595135Y-83461530D01*
X84729931Y-83505326D01*
X84729934Y-83505327D01*
X84869928Y-83527500D01*
X84869929Y-83527500D01*
X114976692Y-83527500D01*
X114976693Y-83527499D01*
X115034681Y-83515964D01*
X115150657Y-83492896D01*
X115150660Y-83492894D01*
X115150665Y-83492894D01*
X115314546Y-83425013D01*
X115462035Y-83326464D01*
X115587464Y-83201035D01*
X115686013Y-83053546D01*
X115753894Y-82889665D01*
X115788500Y-82715690D01*
X115788500Y-82626998D01*
X115788500Y-82601448D01*
X115788500Y-81151500D01*
X115808185Y-81084461D01*
X115860989Y-81038706D01*
X115912500Y-81027500D01*
X118335274Y-81027500D01*
X120830417Y-81027500D01*
X120863501Y-81027500D01*
X120930540Y-81047185D01*
G37*
%TD.AperFunction*%
%TD*%
M02*
